<svg width="719" height="142" viewBox="0 0 719 142" fill="none" xmlns="http://www.w3.org/2000/svg">
<path d="M4.814 15.4H14.21V48.344H34.568V56H4.814V15.4ZM71.2539 48.46V56H39.8179V15.4H70.4999V22.94H49.1559V31.756H68.0059V39.064H49.1559V48.46H71.2539ZM105.468 47.3H86.618L83.022 56H73.394L91.49 15.4H100.77L118.924 56H109.064L105.468 47.3ZM102.51 40.166L96.072 24.622L89.634 40.166H102.51ZM149.004 56L141.174 44.69H140.71H132.532V56H123.136V15.4H140.71C144.306 15.4 147.419 15.9993 150.048 17.198C152.716 18.3967 154.766 20.098 156.196 22.302C157.627 24.506 158.342 27.116 158.342 30.132C158.342 33.148 157.608 35.758 156.138 37.962C154.708 40.1273 152.658 41.79 149.99 42.95L159.096 56H149.004ZM148.83 30.132C148.83 27.8507 148.096 26.1107 146.626 24.912C145.157 23.6747 143.011 23.056 140.188 23.056H132.532V37.208H140.188C143.011 37.208 145.157 36.5893 146.626 35.352C148.096 34.1147 148.83 32.3747 148.83 30.132ZM203.023 15.4V56H195.309L175.067 31.35V56H165.787V15.4H173.559L193.743 40.05V15.4H203.023ZM237.464 23.056H224.472V15.4H259.852V23.056H246.86V56H237.464V23.056ZM284.003 56.696C279.789 56.696 275.98 55.7873 272.577 53.97C269.213 52.1527 266.565 49.6587 264.631 46.488C262.737 43.2787 261.789 39.6827 261.789 35.7C261.789 31.7173 262.737 28.1407 264.631 24.97C266.565 21.7607 269.213 19.2473 272.577 17.43C275.98 15.6127 279.789 14.704 284.003 14.704C288.218 14.704 292.007 15.6127 295.371 17.43C298.735 19.2473 301.384 21.7607 303.317 24.97C305.251 28.1407 306.217 31.7173 306.217 35.7C306.217 39.6827 305.251 43.2787 303.317 46.488C301.384 49.6587 298.735 52.1527 295.371 53.97C292.007 55.7873 288.218 56.696 284.003 56.696ZM284.003 48.692C286.401 48.692 288.566 48.1507 290.499 47.068C292.433 45.9467 293.941 44.4 295.023 42.428C296.145 40.456 296.705 38.2133 296.705 35.7C296.705 33.1867 296.145 30.944 295.023 28.972C293.941 27 292.433 25.4727 290.499 24.39C288.566 23.2687 286.401 22.708 284.003 22.708C281.606 22.708 279.441 23.2687 277.507 24.39C275.574 25.4727 274.047 27 272.925 28.972C271.843 30.944 271.301 33.1867 271.301 35.7C271.301 38.2133 271.843 40.456 272.925 42.428C274.047 44.4 275.574 45.9467 277.507 47.068C279.441 48.1507 281.606 48.692 284.003 48.692ZM349.135 56.696C344.997 56.696 341.247 55.8067 337.883 54.028C334.557 52.2107 331.928 49.7167 329.995 46.546C328.1 43.3367 327.153 39.7213 327.153 35.7C327.153 31.6787 328.1 28.0827 329.995 24.912C331.928 21.7027 334.557 19.2087 337.883 17.43C341.247 15.6127 345.017 14.704 349.193 14.704C352.711 14.704 355.882 15.3227 358.705 16.56C361.566 17.7973 363.963 19.576 365.897 21.896L359.865 27.464C357.119 24.2933 353.717 22.708 349.657 22.708C347.143 22.708 344.901 23.2687 342.929 24.39C340.957 25.4727 339.41 27 338.289 28.972C337.206 30.944 336.665 33.1867 336.665 35.7C336.665 38.2133 337.206 40.456 338.289 42.428C339.41 44.4 340.957 45.9467 342.929 47.068C344.901 48.1507 347.143 48.692 349.657 48.692C353.717 48.692 357.119 47.0873 359.865 43.878L365.897 49.446C363.963 51.8047 361.566 53.6027 358.705 54.84C355.843 56.0773 352.653 56.696 349.135 56.696ZM391.054 56.696C386.839 56.696 383.031 55.7873 379.628 53.97C376.264 52.1527 373.615 49.6587 371.682 46.488C369.787 43.2787 368.84 39.6827 368.84 35.7C368.84 31.7173 369.787 28.1407 371.682 24.97C373.615 21.7607 376.264 19.2473 379.628 17.43C383.031 15.6127 386.839 14.704 391.054 14.704C395.269 14.704 399.058 15.6127 402.422 17.43C405.786 19.2473 408.435 21.7607 410.368 24.97C412.301 28.1407 413.268 31.7173 413.268 35.7C413.268 39.6827 412.301 43.2787 410.368 46.488C408.435 49.6587 405.786 52.1527 402.422 53.97C399.058 55.7873 395.269 56.696 391.054 56.696ZM391.054 48.692C393.451 48.692 395.617 48.1507 397.55 47.068C399.483 45.9467 400.991 44.4 402.074 42.428C403.195 40.456 403.756 38.2133 403.756 35.7C403.756 33.1867 403.195 30.944 402.074 28.972C400.991 27 399.483 25.4727 397.55 24.39C395.617 23.2687 393.451 22.708 391.054 22.708C388.657 22.708 386.491 23.2687 384.558 24.39C382.625 25.4727 381.097 27 379.976 28.972C378.893 30.944 378.352 33.1867 378.352 35.7C378.352 38.2133 378.893 40.456 379.976 42.428C381.097 44.4 382.625 45.9467 384.558 47.068C386.491 48.1507 388.657 48.692 391.054 48.692ZM439.992 56.696C435.777 56.696 431.968 55.7873 428.566 53.97C425.202 52.1527 422.553 49.6587 420.62 46.488C418.725 43.2787 417.778 39.6827 417.778 35.7C417.778 31.7173 418.725 28.1407 420.62 24.97C422.553 21.7607 425.202 19.2473 428.566 17.43C431.968 15.6127 435.777 14.704 439.992 14.704C444.206 14.704 447.996 15.6127 451.36 17.43C454.724 19.2473 457.372 21.7607 459.306 24.97C461.239 28.1407 462.206 31.7173 462.206 35.7C462.206 39.6827 461.239 43.2787 459.306 46.488C457.372 49.6587 454.724 52.1527 451.36 53.97C447.996 55.7873 444.206 56.696 439.992 56.696ZM439.992 48.692C442.389 48.692 444.554 48.1507 446.488 47.068C448.421 45.9467 449.929 44.4 451.012 42.428C452.133 40.456 452.694 38.2133 452.694 35.7C452.694 33.1867 452.133 30.944 451.012 28.972C449.929 27 448.421 25.4727 446.488 24.39C444.554 23.2687 442.389 22.708 439.992 22.708C437.594 22.708 435.429 23.2687 433.496 24.39C431.562 25.4727 430.035 27 428.914 28.972C427.831 30.944 427.29 33.1867 427.29 35.7C427.29 38.2133 427.831 40.456 428.914 42.428C430.035 44.4 431.562 45.9467 433.496 47.068C435.429 48.1507 437.594 48.692 439.992 48.692ZM484.057 40.05L478.605 45.734V56H469.267V15.4H478.605V34.366L496.585 15.4H507.025L490.205 33.496L508.011 56H497.049L484.057 40.05ZM538.023 22.94V33.67H556.815V41.21H538.023V56H528.627V15.4H559.309V22.94H538.023ZM591.537 56L583.707 44.69H583.243H575.065V56H565.669V15.4H583.243C586.839 15.4 589.952 15.9993 592.581 17.198C595.249 18.3967 597.299 20.098 598.729 22.302C600.16 24.506 600.875 27.116 600.875 30.132C600.875 33.148 600.141 35.758 598.671 37.962C597.241 40.1273 595.191 41.79 592.523 42.95L601.629 56H591.537ZM591.363 30.132C591.363 27.8507 590.629 26.1107 589.159 24.912C587.69 23.6747 585.544 23.056 582.721 23.056H575.065V37.208H582.721C585.544 37.208 587.69 36.5893 589.159 35.352C590.629 34.1147 591.363 32.3747 591.363 30.132ZM627.982 56.696C623.767 56.696 619.959 55.7873 616.556 53.97C613.192 52.1527 610.543 49.6587 608.61 46.488C606.715 43.2787 605.768 39.6827 605.768 35.7C605.768 31.7173 606.715 28.1407 608.61 24.97C610.543 21.7607 613.192 19.2473 616.556 17.43C619.959 15.6127 623.767 14.704 627.982 14.704C632.197 14.704 635.986 15.6127 639.35 17.43C642.714 19.2473 645.363 21.7607 647.296 24.97C649.229 28.1407 650.196 31.7173 650.196 35.7C650.196 39.6827 649.229 43.2787 647.296 46.488C645.363 49.6587 642.714 52.1527 639.35 53.97C635.986 55.7873 632.197 56.696 627.982 56.696ZM627.982 48.692C630.379 48.692 632.545 48.1507 634.478 47.068C636.411 45.9467 637.919 44.4 639.002 42.428C640.123 40.456 640.684 38.2133 640.684 35.7C640.684 33.1867 640.123 30.944 639.002 28.972C637.919 27 636.411 25.4727 634.478 24.39C632.545 23.2687 630.379 22.708 627.982 22.708C625.585 22.708 623.419 23.2687 621.486 24.39C619.553 25.4727 618.025 27 616.904 28.972C615.821 30.944 615.28 33.1867 615.28 35.7C615.28 38.2133 615.821 40.456 616.904 42.428C618.025 44.4 619.553 45.9467 621.486 47.068C623.419 48.1507 625.585 48.692 627.982 48.692ZM694.203 56L694.145 31.64L682.197 51.708H677.963L666.073 32.162V56H657.257V15.4H665.029L680.225 40.63L695.189 15.4H702.903L703.019 56H694.203ZM42.05 86.4V127H32.654V110.354H14.21V127H4.814V86.4H14.21V102.408H32.654V86.4H42.05ZM71.3178 127.696C67.1031 127.696 63.2945 126.787 59.8918 124.97C56.5278 123.153 53.8791 120.659 51.9458 117.488C50.0511 114.279 49.1038 110.683 49.1038 106.7C49.1038 102.717 50.0511 99.1407 51.9458 95.97C53.8791 92.7607 56.5278 90.2473 59.8918 88.43C63.2945 86.6127 67.1031 85.704 71.3178 85.704C75.5325 85.704 79.3218 86.6127 82.6858 88.43C86.0498 90.2473 88.6985 92.7607 90.6318 95.97C92.5651 99.1407 93.5318 102.717 93.5318 106.7C93.5318 110.683 92.5651 114.279 90.6318 117.488C88.6985 120.659 86.0498 123.153 82.6858 124.97C79.3218 126.787 75.5325 127.696 71.3178 127.696ZM71.3178 119.692C73.7151 119.692 75.8805 119.151 77.8138 118.068C79.7471 116.947 81.2551 115.4 82.3378 113.428C83.4591 111.456 84.0198 109.213 84.0198 106.7C84.0198 104.187 83.4591 101.944 82.3378 99.972C81.2551 98 79.7471 96.4727 77.8138 95.39C75.8805 94.2687 73.7151 93.708 71.3178 93.708C68.9205 93.708 66.7551 94.2687 64.8218 95.39C62.8885 96.4727 61.3611 98 60.2398 99.972C59.1571 101.944 58.6158 104.187 58.6158 106.7C58.6158 109.213 59.1571 111.456 60.2398 113.428C61.3611 115.4 62.8885 116.947 64.8218 118.068C66.7551 119.151 68.9205 119.692 71.3178 119.692ZM137.539 127L137.481 102.64L125.533 122.708H121.299L109.409 103.162V127H100.593V86.4H108.365L123.561 111.63L138.525 86.4H146.239L146.355 127H137.539ZM187.424 119.46V127H155.988V86.4H186.67V93.94H165.326V102.756H184.176V110.064H165.326V119.46H187.424ZM211.326 86.4H220.722V119.344H241.08V127H211.326V86.4ZM246.33 86.4H255.726V127H246.33V86.4ZM280.151 111.05L274.699 116.734V127H265.361V86.4H274.699V105.366L292.679 86.4H303.119L286.299 104.496L304.105 127H293.143L280.151 111.05ZM339.73 119.46V127H308.294V86.4H338.976V93.94H317.632V102.756H336.482V110.064H317.632V119.46H339.73ZM390.37 118.3H371.52L367.924 127H358.296L376.392 86.4H385.672L403.826 127H393.966L390.37 118.3ZM387.412 111.166L380.974 95.622L374.536 111.166H387.412ZM443.894 127.696C439.757 127.696 436.006 126.807 432.642 125.028C429.317 123.211 426.688 120.717 424.754 117.546C422.86 114.337 421.912 110.721 421.912 106.7C421.912 102.679 422.86 99.0827 424.754 95.912C426.688 92.7027 429.317 90.2087 432.642 88.43C436.006 86.6127 439.776 85.704 443.952 85.704C447.471 85.704 450.642 86.3227 453.464 87.56C456.326 88.7973 458.723 90.576 460.656 92.896L454.624 98.464C451.879 95.2933 448.476 93.708 444.416 93.708C441.903 93.708 439.66 94.2687 437.688 95.39C435.716 96.4727 434.17 98 433.048 99.972C431.966 101.944 431.424 104.187 431.424 106.7C431.424 109.213 431.966 111.456 433.048 113.428C434.17 115.4 435.716 116.947 437.688 118.068C439.66 119.151 441.903 119.692 444.416 119.692C448.476 119.692 451.879 118.087 454.624 114.878L460.656 120.446C458.723 122.805 456.326 124.603 453.464 125.84C450.603 127.077 447.413 127.696 443.894 127.696ZM504.238 86.4V127H494.842V110.354H476.398V127H467.002V86.4H476.398V102.408H494.842V86.4H504.238ZM545.279 119.46V127H513.843V86.4H544.525V93.94H523.181V102.756H542.031V110.064H523.181V119.46H545.279ZM562.151 93.94V104.67H580.943V112.21H562.151V127H552.755V86.4H583.437V93.94H562.151Z" fill="#222E50"/>
<path d="M441.185 73.8823C440.649 74.918 439.927 75.8388 439.057 76.5954L438.987 76.6496L446 85.5L445.5 85.5C443.965 85.0603 443.192 85.8181 442.382 86.2626C434.405 88.293 435.943 90.3467 432.516 92.9925C429.932 94.9855 428.353 96.5772 425.167 101.084C423.713 102.473 422.29 103.973 420.936 105.5L414.041 95.9658C414.041 95.9658 414.017 95.9331 413.986 95.9285C413.675 95.6878 412.861 95.7054 412.861 95.7054L412.085 96.4346C406.907 100.434 399.413 98.673 396.593 92.6688C395.369 90.0604 395.276 87.1902 396.788 85.253C401.98 78.6229 406.379 73.3928 408.574 65.9652C410.498 59.3873 417.399 50.1531 431.93 50.5596C444.074 50.9138 445.266 66.4027 441.185 73.8823Z" fill="white"/>
<path d="M441.34 74.2007C440.758 75.3342 439.949 76.3271 438.968 77.1136C439.719 75.7135 442.263 71.3042 439.546 64.9203C439.546 64.9203 437.759 72.2082 435.273 73.3976C435.273 73.3976 435.868 69.7527 432.923 61.8871C432.948 62.2244 433.868 72.9999 428.56 77.8122C428.56 77.8122 431.113 69.379 423.153 62.4156C423.153 62.4156 427.342 83.1612 421.287 79.6269C416.83 77.0309 416.53 77.1383 416.513 77.1518C416.495 77.1654 422.487 83.9512 418.99 83.7266C416.643 83.5672 414.309 83.2594 411.999 82.805C411.999 82.805 413.269 85.932 417.536 86.7445C417.536 86.7445 409.097 94.473 402.258 90.5139C402.258 90.5139 406.279 96.8304 413.605 92.3779C413.605 92.3779 411.173 95.8292 408.872 95.6764C408.872 95.6764 410.038 96.8805 413.029 96.0192L412.254 96.7485C410.413 98.1787 408.164 98.9342 405.861 98.8955C403.96 98.8885 402.098 98.3312 400.488 97.287C398.877 96.2427 397.581 94.7532 396.748 92.9871C395.524 90.3787 395.431 87.5085 396.943 85.5713C402.135 78.9412 406.534 73.7112 408.729 66.2835C409.786 62.8016 411.698 59.6622 414.279 57.1711C418.1 53.4902 423.859 50.6494 432.05 50.8824C444.229 51.2321 445.421 66.721 441.34 74.2007Z" fill="white"/>
<path d="M414.278 57.1716C414.332 59.1162 414.508 62.1379 409.962 71.941C405.201 82.1979 391.473 87.9734 405.85 98.8815C403.952 98.8738 402.094 98.3178 400.485 97.2763C398.877 96.2348 397.582 94.7493 396.747 92.9876C395.523 90.3792 395.43 87.509 396.942 85.5718C402.135 78.9417 406.533 73.7117 408.729 66.284C409.786 62.8021 411.698 59.6627 414.278 57.1716Z" fill="#E2E3E5"/>
<path d="M435.273 73.3918C435.273 73.3918 435.868 69.7469 432.923 61.8813C432.948 62.2186 433.869 72.9941 428.56 77.8064C428.56 77.8064 431.113 69.3731 423.153 62.4097C423.153 62.4097 427.342 83.1554 421.287 79.6211C416.831 77.0251 416.53 77.1324 416.513 77.146C416.495 77.1596 422.487 83.9454 418.99 83.7208C416.643 83.5635 414.308 83.2578 411.998 82.8055C411.998 82.8055 413.268 85.9325 417.535 86.745C417.535 86.745 409.096 94.4735 402.258 90.5144C402.258 90.5144 406.278 96.8309 413.604 92.3784C413.604 92.3784 411.172 95.8297 408.871 95.6769C408.871 95.6769 410.038 96.881 413.029 96.0197C413.029 96.0197 413.843 96.0021 414.154 96.2429C414.154 96.2429 414.18 96.2792 414.208 96.2801L421.101 105.811C422.455 104.284 423.858 102.81 425.32 101.386C423.732 98.7591 422.384 95.6301 422.642 93.1395C423.168 87.9235 429.771 81.2061 435.582 80.0507C436.303 79.901 437.05 79.9651 437.737 80.2357C438.424 80.5062 439.023 80.9721 439.464 81.5796C440.929 83.5884 441.383 83.8275 442.61 86C443.423 85.5536 446.15 85.2231 448 86L439.133 76.9803L439.221 76.9124C440.019 75.419 442.187 71.1704 439.545 64.9208C439.536 64.9226 437.748 72.2105 435.273 73.3918Z" fill="#E2E3E5"/>
<path d="M445.5 85L448 86C446.548 86 446.154 86 445 86C441.802 86 438.308 87.1271 432.323 93.3117C428.854 96.8965 427.75 98.3304 425.321 101.403C424.146 102.888 423.651 103.708 421.917 106.934L420.247 104.653C424.354 99.7619 436.401 81.0829 445.5 85Z" fill="#E2E3E5"/>
</svg>
