<svg xmlns="http://www.w3.org/2000/svg" width="719" height="142" fill="none"  xmlns:v="https://vecta.io/nano"><path d="M4.814 15.4h9.396v32.944h20.358V56H4.814V15.4zm66.44 33.06V56H39.818V15.4H70.5v7.54H49.156v8.816h18.85v7.308h-18.85v9.396h22.098zm34.214-1.16h-18.85L83.022 56h-9.628L91.49 15.4h9.28L118.924 56h-9.86l-3.596-8.7zm-2.958-7.134l-6.438-15.544-6.438 15.544h12.876zM149.004 56l-7.83-11.31h-8.642V56h-9.396V15.4h17.574c3.596 0 6.709.599 9.338 1.798 2.668 1.199 4.718 2.9 6.148 5.104s2.146 4.814 2.146 7.83-.734 5.626-2.204 7.83c-1.43 2.165-3.48 3.828-6.148 4.988L159.096 56h-10.092zm-.174-25.868c0-2.281-.734-4.021-2.204-5.22-1.469-1.237-3.615-1.856-6.438-1.856h-7.656v14.152h7.656c2.823 0 4.969-.619 6.438-1.856s2.204-2.977 2.204-5.22zM203.023 15.4V56h-7.714l-20.242-24.65V56h-9.28V15.4h7.772l20.184 24.65V15.4h9.28zm34.441 7.656h-12.992V15.4h35.38v7.656H246.86V56h-9.396V23.056zm46.539 33.64c-4.214 0-8.023-.909-11.426-2.726-3.364-1.817-6.012-4.311-7.946-7.482-1.894-3.209-2.842-6.805-2.842-10.788s.948-7.559 2.842-10.73c1.934-3.209 4.582-5.723 7.946-7.54 3.403-1.817 7.212-2.726 11.426-2.726s8.004.909 11.368 2.726 6.013 4.331 7.946 7.54c1.934 3.171 2.9 6.747 2.9 10.73s-.966 7.579-2.9 10.788c-1.933 3.171-4.582 5.665-7.946 7.482s-7.153 2.726-11.368 2.726zm0-8.004c2.398 0 4.563-.541 6.496-1.624a11.85 11.85 0 0 0 4.524-4.64c1.122-1.972 1.682-4.215 1.682-6.728s-.56-4.756-1.682-6.728c-1.082-1.972-2.59-3.499-4.524-4.582-1.933-1.121-4.098-1.682-6.496-1.682s-4.562.561-6.496 1.682c-1.933 1.083-3.46 2.61-4.582 4.582-1.082 1.972-1.624 4.215-1.624 6.728s.542 4.756 1.624 6.728c1.122 1.972 2.649 3.519 4.582 4.64 1.934 1.083 4.099 1.624 6.496 1.624zm65.132 8.004c-4.138 0-7.888-.889-11.252-2.668-3.326-1.817-5.955-4.311-7.888-7.482-1.895-3.209-2.842-6.825-2.842-10.846s.947-7.617 2.842-10.788c1.933-3.209 4.562-5.703 7.888-7.482 3.364-1.817 7.134-2.726 11.31-2.726 3.518 0 6.689.619 9.512 1.856 2.861 1.237 5.258 3.016 7.192 5.336l-6.032 5.568c-2.746-3.171-6.148-4.756-10.208-4.756-2.514 0-4.756.561-6.728 1.682-1.972 1.083-3.519 2.61-4.64 4.582-1.083 1.972-1.624 4.215-1.624 6.728s.541 4.756 1.624 6.728a12.15 12.15 0 0 0 4.64 4.64c1.972 1.083 4.214 1.624 6.728 1.624 4.06 0 7.462-1.605 10.208-4.814l6.032 5.568c-1.934 2.359-4.331 4.157-7.192 5.394s-6.052 1.856-9.57 1.856zm41.919 0c-4.215 0-8.023-.909-11.426-2.726-3.364-1.817-6.013-4.311-7.946-7.482-1.895-3.209-2.842-6.805-2.842-10.788s.947-7.559 2.842-10.73c1.933-3.209 4.582-5.723 7.946-7.54 3.403-1.817 7.211-2.726 11.426-2.726s8.004.909 11.368 2.726 6.013 4.331 7.946 7.54c1.933 3.171 2.9 6.747 2.9 10.73s-.967 7.579-2.9 10.788c-1.933 3.171-4.582 5.665-7.946 7.482s-7.153 2.726-11.368 2.726zm0-8.004c2.397 0 4.563-.541 6.496-1.624 1.933-1.121 3.441-2.668 4.524-4.64 1.121-1.972 1.682-4.215 1.682-6.728s-.561-4.756-1.682-6.728c-1.083-1.972-2.591-3.499-4.524-4.582-1.933-1.121-4.099-1.682-6.496-1.682s-4.563.561-6.496 1.682c-1.933 1.083-3.461 2.61-4.582 4.582-1.083 1.972-1.624 4.215-1.624 6.728s.541 4.756 1.624 6.728c1.121 1.972 2.649 3.519 4.582 4.64 1.933 1.083 4.099 1.624 6.496 1.624zm48.938 8.004c-4.215 0-8.024-.909-11.426-2.726-3.364-1.817-6.013-4.311-7.946-7.482-1.895-3.209-2.842-6.805-2.842-10.788s.947-7.559 2.842-10.73c1.933-3.209 4.582-5.723 7.946-7.54 3.402-1.817 7.211-2.726 11.426-2.726s8.004.909 11.368 2.726 6.012 4.331 7.946 7.54c1.933 3.171 2.9 6.747 2.9 10.73s-.967 7.579-2.9 10.788c-1.934 3.171-4.582 5.665-7.946 7.482s-7.154 2.726-11.368 2.726zm0-8.004c2.397 0 4.562-.541 6.496-1.624 1.933-1.121 3.441-2.668 4.524-4.64 1.121-1.972 1.682-4.215 1.682-6.728s-.561-4.756-1.682-6.728c-1.083-1.972-2.591-3.499-4.524-4.582-1.934-1.121-4.099-1.682-6.496-1.682s-4.563.561-6.496 1.682c-1.934 1.083-3.461 2.61-4.582 4.582-1.083 1.972-1.624 4.215-1.624 6.728s.541 4.756 1.624 6.728a12.27 12.27 0 0 0 4.582 4.64c1.933 1.083 4.098 1.624 6.496 1.624zm44.065-8.642l-5.452 5.684V56h-9.338V15.4h9.338v18.966l17.98-18.966h10.44l-16.82 18.096L508.011 56h-10.962l-12.992-15.95zm53.966-17.11v10.73h18.792v7.54h-18.792V56h-9.396V15.4h30.682v7.54h-21.286zM591.537 56l-7.83-11.31h-8.642V56h-9.396V15.4h17.574c3.596 0 6.709.599 9.338 1.798 2.668 1.199 4.718 2.9 6.148 5.104s2.146 4.814 2.146 7.83-.734 5.626-2.204 7.83c-1.43 2.165-3.48 3.828-6.148 4.988L601.629 56h-10.092zm-.174-25.868c0-2.281-.734-4.021-2.204-5.22-1.469-1.237-3.615-1.856-6.438-1.856h-7.656v14.152h7.656c2.823 0 4.969-.619 6.438-1.856s2.204-2.977 2.204-5.22zm36.619 26.564c-4.215 0-8.023-.909-11.426-2.726-3.364-1.817-6.013-4.311-7.946-7.482-1.895-3.209-2.842-6.805-2.842-10.788s.947-7.559 2.842-10.73c1.933-3.209 4.582-5.723 7.946-7.54 3.403-1.817 7.211-2.726 11.426-2.726s8.004.909 11.368 2.726 6.013 4.331 7.946 7.54c1.933 3.171 2.9 6.747 2.9 10.73s-.967 7.579-2.9 10.788c-1.933 3.171-4.582 5.665-7.946 7.482s-7.153 2.726-11.368 2.726zm0-8.004c2.397 0 4.563-.541 6.496-1.624 1.933-1.121 3.441-2.668 4.524-4.64 1.121-1.972 1.682-4.215 1.682-6.728s-.561-4.756-1.682-6.728c-1.083-1.972-2.591-3.499-4.524-4.582-1.933-1.121-4.099-1.682-6.496-1.682s-4.563.561-6.496 1.682c-1.933 1.083-3.461 2.61-4.582 4.582-1.083 1.972-1.624 4.215-1.624 6.728s.541 4.756 1.624 6.728c1.121 1.972 2.649 3.519 4.582 4.64 1.933 1.083 4.099 1.624 6.496 1.624zM694.203 56l-.058-24.36-11.948 20.068h-4.234l-11.89-19.546V56h-8.816V15.4h7.772l15.196 25.23 14.964-25.23h7.714l.116 40.6h-8.816zM42.05 86.4V127h-9.396v-16.646H14.21V127H4.814V86.4h9.396v16.008h18.444V86.4h9.396zm29.268 41.296c-4.215 0-8.023-.909-11.426-2.726-3.364-1.817-6.013-4.311-7.946-7.482-1.895-3.209-2.842-6.805-2.842-10.788s.947-7.559 2.842-10.73c1.933-3.209 4.582-5.723 7.946-7.54 3.403-1.817 7.211-2.726 11.426-2.726s8.004.909 11.368 2.726 6.013 4.331 7.946 7.54c1.933 3.171 2.9 6.747 2.9 10.73s-.967 7.579-2.9 10.788c-1.933 3.171-4.582 5.665-7.946 7.482s-7.153 2.726-11.368 2.726zm0-8.004c2.397 0 4.563-.541 6.496-1.624a11.86 11.86 0 0 0 4.524-4.64c1.121-1.972 1.682-4.215 1.682-6.728s-.561-4.756-1.682-6.728c-1.083-1.972-2.591-3.499-4.524-4.582-1.933-1.121-4.099-1.682-6.496-1.682s-4.563.561-6.496 1.682c-1.933 1.083-3.461 2.61-4.582 4.582-1.083 1.972-1.624 4.215-1.624 6.728s.541 4.756 1.624 6.728c1.121 1.972 2.649 3.519 4.582 4.64 1.933 1.083 4.099 1.624 6.496 1.624zM137.539 127l-.058-24.36-11.948 20.068h-4.234l-11.89-19.546V127h-8.816V86.4h7.772l15.196 25.23 14.964-25.23h7.714l.116 40.6h-8.816zm49.885-7.54V127h-31.436V86.4h30.682v7.54h-21.344v8.816h18.85v7.308h-18.85v9.396h22.098zm23.902-33.06h9.396v32.944h20.358V127h-29.754V86.4zm35.004 0h9.396V127h-9.396V86.4zm33.821 24.65l-5.452 5.684V127h-9.338V86.4h9.338v18.966l17.98-18.966h10.44l-16.82 18.096L304.105 127h-10.962l-12.992-15.95zm59.579 8.41V127h-31.436V86.4h30.682v7.54h-21.344v8.816h18.85v7.308h-18.85v9.396h22.098zm50.64-1.16h-18.85l-3.596 8.7h-9.628l18.096-40.6h9.28l18.154 40.6h-9.86l-3.596-8.7zm-2.958-7.134l-6.438-15.544-6.438 15.544h12.876zm56.482 16.53c-4.137 0-7.888-.889-11.252-2.668-3.325-1.817-5.954-4.311-7.888-7.482-1.894-3.209-2.842-6.825-2.842-10.846s.948-7.617 2.842-10.788a20.12 20.12 0 0 1 7.888-7.482c3.364-1.817 7.134-2.726 11.31-2.726 3.519 0 6.69.619 9.512 1.856 2.862 1.237 5.259 3.016 7.192 5.336l-6.032 5.568c-2.745-3.171-6.148-4.756-10.208-4.756-2.513 0-4.756.561-6.728 1.682-1.972 1.083-3.518 2.61-4.64 4.582-1.082 1.972-1.624 4.215-1.624 6.728s.542 4.756 1.624 6.728c1.122 1.972 2.668 3.519 4.64 4.64 1.972 1.083 4.215 1.624 6.728 1.624 4.06 0 7.463-1.605 10.208-4.814l6.032 5.568c-1.933 2.359-4.33 4.157-7.192 5.394s-6.051 1.856-9.57 1.856zM504.238 86.4V127h-9.396v-16.646h-18.444V127h-9.396V86.4h9.396v16.008h18.444V86.4h9.396zm41.041 33.06V127h-31.436V86.4h30.682v7.54h-21.344v8.816h18.85v7.308h-18.85v9.396h22.098zm16.872-25.52v10.73h18.792v7.54h-18.792V127h-9.396V86.4h30.682v7.54h-21.286z" fill="#222e50"/><g fill="#fff"><path d="M441.185 73.882a9.19 9.19 0 0 1-2.128 2.713l-.07.054L446 85.5h-.5c-1.535-.44-2.308.318-3.118.763-7.977 2.03-6.439 4.084-9.866 6.73-2.584 1.993-4.163 3.585-7.349 8.091-1.454 1.389-2.877 2.889-4.231 4.416l-6.895-9.534s-.024-.033-.055-.037c-.311-.241-1.125-.223-1.125-.223l-.776.729a10.17 10.17 0 0 1-15.492-3.766c-1.224-2.608-1.317-5.479.195-7.416 5.192-6.63 9.591-11.86 11.786-19.288 1.924-6.578 8.825-15.812 23.356-15.406 12.144.354 13.336 15.843 9.255 23.323z"/><path d="M441.34 74.201a9 9 0 0 1-2.372 2.913c.751-1.4 3.295-5.809.578-12.193 0 0-1.787 7.288-4.273 8.477 0 0 .595-3.645-2.35-11.51.025.337.945 11.113-4.363 15.925 0 0 2.553-8.433-5.407-15.397 0 0 4.189 20.746-1.866 17.211-4.457-2.596-4.757-2.489-4.774-2.475s5.974 6.799 2.477 6.575c-2.347-.159-4.681-.467-6.991-.922 0 0 1.27 3.127 5.537 3.939 0 0-8.439 7.728-15.278 3.769 0 0 4.021 6.316 11.347 1.864 0 0-2.432 3.451-4.733 3.299 0 0 1.166 1.204 4.157.343l-.775.729c-1.841 1.43-4.09 2.186-6.393 2.147-1.901-.007-3.763-.564-5.373-1.608s-2.907-2.534-3.74-4.3c-1.224-2.608-1.317-5.479.195-7.416 5.192-6.63 9.591-11.86 11.786-19.288 1.057-3.482 2.969-6.621 5.55-9.112 3.821-3.681 9.58-6.522 17.771-6.289 12.179.35 13.371 15.839 9.29 23.318z"/></g><g fill="#e2e3e5"><path d="M414.278 57.172c.054 1.945.23 4.966-4.316 14.769-4.761 10.257-18.489 16.032-4.112 26.941a9.94 9.94 0 0 1-5.365-1.605 10.41 10.41 0 0 1-3.738-4.289c-1.224-2.608-1.317-5.479.195-7.416 5.193-6.63 9.591-11.86 11.787-19.288a21.23 21.23 0 0 1 5.549-9.112zm20.995 16.22s.595-3.645-2.35-11.51c.025.337.946 11.113-4.363 15.925 0 0 2.553-8.433-5.407-15.397 0 0 4.189 20.746-1.866 17.211-4.456-2.596-4.757-2.489-4.774-2.475s5.974 6.799 2.477 6.575c-2.347-.157-4.682-.463-6.992-.915 0 0 1.27 3.127 5.537 3.94 0 0-8.439 7.728-15.277 3.769 0 0 4.02 6.317 11.346 1.864 0 0-2.432 3.451-4.733 3.299 0 0 1.167 1.204 4.158.343 0 0 .814-.018 1.125.223 0 0 .026.036.054.037l6.893 9.531a83.52 83.52 0 0 1 4.219-4.425c-1.588-2.627-2.936-5.756-2.678-8.246.526-5.216 7.129-11.933 12.94-13.089a3.77 3.77 0 0 1 2.155.185c.687.271 1.286.736 1.727 1.344 1.465 2.009 1.919 2.248 3.146 4.42.813-.446 3.54-.777 5.39 0l-8.867-9.02.088-.068c.798-1.493 2.966-5.742.324-11.992-.009.002-1.797 7.29-4.272 8.471z"/><path d="M445.5 85l2.5 1h-3c-3.198 0-6.692 1.127-12.677 7.312-3.469 3.585-4.573 5.019-7.002 8.091-1.175 1.485-1.67 2.305-3.404 5.531l-1.67-2.281c4.107-4.891 16.154-23.57 25.253-19.653z"/></g></svg>