<svg width="320" height="200" viewBox="0 0 320 200" fill="none" xmlns="http://www.w3.org/2000/svg">
<path d="M266.25 75H219.867C224.824 86.5586 222.648 100.469 213.227 109.891L160 163.117V181.25C160 191.605 168.395 200 178.75 200H266.25C276.605 200 285 191.605 285 181.25V93.75C285 83.3945 276.605 75 266.25 75ZM222.5 146.875C217.324 146.875 213.125 142.676 213.125 137.5C213.125 132.32 217.324 128.125 222.5 128.125C227.676 128.125 231.875 132.32 231.875 137.5C231.875 142.676 227.676 146.875 222.5 146.875ZM204.387 73.9453L136.055 5.61328C128.57 -1.87109 116.434 -1.87109 108.949 5.61328L40.6133 73.9453C33.1289 81.4297 33.1289 93.5664 40.6133 101.051L108.945 169.387C116.43 176.871 128.566 176.871 136.051 169.387L204.387 101.055C211.871 93.5664 211.871 81.4297 204.387 73.9453V73.9453ZM72.5 96.875C67.3242 96.875 63.125 92.6758 63.125 87.5C63.125 82.3203 67.3242 78.125 72.5 78.125C77.6758 78.125 81.875 82.3203 81.875 87.5C81.875 92.6758 77.6758 96.875 72.5 96.875ZM122.5 146.875C117.324 146.875 113.125 142.676 113.125 137.5C113.125 132.32 117.324 128.125 122.5 128.125C127.676 128.125 131.875 132.32 131.875 137.5C131.875 142.676 127.676 146.875 122.5 146.875ZM122.5 96.875C117.324 96.875 113.125 92.6758 113.125 87.5C113.125 82.3203 117.324 78.125 122.5 78.125C127.676 78.125 131.875 82.3203 131.875 87.5C131.875 92.6758 127.676 96.875 122.5 96.875ZM122.5 46.875C117.324 46.875 113.125 42.6758 113.125 37.5C113.125 32.3203 117.324 28.125 122.5 28.125C127.676 28.125 131.875 32.3203 131.875 37.5C131.875 42.6758 127.676 46.875 122.5 46.875ZM172.5 96.875C167.324 96.875 163.125 92.6758 163.125 87.5C163.125 82.3203 167.324 78.125 172.5 78.125C177.676 78.125 181.875 82.3203 181.875 87.5C181.875 92.6758 177.676 96.875 172.5 96.875Z" fill="#F46036"/>
</svg>
