<svg xmlns="http://www.w3.org/2000/svg" xmlns:xlink="http://www.w3.org/1999/xlink" width="400" height="367" fill="none" xmlns:v="https://vecta.io/nano"><style><![CDATA[.B{fill:#fff}.C{fill:#352c4f}.D{fill:#fe9380}.E{fill:#564866}.F{fill:#ffc249}.G{fill:#9c8baf}.H{fill:#ffb89f}.I{fill:#ff0029}.J{fill:#e2a730}.K{fill:#f4c6dc}.L{fill:#d6a3c0}.M{fill:#ff4065}.N{fill:#ffb3a9}.O{fill:#ea642f}.P{fill:#afaf00}.Q{fill:#ffb8ae}.R{fill:#e86d64}.S{fill:#cec919}.T{fill:#ede43e}.U{fill:#1c172b}.V{fill:#ff7d43}.W{fill:#ffd4cf}]]></style><path d="M210.016 135.183L.017 256.575l189.984 110.393L400 245.611 210.016 135.183z" fill="#ddceea"/><path opacity=".25" d="M.017 256.575l45.185 26.399 101.155-58.64-45.749-25.8L.017 256.575zm274.514 61.278l-45.184 26.399-101.156-58.64 45.75-25.8 100.59 58.041zm103.022-59.428l-45.184 26.382-101.156-58.64 45.75-25.8 100.59 58.058zm-225.049-89.854l45.185 26.4 57.786-33.646-45.288-25.937-57.683 33.183zm5.599 166.55c-10.701 0-19.399-4.351-20.426-9.901 1.027-5.551 9.725-9.902 20.426-9.902s19.399 4.351 20.426 9.902c-1.027 5.55-9.725 9.901-20.426 9.901z" class="G"/><path opacity=".25" d="M157.76 348.038l-1.746-1.01L366.013 225.67l1.729.994L157.76 348.038zm-55.406-32.018l-1.746-1.028 209.999-121.358 1.729.994L102.354 316.02zm-55.406-32.018l-1.746-1.028 210.016-121.358 1.712.994L46.948 284.002z" class="B"/><path d="M199.332 190.551l52.153-30.151V24.566l-52.153 30.168v135.817z" class="C"/><path d="M156.767 30.305l42.565 24.429v135.817l-42.565-24.566V30.305z" class="E"/><path d="M251.485 24.566L209.109 0l-52.342 30.305 42.565 24.429 52.153-30.168z" class="G"/><path d="M199.332 81.733L251.4 51.599v1.439l-52.068 30.1v-1.405z" class="E"/><g class="C"><path d="M191.936 77.45l7.396 4.283v1.405l-7.396-4.266V77.45z"/><path d="M191.936 186.319l1.301.737V79.026l-1.301-.805v108.098z"/></g><path d="M219.313 54.597l14.605-8.429v7.675l-14.605 8.429v-7.675z" class="E"/><path d="M220.58 75.395l14.588-8.429v2.912l-14.588 8.446v-2.929zm-45.355 15.778l13.526 7.812V73.031l-13.526-7.812v25.954z" class="B"/><path d="M183.426 73.99a3.73 3.73 0 0 0 .43 1.658c.271.511.657.953 1.128 1.289.856.497 1.541 0 1.541-1.165-.007-.58-.149-1.151-.417-1.666s-.653-.959-1.124-1.298c-.856-.497-1.558.034-1.558 1.182z" class="I"/><path d="M175.995 74.521l11.386 6.578v1.096l-11.386-6.578v-1.096zm0 10.69l11.386 6.595v1.096l-11.386-6.596V85.21zm0 2.809l11.386 6.596v1.096l-11.386-6.578V88.02z" class="C"/><path d="M158.565 88.209l13.544 7.812V78.084l-13.544-7.812v17.936z" class="B"/><path d="M164.113 73.476a3.69 3.69 0 0 0 .417 1.666c.267.515.652.96 1.124 1.298.856.497 1.558 0 1.558-1.165-.01-.581-.156-1.153-.427-1.667a3.72 3.72 0 0 0-1.131-1.296c-.857-.497-1.541.034-1.541 1.165z" class="O"/><path d="M159.336 74.384l11.386 6.578v1.096l-11.386-6.578v-1.096z" class="C"/><path d="M173.393 94.393l8.595 4.968v17.937l-8.595-4.968V94.393z" class="B"/><path d="M176.149 99.002c.007.58.15 1.151.417 1.666a3.7 3.7 0 0 0 1.124 1.298c.856.497 1.558 0 1.558-1.165a3.73 3.73 0 0 0-.426-1.667c-.271-.515-.658-.959-1.132-1.296-.856-.497-1.541.034-1.541 1.165z" class="F"/><path d="M174.215 101.348l6.711 3.889v1.097l-6.711-3.889v-1.097z" class="C"/><path d="M213.749 86.684a3.72 3.72 0 0 1-.431 1.658 3.71 3.71 0 0 1-1.127 1.289c-.839.497-1.541 0-1.541-1.165a3.75 3.75 0 0 1 .422-1.663 3.76 3.76 0 0 1 1.119-1.301c.856-.497 1.558.034 1.558 1.182z" class="F"/><path d="M220.871 91.549c-.009.581-.156 1.153-.426 1.667s-.658.959-1.132 1.296c-.856.497-1.541 0-1.541-1.182a3.72 3.72 0 0 1 .421-1.656c.268-.512.652-.954 1.12-1.29.857-.497 1.558.034 1.558 1.165z" class="I"/><path d="M249.208 88.277l4.401 2.518-3.887 2.176-4.332-2.501 3.818-2.193z" class="G"/><path d="M253.608 90.796v33.268l-3.886 2.245V92.971l3.886-2.176z" fill="#78688e"/><path d="M245.39 90.47v2.004l2.312 1.336v29.243l-2.158-1.251v2.124l4.178 2.382V92.988l-4.332-2.518z" class="E"/><path d="M245.544 121.803l2.158 1.251v-2.519l-2.158 1.268z" class="G"/><path d="M41.366 131.345v36.627l-28.884-16.789v-36.626l28.885 16.788z" class="E"/><path d="M41.366 131.328l81.158-46.837v36.387l-81.158 47.094v-36.644z" class="C"/><path d="M107.953 112.689l12.859 7.401-77.614 44.798v-14.664l64.755-37.535z" class="G"/><path d="M120.812 105.237v14.853l-12.859-7.401 12.859-7.452z" class="E"/><path d="M107.953 95.078l12.859 7.401-77.614 44.798v-14.681l64.755-37.518z" class="C"/><path d="M120.812 87.609v14.87l-12.859-7.401 12.859-7.469z" class="E"/><path d="M115.059 116.081c0 4.574-4.298 8.275-9.606 8.275s-9.571-3.684-9.571-8.258h19.177v-.017z" class="F"/><path d="M95.882 115.824c0-2.826 4.298-5.139 9.623-5.139s9.605 2.296 9.605 5.139c0 1.919-2.003 3.598-4.965 4.472a5.25 5.25 0 0 0-4.64-1.919 5.14 5.14 0 0 0-2.571.353 5.13 5.13 0 0 0-2.069 1.566c-3.031-.874-4.983-2.553-4.983-4.472z" class="B"/><path d="M105.453 118.377c.872-.093 1.754.034 2.564.369s1.524.868 2.076 1.55a16.43 16.43 0 0 1-4.64.633c-1.569.014-3.132-.199-4.64-.633a5.14 5.14 0 0 1 2.07-1.566c.812-.336 1.697-.457 2.57-.353z" class="J"/><use xlink:href="#B" class="H"/><path d="M80.661 126.189c0 2.826 4.315 5.139 9.623 5.139s9.605-2.295 9.605-5.139-4.298-5.14-9.605-5.14-9.623 2.296-9.623 5.14z" class="D"/><use xlink:href="#B" y="-2.09" class="H"/><path d="M80.661 123.842c0 2.826 4.315 5.139 9.623 5.139s9.605-2.295 9.605-5.139-4.298-5.14-9.605-5.14-9.623 2.313-9.623 5.14z" class="D"/><path d="M80.661 122.66c0 2.826 4.315 5.139 9.623 5.139s9.605-2.278 9.605-5.139-4.298-5.14-9.605-5.14-9.623 2.399-9.623 5.14z" class="H"/><path d="M90.318 127.337c-4.965 0-8.989-2.09-8.989-4.677s4.024-4.66 8.989-4.66 8.989 2.09 8.989 4.66-4.024 4.677-8.989 4.677zm0-8.909c-4.726 0-8.561 1.902-8.561 4.232s3.835 4.248 8.561 4.248 8.561-1.901 8.561-4.248-3.835-4.232-8.561-4.232z" class="B"/><path d="M90.301 120.296c-2.876 0-5.137 1.165-5.479 2.655a2.08 2.08 0 0 1 0-.291c0-1.628 2.483-2.947 5.53-2.947s5.53 1.319 5.53 2.947a2.11 2.11 0 0 1 0 .291c-.377-1.49-2.705-2.655-5.582-2.655z" class="N"/><path d="M90.301 125.589c-2.876 0-5.136-1.165-5.479-2.638.274-1.49 2.603-2.655 5.479-2.655s5.137 1.165 5.479 2.655c-.274 1.473-2.602 2.638-5.479 2.638z" class="D"/><path d="M65.594 135.971c0 2.826 4.297 5.139 9.622 5.139s9.605-2.278 9.605-5.139-4.298-5.14-9.605-5.14-9.622 2.313-9.622 5.14z" class="F"/><use xlink:href="#C" class="J"/><path d="M65.594 133.864c0 2.826 4.297 5.139 9.622 5.139s9.605-2.296 9.605-5.139-4.298-5.14-9.605-5.14-9.622 2.313-9.622 5.14z" class="F"/><use xlink:href="#C" y="-2.347" class="J"/><path d="M65.594 131.311c0 2.827 4.297 5.139 9.622 5.139s9.605-2.295 9.605-5.139-4.298-5.139-9.605-5.139-9.622 2.312-9.622 5.139z" class="F"/><path d="M75.336 135.988c-4.965 0-9.006-2.09-9.006-4.66s4.041-4.677 9.006-4.677 9.006 2.107 9.006 4.677-4.126 4.66-9.006 4.66zm0-8.908c-4.726 0-8.561 1.901-8.561 4.248s3.852 4.232 8.561 4.232 8.561-1.902 8.561-4.232-3.921-4.248-8.561-4.248z" class="B"/><path d="M75.233 128.947c-2.876 0-5.136 1.165-5.479 2.655-.008-.097-.008-.194 0-.291 0-1.713 2.466-2.947 5.53-2.947s5.53 1.32 5.53 2.947c.008.097.008.194 0 .291-.342-1.405-2.722-2.655-5.582-2.655z" fill="#ce8d1b"/><path d="M75.233 134.258c3.026 0 5.479-1.189 5.479-2.656s-2.453-2.655-5.479-2.655-5.479 1.189-5.479 2.655 2.453 2.656 5.479 2.656z" class="J"/><path d="M59.704 140.75h10.547l-1.318 5.688c-.206 1.062-1.901 1.901-3.972 1.901s-3.75-.839-3.955-1.901l-1.301-5.688z" class="B"/><path d="M59.67 140.476c0 1.559 2.38 2.827 5.291 2.827s5.239-1.285 5.239-2.827-2.38-2.809-5.308-2.809-5.222 1.233-5.222 2.809z" class="L"/><path d="M60.32 140.476c0 1.319 2.072 2.364 4.64 2.364s4.657-1.045 4.657-2.364-2.089-2.364-4.657-2.364-4.64 1.045-4.64 2.364zm1.319 5.808c0 .925 1.472 1.713 3.287 1.713s3.287-.754 3.287-1.713-1.473-1.713-3.287-1.713-3.287.788-3.287 1.713z" class="K"/><path d="M51.776 145.479h10.53l-1.301 5.67c-.223 1.079-1.901 1.919-3.972 1.919s-3.75-.891-3.955-1.97l-1.301-5.619z" class="B"/><path d="M51.742 145.187c0 1.542 2.363 2.81 5.291 2.81s5.291-1.268 5.291-2.81-2.397-2.826-5.291-2.826-5.291 1.267-5.291 2.826z" class="L"/><path d="M52.393 145.187c0 1.302 2.072 2.364 4.64 2.364s4.606-1.062 4.606-2.364-2.089-2.381-4.657-2.381-4.589 1.096-4.589 2.381zm1.352 5.808c0 .925 1.472 1.713 3.287 1.713s3.287-.754 3.287-1.713-1.472-1.713-3.287-1.713-3.287.788-3.287 1.713z" class="K"/><path d="M43.729 150.481h10.547l-1.318 5.687c-.206 1.063-1.901 1.902-3.955 1.902s-3.767-.839-3.972-1.902l-1.301-5.687z" class="B"/><path d="M43.695 150.19c0 1.559 2.38 2.826 5.308 2.826s5.291-1.267 5.291-2.826-2.38-2.861-5.291-2.861-5.308 1.319-5.308 2.861z" class="L"/><g class="K"><path d="M44.346 150.19c0 1.319 2.089 2.381 4.657 2.381s4.64-1.062 4.64-2.381-2.072-2.364-4.64-2.364-4.657 1.062-4.657 2.364z"/><use xlink:href="#D"/></g><path d="M120.812 102.479l-77.614 44.798v2.947l77.614-44.987v-2.758z" class="C"/><path d="M120.812 102.479l-12.859-7.401-64.755 37.518v14.681l77.614-44.798z" class="G"/><path d="M81.312 98.556c-4.452 4.745-1.387 10.176 6.849 12.095s18.543-.343 23.012-5.14 1.387-10.176-6.849-12.111-18.543.411-23.011 5.156z" class="F"/><path d="M81.312 96.346c-4.452 4.745-1.387 10.159 6.849 12.095s18.543-.343 23.012-5.14 1.387-10.158-6.849-12.094-18.543.377-23.011 5.139z" class="J"/><path d="M81.312 94.051c-4.452 4.745-1.387 10.159 6.849 12.094s18.543-.342 23.012-5.139 1.387-10.176-6.849-12.112-18.543.394-23.011 5.156z" class="F"/><path d="M89.256 96.449c-2.226 2.381-.702 5.139 3.424 6.047s9.246-.171 11.472-2.552.702-5.139-3.424-6.03-9.246.171-11.472 2.535z" class="J"/><path d="M95.078 105.049c5.427 0 10.872-1.713 13.611-4.454a4.78 4.78 0 0 0 1.444-2.164c.272-.841.306-1.74.097-2.599-.684-2.347-3.424-4.231-7.396-5.139-6.849-1.61-15.41.103-19.04 3.837-.67.575-1.169 1.324-1.441 2.164a4.8 4.8 0 0 0-.1 2.598c.685 2.347 3.424 4.248 7.397 5.139a24.66 24.66 0 0 0 5.428.617zm2.294-14.493a23.96 23.96 0 0 1 5.359.582c3.784.891 6.421 2.707 7.037 4.848.178.773.139 1.58-.112 2.332a4.31 4.31 0 0 1-1.309 1.933c-3.561 3.615-11.883 5.259-18.56 3.7-3.784-.89-6.404-2.689-7.037-4.831-.179-.776-.141-1.586.109-2.341s.705-1.427 1.312-1.942c2.637-2.672 7.91-4.283 13.201-4.283z" class="B"/><path d="M88.879 112.295c0 4.574-4.298 8.292-9.605 8.292s-9.623-3.718-9.623-8.292h19.228z" class="H"/><path d="M69.652 112.038c0-2.826 4.315-5.139 9.623-5.139s9.605 2.296 9.605 5.139c0 1.936-2.003 3.615-4.965 4.489-.543-.694-1.255-1.236-2.067-1.575s-1.698-.463-2.573-.361c-.871-.106-1.755.013-2.568.346s-1.526.868-2.072 1.555c-2.962-.839-4.983-2.518-4.983-4.454z" class="B"/><path d="M79.274 114.591a5.13 5.13 0 0 1 2.558.35c.809.333 1.52.867 2.065 1.551-1.51.423-3.072.637-4.64.634-1.563.004-3.119-.209-4.623-.634a5.14 5.14 0 0 1 2.072-1.555c.812-.333 1.696-.452 2.568-.346z" class="D"/><path d="M75.216 120.724c0 4.574-4.315 8.291-9.622 8.291s-9.622-3.717-9.622-8.291h19.245z" class="H"/><path d="M55.971 120.467c0-2.827 4.315-5.139 9.622-5.139s9.622 2.278 9.622 5.139c0 1.936-2.02 3.615-4.982 4.488a5.14 5.14 0 0 0-2.07-1.565c-.812-.336-1.697-.458-2.57-.353-.873-.105-1.758.017-2.57.353a5.14 5.14 0 0 0-2.07 1.565c-2.962-.873-4.982-2.552-4.982-4.488z" class="B"/><path d="M65.594 123.037a5.12 5.12 0 0 1 2.551.362 5.14 5.14 0 0 1 2.055 1.556c-3.036.845-6.244.845-9.28 0a5.14 5.14 0 0 1 2.085-1.574 5.13 5.13 0 0 1 2.589-.344z" class="D"/><path d="M51.776 128.09h10.53l-1.301 5.688c-.223 1.062-1.901 1.901-3.972 1.901s-3.75-.839-3.955-1.901l-1.301-5.688z" class="B"/><path d="M51.742 127.799c0 1.559 2.363 2.81 5.291 2.81s5.291-1.251 5.291-2.81-2.397-2.741-5.291-2.741-5.291 1.182-5.291 2.741z" class="L"/><g class="K"><path d="M52.393 127.799c0 1.302 2.072 2.364 4.64 2.364s4.606-1.062 4.606-2.364-2.089-2.364-4.657-2.364-4.589 1.062-4.589 2.364z"/><use xlink:href="#D" x="8.03" y="-22.39"/></g><path d="M43.729 133.11h10.547l-1.318 5.653c-.206 1.079-1.901 1.919-3.955 1.919s-3.767-.84-3.972-1.919l-1.301-5.653z" class="B"/><path d="M43.695 132.819c0 1.558 2.38 2.809 5.308 2.809s5.291-1.251 5.291-2.809-2.38-2.827-5.291-2.827-5.308 1.268-5.308 2.827z" class="L"/><g class="K"><path d="M44.346 132.819c0 1.301 2.089 2.364 4.657 2.364s4.64-1.063 4.64-2.364-2.072-2.382-4.64-2.382-4.657 1.062-4.657 2.382z"/><use xlink:href="#D" y="-17.371"/></g><path d="M120.949 85.228l-77.631 44.935v2.364l77.631-45.003v-2.296z" class="C"/><path d="M122.524 84.491L93.639 67.754 12.482 114.54l28.885 16.788 81.158-46.837z" class="G"/><path d="M53.745 157.693l-8.578 4.968v11.444l8.578-4.968v-11.444z" class="F"/><path d="M46.383 163.552l6.147-3.546v1.353l-6.147 3.529v-1.336z" class="C"/><path d="M95.009 133.624l-8.595 4.968v11.443l8.595-4.968v-11.443z" class="M"/><path d="M87.647 139.483l6.13-3.547v1.337l-6.13 3.546v-1.336z" class="I"/><path d="M105.933 127.422l-8.596 4.968v11.444l8.596-4.968v-11.444z" fill="#ff8a61"/><path d="M98.57 133.281l6.13-3.546v1.353l-6.13 3.529v-1.336z" class="O"/><path d="M.017 206.003l40.288 23.333v50.623L.017 256.575v-50.572z" class="E"/><path d="M41.538 228.634l95.676-55.334v50.622l-96.909 56.037v-50.623l1.233-.702z" class="C"/><path d="M78.555 223.032v28.917l-24.981-14.561 24.981-14.356z" class="E"/><path d="M46.777 241.294l6.797-3.906 24.981 14.561-31.778 18.365v-29.02z" class="G"/><g class="D"><path d="M54.584 250.647c0 2.93 4.469 5.311 9.999 5.311s9.982-2.381 9.982-5.311-4.469-5.31-9.982-5.31-9.999 2.364-9.999 5.31z"/><path d="M64.584 242.578c5.513 0 9.982-2.381 9.982-5.31v13.379H54.584v-13.379c0 2.929 4.469 5.31 9.999 5.31z"/></g><path d="M70.97 243.384c2.568 0 4.572-1.165 4.572-2.673s-1.918-2.587-4.571-2.587-4.555 1.182-4.555 2.673 2.072 2.587 4.555 2.587zm0-4.283c2.072 0 3.424.856 3.424 1.61s-1.438 1.61-3.424 1.61-3.424-.839-3.424-1.61 1.37-1.61 3.424-1.61z" class="B"/><g fill="#919191"><path d="M54.584 237.268v-.463a2.39 2.39 0 0 0 0 .463zm19.982-1.868v1.868a3.21 3.21 0 0 0-.651-1.868h.651z"/><path d="M62.889 232.026h1.712c4.263 0 7.91 1.421 9.331 3.426H57.033l5.856-3.426z"/></g><path d="M57.033 235.4h16.882a3.21 3.21 0 0 1 .651 1.868c0 2.929-4.469 5.31-9.982 5.31s-9.999-2.381-9.999-5.31c-.017-.165-.017-.332 0-.497l2.448-1.371z" class="D"/><path d="M62.974 232.42c0 .514.77.925 1.712.925s1.712-.411 1.712-.925-.77-.908-1.712-.908-1.712.411-1.712.908z" fill="#969696"/><path d="M64.584 239.529c5 0 9.057-2.158 9.057-4.831a3.79 3.79 0 0 0-.604-1.735c-.34-.519-.803-.947-1.348-1.246.772.304 1.447.812 1.954 1.47a4.59 4.59 0 0 1 .922 2.265c0 2.929-4.469 5.31-9.982 5.31-4.743 0-8.698-1.713-9.725-4.111l1.027-.582c1.096 2.055 4.572 3.46 8.698 3.46z" class="Q"/><path d="M66.296 230.073l.154-.086a11.82 11.82 0 0 1 5.239 1.713 14.01 14.01 0 0 0-5.342-1.49l-.051-.137z" class="L"/><path d="M73.624 234.698c0 2.673-4.058 4.831-9.058 4.831-4.126 0-7.602-1.456-8.698-3.426l7.482-4.334a1.71 1.71 0 0 0 .865.592c.343.102.71.093 1.048-.024a1.71 1.71 0 0 0 .838-.63c.207-.292.316-.642.314-1.001a2.02 2.02 0 0 0 0-.479 14.03 14.03 0 0 1 5.342 1.49c.529.309.975.741 1.3 1.261s.519 1.109.566 1.72z" class="W"/><path d="M66.296 230.073v.154h-.274l.274-.154z" class="C"/><path d="M66.347 230.227a2.02 2.02 0 0 1 0 .479 1.71 1.71 0 0 1-1.152 1.631c-.338.117-.705.126-1.048.024a1.71 1.71 0 0 1-.865-.592l2.722-1.576.342.034z" class="D"/><path d="M40.236 229.559l96.978-56.276v-2.296l-96.978 56.276v2.296z" class="U"/><path d="M40.236 227.263L.017 204.016v2.313l40.219 23.23v-2.296z" class="C"/><g class="G"><path d="M137.214 170.987l-40.202-23.281-96.995 56.31 40.219 23.247 96.978-56.276zm0 12.557v1.354L40.305 240.9v-1.285l96.909-56.071z"/><path d="M0 216.299l40.305 23.316v1.285L0 217.601v-1.302z"/></g><g class="I"><path d="M44.397 232.402c0 1.714.993 2.433 2.243 1.714.688-.493 1.251-1.14 1.643-1.89s.604-1.581.617-2.427c0-1.714-1.01-2.416-2.26-1.714a5.36 5.36 0 0 0-2.243 4.317z"/><path d="M49.123 229.233l-.599-.856s-2.277.445-2.791 2.261a6.98 6.98 0 0 0 .171 3.735l1.387-.275 1.832-4.865z"/></g><path d="M49.499 230.484a4.51 4.51 0 0 1-.41 1.752 4.5 4.5 0 0 1-1.062 1.451v-4.711c.839-.274 1.472.326 1.472 1.508zm-2.14-1.131v4.711c-.839.274-1.455-.325-1.455-1.507a4.5 4.5 0 0 1 1.455-3.204z" class="M"/><path d="M47.701 229.113l.325-.137v4.711l-.325.24-.342.137v-4.711l.342-.24z" class="B"/><g class="I"><path d="M54.567 226.561c0 1.713 1.01 2.415 2.26 1.713a5.41 5.41 0 0 0 1.63-1.885c.389-.746.599-1.573.613-2.415 0-1.713-1.01-2.433-2.243-1.713a5.41 5.41 0 0 0-2.26 4.3z"/><path d="M59.31 223.391l-.599-.873s-2.294.462-2.791 2.261c-.285 1.236-.232 2.526.154 3.735l1.404-.274 1.832-4.849z"/></g><path d="M59.67 224.625a4.44 4.44 0 0 1-.393 1.761c-.25.554-.612 1.051-1.062 1.46v-4.712c.839-.291 1.455.326 1.455 1.491zm-2.123-1.114v4.711c-.839.275-1.473-.342-1.473-1.507a4.46 4.46 0 0 1 .406-1.754 4.45 4.45 0 0 1 1.067-1.45z" class="M"/><path d="M57.872 223.272l.343-.155v4.729l-.343.239c-.101.066-.211.117-.325.155v-4.712l.325-.256z" class="B"/><g class="I"><path d="M64.207 220.993c0 1.713.993 2.416 2.243 1.713.687-.489 1.25-1.133 1.643-1.88a5.38 5.38 0 0 0 .617-2.42c0-1.713-1.01-2.415-2.26-1.713-.683.492-1.242 1.137-1.632 1.884s-.599 1.574-.611 2.416z"/><path d="M68.932 217.892l-.599-.856s-2.277.445-2.791 2.244c-.285 1.237-.226 2.529.171 3.735l1.387-.275 1.832-4.848z"/></g><path d="M69.309 219.126a4.46 4.46 0 0 1-.406 1.754c-.253.55-.616 1.044-1.067 1.449v-4.762c.839-.206 1.473.394 1.473 1.559zm-2.14-1.114v4.694c-.839.274-1.455-.342-1.455-1.507a4.43 4.43 0 0 1 .4-1.743 4.44 4.44 0 0 1 1.055-1.444z" class="M"/><path d="M67.511 217.772a1.4 1.4 0 0 1 .325-.154v4.711a1.93 1.93 0 0 1-.325.24l-.343.154v-4.711l.343-.24z" class="B"/><g class="I"><path d="M73.453 215.648c0 1.713 1.01 2.433 2.26 1.713.683-.496 1.241-1.145 1.63-1.894a5.45 5.45 0 0 0 .613-2.423c0-1.713-1.01-2.415-2.243-1.713-.69.491-1.254 1.138-1.647 1.888a5.38 5.38 0 0 0-.613 2.429z"/><path d="M78.195 212.427l-.599-.856s-2.294.445-2.791 2.261c-.285 1.236-.232 2.526.154 3.735l1.404-.274 1.832-4.866z"/></g><path d="M78.555 213.729a4.5 4.5 0 0 1-1.455 3.204v-4.711c.839-.274 1.455.325 1.455 1.507zm-2.123-1.13v4.711c-.839.274-1.472-.326-1.472-1.508a4.51 4.51 0 0 1 .41-1.752 4.5 4.5 0 0 1 1.062-1.451z" class="M"/><path d="M76.757 212.427l.342-.137v4.711l-.342.24-.325.137v-4.779l.325-.172z" class="B"/><g class="I"><path d="M117.935 189.9c0 1.713 1.01 2.432 2.26 1.713a5.43 5.43 0 0 0 2.243-4.3c0-1.713-1.01-2.433-2.243-1.713a5.4 5.4 0 0 0-1.641 1.881 5.41 5.41 0 0 0-.619 2.419z"/><path d="M122.678 186.731l-.599-.874s-2.295.462-2.808 2.261c-.284 1.237-.225 2.529.171 3.735l1.387-.274 1.849-4.848z"/></g><path d="M123.037 187.981c-.017.606-.157 1.202-.41 1.752s-.614 1.044-1.062 1.452v-4.711c.839-.274 1.472.342 1.472 1.507zm-2.123-1.113v4.711c-.839.257-1.472-.343-1.472-1.525a4.43 4.43 0 0 1 .408-1.745c.253-.548.615-1.038 1.064-1.441z" class="M"/><path d="M121.24 186.628a1.48 1.48 0 0 1 .342-.154v4.711l-.342.24-.326.154v-4.711c.097-.095.207-.176.326-.24z" class="B"/><g class="I"><path d="M127.198 184.503c0 1.714 1.01 2.416 2.243 1.714a5.38 5.38 0 0 0 1.643-1.881 5.37 5.37 0 0 0 .617-2.419c0-1.713-1.01-2.416-2.26-1.713-.684.49-1.244 1.135-1.633 1.882s-.599 1.575-.61 2.417z"/><path d="M131.924 181.334l-.6-.856s-2.277.445-2.79 2.244c-.285 1.243-.226 2.54.171 3.752l1.387-.292 1.832-4.848z"/></g><path d="M132.3 182.568c-.014.606-.152 1.203-.406 1.753a4.45 4.45 0 0 1-1.066 1.45v-4.711c.839-.257 1.472.343 1.472 1.508zm-2.174-1.114v4.711c-.822.274-1.455-.342-1.455-1.507a4.5 4.5 0 0 1 .402-1.75 4.51 4.51 0 0 1 1.053-1.454z" class="M"/><path d="M130.503 181.214c.101-.065.21-.117.325-.154v4.711c-.1.091-.209.171-.325.24a1.51 1.51 0 0 1-.343.154v-4.711l.343-.24z" class="B"/><path d="M29.86 213.849c0 3.067 4.64 5.534 10.376 5.534s10.393-2.467 10.393-5.534-4.657-5.516-10.393-5.516-10.376 2.467-10.376 5.516zm-18.422-10.775c0 3.049 4.64 5.516 10.376 5.516s10.393-2.467 10.393-5.516-4.657-5.534-10.393-5.534-10.376 2.467-10.376 5.534zm39.191-1.354c0 3.05 4.64 5.534 10.376 5.534s10.393-2.484 10.393-5.534-4.657-5.533-10.393-5.533-10.376 2.535-10.376 5.533zm-18.423-10.792c0 3.066 4.657 5.533 10.393 5.533s10.376-2.467 10.376-5.533-4.64-5.517-10.376-5.517-10.393 2.467-10.393 5.517z" class="M"/><g fill="#ff88a4"><use xlink:href="#E"/><path d="M35.168 190.928c0 2.193 3.322 3.957 7.431 3.957s7.414-1.713 7.414-3.957-3.322-3.94-7.414-3.94-7.431 1.764-7.431 3.94z"/><use xlink:href="#E" x="-39.191" y="1.576"/><path d="M32.823 213.609c0 2.176 3.322 3.958 7.414 3.958s7.431-1.713 7.431-3.958-3.322-3.94-7.431-3.94-7.414 1.765-7.414 3.94z"/></g><g class="R"><path d="M46.726 253.542c.97-.131 1.949-.189 2.928-.171 5.513 0 9.982 2.381 9.982 5.311s-4.469 5.311-9.982 5.311c-.958.005-1.914-.069-2.859-.223l-.068-10.228z"/><path d="M59.567 249.397H46.726v9.285h12.841v-9.285z"/></g><path d="M55.988 257.397c2.568 0 4.554-1.182 4.554-2.69s-1.986-2.672-4.554-2.672-4.554 1.182-4.554 2.672 2.003 2.69 4.554 2.69zm0-4.3c2.072 0 3.424.857 3.424 1.61s-1.421 1.628-3.424 1.628-3.424-.857-3.424-1.628 1.37-1.61 3.424-1.61z" class="B"/><path d="M46.726 246.176c.946-.146 1.902-.22 2.859-.223 5.513 0 9.982 2.382 9.982 5.311s-4.469 5.311-9.982 5.311c-.958.006-1.914-.069-2.859-.223v-10.176z" class="R"/><path d="M46.726 244.36c.945-.154 1.902-.229 2.859-.223 5.513 0 9.982 2.382 9.982 5.311s-4.469 5.311-9.982 5.311c-.958.006-1.914-.069-2.859-.223V244.36z" class="Q"/><path d="M46.726 244.137a15.49 15.49 0 0 1 2.859-.257c5.017 0 9.075 2.159 9.075 4.831s-4.058 4.831-9.006 4.831c-.958.001-1.915-.08-2.859-.239l-.068-9.166z" class="W"/><path d="M47.941 246.433c0 .497.77.908 1.712.908s1.712-.411 1.712-.908-.77-.925-1.712-.925-1.712.411-1.712.925z" class="Q"/><path d="M47.941 244.703a1.71 1.71 0 0 0 .288.951c.188.282.456.502.768.631a1.71 1.71 0 0 0 1.866-.371 1.71 1.71 0 0 0 .469-.877c.066-.332.032-.677-.097-.99a1.72 1.72 0 0 0-.631-.769c-.282-.188-.613-.288-.951-.288a1.71 1.71 0 0 0-1.211.501c-.321.322-.501.757-.501 1.212z" class="R"/><path d="M85.489 253.851l-1.507.908v-40.413h1.507v39.505zm26.967-15.658l-1.524.908v-40.413h1.524v39.505z" class="G"/><g class="C"><path d="M114.887 200.881l9.109-5.259v3.426l-1.181.702v-1.302a.5.5 0 0 0-.067-.231c-.041-.07-.1-.128-.17-.169s-.15-.064-.231-.066-.162.017-.234.055l-4.692 2.707a2.2 2.2 0 0 0-.793.807c-.189.333-.288.711-.285 1.095v.839l-1.456.839v-3.443z"/><path d="M117.421 200.693l4.692-2.707c.072-.038.152-.057.234-.055a.47.47 0 0 1 .231.066c.071.042.128.099.17.169s.064.15.067.231v1.302l-6.387 3.735v-.84a2.21 2.21 0 0 1 .248-1.081 2.2 2.2 0 0 1 .745-.82zm-17.943 8.839l9.109-5.259v3.426l-1.199.685V207.1a.47.47 0 0 0-.058-.232c-.04-.07-.097-.129-.166-.171a.48.48 0 0 0-.229-.066.48.48 0 0 0-.232.057l-4.691 2.707a2.21 2.21 0 0 0-.801.805c-.192.334-.294.712-.295 1.097v.839l-1.438.822v-3.426z"/><path d="M102.012 209.344l4.691-2.707c.071-.039.151-.059.231-.057a.47.47 0 0 1 .23.066.45.45 0 0 1 .165.171c.04.071.06.15.059.231v1.285l-6.472 3.752v-.84c.001-.385.103-.763.295-1.096a2.2 2.2 0 0 1 .801-.805z"/></g><path d="M128.208 170.987L96.31 152.519l-29.313 16.926 31.984 18.485 29.227-16.943z" class="E"/><path d="M16.762 180.906s.137.959 2.757 1.216a36.49 36.49 0 0 1 8.561 2.536c3.818 1.713 4.691 3.22 4.691 3.22v-3.58s-11.985-3.872-14.006-3.632l-2.003.24z" class="C"/><path d="M33.73 183.527c-3.37-1.82-7.004-3.103-10.77-3.803-5.736-.925-6.849.942-5.907 1.593a43.84 43.84 0 0 1 6.404.857c3.039.878 6.014 1.965 8.903 3.255l1.37-1.902z" class="E"/><g class="C"><path d="M32.36 190.02c0 2.963 4.503 5.362 10.068 5.362s10.068-2.399 10.068-5.362-4.503-5.362-10.068-5.362-10.068 2.398-10.068 5.362z"/><path d="M53.609 186.868a9.98 9.98 0 0 1-2.123 5.499c-2.02 2.312-3.938-5.14-3.938-5.14l6.061-.359zm-22.379 0c.139 2.007.886 3.925 2.14 5.499 2.02 2.312 3.921-5.14 3.921-5.14l-6.061-.359z"/><path d="M42.428 184.298c-5.325 0-9.691 2.107-10.273 4.848a3.7 3.7 0 0 1-.856-2.278c0-3.29 5.017-5.962 11.198-5.962s11.181 2.672 11.181 5.962a3.7 3.7 0 0 1-.856 2.278c-.702-2.741-5.085-4.848-10.393-4.848z"/></g><path d="M42.428 192.812c-4.657 0-8.647-1.507-10.273-3.666.651-2.741 5.017-4.848 10.273-4.848s9.691 2.107 10.273 4.848c-1.627 2.159-5.616 3.666-10.273 3.666z" class="K"/><g class="C"><path d="M29.107 212.719c0 3.255 4.965 5.91 11.095 5.91s11.163-2.655 11.163-5.91-4.965-5.911-11.095-5.911-11.163 2.656-11.163 5.911z"/><path d="M51.28 201.686H29.09v11.033h22.19v-11.033z"/></g><path d="M47.308 210.56c2.842 0 5.136-1.302 5.136-2.981s-2.226-2.963-5.136-2.963-5.137 1.302-5.137 2.963 2.346 2.981 5.137 2.981zm0-4.762c2.277 0 3.887.942 3.887 1.713s-1.609 1.713-3.887 1.713-3.887-.942-3.887-1.713 1.592-1.713 3.887-1.713zm-13.989-2.878c2.842 0 5.137-1.32 5.137-2.981s-2.226-2.964-5.137-2.964-5.137 1.302-5.137 2.964 2.294 2.981 5.137 2.981zm0-4.78c2.294 0 3.887.959 3.887 1.713s-1.592 1.799-3.887 1.799-3.887-.942-3.887-1.799 1.609-1.713 3.887-1.713z" class="B"/><path d="M29.107 203.759c0 3.255 4.965 5.91 11.095 5.91s11.163-2.655 11.163-5.91-4.965-5.91-11.095-5.91-11.163 2.587-11.163 5.91z" class="C"/><path d="M29.107 201.738c0 3.254 4.965 5.893 11.095 5.893s11.163-2.639 11.163-5.893-4.965-5.911-11.095-5.911-11.163 2.638-11.163 5.911z" class="L"/><path d="M40.185 206.277c5.56 0 10.068-2.4 10.068-5.362s-4.507-5.362-10.068-5.362-10.068 2.401-10.068 5.362 4.507 5.362 10.068 5.362z" class="K"/><path d="M40.322 199.408c1.059 0 1.918-.46 1.918-1.028s-.859-1.028-1.918-1.028-1.918.46-1.918 1.028.859 1.028 1.918 1.028z" class="L"/><path d="M38.404 196.461c0 .38.113.751.323 1.066s.51.562.861.707a1.92 1.92 0 0 0 2.09-.416c.268-.268.451-.61.525-.983s.036-.758-.109-1.108-.391-.65-.706-.861-.686-.324-1.065-.324a1.92 1.92 0 0 0-1.918 1.919z" class="C"/><path d="M69.258 190.157c0 3.426 5.308 6.304 11.865 6.304s11.865-2.878 11.865-6.304-5.308-6.322-11.865-6.322-11.865 2.776-11.865 6.322z" class="H"/><path d="M81.175 195.827c-6.095 0-11.061-2.569-11.061-5.704s4.965-5.705 11.061-5.705 11.061 2.552 11.061 5.705-4.914 5.704-11.061 5.704zm0-10.981c-5.856 0-10.633 2.364-10.633 5.277s4.777 5.276 10.633 5.276 10.633-2.364 10.633-5.276-4.777-5.277-10.633-5.277z" class="B"/><path d="M81.14 187.176c-3.527 0-6.403 1.439-6.746 3.289a1.34 1.34 0 0 1 0-.36c0-2.004 3.048-3.631 6.849-3.631s6.849 1.713 6.849 3.631a2.67 2.67 0 0 1 0 .36c-.531-1.85-3.407-3.289-6.952-3.289z" class="N"/><path d="M81.14 193.737c-3.527 0-6.404-1.439-6.746-3.272.342-1.85 3.219-3.289 6.746-3.289s6.421 1.439 6.849 3.289c-.428 1.833-3.305 3.272-6.849 3.272z" class="D"/><path d="M51.794 179.398c0 3.427 5.308 6.305 11.865 6.305s11.865-2.827 11.865-6.305-5.325-6.372-11.865-6.372-11.865 2.878-11.865 6.372z" class="H"/><path d="M63.71 185.103c-6.095 0-11.061-2.552-11.061-5.705s4.965-5.704 11.061-5.704 11.061 2.569 11.061 5.704-4.965 5.705-11.061 5.705zm0-10.981c-5.856 0-10.633 2.381-10.633 5.276s4.777 5.277 10.633 5.277 10.633-2.364 10.633-5.277-4.76-5.276-10.633-5.276z" class="B"/><path d="M63.693 176.452c-3.544 0-6.421 1.439-6.849 3.272-.008-.114-.008-.229 0-.343 0-2.021 3.065-3.649 6.849-3.649s6.849 1.713 6.849 3.649c.016.114.016.229 0 .343-.445-1.816-3.322-3.272-6.849-3.272z" class="N"/><path d="M63.693 183.013c3.735 0 6.763-1.465 6.763-3.272s-3.028-3.272-6.763-3.272-6.763 1.465-6.763 3.272 3.028 3.272 6.763 3.272z" class="D"/><path d="M263.984 273.689l-38.37 22.236v50.623l38.37-22.271v-50.588z" class="C"/><path d="M223.697 297.039v50.605l1.917-1.096v-50.623l-1.917 1.114z" class="U"/><path d="M222.464 296.319l-95.66-55.317v50.606l96.893 56.036v-50.605l-1.233-.72z" class="E"/><path d="M150.604 253.971v26.81l28.507-16.48-28.507-10.33z" class="C"/><path d="M181.217 278.468c0 3.05-4.64 5.534-10.375 5.534s-10.393-2.484-10.393-5.534 4.657-5.533 10.393-5.533 10.375 2.484 10.375 5.533z" class="F"/><path d="M181.217 277.269c0 3.05-4.64 5.516-10.375 5.516s-10.393-2.466-10.393-5.516 4.657-5.533 10.393-5.533 10.375 2.467 10.375 5.533z" class="J"/><path d="M181.217 276.207c0 3.049-4.64 5.533-10.375 5.533s-10.393-2.484-10.393-5.533 4.657-5.533 10.393-5.533 10.375 2.484 10.375 5.533z" class="F"/><path d="M181.217 274.734c0 3.049-4.64 5.516-10.375 5.516s-10.393-2.467-10.393-5.516 4.657-5.534 10.393-5.534 10.375 2.484 10.375 5.534z" class="J"/><path d="M181.217 273.449c0 3.049-4.64 5.516-10.375 5.516s-10.393-2.467-10.393-5.516 4.657-5.533 10.393-5.533 10.375 2.466 10.375 5.533z" class="F"/><path d="M170.79 278.468c-5.359 0-9.708-2.244-9.708-5.019s4.349-5.019 9.708-5.019 9.708 2.261 9.708 5.019-4.349 5.019-9.708 5.019zm0-9.61c-5.136 0-9.28 2.056-9.28 4.591s4.161 4.591 9.28 4.591 9.28-2.056 9.28-4.591-4.16-4.591-9.28-4.591z" class="B"/><path d="M170.807 270.879c3.099 0 5.616 1.268 5.924 2.878a1.76 1.76 0 0 0 0-.308c0-1.713-2.671-3.186-5.975-3.186s-5.976 1.421-5.976 3.186a1.98 1.98 0 0 0 0 .308c.411-1.61 3.014-2.878 6.027-2.878z" fill="#ce8d1b"/><path d="M170.807 276.618c3.099 0 5.616-1.25 5.925-2.861-.309-1.61-2.826-2.878-5.925-2.878s-5.616 1.268-5.907 2.878c.291 1.611 2.894 2.861 5.907 2.861z" class="J"/><g class="D"><path d="M198.442 290.94c0 2.929-4.469 5.311-9.982 5.311s-9.982-2.382-9.982-5.311 4.469-5.311 9.982-5.311 9.982 2.382 9.982 5.311z"/><path d="M198.442 281.004h-19.964v9.936h19.964v-9.936z"/></g><path d="M182.056 289.004c-2.551 0-4.554-1.182-4.554-2.689s2.003-2.673 4.554-2.673 4.555 1.182 4.555 2.673-2.003 2.689-4.555 2.689zm0-4.3c-2.054 0-3.424.857-3.424 1.611s1.438 1.713 3.424 1.713 3.425-.857 3.425-1.713-1.37-1.611-3.425-1.611zm12.585-2.587c-2.568 0-4.572-1.182-4.572-2.672s2.004-2.673 4.572-2.673 4.554 1.165 4.554 2.673-2.003 2.672-4.554 2.672zm0-4.282c-2.072 0-3.51.839-3.51 1.61s1.438 1.61 3.51 1.61 3.424-.856 3.424-1.61-1.37-1.61-3.424-1.61z" class="B"/><path d="M198.442 282.871c0 2.947-4.469 5.311-9.982 5.311s-9.982-2.364-9.982-5.311 4.469-5.311 9.982-5.311 9.982 2.382 9.982 5.311z" class="D"/><path d="M198.442 281.055c0 2.93-4.469 5.311-9.982 5.311s-9.982-2.381-9.982-5.311 4.469-5.31 9.982-5.31 9.982 2.381 9.982 5.31z" class="Q"/><path d="M197.535 280.319c0 2.655-4.075 4.813-9.075 4.813s-9.075-2.158-9.075-4.813 4.075-4.831 9.075-4.831 9.075 2.158 9.075 4.831z" class="W"/><path d="M190.052 278.04c0 .497-.77.908-1.712.908s-1.712-.411-1.712-.908.77-.925 1.712-.925 1.712.411 1.712.925z" class="Q"/><path d="M190.052 276.31c0 .339-.1.67-.288.952s-.456.501-.769.631-.657.163-.989.097a1.71 1.71 0 0 1-.877-.469c-.239-.239-.402-.545-.468-.877a1.72 1.72 0 0 1 .728-1.759 1.71 1.71 0 0 1 2.162.214c.321.321.501.757.501 1.211z" class="D"/><path d="M151.237 252.258h-1.25v52.747l1.25.719v-53.466zm21.882 41.509v24.634l1.25.72v-24.823a11.43 11.43 0 0 0-1.25-.531zm25.546-14.099h-1.25v52.764l1.25.719v-53.483z" class="G"/><path d="M223.765 297.261l-96.961-56.276v-2.312l96.961 56.293v2.295z" class="C"/><path d="M223.765 294.966l40.219-23.247v2.295l-40.219 23.247v-2.295z" class="U"/><path d="M126.661 238.811l40.202-23.265 96.978 56.311-40.219 23.247-96.961-56.293zm71.712 68.883l-47.769-27.632v1.336l47.769 27.598v-1.302z" class="G"/><g class="C"><path d="M190.6 307.283l-9.109-5.259v3.426l1.182.702v-1.302a.46.46 0 0 1 .236-.401c.071-.04.152-.061.234-.059a.46.46 0 0 1 .232.066l4.691 2.707a2.17 2.17 0 0 1 1.079 1.885v.839l1.455.84v-3.444z"/><path d="M188.066 307.112l-4.691-2.707c-.07-.042-.15-.065-.232-.067s-.163.019-.234.059-.131.099-.173.169-.063.151-.063.233v1.302l6.472 3.735v-.84c.002-.381-.096-.757-.286-1.088s-.463-.605-.793-.796zm-21.197-13.414l-9.109-5.259v3.426l1.199.685v-1.319a.46.46 0 0 1 .065-.225c.04-.068.098-.125.167-.164a.46.46 0 0 1 .226-.062c.079-.001.157.019.227.057l4.726 2.673a2.21 2.21 0 0 1 1.095 1.884v.84l1.439.839-.035-3.375z"/><path d="M164.369 293.51l-4.691-2.707c-.07-.038-.148-.058-.227-.057a.46.46 0 0 0-.226.061c-.069.04-.126.096-.167.165a.46.46 0 0 0-.065.225v1.302l6.472 3.735v-.84a2.21 2.21 0 0 0-.299-1.087c-.192-.33-.467-.605-.797-.797zm-21.419-39.18l-9.109-5.259v3.426l1.199.686v-1.354c-.001-.081.019-.16.058-.231a.46.46 0 0 1 .166-.171c.069-.042.149-.064.229-.066a.47.47 0 0 1 .232.057l4.674 2.724a2.18 2.18 0 0 1 .801.795c.192.331.294.707.295 1.089v.84l1.438.839.017-3.375z"/><path d="M140.399 254.142l-4.691-2.707a.47.47 0 0 0-.232-.057.46.46 0 0 0-.229.066c-.069.042-.126.101-.166.171a.47.47 0 0 0-.058.231v1.285l6.472 3.735v-.84c-.001-.382-.103-.758-.295-1.089a2.18 2.18 0 0 0-.801-.795zm75.182 42.229l-9.109-5.26v3.426l1.181.686v-1.285c.003-.081.026-.161.067-.231s.1-.128.17-.169.15-.064.231-.066.162.017.234.055l4.692 2.706a2.2 2.2 0 0 1 .789.8c.189.33.289.704.289 1.085v.839l1.456.84v-3.426z"/><path d="M213.047 296.199l-4.691-2.706c-.072-.038-.153-.057-.234-.055a.48.48 0 0 0-.468.466v1.284l6.472 3.735v-.839a2.2 2.2 0 0 0-1.079-1.885zm1.079-191.304c-.238-1.041-.703-2.016-1.364-2.855s-1.499-1.519-2.455-1.994c-3.424-1.233-3.972.771-7.037 3.872-1.832 1.867-3.767 2.484-3.612 5.79 1.902 1.874 4.47 2.916 7.139 2.896 2.449.154 5.377-2.022 6.318 1.028.741-1.316 1.211-2.767 1.385-4.267a11.38 11.38 0 0 0-.374-4.47z"/></g><path d="M305.898 232.06l-3.424 3.426-4.041 3.906c-.976.959-.171 1.833 1.712 1.713a34.22 34.22 0 0 0 7.431-1.61c1.939-.813 3.806-1.788 5.582-2.912a3.72 3.72 0 0 0 1.712-2.091v-2.929l-8.972.497zm23.235 3.649l-.548 6.852c-.205 3.838.325 7.144 1.49 7.555s4.451.36 6.318-4.899a20.74 20.74 0 0 0 .753-10.279l-8.013.771z" fill="#535353"/><path d="M367.879 213.524l-40.287 23.35v50.605l40.287-23.367v-50.588z" class="C"/><path d="M326.359 236.154l-95.66-55.317v50.606l96.893 56.036v-50.605l-1.233-.72z" class="E"/><path d="M327.66 237.096l-96.961-56.276v-2.295l96.961 56.276v2.295z" class="C"/><path d="M327.66 234.801l40.219-23.247v2.295l-40.219 23.247v-2.295z" class="U"/><path d="M230.699 178.525l40.202-23.282 96.978 56.311-40.219 23.247-96.961-56.276zm0 27.598v1.354l96.893 56.002v-1.285l-96.893-56.071z" class="G"/><path d="M367.914 238.861l-40.322 23.333v1.285l40.322-23.299v-1.319z" class="E"/><path d="M305.625 197.489l-26.437-15.281 17.242-10.056 26.47 15.349-17.275 9.988z" class="D"/><path d="M279.188 182.208v1.062l26.437 15.281v-1.062l-26.437-15.281z" class="R"/><path d="M305.625 197.489v1.062l17.275-9.987v-1.063l-17.275 9.988z" fill="#c94a3d"/><path d="M303.056 183.39c-2.328 0-7.02.103-6.352 2.176.445 1.353 3.647 1.593 7.088 1.559s8.681.548 9.092-1.474c.445-2.552-2.174-2.073-9.828-2.261z" class="P"/><path d="M298.399 180.084l5.976 8.017-.274.137-6.301-7.401c-.342-.788.599-.753.599-.753z" class="K"/><path d="M297.8 179.878l-.873 1.216a28.33 28.33 0 0 0 3.321 4.66 8.09 8.09 0 0 0 3.853 2.553l-6.301-8.429z" class="B"/><path d="M293.708 172.135s.359-.223.599 0a20.37 20.37 0 0 1 2.62 4.488l1.849 3.529-.428.154-2.997-3.717-1.643-4.454z" fill="#282828"/><path d="M293.245 172.769a3.58 3.58 0 0 0-.085 1.336 8.91 8.91 0 0 0 1.438 3.734 38.43 38.43 0 0 0 2.534 3.821l1.216-1.337-3.082-5.464c-1.113-2.347-1.421-3.547-2.021-2.09z" class="C"/><g class="P"><path d="M307.405 192.607c0 .633-.976 1.164-2.191 1.164s-2.192-.531-2.192-1.164.976-1.182 2.192-1.182 2.191.531 2.191 1.182z"/><path d="M307.405 191.87h-4.383v.737h4.383v-.737z"/></g><path d="M307.405 191.87c0 .634-.976 1.165-2.191 1.165s-2.158-.531-2.158-1.165.976-1.182 2.192-1.182 2.157.531 2.157 1.182z" class="S"/><g class="T"><path d="M305.179 191.63s-.907-.565-.308-.754.308.754.308.754zm-.411.24a.96.96 0 0 0-.435.088c-.137.062-.257.155-.352.272-.12.342.89.497.787-.36z"/><path d="M306.036 191.87c.256 0 .633 0 .77.36s-.89.411-.77-.36zm-.822 0a.97.97 0 0 0 0 .651c.137.257.513.154.513 0s-.513-.651-.513-.651zm-.668-.24s-1.301.411-.959-.205.959.205.959.205zm1.079-.12s.308-.582.684-.411.172.36-.684.411z"/></g><g class="P"><path d="M312.764 191.065c0 .651-.976 1.165-2.191 1.165s-2.192-.514-2.192-1.165.976-1.165 2.192-1.165 2.191.514 2.191 1.165z"/><path d="M312.764 190.328h-4.383v.737h4.383v-.737z"/></g><path d="M310.573 191.493c1.21 0 2.191-.522 2.191-1.165s-.981-1.165-2.191-1.165-2.192.522-2.192 1.165.981 1.165 2.192 1.165z" class="S"/><g class="T"><path d="M310.556 190.157s-.925-.583-.308-.771.308.771.308.771zm-.429.24a.93.93 0 0 0-.431.093c-.134.066-.251.163-.339.284-.137.274.89.411.77-.377z"/><path d="M311.395 190.328c.256 0 .633.086.77.36s-.89.428-.77-.36zm-.822 0a.97.97 0 0 0 0 .651c.019.053.054.098.1.13s.101.049.157.049.11-.017.156-.049.081-.077.1-.13c0-.445-.513-.651-.513-.651zm-.668-.171s-1.284.394-.959-.206.959.206.959.206zm1.096-.189s.291-.582.667-.411.103.377-.667.411z"/></g><g class="P"><path d="M300.83 189.42c0 .634-.975 1.165-2.191 1.165s-2.192-.531-2.192-1.165.976-1.182 2.192-1.182 2.191.531 2.191 1.182z"/><path d="M300.83 188.684h-4.383v.736h4.383v-.736z"/></g><path d="M300.83 188.684c0 .633-.975 1.164-2.191 1.164s-2.192-.531-2.192-1.164.976-1.183 2.192-1.183 2.191.532 2.191 1.183z" class="S"/><g class="T"><path d="M298.622 188.444s-.925-.583-.309-.771.309.771.309.771zm-.428.308a.92.92 0 0 0-.432.094.93.93 0 0 0-.339.283c-.137.257.89.411.771-.377z"/><path d="M299.461 188.684c.256 0 .633 0 .77.359s-.89.429-.77-.359zm-.822 0a.98.98 0 0 0 0 .651.27.27 0 0 0 .1.129c.046.032.101.049.157.049s.11-.017.156-.049a.28.28 0 0 0 .101-.129c0-.446-.514-.651-.514-.651zm-.719-.24s-1.284.394-.959-.223.959.223.959.223zm1.147-.12s.291-.583.668-.411.102.359-.668.411z"/></g><path d="M331.958 222.244c10.165 0 18.406-4.388 18.406-9.799s-8.241-9.799-18.406-9.799-18.406 4.387-18.406 9.799 8.241 9.799 18.406 9.799z" class="E"/><path d="M314.357 206.312c0 3.066-4.64 5.533-10.376 5.533s-10.393-2.467-10.393-5.533 4.657-5.517 10.393-5.517 10.376 2.467 10.376 5.517z" class="H"/><path d="M314.357 205.112c0 3.05-4.64 5.534-10.376 5.534s-10.393-2.484-10.393-5.534 4.657-5.533 10.393-5.533 10.376 2.57 10.376 5.533z" class="D"/><path d="M314.357 204.05c0 3.05-4.64 5.534-10.376 5.534s-10.393-2.484-10.393-5.534 4.657-5.516 10.393-5.516 10.376 2.467 10.376 5.516z" class="H"/><path d="M314.357 202.577c0 3.049-4.64 5.533-10.376 5.533s-10.393-2.484-10.393-5.533 4.657-5.533 10.393-5.533 10.376 2.484 10.376 5.533z" class="D"/><path d="M314.357 201.292c0 3.049-4.64 5.534-10.376 5.534s-10.393-2.485-10.393-5.534 4.657-5.533 10.393-5.533 10.376 2.484 10.376 5.533z" class="H"/><path d="M303.929 206.329c-5.342 0-9.708-2.262-9.708-5.02s4.366-5.019 9.708-5.019 9.708 2.244 9.708 5.019-4.348 5.02-9.708 5.02zm0-9.611c-5.136 0-9.28 2.056-9.28 4.591s4.161 4.591 9.28 4.591 9.28-2.072 9.28-4.591-4.16-4.591-9.28-4.591z" class="B"/><path d="M303.947 198.722c3.099 0 5.616 1.251 5.924 2.861a1.98 1.98 0 0 0 0-.308c0-1.713-2.671-3.186-5.976-3.186s-5.958 1.421-5.958 3.186a1.98 1.98 0 0 0 0 .308c.394-1.593 2.911-2.861 6.01-2.861z" class="R"/><path d="M303.947 204.461c3.099 0 5.616-1.25 5.924-2.861-.308-1.61-2.825-2.86-5.924-2.86s-5.616 1.25-5.907 2.86c.291 1.611 2.808 2.861 5.907 2.861z" class="D"/><path d="M274.394 170.165l6.849-3.649c1.318-.754 2.414-1.354 2.157-2.107s-9.245 5.036-9.245 5.036l.239.72z" fill="#282828"/><path d="M274.137 168.452l6.507-3.906c2.003-1.182 3.938-.463 1.815.753l-7.072 3.821-1.25-.668z" class="C"/><path d="M275.781 169.377v.531a22.26 22.26 0 0 1-6.215 3.426c-2.962.908-4.178-.137-4.178-.137l10.393-3.82z" class="K"/><path d="M274.137 168.452l-8.749 4.831s2.329 1.079 6.489-1.268c1.365-.781 2.67-1.663 3.904-2.638l-1.644-.925z" class="B"/><path d="M325.777 211.896l-3.185-2.038h3.87l-.685 2.038z" fill="#4c4c4c"/><path d="M315.607 212.496l-3.493.068v7.178l3.493 2.039v-9.285z" class="C"/><path d="M328.225 207.322l-12.601 7.281-3.51-2.039 12.584-7.28 3.527 2.038z" class="G"/><g class="C"><path d="M315.606 214.603v7.178l3.151-1.799v-5.687l9.451-5.431v-1.542l-12.602 7.281z"/><path d="M328.208 208.436v2.038l-2.431 1.422v-2.347l2.431-1.113z"/></g><path d="M260.252 183.047c0 4.951 4.657 8.943 10.393 8.943s10.375-3.992 10.375-8.943h-20.768z" class="D"/><path d="M280.935 182.773c0-3.049-4.64-5.533-10.376-5.533s-10.393 2.484-10.393 5.533c0 2.073 2.174 3.889 5.376 4.831.565-1.182 2.586-2.073 5.017-2.073s4.435.891 5 2.073c3.201-.873 5.376-2.758 5.376-4.831z" class="B"/><path d="M270.525 185.531c-2.431 0-4.452.891-5.017 2.073 3.276.914 6.74.914 10.016 0-.53-1.182-2.551-2.073-4.999-2.073z" class="H"/><g class="P"><path d="M275.935 184.692c.394.514 0 1.525-1.027 2.261s-2.055.943-2.448.429-.001-1.525 1.027-2.262 2.054-.942 2.448-.428z"/><path d="M275.479 184.107l-3.464 2.686.45.582 3.465-2.686-.451-.582z"/></g><path d="M275.49 184.109c.394.514 0 1.525-1.027 2.262s-2.055.942-2.449.428 0-1.525 1.011-2.261 2.071-.942 2.465-.429z" class="S"/><g class="T"><path d="M273.59 185.292s-1.079.102-.702-.412.702.412.702.412zm-.154.496c-.189.172-.446.463-.377.771s.89-.222.377-.771zm.958-.771a.93.93 0 0 1 .399-.188c.146-.03.297-.024.44.017.274.052-.445.805-.839.171zm-.65.446a.97.97 0 0 0 .411.514c.052.025.11.033.167.022a.27.27 0 0 0 .149-.08c.04-.042.065-.095.073-.153s-.003-.115-.03-.166c-.24-.291-.77-.137-.77-.137z"/><path d="M273.076 185.686s-.771 1.113-.873.428.873-.428.873-.428zm.873-.771s-.12-.651.274-.737.223.223-.274.737z"/></g><g class="O"><use xlink:href="#F"/><path d="M271.107 185.891h-4.383v.737h4.383v-.737z"/></g><use xlink:href="#F" y="-0.737" class="V"/><path d="M268.059 185.103c.041.067.063.144.063.223s-.022.155-.063.223a2.26 2.26 0 0 1-.822.325c.37.041.736.11 1.096.206.24.102.582.702.582.702s-.102-.668.308-.668c.414.041.821.127 1.216.257 0 0-.856-.566-.565-.754.135-.104.261-.218.377-.343l-1.096.172a2.11 2.11 0 0 1-1.096-.343z" class="N"/><g class="O"><path d="M267.357 185.84c-.291.582-1.404.616-2.482 0s-1.713-1.422-1.473-2.005 1.387-.616 2.483-.102 1.746 1.524 1.472 2.107z"/><path d="M267.676 185.165l-3.945-1.912-.321.663 3.945 1.912.321-.663z"/></g><path d="M267.683 185.172c-.292.582-1.404.616-2.5 0s-1.712-1.422-1.456-2.005 1.387-.616 2.483 0 1.746 1.422 1.473 2.005z" class="V"/><path d="M265.251 183.133s0 .308-.188.394a2.14 2.14 0 0 1-.873 0 5.97 5.97 0 0 1 .89.651 2.35 2.35 0 0 1 .223.891s.205-.651.565-.48a6.07 6.07 0 0 1 .993.771s-.531-.874-.189-.925a3.15 3.15 0 0 0 .497-.137l-1.079-.326c-.428-.188-.839-.839-.839-.839z" class="N"/><g class="P"><path d="M270.525 184.641c-.171.633-1.25.89-2.414.582s-2.004-1.079-1.832-1.713 1.25-.874 2.414-.565 2.072 1.079 1.832 1.696z"/><path d="M266.526 182.802l-.187.712 4.239 1.115.187-.712-4.239-1.115z"/></g><path d="M270.781 183.938c-.171.617-1.249.874-2.414.565s-2.003-1.062-1.832-1.713 1.25-.873 2.414-.565 1.987 1.079 1.832 1.713z" class="S"/><g class="T"><path d="M268.693 183.15s-.737-.788-.103-.822.103.822.103.822zm-.497.154a.93.93 0 0 0-.839.154c-.257.257.753.669.839-.154z"/><path d="M269.446 183.578a.77.77 0 0 1 .651.549c.051.291-.959.188-.651-.549zm-.787-.274a.96.96 0 0 0-.172.634c0 .291.463.274.514 0s-.342-.634-.342-.634zm-.6-.325s-1.335 0-.856-.428.856.428.856.428zm1.096.171s.445-.497.753-.24.018.394-.753.24z"/></g><g class="O"><path d="M287.903 183.304c0 .651-.993 1.182-2.208 1.182s-2.192-.531-2.192-1.182.993-1.165 2.192-1.165 2.208.514 2.208 1.165z"/><path d="M287.886 182.551h-4.383v.736h4.383v-.736z"/></g><path d="M285.695 183.715c1.21 0 2.191-.521 2.191-1.164s-.981-1.165-2.191-1.165-2.192.521-2.192 1.165.981 1.164 2.192 1.164z" class="V"/><path d="M284.821 181.78s.172.257 0 .445a2.44 2.44 0 0 1-.804.326c.37.041.736.109 1.096.205.239.103.582.702.582.702s-.103-.685.308-.685c.413.041.821.128 1.215.257 0 0-.856-.548-.565-.736.135-.104.261-.219.377-.343l-1.113.171a2.18 2.18 0 0 1-1.096-.342z" class="N"/><g class="O"><path d="M289.205 181.334c1.21 0 2.191-.521 2.191-1.165s-.981-1.165-2.191-1.165-2.192.522-2.192 1.165.981 1.165 2.192 1.165z"/><path d="M291.396 179.433h-4.383v.736h4.383v-.736z"/></g><path d="M291.396 179.433c0 .634-.976 1.165-2.191 1.165s-2.192-.531-2.192-1.165.976-1.182 2.192-1.182 2.191.531 2.191 1.182z" class="V"/><path d="M288.332 178.645s.154.274 0 .445a2.17 2.17 0 0 1-.822.326c.37.039.736.108 1.096.205.256.103.599.703.599.703s-.12-.669.291-.669a5.5 5.5 0 0 1 1.216.257s-.857-.548-.565-.753c.142-.102.274-.216.393-.343l-1.113.171a2.1 2.1 0 0 1-1.095-.342z" class="N"/><g class="F"><path d="M290.883 201.104c0 1.079-1.713 1.953-3.664 1.953s-3.665-.874-3.665-1.953 1.713-1.936 3.665-1.936 3.664.874 3.664 1.936z"/><path d="M290.865 188.821h-7.311v12.283h7.311v-12.283z"/></g><path d="M290.883 188.821c0 1.079-1.713 1.953-3.664 1.953s-3.665-.874-3.665-1.953 1.713-1.936 3.665-1.936 3.664.873 3.664 1.936z" fill="#ffd892"/><g class="F"><path d="M289.359 188.632c0 .617-.925 1.097-2.072 1.097s-2.072-.48-2.072-1.097.925-1.096 2.072-1.096 2.072.497 2.072 1.096z"/><path d="M289.273 187.639h-4.126v.993h4.126v-.993z"/></g><path d="M289.359 187.639c0 .616-.925 1.096-2.072 1.096s-2.072-.48-2.072-1.096.925-1.097 2.072-1.097 2.072.497 2.072 1.097z" fill="#ffe5c5"/><g class="F"><path d="M288.246 187.639c0 .308-.462.548-1.028.548s-1.027-.24-1.027-.548.462-.549 1.027-.549 1.028.24 1.028.549z"/><path d="M286.191 187.639l.514-1.628h1.027l.514 1.628h-2.055z"/></g><path d="M287.732 186.011c0 .154-.222.274-.514.274s-.513-.12-.513-.274.222-.274.513-.274.514.12.514.274z" fill="#ffe5c5"/><defs ><path id="B" d="M80.661 127.302c0 2.827 4.315 5.14 9.623 5.14s9.605-2.296 9.605-5.14-4.298-5.139-9.605-5.139-9.623 2.313-9.623 5.139z"/><path id="C" d="M65.594 134.857c0 2.827 4.297 5.14 9.622 5.14s9.605-2.279 9.605-5.14-4.298-5.139-9.605-5.139-9.622 2.313-9.622 5.139z"/><path id="D" d="M49.003 157.693c1.816 0 3.287-.752 3.287-1.679s-1.472-1.679-3.287-1.679-3.287.752-3.287 1.679 1.472 1.679 3.287 1.679z"/><path id="E" d="M53.591 201.498c0 2.175 3.322 3.94 7.414 3.94s7.431-1.713 7.431-3.94-3.322-3.958-7.431-3.958-7.414 1.765-7.414 3.958z"/><path id="F" d="M271.124 186.628c0 .634-.993 1.165-2.209 1.165s-2.191-.531-2.191-1.165.993-1.182 2.191-1.182 2.209.531 2.209 1.182z"/></defs></svg>