<svg width="400" height="367" viewBox="0 0 400 367" fill="none" xmlns="http://www.w3.org/2000/svg">
<path d="M210.016 135.183L0.0170898 256.575L190.001 366.968L400 245.611L210.016 135.183Z" fill="#DDCEEA"/>
<g opacity="0.5">
<path opacity="0.5" d="M0.0170898 256.575L45.2016 282.974L146.357 224.334L100.608 198.534L0.0170898 256.575Z" fill="#9C8BAF"/>
</g>
<g opacity="0.5">
<path opacity="0.5" d="M274.531 317.853L229.347 344.252L128.191 285.612L173.941 259.812L274.531 317.853Z" fill="#9C8BAF"/>
</g>
<g opacity="0.5">
<path opacity="0.5" d="M377.553 258.425L332.369 284.807L231.213 226.167L276.963 200.367L377.553 258.425Z" fill="#9C8BAF"/>
</g>
<g opacity="0.5">
<path opacity="0.5" d="M152.504 168.571L197.689 194.971L255.475 161.325L210.187 135.388L152.504 168.571Z" fill="#9C8BAF"/>
</g>
<g opacity="0.5">
<path opacity="0.5" d="M158.103 335.121C147.402 335.121 138.704 330.77 137.677 325.22C138.704 319.669 147.402 315.318 158.103 315.318C168.804 315.318 177.502 319.669 178.529 325.22C177.502 330.77 168.804 335.121 158.103 335.121Z" fill="#9C8BAF"/>
</g>
<g opacity="0.5">
<path opacity="0.5" d="M157.76 348.038L156.014 347.028L366.013 225.67L367.742 226.664L157.76 348.038Z" fill="white"/>
</g>
<g opacity="0.5">
<path opacity="0.5" d="M102.354 316.02L100.608 314.992L310.607 193.634L312.336 194.628L102.354 316.02Z" fill="white"/>
</g>
<g opacity="0.5">
<path opacity="0.5" d="M46.9481 284.002L45.2017 282.974L255.218 161.616L256.93 162.61L46.9481 284.002Z" fill="white"/>
</g>
<path d="M199.332 190.551L251.485 160.4V24.5662L199.332 54.7343V190.551Z" fill="#352C4F"/>
<path d="M156.767 30.3052L199.332 54.7343V190.551L156.767 165.985V30.3052Z" fill="#564866"/>
<path d="M251.485 24.5662L209.109 0L156.767 30.3052L199.332 54.7343L251.485 24.5662Z" fill="#9C8BAF"/>
<path d="M199.332 81.7332L251.4 51.5993V53.0383L199.332 83.1379V81.7332Z" fill="#564866"/>
<path d="M191.936 77.4503L199.332 81.7332V83.1379L191.936 78.8722V77.4503Z" fill="#352C4F"/>
<path d="M191.936 186.319L193.237 187.056V79.0264L191.936 78.2213V186.319Z" fill="#352C4F"/>
<path d="M219.313 54.5973L233.918 46.1687V53.8435L219.313 62.2721V54.5973Z" fill="#564866"/>
<path d="M220.58 75.3946L235.168 66.966V69.8783L220.58 78.324V75.3946Z" fill="white"/>
<path d="M175.225 91.1725L188.751 98.9843V73.0305L175.225 65.2186V91.1725Z" fill="white"/>
<path d="M183.426 73.9898C183.439 74.5684 183.586 75.1361 183.856 75.6477C184.127 76.1592 184.513 76.6005 184.984 76.9364C185.84 77.4332 186.525 76.9364 186.525 75.7715C186.518 75.1912 186.376 74.6206 186.108 74.1057C185.84 73.5909 185.455 73.1463 184.984 72.8078C184.128 72.311 183.426 72.8421 183.426 73.9898Z" fill="#FF0029"/>
<path d="M175.995 74.5209L187.381 81.0993V82.1957L175.995 75.6173V74.5209Z" fill="#352C4F"/>
<path d="M175.995 85.2108L187.381 91.8063V92.9027L175.995 86.3072V85.2108Z" fill="#352C4F"/>
<path d="M175.995 88.0203L187.381 94.6159V95.7123L175.995 89.1339V88.0203Z" fill="#352C4F"/>
<path d="M158.565 88.2088L172.109 96.0206V78.0842L158.565 70.2724V88.2088Z" fill="white"/>
<path d="M164.113 73.4759C164.119 74.0562 164.262 74.6268 164.53 75.1416C164.797 75.6565 165.182 76.1011 165.654 76.4396C166.51 76.9364 167.212 76.4396 167.212 75.2747C167.202 74.6932 167.056 74.1221 166.785 73.6074C166.514 73.0926 166.127 72.6486 165.654 72.311C164.797 71.8142 164.113 72.3452 164.113 73.4759Z" fill="#EA642F"/>
<path d="M159.336 74.3839L170.722 80.9623V82.0587L159.336 75.4803V74.3839Z" fill="#352C4F"/>
<path d="M173.393 94.3932L181.988 99.3612V117.298L173.393 112.33V94.3932Z" fill="white"/>
<path d="M176.149 99.0015C176.156 99.5818 176.299 100.152 176.566 100.667C176.834 101.182 177.219 101.627 177.69 101.965C178.546 102.462 179.248 101.965 179.248 100.8C179.238 100.219 179.092 99.6477 178.822 99.1329C178.551 98.6182 178.164 98.1742 177.69 97.8365C176.834 97.3397 176.149 97.8708 176.149 99.0015Z" fill="#FFC249"/>
<path d="M174.215 101.348L180.926 105.237V106.334L174.215 102.445V101.348Z" fill="#352C4F"/>
<path d="M213.749 86.6841C213.736 87.2627 213.589 87.8304 213.318 88.3419C213.048 88.8535 212.662 89.2948 212.191 89.6307C211.352 90.1275 210.65 89.6307 210.65 88.4658C210.66 87.8862 210.805 87.317 211.072 86.8028C211.34 86.2886 211.723 85.8434 212.191 85.5021C213.047 85.0052 213.749 85.5363 213.749 86.6841Z" fill="#FFC249"/>
<path d="M220.871 91.5494C220.862 92.1309 220.715 92.702 220.445 93.2167C220.174 93.7314 219.787 94.1754 219.313 94.5131C218.457 95.0099 217.772 94.5131 217.772 93.331C217.782 92.7536 217.926 92.1864 218.193 91.6748C218.461 91.1631 218.845 90.7212 219.313 90.3844C220.17 89.8876 220.871 90.4187 220.871 91.5494Z" fill="#FF0029"/>
<path d="M249.208 88.2773L253.609 90.7956L249.722 92.9713L245.39 90.4701L249.208 88.2773Z" fill="#9C8BAF"/>
<path d="M253.608 90.7956V124.064L249.722 126.309V92.9713L253.608 90.7956Z" fill="#78688E"/>
<path d="M245.39 90.4701V92.4745L247.702 93.8107V123.054L245.544 121.803V123.927L249.722 126.309V92.9884L245.39 90.4701Z" fill="#564866"/>
<path d="M245.544 121.803L247.702 123.054V120.535L245.544 121.803Z" fill="#9C8BAF"/>
<path d="M41.3664 131.345V167.972L12.4819 151.183V114.557L41.3664 131.345Z" fill="#564866"/>
<path d="M41.3663 131.328L122.524 84.4913V120.878L41.3663 167.972V131.328Z" fill="#352C4F"/>
<path d="M107.953 112.689L120.812 120.09L43.1984 164.888V150.224L107.953 112.689Z" fill="#9C8BAF"/>
<path d="M120.812 105.237V120.09L107.953 112.689L120.812 105.237Z" fill="#564866"/>
<path d="M107.953 95.0784L120.812 102.479L43.1984 147.277V132.596L107.953 95.0784Z" fill="#352C4F"/>
<path d="M120.812 87.6092V102.479L107.953 95.0784L120.812 87.6092Z" fill="#564866"/>
<path d="M115.059 116.081C115.059 120.655 110.761 124.356 105.453 124.356C100.146 124.356 95.8822 120.672 95.8822 116.098H115.059V116.081Z" fill="#FFC249"/>
<path d="M95.8822 115.824C95.8822 112.998 100.18 110.685 105.505 110.685C110.83 110.685 115.11 112.981 115.11 115.824C115.11 117.743 113.107 119.422 110.145 120.296C109.593 119.614 108.879 119.081 108.068 118.746C107.258 118.411 106.377 118.284 105.505 118.377C104.632 118.273 103.747 118.394 102.934 118.73C102.122 119.066 101.409 119.605 100.865 120.296C97.8341 119.422 95.8822 117.743 95.8822 115.824Z" fill="white"/>
<path d="M105.453 118.377C106.325 118.284 107.207 118.411 108.017 118.746C108.827 119.081 109.541 119.614 110.093 120.296C108.585 120.727 107.022 120.941 105.453 120.929C103.884 120.943 102.321 120.73 100.813 120.296C101.358 119.605 102.071 119.066 102.883 118.73C103.695 118.394 104.58 118.273 105.453 118.377Z" fill="#E2A730"/>
<path d="M80.6609 127.302C80.6609 130.129 84.9756 132.442 90.2834 132.442C95.5911 132.442 99.8887 130.146 99.8887 127.302C99.8887 124.458 95.5911 122.163 90.2834 122.163C84.9756 122.163 80.6609 124.476 80.6609 127.302Z" fill="#FFB89F"/>
<path d="M80.6609 126.189C80.6609 129.015 84.9756 131.328 90.2834 131.328C95.5911 131.328 99.8887 129.033 99.8887 126.189C99.8887 123.345 95.5911 121.049 90.2834 121.049C84.9756 121.049 80.6609 123.345 80.6609 126.189Z" fill="#FE9380"/>
<path d="M80.6609 125.212C80.6609 128.039 84.9756 130.352 90.2834 130.352C95.5911 130.352 99.8887 128.056 99.8887 125.212C99.8887 122.368 95.5911 120.073 90.2834 120.073C84.9756 120.073 80.6609 122.386 80.6609 125.212Z" fill="#FFB89F"/>
<path d="M80.6609 123.842C80.6609 126.668 84.9756 128.981 90.2834 128.981C95.5911 128.981 99.8887 126.686 99.8887 123.842C99.8887 120.998 95.5911 118.702 90.2834 118.702C84.9756 118.702 80.6609 121.015 80.6609 123.842Z" fill="#FE9380"/>
<path d="M80.6609 122.66C80.6609 125.486 84.9756 127.799 90.2834 127.799C95.5911 127.799 99.8887 125.521 99.8887 122.66C99.8887 119.799 95.5911 117.52 90.2834 117.52C84.9756 117.52 80.6609 119.919 80.6609 122.66Z" fill="#FFB89F"/>
<path d="M90.3176 127.337C85.3522 127.337 81.3286 125.247 81.3286 122.66C81.3286 120.073 85.3522 118 90.3176 118C95.2829 118 99.3065 120.09 99.3065 122.66C99.3065 125.229 95.2829 127.337 90.3176 127.337ZM90.3176 118.428C85.5919 118.428 81.7567 120.33 81.7567 122.66C81.7567 124.99 85.5919 126.908 90.3176 126.908C95.0432 126.908 98.8785 125.007 98.8785 122.66C98.8785 120.313 95.0432 118.428 90.3176 118.428Z" fill="white"/>
<path d="M90.3005 120.296C87.424 120.296 85.1639 121.461 84.8215 122.951C84.8147 122.854 84.8147 122.757 84.8215 122.66C84.8215 121.032 87.3041 119.713 90.3518 119.713C93.3995 119.713 95.8822 121.032 95.8822 122.66C95.8889 122.757 95.8889 122.854 95.8822 122.951C95.5055 121.461 93.1769 120.296 90.3005 120.296Z" fill="#FFB3A9"/>
<path d="M90.3005 125.589C87.4241 125.589 85.164 124.424 84.8215 122.951C85.0955 121.461 87.4241 120.296 90.3005 120.296C93.177 120.296 95.4371 121.461 95.7795 122.951C95.5056 124.424 93.177 125.589 90.3005 125.589Z" fill="#FE9380"/>
<path d="M65.5938 135.971C65.5938 138.797 69.8913 141.11 75.2162 141.11C80.5411 141.11 84.8216 138.832 84.8216 135.971C84.8216 133.11 80.524 130.831 75.2162 130.831C69.9084 130.831 65.5938 133.144 65.5938 135.971Z" fill="#FFC249"/>
<path d="M65.5938 134.857C65.5938 137.684 69.8913 139.997 75.2162 139.997C80.5411 139.997 84.8216 137.718 84.8216 134.857C84.8216 131.996 80.524 129.718 75.2162 129.718C69.9084 129.718 65.5938 132.031 65.5938 134.857Z" fill="#E2A730"/>
<path d="M65.5938 133.864C65.5938 136.69 69.8913 139.003 75.2162 139.003C80.5411 139.003 84.8216 136.707 84.8216 133.864C84.8216 131.02 80.524 128.724 75.2162 128.724C69.9084 128.724 65.5938 131.037 65.5938 133.864Z" fill="#FFC249"/>
<path d="M65.5938 132.51C65.5938 135.337 69.8913 137.65 75.2162 137.65C80.5411 137.65 84.8216 135.371 84.8216 132.51C84.8216 129.649 80.524 127.371 75.2162 127.371C69.9084 127.371 65.5938 129.684 65.5938 132.51Z" fill="#E2A730"/>
<path d="M65.5938 131.311C65.5938 134.138 69.8913 136.45 75.2162 136.45C80.5411 136.45 84.8216 134.155 84.8216 131.311C84.8216 128.467 80.524 126.172 75.2162 126.172C69.9084 126.172 65.5938 128.484 65.5938 131.311Z" fill="#FFC249"/>
<path d="M75.336 135.988C70.3707 135.988 66.33 133.898 66.33 131.328C66.33 128.758 70.3707 126.651 75.336 126.651C80.3014 126.651 84.3421 128.758 84.3421 131.328C84.3421 133.898 80.2158 135.988 75.336 135.988ZM75.336 127.08C70.6104 127.08 66.7751 128.981 66.7751 131.328C66.7751 133.675 70.6275 135.56 75.336 135.56C80.0445 135.56 83.8969 133.658 83.8969 131.328C83.8969 128.998 79.976 127.08 75.336 127.08Z" fill="white"/>
<path d="M75.2332 128.947C72.3568 128.947 70.0967 130.112 69.7542 131.602C69.746 131.505 69.746 131.408 69.7542 131.311C69.7542 129.598 72.2198 128.364 75.2846 128.364C78.3494 128.364 80.8149 129.684 80.8149 131.311C80.8232 131.408 80.8232 131.505 80.8149 131.602C80.4725 130.197 78.0926 128.947 75.2332 128.947Z" fill="#CE8D1B"/>
<path d="M75.2333 134.258C78.2592 134.258 80.7122 133.069 80.7122 131.602C80.7122 130.136 78.2592 128.947 75.2333 128.947C72.2073 128.947 69.7543 130.136 69.7543 131.602C69.7543 133.069 72.2073 134.258 75.2333 134.258Z" fill="#E2A730"/>
<path d="M59.7039 140.75H70.2509L68.9325 146.438C68.727 147.5 67.032 148.339 64.9603 148.339C62.8885 148.339 61.2106 147.5 61.0051 146.438L59.7039 140.75Z" fill="white"/>
<path d="M59.6696 140.476C59.6696 142.035 62.0495 143.303 64.9602 143.303C67.8709 143.303 70.1995 142.018 70.1995 140.476C70.1995 138.934 67.8195 137.667 64.8917 137.667C61.9639 137.667 59.6696 138.9 59.6696 140.476Z" fill="#D6A3C0"/>
<path d="M60.3201 140.476C60.3201 141.795 62.3918 142.84 64.9601 142.84C67.5284 142.84 69.6172 141.795 69.6172 140.476C69.6172 139.157 67.5284 138.112 64.9601 138.112C62.3918 138.112 60.3201 139.157 60.3201 140.476Z" fill="#F4C6DC"/>
<path d="M61.6385 146.284C61.6385 147.209 63.111 147.997 64.9259 147.997C66.7408 147.997 68.2133 147.243 68.2133 146.284C68.2133 145.324 66.7408 144.571 64.9259 144.571C63.111 144.571 61.6385 145.359 61.6385 146.284Z" fill="#F4C6DC"/>
<path d="M51.7764 145.479H62.3063L61.005 151.149C60.7824 152.228 59.1045 153.068 57.0328 153.068C54.961 153.068 53.2831 152.177 53.0776 151.098L51.7764 145.479Z" fill="white"/>
<path d="M51.7421 145.187C51.7421 146.729 54.1049 147.997 57.0327 147.997C59.9605 147.997 62.3233 146.729 62.3233 145.187C62.3233 143.645 59.9263 142.361 57.0327 142.361C54.1391 142.361 51.7421 143.628 51.7421 145.187Z" fill="#D6A3C0"/>
<path d="M52.3928 145.187C52.3928 146.489 54.4646 147.551 57.0328 147.551C59.6011 147.551 61.6386 146.489 61.6386 145.187C61.6386 143.885 59.5497 142.806 56.9815 142.806C54.4132 142.806 52.3928 143.902 52.3928 145.187Z" fill="#F4C6DC"/>
<path d="M53.7454 150.995C53.7454 151.92 55.2178 152.708 57.0328 152.708C58.8477 152.708 60.3201 151.954 60.3201 150.995C60.3201 150.035 58.8477 149.282 57.0328 149.282C55.2178 149.282 53.7454 150.07 53.7454 150.995Z" fill="#F4C6DC"/>
<path d="M43.7291 150.481H54.2762L52.9578 156.168C52.7523 157.231 51.0573 158.07 49.0026 158.07C46.948 158.07 45.2358 157.231 45.0304 156.168L43.7291 150.481Z" fill="white"/>
<path d="M43.6948 150.19C43.6948 151.749 46.0748 153.016 49.0026 153.016C51.9304 153.016 54.2932 151.749 54.2932 150.19C54.2932 148.631 51.9133 147.329 49.0026 147.329C46.0919 147.329 43.6948 148.648 43.6948 150.19Z" fill="#D6A3C0"/>
<path d="M44.3456 150.19C44.3456 151.509 46.4344 152.571 49.0027 152.571C51.571 152.571 53.6427 151.509 53.6427 150.19C53.6427 148.871 51.571 147.826 49.0027 147.826C46.4344 147.826 44.3456 148.888 44.3456 150.19Z" fill="#F4C6DC"/>
<path d="M49.0026 157.693C50.8182 157.693 52.29 156.941 52.29 156.014C52.29 155.087 50.8182 154.335 49.0026 154.335C47.187 154.335 45.7152 155.087 45.7152 156.014C45.7152 156.941 47.187 157.693 49.0026 157.693Z" fill="#F4C6DC"/>
<path d="M120.812 102.479L43.1984 147.277V150.224L120.812 105.237V102.479Z" fill="#352C4F"/>
<path d="M120.812 102.479L107.953 95.0784L43.1984 132.596V147.277L120.812 102.479Z" fill="#9C8BAF"/>
<path d="M81.3115 98.5561C76.8598 103.301 79.9247 108.732 88.1603 110.651C96.3958 112.569 106.703 110.308 111.172 105.511C115.641 100.715 112.559 95.3354 104.323 93.3996C96.0877 91.4637 85.7803 93.8107 81.3115 98.5561Z" fill="#FFC249"/>
<path d="M81.3115 96.3461C76.8598 101.091 79.9247 106.505 88.1603 108.441C96.3958 110.377 106.703 108.098 111.172 103.301C115.641 98.5047 112.559 93.1426 104.323 91.2067C96.0877 89.2709 85.7803 91.5836 81.3115 96.3461Z" fill="#E2A730"/>
<path d="M81.3115 94.0505C76.8598 98.7959 79.9247 104.209 88.1603 106.145C96.3958 108.081 106.703 105.803 111.172 101.006C115.641 96.2091 112.559 90.8299 104.323 88.894C96.0877 86.9582 85.7803 89.288 81.3115 94.0505Z" fill="#FFC249"/>
<path d="M89.256 96.4489C87.0302 98.8301 88.554 101.588 92.6804 102.496C96.8067 103.404 101.926 102.325 104.152 99.9437C106.378 97.5624 104.854 94.8043 100.728 93.9135C96.6012 93.0227 91.4818 94.0848 89.256 96.4489Z" fill="#E2A730"/>
<path d="M95.0776 105.049C100.505 105.049 105.95 103.336 108.689 100.595C109.361 100.021 109.861 99.2722 110.133 98.4314C110.405 97.5907 110.439 96.691 110.23 95.8322C109.546 93.4852 106.806 91.6008 102.834 90.6928C95.985 89.0825 87.4241 90.7956 83.7943 94.5302C83.1241 95.1051 82.6256 95.854 82.3537 96.6944C82.0818 97.5347 82.047 98.4339 82.2533 99.2927C82.9382 101.64 85.6777 103.541 89.65 104.432C91.4307 104.838 93.2511 105.045 95.0776 105.049ZM97.3719 90.5558C99.1745 90.5477 100.972 90.7431 102.731 91.1382C106.515 92.0291 109.152 93.845 109.768 95.9864C109.946 96.7594 109.907 97.5665 109.656 98.3189C109.406 99.0714 108.953 99.7403 108.347 100.252C104.786 103.867 96.4644 105.511 89.7869 103.952C86.003 103.062 83.3834 101.263 82.7499 99.1214C82.5708 98.3458 82.6087 97.5358 82.8594 96.7803C83.1101 96.0249 83.5639 95.353 84.171 94.8386C86.8077 92.1661 92.0813 90.5558 97.3719 90.5558Z" fill="white"/>
<path d="M88.8794 112.295C88.8794 116.869 84.5818 120.587 79.2741 120.587C73.9663 120.587 69.6516 116.869 69.6516 112.295H88.8794Z" fill="#FFB89F"/>
<path d="M69.6516 112.038C69.6516 109.212 73.9663 106.899 79.2741 106.899C84.5818 106.899 88.8794 109.195 88.8794 112.038C88.8794 113.974 86.8762 115.653 83.9141 116.527C83.3713 115.833 82.6595 115.291 81.847 114.952C81.0344 114.613 80.1485 114.489 79.2741 114.591C78.4027 114.485 77.5187 114.604 76.7064 114.937C75.8941 115.27 75.1806 115.805 74.6341 116.492C71.672 115.653 69.6516 113.974 69.6516 112.038Z" fill="white"/>
<path d="M79.2739 114.591C80.1426 114.488 81.0231 114.608 81.8321 114.941C82.6412 115.274 83.3518 115.808 83.8968 116.492C82.3865 116.915 80.8252 117.129 79.2568 117.126C77.6939 117.13 76.1381 116.917 74.6339 116.492C75.1805 115.805 75.894 115.27 76.7063 114.937C77.5186 114.604 78.4026 114.485 79.2739 114.591Z" fill="#FE9380"/>
<path d="M75.216 120.724C75.216 125.298 70.9013 129.015 65.5935 129.015C60.2858 129.015 55.9711 125.298 55.9711 120.724H75.216Z" fill="#FFB89F"/>
<path d="M55.9711 120.467C55.9711 117.64 60.2858 115.328 65.5935 115.328C70.9013 115.328 75.216 117.606 75.216 120.467C75.216 122.403 73.1956 124.082 70.2336 124.955C69.6889 124.265 68.9762 123.726 68.1638 123.39C67.3514 123.054 66.4664 122.932 65.5935 123.037C64.7207 122.932 63.8357 123.054 63.0233 123.39C62.2109 123.726 61.4982 124.265 60.9535 124.955C57.9914 124.082 55.9711 122.403 55.9711 120.467Z" fill="white"/>
<path d="M65.5937 123.037C66.4611 122.938 67.3392 123.063 68.145 123.399C68.9509 123.735 69.658 124.27 70.1995 124.955C67.1638 125.8 63.9551 125.8 60.9194 124.955C61.4673 124.26 62.1855 123.717 63.0045 123.381C63.8235 123.045 64.7154 122.926 65.5937 123.037Z" fill="#FE9380"/>
<path d="M51.7764 128.09H62.3063L61.005 133.778C60.7824 134.84 59.1045 135.679 57.0328 135.679C54.961 135.679 53.2831 134.84 53.0776 133.778L51.7764 128.09Z" fill="white"/>
<path d="M51.7421 127.799C51.7421 129.358 54.1049 130.609 57.0327 130.609C59.9605 130.609 62.3233 129.358 62.3233 127.799C62.3233 126.24 59.9263 125.058 57.0327 125.058C54.1391 125.058 51.7421 126.24 51.7421 127.799Z" fill="#D6A3C0"/>
<path d="M52.3928 127.799C52.3928 129.101 54.4646 130.163 57.0328 130.163C59.6011 130.163 61.6386 129.101 61.6386 127.799C61.6386 126.497 59.5497 125.435 56.9815 125.435C54.4132 125.435 52.3928 126.497 52.3928 127.799Z" fill="#F4C6DC"/>
<path d="M57.0328 135.303C58.8483 135.303 60.3201 134.551 60.3201 133.624C60.3201 132.697 58.8483 131.945 57.0328 131.945C55.2172 131.945 53.7454 132.697 53.7454 133.624C53.7454 134.551 55.2172 135.303 57.0328 135.303Z" fill="#F4C6DC"/>
<path d="M43.7291 133.11H54.2762L52.9578 138.763C52.7523 139.842 51.0573 140.682 49.0026 140.682C46.948 140.682 45.2358 139.842 45.0304 138.763L43.7291 133.11Z" fill="white"/>
<path d="M43.6948 132.819C43.6948 134.377 46.0748 135.628 49.0026 135.628C51.9304 135.628 54.2932 134.377 54.2932 132.819C54.2932 131.26 51.9133 129.992 49.0026 129.992C46.0919 129.992 43.6948 131.26 43.6948 132.819Z" fill="#D6A3C0"/>
<path d="M44.3456 132.819C44.3456 134.12 46.4344 135.183 49.0027 135.183C51.571 135.183 53.6427 134.12 53.6427 132.819C53.6427 131.517 51.571 130.437 49.0027 130.437C46.4344 130.437 44.3456 131.499 44.3456 132.819Z" fill="#F4C6DC"/>
<path d="M49.0026 140.322C50.8182 140.322 52.29 139.57 52.29 138.643C52.29 137.716 50.8182 136.964 49.0026 136.964C47.187 136.964 45.7152 137.716 45.7152 138.643C45.7152 139.57 47.187 140.322 49.0026 140.322Z" fill="#F4C6DC"/>
<path d="M120.949 85.2279L43.3184 130.163V132.527L120.949 87.5235V85.2279Z" fill="#352C4F"/>
<path d="M122.524 84.4913L93.6394 67.7541L12.4819 114.54L41.3664 131.328L122.524 84.4913Z" fill="#9C8BAF"/>
<path d="M53.7454 157.693L45.1674 162.661V174.105L53.7454 169.137V157.693Z" fill="#FFC249"/>
<path d="M46.3829 163.552L52.5297 160.006V161.359L46.3829 164.888V163.552Z" fill="#352C4F"/>
<path d="M95.0088 133.624L86.4137 138.592V150.035L95.0088 145.067V133.624Z" fill="#FF4065"/>
<path d="M87.6466 139.483L93.7762 135.936V137.273L87.6466 140.819V139.483Z" fill="#FF0029"/>
<path d="M105.933 127.422L97.3375 132.39V143.834L105.933 138.866V127.422Z" fill="#FF8A61"/>
<path d="M98.5702 133.281L104.7 129.735V131.088L98.5702 134.617V133.281Z" fill="#EA642F"/>
<path d="M0.0170898 206.003L40.3047 229.336V279.959L0.0170898 256.575V206.003Z" fill="#564866"/>
<path d="M41.5376 228.634L137.214 173.3V223.922L40.3048 279.959V229.336L41.5376 228.634Z" fill="#352C4F"/>
<path d="M78.555 223.032V251.949L53.5742 237.388L78.555 223.032Z" fill="#564866"/>
<path d="M46.7767 241.294L53.5741 237.388L78.5548 251.949L46.7767 270.314V241.294Z" fill="#9C8BAF"/>
<path d="M54.5844 250.647C54.5844 253.577 59.0531 255.958 64.5835 255.958C70.1138 255.958 74.5655 253.577 74.5655 250.647C74.5655 247.718 70.0967 245.337 64.5835 245.337C59.0703 245.337 54.5844 247.701 54.5844 250.647Z" fill="#FE9380"/>
<path d="M64.5835 242.578C70.0967 242.578 74.5655 240.197 74.5655 237.268V250.647H54.5844V237.268C54.5844 240.197 59.0531 242.578 64.5835 242.578Z" fill="#FE9380"/>
<path d="M70.9701 243.384C73.5383 243.384 75.5416 242.219 75.5416 240.711C75.5416 239.204 73.6239 238.124 70.9701 238.124C68.3162 238.124 66.4156 239.306 66.4156 240.797C66.4156 242.287 68.4874 243.384 70.9701 243.384ZM70.9701 239.101C73.0418 239.101 74.3944 239.957 74.3944 240.711C74.3944 241.465 72.9562 242.321 70.9701 242.321C68.9839 242.321 67.5457 241.482 67.5457 240.711C67.5457 239.94 68.9154 239.101 70.9701 239.101Z" fill="white"/>
<path d="M54.5844 237.268V236.805C54.5698 236.959 54.5698 237.114 54.5844 237.268Z" fill="#919191"/>
<path d="M74.5657 235.4V237.268C74.551 236.592 74.3233 235.939 73.915 235.4H74.5657Z" fill="#919191"/>
<path d="M62.8886 232.026C63.4365 232.026 64.0015 232.026 64.6008 232.026C68.8641 232.026 72.5111 233.447 73.9322 235.452H57.033L62.8886 232.026Z" fill="#919191"/>
<path d="M57.0328 235.4H73.9149C74.3232 235.939 74.5509 236.592 74.5656 237.268C74.5656 240.197 70.0968 242.578 64.5835 242.578C59.0703 242.578 54.5844 240.197 54.5844 237.268C54.5676 237.103 54.5676 236.936 54.5844 236.771L57.0328 235.4Z" fill="#FE9380"/>
<path d="M62.9741 232.42C62.9741 232.934 63.7446 233.345 64.6863 233.345C65.628 233.345 66.3985 232.934 66.3985 232.42C66.3985 231.906 65.628 231.512 64.6863 231.512C63.7446 231.512 62.9741 231.923 62.9741 232.42Z" fill="#969696"/>
<path d="M64.5836 239.529C69.5832 239.529 73.641 237.371 73.641 234.698C73.5852 234.079 73.378 233.483 73.0375 232.963C72.6971 232.444 72.234 232.016 71.6892 231.717C72.4613 232.021 73.1366 232.529 73.6431 233.187C74.1497 233.845 74.4685 234.627 74.5656 235.452C74.5656 238.381 70.0968 240.762 64.5836 240.762C59.8409 240.762 55.8857 239.049 54.8584 236.651L55.8857 236.069C56.9815 238.124 60.4572 239.529 64.5836 239.529Z" fill="#FFB8AE"/>
<path d="M66.2957 230.073L66.4498 229.987C68.3066 230.137 70.1018 230.724 71.689 231.7C70.0253 230.852 68.2091 230.346 66.347 230.21L66.2957 230.073Z" fill="#D6A3C0"/>
<path d="M73.6239 234.698C73.6239 237.371 69.566 239.529 64.5664 239.529C60.4401 239.529 56.9643 238.073 55.8685 236.103L63.3508 231.769C63.5702 232.052 63.8728 232.259 64.216 232.361C64.5591 232.463 64.9256 232.454 65.2638 232.337C65.6021 232.22 65.8951 232 66.1017 231.707C66.3083 231.415 66.418 231.065 66.4156 230.706C66.4346 230.547 66.4346 230.386 66.4156 230.227C68.2776 230.363 70.0938 230.87 71.7576 231.717C72.2865 232.026 72.7326 232.458 73.0577 232.978C73.3828 233.497 73.577 234.087 73.6239 234.698Z" fill="#FFD4CF"/>
<path d="M66.2958 230.073V230.227H66.0219L66.2958 230.073Z" fill="#352C4F"/>
<path d="M66.3469 230.227C66.3659 230.386 66.3659 230.547 66.3469 230.706C66.3494 231.065 66.2396 231.415 66.033 231.707C65.8264 232 65.5334 232.22 65.1951 232.337C64.8569 232.454 64.4904 232.463 64.1473 232.361C63.8041 232.259 63.5016 232.052 63.2821 231.769L66.0045 230.193L66.3469 230.227Z" fill="#FE9380"/>
<path d="M40.2363 229.559L137.214 173.283V170.987L40.2363 227.263V229.559Z" fill="#1C172B"/>
<path d="M40.2362 227.263L0.0170898 204.016V206.329L40.2362 229.559V227.263Z" fill="#352C4F"/>
<path d="M137.214 170.987L97.0122 147.706L0.0170898 204.016L40.2363 227.263L137.214 170.987Z" fill="#9C8BAF"/>
<path d="M137.214 183.544V184.898L40.3048 240.9V239.615L137.214 183.544Z" fill="#9C8BAF"/>
<path d="M0 216.299L40.3048 239.615V240.9L0 217.601V216.299Z" fill="#9C8BAF"/>
<path d="M44.397 232.402C44.397 234.116 45.39 234.835 46.6399 234.116C47.3277 233.623 47.8905 232.976 48.283 232.226C48.6755 231.476 48.8868 230.645 48.9 229.799C48.9 228.085 47.8898 227.383 46.6399 228.085C45.9523 228.577 45.3907 229.224 45.0009 229.975C44.6111 230.725 44.4041 231.557 44.397 232.402Z" fill="#FF0029"/>
<path d="M49.1226 229.233L48.5233 228.377C48.5233 228.377 46.2461 228.822 45.7325 230.638C45.4487 231.875 45.5079 233.166 45.9037 234.373L47.2905 234.098L49.1226 229.233Z" fill="#FF0029"/>
<path d="M49.4993 230.484C49.4818 231.089 49.3423 231.685 49.0893 232.236C48.8363 232.786 48.475 233.28 48.0269 233.687V228.976C48.8658 228.702 49.4993 229.302 49.4993 230.484Z" fill="#FF4065"/>
<path d="M47.359 229.353V234.064C46.5201 234.338 45.9037 233.739 45.9037 232.557C45.9191 231.952 46.0558 231.357 46.3059 230.807C46.5559 230.256 46.9141 229.762 47.359 229.353Z" fill="#FF4065"/>
<path d="M47.7014 229.113L48.0268 228.976V233.687L47.7014 233.927L47.359 234.064V229.353L47.7014 229.113Z" fill="white"/>
<path d="M54.5673 226.561C54.5673 228.274 55.5774 228.976 56.8273 228.274C57.5097 227.781 58.0677 227.136 58.4571 226.389C58.8464 225.643 59.0564 224.816 59.0703 223.974C59.0703 222.261 58.0601 221.541 56.8273 222.261C56.1418 222.752 55.5805 223.396 55.1881 224.143C54.7957 224.889 54.5831 225.717 54.5673 226.561Z" fill="#FF0029"/>
<path d="M59.31 223.391L58.7108 222.518C58.7108 222.518 56.4164 222.98 55.9199 224.779C55.6349 226.015 55.6881 227.305 56.074 228.514L57.478 228.24L59.31 223.391Z" fill="#FF0029"/>
<path d="M59.6695 224.625C59.6604 225.233 59.5265 225.832 59.2762 226.386C59.0258 226.941 58.6643 227.437 58.2141 227.846V223.134C59.0531 222.843 59.6695 223.46 59.6695 224.625Z" fill="#FF4065"/>
<path d="M57.5465 223.511V228.222C56.7075 228.497 56.074 227.88 56.074 226.715C56.0886 226.109 56.2267 225.512 56.4799 224.961C56.7331 224.41 57.096 223.917 57.5465 223.511Z" fill="#FF4065"/>
<path d="M57.8718 223.272L58.2143 223.117V227.846L57.8718 228.085C57.7704 228.151 57.6611 228.202 57.5465 228.24V223.528L57.8718 223.272Z" fill="white"/>
<path d="M64.2069 220.993C64.2069 222.706 65.2 223.409 66.4499 222.706C67.1373 222.217 67.7001 221.573 68.0927 220.826C68.4853 220.079 68.6968 219.25 68.7099 218.406C68.7099 216.693 67.6998 215.991 66.4499 216.693C65.7666 217.185 65.2078 217.83 64.8183 218.577C64.4289 219.323 64.2195 220.151 64.2069 220.993Z" fill="#FF0029"/>
<path d="M68.9324 217.892L68.3332 217.036C68.3332 217.036 66.056 217.481 65.5423 219.28C65.2568 220.517 65.316 221.809 65.7135 223.015L67.1004 222.74L68.9324 217.892Z" fill="#FF0029"/>
<path d="M69.3092 219.126C69.2946 219.732 69.1564 220.329 68.9032 220.88C68.65 221.43 68.2871 221.924 67.8367 222.329V217.567C68.6756 217.361 69.3092 217.961 69.3092 219.126Z" fill="#FF4065"/>
<path d="M67.1689 218.012V222.706C66.3299 222.98 65.7135 222.364 65.7135 221.199C65.7272 220.596 65.8633 220.003 66.1136 219.456C66.3638 218.908 66.7228 218.417 67.1689 218.012Z" fill="#FF4065"/>
<path d="M67.5114 217.772C67.6128 217.707 67.7221 217.655 67.8367 217.618V222.329C67.7368 222.42 67.6278 222.501 67.5114 222.569L67.1689 222.723V218.012L67.5114 217.772Z" fill="white"/>
<path d="M73.4526 215.648C73.4526 217.361 74.4628 218.081 75.7127 217.361C76.3954 216.865 76.9534 216.216 77.3427 215.467C77.7319 214.718 77.9418 213.888 77.9557 213.044C77.9557 211.331 76.9455 210.629 75.7127 211.331C75.023 211.822 74.4588 212.469 74.066 213.219C73.6733 213.969 73.4631 214.801 73.4526 215.648Z" fill="#FF0029"/>
<path d="M78.1954 212.427L77.5961 211.571C77.5961 211.571 75.3018 212.016 74.8053 213.832C74.5203 215.068 74.5735 216.358 74.9594 217.567L76.3634 217.293L78.1954 212.427Z" fill="#FF0029"/>
<path d="M78.555 213.729C78.5396 214.334 78.4028 214.929 78.1528 215.479C77.9028 216.03 77.5446 216.524 77.0996 216.933V212.222C77.9386 211.948 78.555 212.547 78.555 213.729Z" fill="#FF4065"/>
<path d="M76.4318 212.599V217.31C75.5929 217.584 74.9594 216.984 74.9594 215.802C74.9769 215.197 75.1164 214.601 75.3694 214.05C75.6224 213.5 75.9837 213.006 76.4318 212.599Z" fill="#FF4065"/>
<path d="M76.7572 212.427L77.0996 212.29V217.001L76.7572 217.241L76.4319 217.378V212.599L76.7572 212.427Z" fill="white"/>
<path d="M117.935 189.9C117.935 191.613 118.945 192.332 120.195 191.613C120.876 191.119 121.434 190.474 121.823 189.727C122.212 188.981 122.423 188.155 122.438 187.313C122.438 185.6 121.428 184.88 120.195 185.6C119.509 186.09 118.947 186.734 118.554 187.481C118.162 188.228 117.95 189.056 117.935 189.9Z" fill="#FF0029"/>
<path d="M122.678 186.731L122.079 185.857C122.079 185.857 119.784 186.319 119.271 188.118C118.987 189.355 119.046 190.647 119.442 191.853L120.829 191.579L122.678 186.731Z" fill="#FF0029"/>
<path d="M123.037 187.981C123.02 188.587 122.88 189.183 122.627 189.733C122.374 190.283 122.013 190.777 121.565 191.185V186.474C122.404 186.2 123.037 186.816 123.037 187.981Z" fill="#FF4065"/>
<path d="M120.914 186.868V191.579C120.075 191.836 119.442 191.236 119.442 190.054C119.458 189.451 119.596 188.857 119.85 188.309C120.103 187.761 120.465 187.271 120.914 186.868Z" fill="#FF4065"/>
<path d="M121.24 186.628C121.347 186.562 121.462 186.511 121.582 186.474V191.185L121.24 191.425L120.914 191.579V186.868C121.011 186.773 121.121 186.692 121.24 186.628Z" fill="white"/>
<path d="M127.198 184.503C127.198 186.217 128.208 186.919 129.441 186.217C130.129 185.728 130.691 185.083 131.084 184.336C131.477 183.589 131.688 182.761 131.701 181.917C131.701 180.204 130.691 179.501 129.441 180.204C128.757 180.694 128.197 181.339 127.808 182.086C127.418 182.833 127.209 183.661 127.198 184.503Z" fill="#FF0029"/>
<path d="M131.924 181.334L131.324 180.478C131.324 180.478 129.047 180.923 128.534 182.722C128.249 183.965 128.308 185.262 128.705 186.474L130.092 186.182L131.924 181.334Z" fill="#FF0029"/>
<path d="M132.3 182.568C132.286 183.174 132.148 183.771 131.894 184.321C131.641 184.872 131.278 185.366 130.828 185.771V181.06C131.667 180.803 132.3 181.403 132.3 182.568Z" fill="#FF4065"/>
<path d="M130.126 181.454V186.165C129.304 186.439 128.671 185.823 128.671 184.658C128.686 184.053 128.823 183.458 129.073 182.908C129.323 182.358 129.681 181.863 130.126 181.454Z" fill="#FF4065"/>
<path d="M130.503 181.214C130.604 181.149 130.713 181.097 130.828 181.06V185.771C130.728 185.862 130.619 185.942 130.503 186.011C130.395 186.077 130.28 186.128 130.16 186.165V181.454L130.503 181.214Z" fill="white"/>
<path d="M29.8604 213.849C29.8604 216.916 34.5004 219.383 40.2362 219.383C45.972 219.383 50.6291 216.916 50.6291 213.849C50.6291 210.783 45.972 208.333 40.2362 208.333C34.5004 208.333 29.8604 210.8 29.8604 213.849Z" fill="#FF4065"/>
<path d="M11.4375 203.074C11.4375 206.123 16.0775 208.59 21.8133 208.59C27.5491 208.59 32.2063 206.123 32.2063 203.074C32.2063 200.024 27.5491 197.54 21.8133 197.54C16.0775 197.54 11.4375 200.007 11.4375 203.074Z" fill="#FF4065"/>
<path d="M50.6292 201.72C50.6292 204.77 55.2692 207.254 61.005 207.254C66.7408 207.254 71.3979 204.77 71.3979 201.72C71.3979 198.671 66.7408 196.187 61.005 196.187C55.2692 196.187 50.6292 198.722 50.6292 201.72Z" fill="#FF4065"/>
<path d="M32.2062 190.928C32.2062 193.994 36.8633 196.461 42.5991 196.461C48.3349 196.461 52.975 193.994 52.975 190.928C52.975 187.861 48.3349 185.411 42.5991 185.411C36.8633 185.411 32.2062 187.878 32.2062 190.928Z" fill="#FF4065"/>
<path d="M53.5913 201.498C53.5913 203.673 56.9129 205.438 61.0051 205.438C65.0972 205.438 68.4359 203.725 68.4359 201.498C68.4359 199.271 65.1143 197.54 61.0051 197.54C56.8958 197.54 53.5913 199.305 53.5913 201.498Z" fill="#FF88A4"/>
<path d="M35.1682 190.928C35.1682 193.121 38.4898 194.885 42.5991 194.885C46.7083 194.885 50.0128 193.172 50.0128 190.928C50.0128 188.684 46.6912 186.988 42.5991 186.988C38.507 186.988 35.1682 188.752 35.1682 190.928Z" fill="#FF88A4"/>
<path d="M14.3995 203.074C14.3995 205.249 17.7212 207.014 21.8133 207.014C25.9054 207.014 29.2442 205.301 29.2442 203.074C29.2442 200.847 25.9225 199.116 21.8133 199.116C17.704 199.116 14.3995 200.881 14.3995 203.074Z" fill="#FF88A4"/>
<path d="M32.8226 213.609C32.8226 215.785 36.1443 217.567 40.2364 217.567C44.3285 217.567 47.6673 215.854 47.6673 213.609C47.6673 211.365 44.3456 209.669 40.2364 209.669C36.1271 209.669 32.8226 211.434 32.8226 213.609Z" fill="#FF88A4"/>
<path d="M46.7255 253.542C47.6956 253.411 48.6744 253.353 49.6533 253.371C55.1665 253.371 59.6353 255.752 59.6353 258.682C59.6353 261.611 55.1665 263.993 49.6533 263.993C48.6956 263.998 47.7392 263.924 46.7939 263.77L46.7255 253.542Z" fill="#E86D64"/>
<path d="M59.5668 249.397H46.7255V258.682H59.5668V249.397Z" fill="#E86D64"/>
<path d="M55.9884 257.397C58.5566 257.397 60.5428 256.215 60.5428 254.707C60.5428 253.2 58.5566 252.035 55.9884 252.035C53.4201 252.035 51.434 253.217 51.434 254.707C51.434 256.198 53.4372 257.397 55.9884 257.397ZM55.9884 253.097C58.0601 253.097 59.4127 253.954 59.4127 254.707C59.4127 255.461 57.9916 256.335 55.9884 256.335C53.9851 256.335 52.564 255.478 52.564 254.707C52.564 253.936 53.9337 253.097 55.9884 253.097Z" fill="white"/>
<path d="M46.7255 246.176C47.6717 246.03 48.6275 245.956 49.5848 245.953C55.098 245.953 59.5668 248.335 59.5668 251.264C59.5668 254.193 55.098 256.575 49.5848 256.575C48.6271 256.581 47.6707 256.506 46.7255 256.352V246.176Z" fill="#E86D64"/>
<path d="M46.7255 244.36C47.6707 244.206 48.6271 244.131 49.5848 244.137C55.098 244.137 59.5668 246.519 59.5668 249.448C59.5668 252.378 55.098 254.759 49.5848 254.759C48.6271 254.765 47.6707 254.69 46.7255 254.536V244.36Z" fill="#FFB8AE"/>
<path d="M46.7255 244.137C47.6685 243.963 48.6258 243.877 49.5848 243.88C54.6015 243.88 58.6594 246.039 58.6594 248.711C58.6594 251.384 54.6015 253.542 49.6533 253.542C48.6951 253.543 47.7387 253.462 46.7939 253.303L46.7255 244.137Z" fill="#FFD4CF"/>
<path d="M47.9412 246.433C47.9412 246.93 48.7116 247.341 49.6533 247.341C50.595 247.341 51.3655 246.93 51.3655 246.433C51.3655 245.936 50.595 245.508 49.6533 245.508C48.7116 245.508 47.9412 245.919 47.9412 246.433Z" fill="#FFB8AE"/>
<path d="M47.9412 244.703C47.9412 245.042 48.0416 245.373 48.2297 245.654C48.4179 245.936 48.6853 246.156 48.9981 246.285C49.311 246.415 49.6552 246.449 49.9874 246.383C50.3195 246.317 50.6246 246.154 50.864 245.914C51.1035 245.675 51.2666 245.369 51.3326 245.037C51.3987 244.705 51.3648 244.36 51.2352 244.047C51.1056 243.734 50.8861 243.467 50.6046 243.278C50.323 243.09 49.992 242.99 49.6533 242.99C49.1992 242.99 48.7637 243.17 48.4426 243.491C48.1216 243.813 47.9412 244.248 47.9412 244.703Z" fill="#E86D64"/>
<path d="M85.4893 253.851L83.9825 254.759V214.346H85.4893V253.851Z" fill="#9C8BAF"/>
<path d="M112.456 238.193L110.932 239.101V198.688H112.456V238.193Z" fill="#9C8BAF"/>
<path d="M114.887 200.881L123.996 195.622V199.048L122.815 199.75V198.448C122.812 198.367 122.789 198.288 122.748 198.217C122.707 198.147 122.648 198.089 122.578 198.048C122.507 198.007 122.428 197.984 122.347 197.982C122.265 197.981 122.185 197.999 122.113 198.037L117.421 200.744C117.091 200.939 116.818 201.217 116.628 201.551C116.439 201.884 116.34 202.262 116.343 202.646V203.485L114.887 204.324V200.881Z" fill="#352C4F"/>
<path d="M117.421 200.693L122.113 197.986C122.185 197.948 122.265 197.929 122.347 197.931C122.428 197.933 122.507 197.955 122.578 197.997C122.648 198.038 122.706 198.096 122.748 198.166C122.789 198.236 122.812 198.316 122.815 198.397V199.699L116.428 203.434V202.594C116.417 202.219 116.503 201.846 116.676 201.513C116.85 201.181 117.107 200.898 117.421 200.693Z" fill="#352C4F"/>
<path d="M99.4778 209.532L108.587 204.273V207.699L107.388 208.384V207.1C107.389 207.019 107.369 206.939 107.33 206.868C107.29 206.798 107.233 206.739 107.164 206.697C107.094 206.656 107.015 206.633 106.935 206.631C106.854 206.63 106.774 206.65 106.703 206.688L102.012 209.395C101.679 209.589 101.403 209.867 101.211 210.2C101.019 210.534 100.917 210.912 100.916 211.297V212.136L99.4778 212.958V209.532Z" fill="#352C4F"/>
<path d="M102.012 209.344L106.703 206.637C106.774 206.598 106.854 206.578 106.934 206.58C107.015 206.582 107.094 206.604 107.164 206.646C107.233 206.687 107.29 206.746 107.329 206.817C107.369 206.888 107.389 206.967 107.388 207.048V208.333L100.916 212.085V211.245C100.917 210.86 101.019 210.482 101.211 210.149C101.403 209.815 101.679 209.538 102.012 209.344Z" fill="#352C4F"/>
<path d="M128.208 170.987L96.3104 152.519L66.9978 169.445L98.9814 187.93L128.208 170.987Z" fill="#564866"/>
<path d="M16.7623 180.906C16.7623 180.906 16.8993 181.865 19.5189 182.122C22.4655 182.614 25.3407 183.465 28.0799 184.658C31.898 186.371 32.7712 187.878 32.7712 187.878V184.298C32.7712 184.298 20.786 180.426 18.7656 180.666L16.7623 180.906Z" fill="#352C4F"/>
<path d="M33.7299 183.527C30.3595 181.707 26.726 180.424 22.9603 179.724C17.2245 178.799 16.1116 180.666 17.0533 181.317C19.2059 181.445 21.3462 181.731 23.4568 182.174C26.4962 183.052 29.4711 184.139 32.3602 185.429L33.7299 183.527Z" fill="#564866"/>
<path d="M32.3602 190.02C32.3602 192.983 36.8633 195.382 42.4279 195.382C47.9924 195.382 52.4955 192.983 52.4955 190.02C52.4955 187.056 47.9924 184.658 42.4279 184.658C36.8633 184.658 32.3602 187.056 32.3602 190.02Z" fill="#352C4F"/>
<path d="M53.6085 186.868C53.471 188.873 52.7309 190.79 51.4854 192.367C49.465 194.679 47.5474 187.227 47.5474 187.227L53.6085 186.868Z" fill="#352C4F"/>
<path d="M31.2302 186.868C31.3695 188.875 32.116 190.793 33.3705 192.367C35.3908 194.679 37.2914 187.227 37.2914 187.227L31.2302 186.868Z" fill="#352C4F"/>
<path d="M42.4279 184.298C37.103 184.298 32.7369 186.405 32.1548 189.146C31.6208 188.505 31.3191 187.702 31.2987 186.868C31.2987 183.578 36.3154 180.906 42.4964 180.906C48.6774 180.906 53.6769 183.578 53.6769 186.868C53.6565 187.702 53.3548 188.505 52.8208 189.146C52.1188 186.405 47.7357 184.298 42.4279 184.298Z" fill="#352C4F"/>
<path d="M42.4279 192.812C37.7707 192.812 33.7814 191.305 32.1548 189.146C32.8054 186.405 37.1715 184.298 42.4279 184.298C47.6843 184.298 52.1188 186.405 52.701 189.146C51.0744 191.305 47.085 192.812 42.4279 192.812Z" fill="#F4C6DC"/>
<path d="M29.1072 212.719C29.1072 215.974 34.0725 218.629 40.2021 218.629C46.3317 218.629 51.3655 215.974 51.3655 212.719C51.3655 209.464 46.4002 206.808 40.2706 206.808C34.141 206.808 29.1072 209.464 29.1072 212.719Z" fill="#352C4F"/>
<path d="M51.2799 201.686H29.09V212.719H51.2799V201.686Z" fill="#352C4F"/>
<path d="M47.3076 210.56C50.1498 210.56 52.4441 209.258 52.4441 207.579C52.4441 205.9 50.2183 204.616 47.3076 204.616C44.3969 204.616 42.171 205.918 42.171 207.579C42.171 209.241 44.5167 210.56 47.3076 210.56ZM47.3076 205.798C49.5848 205.798 51.1942 206.74 51.1942 207.511C51.1942 208.282 49.5848 209.224 47.3076 209.224C45.0304 209.224 43.4209 208.282 43.4209 207.511C43.4209 206.74 45.0132 205.798 47.3076 205.798Z" fill="white"/>
<path d="M33.319 202.92C36.1613 202.92 38.4556 201.6 38.4556 199.939C38.4556 198.277 36.2298 196.975 33.319 196.975C30.4083 196.975 28.1825 198.277 28.1825 199.939C28.1825 201.6 30.4768 202.92 33.319 202.92ZM33.319 198.14C35.6134 198.14 37.2057 199.099 37.2057 199.853C37.2057 200.607 35.6134 201.652 33.319 201.652C31.0247 201.652 29.4324 200.71 29.4324 199.853C29.4324 198.997 31.0418 198.14 33.319 198.14Z" fill="white"/>
<path d="M29.1072 203.759C29.1072 207.014 34.0725 209.669 40.2021 209.669C46.3317 209.669 51.3655 207.014 51.3655 203.759C51.3655 200.504 46.4002 197.849 40.2706 197.849C34.141 197.849 29.1072 200.436 29.1072 203.759Z" fill="#352C4F"/>
<path d="M29.1072 201.738C29.1072 204.992 34.0725 207.631 40.2021 207.631C46.3317 207.631 51.3655 204.992 51.3655 201.738C51.3655 198.483 46.4002 195.827 40.2706 195.827C34.141 195.827 29.1072 198.465 29.1072 201.738Z" fill="#D6A3C0"/>
<path d="M40.1848 206.277C45.745 206.277 50.2524 203.877 50.2524 200.915C50.2524 197.954 45.745 195.553 40.1848 195.553C34.6246 195.553 30.1172 197.954 30.1172 200.915C30.1172 203.877 34.6246 206.277 40.1848 206.277Z" fill="#F4C6DC"/>
<path d="M40.3219 199.408C41.381 199.408 42.2396 198.948 42.2396 198.38C42.2396 197.812 41.381 197.352 40.3219 197.352C39.2629 197.352 38.4043 197.812 38.4043 198.38C38.4043 198.948 39.2629 199.408 40.3219 199.408Z" fill="#D6A3C0"/>
<path d="M38.4043 196.461C38.4043 196.841 38.5168 197.212 38.7275 197.527C38.9382 197.843 39.2377 198.089 39.5881 198.234C39.9385 198.379 40.3241 198.417 40.6961 198.343C41.068 198.269 41.4097 198.086 41.6779 197.818C41.9461 197.55 42.1287 197.208 42.2027 196.835C42.2767 196.463 42.2388 196.077 42.0936 195.727C41.9485 195.376 41.7027 195.077 41.3873 194.866C41.072 194.655 40.7012 194.542 40.3219 194.542C39.8133 194.542 39.3256 194.745 38.966 195.104C38.6063 195.464 38.4043 195.952 38.4043 196.461Z" fill="#352C4F"/>
<path d="M69.2578 190.157C69.2578 193.583 74.5656 196.461 81.1232 196.461C87.6809 196.461 92.9887 193.583 92.9887 190.157C92.9887 186.731 87.6809 183.835 81.1232 183.835C74.5656 183.835 69.2578 186.611 69.2578 190.157Z" fill="#FFB89F"/>
<path d="M81.1745 195.827C75.0791 195.827 70.1138 193.258 70.1138 190.123C70.1138 186.988 75.0791 184.418 81.1745 184.418C87.2698 184.418 92.2352 186.97 92.2352 190.123C92.2352 193.275 87.3212 195.827 81.1745 195.827ZM81.1745 184.846C75.3188 184.846 70.5418 187.21 70.5418 190.123C70.5418 193.035 75.3188 195.399 81.1745 195.399C87.0301 195.399 91.8071 193.035 91.8071 190.123C91.8071 187.21 87.0301 184.846 81.1745 184.846Z" fill="white"/>
<path d="M81.1402 187.176C77.6131 187.176 74.7367 188.615 74.3942 190.465C74.378 190.346 74.378 190.225 74.3942 190.105C74.3942 188.101 77.4419 186.474 81.243 186.474C85.044 186.474 88.0917 188.187 88.0917 190.105C88.0998 190.225 88.0998 190.345 88.0917 190.465C87.5609 188.615 84.6845 187.176 81.1402 187.176Z" fill="#FFB3A9"/>
<path d="M81.1402 193.737C77.6131 193.737 74.7366 192.298 74.3942 190.465C74.7366 188.615 77.6131 187.176 81.1402 187.176C84.6673 187.176 87.5608 188.615 87.9889 190.465C87.5608 192.298 84.6844 193.737 81.1402 193.737Z" fill="#FE9380"/>
<path d="M51.7935 179.398C51.7935 182.825 57.1012 185.703 63.6589 185.703C70.2165 185.703 75.5243 182.876 75.5243 179.398C75.5243 175.921 70.1994 173.026 63.6589 173.026C57.1183 173.026 51.7935 175.904 51.7935 179.398Z" fill="#FFB89F"/>
<path d="M63.7104 185.103C57.615 185.103 52.6497 182.551 52.6497 179.398C52.6497 176.246 57.615 173.694 63.7104 173.694C69.8057 173.694 74.771 176.263 74.771 179.398C74.771 182.533 69.8057 185.103 63.7104 185.103ZM63.7104 174.122C57.8547 174.122 53.0777 176.503 53.0777 179.398C53.0777 182.294 57.8547 184.675 63.7104 184.675C69.566 184.675 74.343 182.311 74.343 179.398C74.343 176.486 69.5831 174.122 63.7104 174.122Z" fill="white"/>
<path d="M63.6933 176.452C60.149 176.452 57.2726 177.891 56.8445 179.724C56.8365 179.61 56.8365 179.495 56.8445 179.381C56.8445 177.36 59.9093 175.732 63.6933 175.732C67.4772 175.732 70.542 177.445 70.542 179.381C70.5581 179.495 70.5581 179.61 70.542 179.724C70.0968 177.908 67.2204 176.452 63.6933 176.452Z" fill="#FFB3A9"/>
<path d="M63.6932 183.013C67.4283 183.013 70.4563 181.548 70.4563 179.741C70.4563 177.934 67.4283 176.469 63.6932 176.469C59.958 176.469 56.9301 177.934 56.9301 179.741C56.9301 181.548 59.958 183.013 63.6932 183.013Z" fill="#FE9380"/>
<path d="M263.984 273.689L225.614 295.925V346.548L263.984 324.277V273.689Z" fill="#352C4F"/>
<path d="M223.697 297.039V347.644L225.614 346.548V295.925L223.697 297.039Z" fill="#1C172B"/>
<path d="M222.464 296.319L126.804 241.002V291.608L223.697 347.644V297.039L222.464 296.319Z" fill="#564866"/>
<path d="M150.604 253.971V280.781L179.111 264.301L150.604 253.971Z" fill="#352C4F"/>
<path d="M181.217 278.468C181.217 281.518 176.577 284.002 170.842 284.002C165.106 284.002 160.449 281.518 160.449 278.468C160.449 275.419 165.106 272.935 170.842 272.935C176.577 272.935 181.217 275.419 181.217 278.468Z" fill="#FFC249"/>
<path d="M181.217 277.269C181.217 280.319 176.577 282.785 170.842 282.785C165.106 282.785 160.449 280.319 160.449 277.269C160.449 274.22 165.106 271.736 170.842 271.736C176.577 271.736 181.217 274.203 181.217 277.269Z" fill="#E2A730"/>
<path d="M181.217 276.207C181.217 279.256 176.577 281.74 170.842 281.74C165.106 281.74 160.449 279.256 160.449 276.207C160.449 273.158 165.106 270.674 170.842 270.674C176.577 270.674 181.217 273.158 181.217 276.207Z" fill="#FFC249"/>
<path d="M181.217 274.734C181.217 277.783 176.577 280.25 170.842 280.25C165.106 280.25 160.449 277.783 160.449 274.734C160.449 271.684 165.106 269.2 170.842 269.2C176.577 269.2 181.217 271.684 181.217 274.734Z" fill="#E2A730"/>
<path d="M181.217 273.449C181.217 276.498 176.577 278.965 170.842 278.965C165.106 278.965 160.449 276.498 160.449 273.449C160.449 270.4 165.106 267.916 170.842 267.916C176.577 267.916 181.217 270.382 181.217 273.449Z" fill="#FFC249"/>
<path d="M170.79 278.468C165.431 278.468 161.082 276.224 161.082 273.449C161.082 270.674 165.431 268.43 170.79 268.43C176.149 268.43 180.498 270.691 180.498 273.449C180.498 276.207 176.149 278.468 170.79 278.468ZM170.79 268.858C165.654 268.858 161.51 270.914 161.51 273.449C161.51 275.984 165.671 278.04 170.79 278.04C175.91 278.04 180.07 275.984 180.07 273.449C180.07 270.914 175.91 268.858 170.79 268.858Z" fill="white"/>
<path d="M170.807 270.879C173.906 270.879 176.423 272.147 176.731 273.757C176.74 273.655 176.74 273.552 176.731 273.449C176.731 271.736 174.06 270.263 170.756 270.263C167.451 270.263 164.78 271.684 164.78 273.449C164.772 273.552 164.772 273.655 164.78 273.757C165.191 272.147 167.794 270.879 170.807 270.879Z" fill="#CE8D1B"/>
<path d="M170.807 276.618C173.906 276.618 176.423 275.368 176.732 273.757C176.423 272.147 173.906 270.879 170.807 270.879C167.708 270.879 165.191 272.147 164.9 273.757C165.191 275.368 167.794 276.618 170.807 276.618Z" fill="#E2A730"/>
<path d="M198.442 290.94C198.442 293.869 193.973 296.251 188.46 296.251C182.947 296.251 178.478 293.869 178.478 290.94C178.478 288.011 182.947 285.629 188.46 285.629C193.973 285.629 198.442 288.011 198.442 290.94Z" fill="#FE9380"/>
<path d="M198.442 281.004H178.478V290.94H198.442V281.004Z" fill="#FE9380"/>
<path d="M182.056 289.004C179.505 289.004 177.502 287.822 177.502 286.315C177.502 284.807 179.505 283.642 182.056 283.642C184.608 283.642 186.611 284.824 186.611 286.315C186.611 287.805 184.608 289.004 182.056 289.004ZM182.056 284.704C180.002 284.704 178.632 285.561 178.632 286.315C178.632 287.068 180.07 288.028 182.056 288.028C184.042 288.028 185.481 287.171 185.481 286.315C185.481 285.458 184.111 284.704 182.056 284.704Z" fill="white"/>
<path d="M194.641 282.117C192.073 282.117 190.069 280.935 190.069 279.445C190.069 277.954 192.073 276.772 194.641 276.772C197.209 276.772 199.195 277.937 199.195 279.445C199.195 280.952 197.192 282.117 194.641 282.117ZM194.641 277.835C192.569 277.835 191.131 278.674 191.131 279.445C191.131 280.216 192.569 281.055 194.641 281.055C196.713 281.055 198.065 280.199 198.065 279.445C198.065 278.691 196.695 277.835 194.641 277.835Z" fill="white"/>
<path d="M198.442 282.871C198.442 285.818 193.973 288.182 188.46 288.182C182.947 288.182 178.478 285.818 178.478 282.871C178.478 279.925 182.947 277.56 188.46 277.56C193.973 277.56 198.442 279.942 198.442 282.871Z" fill="#FE9380"/>
<path d="M198.442 281.055C198.442 283.985 193.973 286.366 188.46 286.366C182.947 286.366 178.478 283.985 178.478 281.055C178.478 278.126 182.947 275.745 188.46 275.745C193.973 275.745 198.442 278.126 198.442 281.055Z" fill="#FFB8AE"/>
<path d="M197.535 280.319C197.535 282.974 193.46 285.132 188.46 285.132C183.46 285.132 179.385 282.974 179.385 280.319C179.385 277.663 183.46 275.488 188.46 275.488C193.46 275.488 197.535 277.646 197.535 280.319Z" fill="#FFD4CF"/>
<path d="M190.052 278.04C190.052 278.537 189.282 278.948 188.34 278.948C187.398 278.948 186.628 278.537 186.628 278.04C186.628 277.543 187.398 277.115 188.34 277.115C189.282 277.115 190.052 277.526 190.052 278.04Z" fill="#FFB8AE"/>
<path d="M190.052 276.31C190.052 276.649 189.952 276.98 189.764 277.262C189.575 277.543 189.308 277.763 188.995 277.893C188.682 278.022 188.338 278.056 188.006 277.99C187.674 277.924 187.369 277.761 187.129 277.521C186.89 277.282 186.727 276.976 186.661 276.644C186.595 276.312 186.629 275.967 186.758 275.654C186.888 275.341 187.107 275.074 187.389 274.885C187.67 274.697 188.001 274.597 188.34 274.597C188.794 274.597 189.23 274.777 189.551 275.099C189.872 275.42 190.052 275.856 190.052 276.31Z" fill="#FE9380"/>
<path d="M151.237 252.258H149.987V305.005L151.237 305.724V252.258Z" fill="#9C8BAF"/>
<path d="M173.119 293.767V318.401L174.369 319.121V294.298C173.963 294.096 173.545 293.919 173.119 293.767Z" fill="#9C8BAF"/>
<path d="M198.665 279.668H197.415V332.432L198.665 333.151V279.668Z" fill="#9C8BAF"/>
<path d="M223.765 297.261L126.804 240.985V238.673L223.765 294.966V297.261Z" fill="#352C4F"/>
<path d="M223.765 294.966L263.984 271.719V274.014L223.765 297.261V294.966Z" fill="#1C172B"/>
<path d="M126.661 238.811L166.863 215.546L263.841 271.857L223.622 295.104L126.661 238.811Z" fill="#9C8BAF"/>
<path d="M198.373 307.694L150.604 280.062V281.398L198.373 308.996V307.694Z" fill="#9C8BAF"/>
<path d="M190.6 307.283L181.491 302.024V305.45L182.673 306.152V304.85C182.673 304.769 182.695 304.688 182.736 304.618C182.778 304.547 182.837 304.489 182.909 304.449C182.98 304.409 183.061 304.388 183.143 304.39C183.225 304.391 183.305 304.414 183.375 304.456L188.066 307.163C188.396 307.354 188.67 307.629 188.86 307.96C189.049 308.291 189.147 308.666 189.145 309.048V309.887L190.6 310.727V307.283Z" fill="#352C4F"/>
<path d="M188.066 307.112L183.375 304.405C183.305 304.363 183.225 304.34 183.143 304.338C183.061 304.337 182.98 304.357 182.909 304.397C182.837 304.437 182.778 304.496 182.736 304.566C182.695 304.637 182.673 304.717 182.673 304.799V306.101L189.145 309.836V308.996C189.147 308.615 189.049 308.239 188.859 307.908C188.67 307.577 188.396 307.303 188.066 307.112Z" fill="#352C4F"/>
<path d="M166.869 293.698L157.76 288.439V291.865L158.959 292.55V291.231C158.961 291.152 158.983 291.074 159.024 291.006C159.064 290.938 159.122 290.881 159.191 290.842C159.26 290.802 159.337 290.781 159.417 290.78C159.496 290.779 159.574 290.799 159.644 290.837L164.37 293.51C164.699 293.702 164.974 293.977 165.166 294.307C165.358 294.638 165.461 295.012 165.465 295.394V296.234L166.904 297.073L166.869 293.698Z" fill="#352C4F"/>
<path d="M164.369 293.51L159.678 290.803C159.608 290.765 159.53 290.745 159.451 290.746C159.372 290.746 159.294 290.768 159.225 290.807C159.156 290.847 159.099 290.903 159.058 290.972C159.017 291.04 158.995 291.118 158.993 291.197V292.499L165.465 296.234V295.394C165.461 295.012 165.358 294.638 165.166 294.307C164.974 293.977 164.699 293.702 164.369 293.51Z" fill="#352C4F"/>
<path d="M142.95 254.33L133.841 249.071V252.497L135.04 253.183V251.829C135.039 251.748 135.059 251.669 135.098 251.598C135.138 251.528 135.195 251.469 135.264 251.427C135.334 251.385 135.413 251.363 135.493 251.361C135.574 251.36 135.654 251.379 135.725 251.418L140.399 254.142C140.731 254.332 141.007 254.606 141.2 254.937C141.392 255.268 141.494 255.644 141.495 256.026V256.866L142.933 257.705L142.95 254.33Z" fill="#352C4F"/>
<path d="M140.399 254.142L135.708 251.435C135.637 251.396 135.557 251.377 135.476 251.378C135.395 251.38 135.316 251.402 135.247 251.444C135.178 251.486 135.121 251.545 135.081 251.615C135.042 251.686 135.022 251.766 135.023 251.846V253.131L141.495 256.866V256.026C141.494 255.644 141.392 255.268 141.2 254.937C141.007 254.606 140.731 254.332 140.399 254.142Z" fill="#352C4F"/>
<path d="M215.581 296.371L206.472 291.111V294.537L207.653 295.223V293.938C207.656 293.857 207.679 293.777 207.72 293.707C207.762 293.637 207.82 293.579 207.89 293.538C207.961 293.496 208.04 293.474 208.121 293.472C208.203 293.47 208.283 293.489 208.355 293.527L213.047 296.233C213.375 296.427 213.646 296.702 213.836 297.033C214.025 297.363 214.125 297.737 214.125 298.118V298.957L215.581 299.797V296.371Z" fill="#352C4F"/>
<path d="M213.047 296.199L208.356 293.493C208.284 293.455 208.203 293.436 208.122 293.438C208.04 293.44 207.961 293.462 207.891 293.503C207.82 293.544 207.762 293.603 207.72 293.673C207.679 293.743 207.656 293.822 207.654 293.904V295.188L214.126 298.923V298.084C214.125 297.703 214.025 297.329 213.836 296.998C213.647 296.668 213.375 296.393 213.047 296.199Z" fill="#352C4F"/>
<path d="M214.126 104.895C213.888 103.854 213.423 102.879 212.762 102.04C212.102 101.202 211.263 100.521 210.307 100.046C206.883 98.813 206.335 100.817 203.27 103.918C201.438 105.785 199.503 106.402 199.658 109.708C201.56 111.582 204.128 112.624 206.797 112.604C209.246 112.758 212.174 110.582 213.115 113.632C213.856 112.316 214.326 110.865 214.5 109.365C214.673 107.865 214.546 106.345 214.126 104.895Z" fill="#352C4F"/>
<path d="M305.898 232.06C305.898 232.06 304.426 233.636 302.474 235.486C300.522 237.336 300.111 237.747 298.433 239.392C297.457 240.351 298.262 241.225 300.145 241.105C302.674 240.846 305.167 240.306 307.576 239.495C309.515 238.682 311.382 237.707 313.158 236.583C313.971 236.125 314.582 235.379 314.87 234.492V231.563L305.898 232.06Z" fill="#535353"/>
<path d="M329.133 235.709C329.133 235.709 328.79 238.724 328.585 242.561C328.38 246.399 328.91 249.705 330.075 250.116C331.239 250.527 334.526 250.476 336.393 245.217C337.505 241.909 337.764 238.373 337.146 234.938L329.133 235.709Z" fill="#535353"/>
<path d="M367.879 213.524L327.592 236.874V287.479L367.879 264.112V213.524Z" fill="#352C4F"/>
<path d="M326.359 236.154L230.699 180.837V231.443L327.592 287.479V236.874L326.359 236.154Z" fill="#564866"/>
<path d="M327.66 237.096L230.699 180.82V178.525L327.66 234.801V237.096Z" fill="#352C4F"/>
<path d="M327.66 234.801L367.879 211.554V213.849L327.66 237.096V234.801Z" fill="#1C172B"/>
<path d="M230.699 178.525L270.901 155.243L367.879 211.554L327.66 234.801L230.699 178.525Z" fill="#9C8BAF"/>
<path d="M230.699 206.123V207.477L327.592 263.479V262.194L230.699 206.123Z" fill="#9C8BAF"/>
<path d="M367.914 238.861L327.592 262.194V263.479L367.914 240.18V238.861Z" fill="#564866"/>
<path d="M305.625 197.489L279.188 182.208L296.43 172.152L322.9 187.501L305.625 197.489Z" fill="#FE9380"/>
<path d="M279.188 182.208V183.27L305.625 198.551V197.489L279.188 182.208Z" fill="#E86D64"/>
<path d="M305.625 197.489V198.551L322.9 188.564V187.501L305.625 197.489Z" fill="#C94A3D"/>
<path d="M303.056 183.39C300.728 183.39 296.036 183.493 296.704 185.566C297.149 186.919 300.351 187.159 303.792 187.125C307.234 187.09 312.473 187.673 312.884 185.651C313.329 183.099 310.71 183.578 303.056 183.39Z" fill="#AFAF00"/>
<path d="M298.399 180.084L304.375 188.101L304.101 188.238C304.101 188.238 298.142 181.625 297.8 180.837C297.458 180.049 298.399 180.084 298.399 180.084Z" fill="#F4C6DC"/>
<path d="M297.8 179.878L296.927 181.094C297.874 182.756 298.987 184.317 300.248 185.754C301.257 186.962 302.596 187.849 304.101 188.307L297.8 179.878Z" fill="white"/>
<path d="M293.708 172.135C293.708 172.135 294.067 171.912 294.307 172.135C295.368 173.513 296.249 175.021 296.927 176.623C298.005 178.627 298.776 180.152 298.776 180.152L298.348 180.306L295.351 176.589L293.708 172.135Z" fill="#282828"/>
<path d="M293.245 172.769C293.133 173.205 293.104 173.658 293.16 174.105C293.35 175.443 293.842 176.72 294.598 177.839C295.366 179.162 296.212 180.438 297.132 181.66L298.348 180.323C298.348 180.323 296.379 177.206 295.266 174.859C294.153 172.512 293.845 171.312 293.245 172.769Z" fill="#352C4F"/>
<path d="M307.405 192.607C307.405 193.24 306.429 193.771 305.214 193.771C303.998 193.771 303.022 193.24 303.022 192.607C303.022 191.973 303.998 191.425 305.214 191.425C306.429 191.425 307.405 191.956 307.405 192.607Z" fill="#AFAF00"/>
<path d="M307.405 191.87H303.022V192.607H307.405V191.87Z" fill="#AFAF00"/>
<path d="M307.405 191.87C307.405 192.504 306.429 193.035 305.214 193.035C303.998 193.035 303.056 192.504 303.056 191.87C303.056 191.236 304.032 190.688 305.248 190.688C306.463 190.688 307.405 191.219 307.405 191.87Z" fill="#CEC919"/>
<path d="M305.179 191.63C305.179 191.63 304.272 191.065 304.871 190.876C305.47 190.688 305.179 191.63 305.179 191.63Z" fill="#EDE43E"/>
<path d="M304.768 191.87C304.618 191.865 304.469 191.895 304.333 191.958C304.196 192.02 304.076 192.113 303.981 192.23C303.861 192.572 304.871 192.727 304.768 191.87Z" fill="#EDE43E"/>
<path d="M306.036 191.87C306.292 191.87 306.669 191.87 306.806 192.23C306.943 192.589 305.916 192.641 306.036 191.87Z" fill="#EDE43E"/>
<path d="M305.214 191.87C305.139 192.081 305.139 192.31 305.214 192.521C305.351 192.778 305.727 192.675 305.727 192.521C305.727 192.367 305.214 191.87 305.214 191.87Z" fill="#EDE43E"/>
<path d="M304.546 191.63C304.546 191.63 303.245 192.041 303.587 191.425C303.929 190.808 304.546 191.63 304.546 191.63Z" fill="#EDE43E"/>
<path d="M305.625 191.51C305.625 191.51 305.933 190.928 306.309 191.099C306.686 191.27 306.481 191.459 305.625 191.51Z" fill="#EDE43E"/>
<path d="M312.764 191.065C312.764 191.716 311.788 192.23 310.573 192.23C309.357 192.23 308.381 191.716 308.381 191.065C308.381 190.414 309.357 189.9 310.573 189.9C311.788 189.9 312.764 190.414 312.764 191.065Z" fill="#AFAF00"/>
<path d="M312.764 190.328H308.381V191.065H312.764V190.328Z" fill="#AFAF00"/>
<path d="M310.573 191.493C311.783 191.493 312.764 190.971 312.764 190.328C312.764 189.685 311.783 189.163 310.573 189.163C309.362 189.163 308.381 189.685 308.381 190.328C308.381 190.971 309.362 191.493 310.573 191.493Z" fill="#CEC919"/>
<path d="M310.556 190.157C310.556 190.157 309.631 189.574 310.248 189.386C310.864 189.197 310.556 190.157 310.556 190.157Z" fill="#EDE43E"/>
<path d="M310.127 190.397C309.978 190.393 309.83 190.425 309.696 190.49C309.562 190.556 309.445 190.653 309.357 190.774C309.22 191.048 310.247 191.185 310.127 190.397Z" fill="#EDE43E"/>
<path d="M311.395 190.328C311.651 190.328 312.028 190.414 312.165 190.688C312.302 190.962 311.275 191.116 311.395 190.328Z" fill="#EDE43E"/>
<path d="M310.573 190.328C310.498 190.539 310.498 190.769 310.573 190.979C310.592 191.032 310.627 191.077 310.673 191.109C310.719 191.141 310.774 191.158 310.83 191.158C310.886 191.158 310.94 191.141 310.986 191.109C311.032 191.077 311.067 191.032 311.086 190.979C311.086 190.534 310.573 190.328 310.573 190.328Z" fill="#EDE43E"/>
<path d="M309.905 190.157C309.905 190.157 308.621 190.551 308.946 189.951C309.271 189.352 309.905 190.157 309.905 190.157Z" fill="#EDE43E"/>
<path d="M311.001 189.968C311.001 189.968 311.292 189.386 311.668 189.557C312.045 189.729 311.771 189.934 311.001 189.968Z" fill="#EDE43E"/>
<path d="M300.83 189.42C300.83 190.054 299.855 190.585 298.639 190.585C297.423 190.585 296.447 190.054 296.447 189.42C296.447 188.786 297.423 188.238 298.639 188.238C299.855 188.238 300.83 188.769 300.83 189.42Z" fill="#AFAF00"/>
<path d="M300.83 188.684H296.447V189.42H300.83V188.684Z" fill="#AFAF00"/>
<path d="M300.83 188.684C300.83 189.317 299.855 189.848 298.639 189.848C297.423 189.848 296.447 189.317 296.447 188.684C296.447 188.05 297.423 187.501 298.639 187.501C299.855 187.501 300.83 188.033 300.83 188.684Z" fill="#CEC919"/>
<path d="M298.622 188.444C298.622 188.444 297.697 187.861 298.313 187.673C298.93 187.484 298.622 188.444 298.622 188.444Z" fill="#EDE43E"/>
<path d="M298.194 188.752C298.044 188.748 297.896 188.78 297.762 188.846C297.628 188.911 297.512 189.009 297.423 189.129C297.286 189.386 298.313 189.54 298.194 188.752Z" fill="#EDE43E"/>
<path d="M299.461 188.684C299.717 188.684 300.094 188.684 300.231 189.043C300.368 189.403 299.341 189.472 299.461 188.684Z" fill="#EDE43E"/>
<path d="M298.639 188.684C298.565 188.894 298.565 189.124 298.639 189.335C298.658 189.387 298.693 189.432 298.739 189.464C298.785 189.496 298.84 189.513 298.896 189.513C298.952 189.513 299.006 189.496 299.052 189.464C299.098 189.432 299.133 189.387 299.153 189.335C299.153 188.889 298.639 188.684 298.639 188.684Z" fill="#EDE43E"/>
<path d="M297.92 188.444C297.92 188.444 296.636 188.838 296.961 188.221C297.286 187.604 297.92 188.444 297.92 188.444Z" fill="#EDE43E"/>
<path d="M299.067 188.324C299.067 188.324 299.358 187.741 299.735 187.913C300.111 188.084 299.837 188.272 299.067 188.324Z" fill="#EDE43E"/>
<path d="M331.958 222.244C342.123 222.244 350.364 217.856 350.364 212.445C350.364 207.033 342.123 202.646 331.958 202.646C321.793 202.646 313.552 207.033 313.552 212.445C313.552 217.856 321.793 222.244 331.958 222.244Z" fill="#564866"/>
<path d="M314.357 206.312C314.357 209.378 309.717 211.845 303.981 211.845C298.245 211.845 293.588 209.378 293.588 206.312C293.588 203.245 298.245 200.795 303.981 200.795C309.717 200.795 314.357 203.262 314.357 206.312Z" fill="#FFB89F"/>
<path d="M314.357 205.112C314.357 208.162 309.717 210.646 303.981 210.646C298.245 210.646 293.588 208.162 293.588 205.112C293.588 202.063 298.245 199.579 303.981 199.579C309.717 199.579 314.357 202.149 314.357 205.112Z" fill="#FE9380"/>
<path d="M314.357 204.05C314.357 207.1 309.717 209.584 303.981 209.584C298.245 209.584 293.588 207.1 293.588 204.05C293.588 201.001 298.245 198.534 303.981 198.534C309.717 198.534 314.357 201.001 314.357 204.05Z" fill="#FFB89F"/>
<path d="M314.357 202.577C314.357 205.626 309.717 208.11 303.981 208.11C298.245 208.11 293.588 205.626 293.588 202.577C293.588 199.528 298.245 197.044 303.981 197.044C309.717 197.044 314.357 199.528 314.357 202.577Z" fill="#FE9380"/>
<path d="M314.357 201.292C314.357 204.341 309.717 206.826 303.981 206.826C298.245 206.826 293.588 204.341 293.588 201.292C293.588 198.243 298.245 195.759 303.981 195.759C309.717 195.759 314.357 198.243 314.357 201.292Z" fill="#FFB89F"/>
<path d="M303.929 206.329C298.587 206.329 294.221 204.067 294.221 201.309C294.221 198.551 298.587 196.29 303.929 196.29C309.271 196.29 313.637 198.534 313.637 201.309C313.637 204.085 309.289 206.329 303.929 206.329ZM303.929 196.718C298.793 196.718 294.649 198.774 294.649 201.309C294.649 203.845 298.81 205.9 303.929 205.9C309.049 205.9 313.209 203.828 313.209 201.309C313.209 198.791 309.049 196.718 303.929 196.718Z" fill="white"/>
<path d="M303.947 198.722C307.046 198.722 309.563 199.973 309.871 201.583C309.879 201.481 309.879 201.378 309.871 201.275C309.871 199.562 307.2 198.089 303.895 198.089C300.591 198.089 297.937 199.51 297.937 201.275C297.929 201.378 297.929 201.481 297.937 201.583C298.331 199.99 300.848 198.722 303.947 198.722Z" fill="#E86D64"/>
<path d="M303.947 204.461C307.046 204.461 309.563 203.211 309.871 201.6C309.563 199.99 307.046 198.74 303.947 198.74C300.848 198.74 298.331 199.99 298.04 201.6C298.331 203.211 300.848 204.461 303.947 204.461Z" fill="#FE9380"/>
<path d="M274.394 170.165C274.394 170.165 279.925 167.269 281.243 166.516C282.561 165.762 283.657 165.162 283.4 164.409C283.144 163.655 274.155 169.445 274.155 169.445L274.394 170.165Z" fill="#282828"/>
<path d="M274.137 168.452C274.137 168.452 278.64 165.728 280.644 164.546C282.647 163.364 284.582 164.083 282.459 165.299C279.873 166.79 275.387 169.12 275.387 169.12L274.137 168.452Z" fill="#352C4F"/>
<path d="M275.781 169.377V169.908C273.906 171.375 271.807 172.532 269.566 173.334C266.604 174.242 265.388 173.197 265.388 173.197L275.781 169.377Z" fill="#F4C6DC"/>
<path d="M274.137 168.452L265.388 173.283C265.388 173.283 267.717 174.362 271.877 172.015C273.242 171.234 274.547 170.352 275.781 169.377L274.137 168.452Z" fill="white"/>
<path d="M325.777 211.896L322.592 209.858H326.462L325.777 211.896Z" fill="#4C4C4C"/>
<path d="M315.607 212.496L312.114 212.564V219.742L315.607 221.781V212.496Z" fill="#352C4F"/>
<path d="M328.225 207.322L315.624 214.603L312.114 212.564L324.698 205.284L328.225 207.322Z" fill="#9C8BAF"/>
<path d="M315.606 214.603V221.781L318.757 219.982V214.295L328.208 208.864V207.322L315.606 214.603Z" fill="#352C4F"/>
<path d="M328.208 208.436V210.474L325.777 211.896V209.549L328.208 208.436Z" fill="#352C4F"/>
<path d="M260.252 183.047C260.252 187.998 264.909 191.99 270.645 191.99C276.38 191.99 281.02 187.998 281.02 183.047H260.252Z" fill="#FE9380"/>
<path d="M280.935 182.773C280.935 179.724 276.295 177.24 270.559 177.24C264.823 177.24 260.166 179.724 260.166 182.773C260.166 184.846 262.34 186.662 265.542 187.604C266.107 186.422 268.128 185.531 270.559 185.531C272.99 185.531 274.994 186.422 275.559 187.604C278.76 186.731 280.935 184.846 280.935 182.773Z" fill="white"/>
<path d="M270.525 185.531C268.094 185.531 266.073 186.422 265.508 187.604C268.784 188.518 272.248 188.518 275.524 187.604C274.994 186.422 272.973 185.531 270.525 185.531Z" fill="#FFB89F"/>
<path d="M275.935 184.692C276.329 185.206 275.935 186.217 274.908 186.953C273.881 187.69 272.853 187.896 272.46 187.382C272.066 186.868 272.459 185.857 273.487 185.12C274.514 184.384 275.541 184.178 275.935 184.692Z" fill="#AFAF00"/>
<path d="M275.479 184.107L272.015 186.793L272.465 187.375L275.93 184.689L275.479 184.107Z" fill="#AFAF00"/>
<path d="M275.49 184.109C275.884 184.623 275.49 185.634 274.463 186.371C273.436 187.107 272.408 187.313 272.014 186.799C271.621 186.285 272.014 185.274 273.025 184.538C274.035 183.801 275.096 183.596 275.49 184.109Z" fill="#CEC919"/>
<path d="M273.59 185.292C273.59 185.292 272.511 185.394 272.888 184.88C273.264 184.366 273.59 185.292 273.59 185.292Z" fill="#EDE43E"/>
<path d="M273.436 185.788C273.247 185.96 272.99 186.251 273.059 186.559C273.127 186.868 273.949 186.337 273.436 185.788Z" fill="#EDE43E"/>
<path d="M274.394 185.017C274.51 184.923 274.647 184.859 274.793 184.829C274.939 184.799 275.09 184.805 275.233 184.846C275.507 184.898 274.788 185.651 274.394 185.017Z" fill="#EDE43E"/>
<path d="M273.744 185.463C273.817 185.677 273.962 185.858 274.155 185.977C274.207 186.002 274.265 186.01 274.322 185.999C274.379 185.989 274.431 185.961 274.471 185.919C274.511 185.877 274.536 185.824 274.544 185.766C274.552 185.709 274.541 185.651 274.514 185.6C274.274 185.309 273.744 185.463 273.744 185.463Z" fill="#EDE43E"/>
<path d="M273.076 185.686C273.076 185.686 272.305 186.799 272.203 186.114C272.1 185.429 273.076 185.686 273.076 185.686Z" fill="#EDE43E"/>
<path d="M273.949 184.915C273.949 184.915 273.829 184.264 274.223 184.178C274.617 184.092 274.446 184.401 273.949 184.915Z" fill="#EDE43E"/>
<path d="M271.124 186.628C271.124 187.262 270.131 187.793 268.915 187.793C267.7 187.793 266.724 187.262 266.724 186.628C266.724 185.994 267.717 185.446 268.915 185.446C270.114 185.446 271.124 185.977 271.124 186.628Z" fill="#EA642F"/>
<path d="M271.107 185.891H266.724V186.628H271.107V185.891Z" fill="#EA642F"/>
<path d="M271.124 185.891C271.124 186.525 270.131 187.056 268.915 187.056C267.7 187.056 266.724 186.525 266.724 185.891C266.724 185.257 267.717 184.709 268.915 184.709C270.114 184.709 271.124 185.24 271.124 185.891Z" fill="#FF7D43"/>
<path d="M268.059 185.103C268.1 185.17 268.122 185.247 268.122 185.326C268.122 185.404 268.1 185.481 268.059 185.549C267.809 185.71 267.53 185.821 267.237 185.874C267.607 185.915 267.973 185.984 268.333 186.08C268.573 186.182 268.915 186.782 268.915 186.782C268.915 186.782 268.813 186.114 269.223 186.114C269.637 186.155 270.044 186.241 270.439 186.371C270.439 186.371 269.583 185.805 269.874 185.617C270.009 185.513 270.135 185.399 270.251 185.274L269.155 185.446C268.765 185.435 268.386 185.317 268.059 185.103Z" fill="#FFB3A9"/>
<path d="M267.357 185.84C267.066 186.422 265.953 186.456 264.875 185.84C263.796 185.223 263.162 184.418 263.402 183.835C263.642 183.253 264.789 183.219 265.885 183.733C266.981 184.247 267.631 185.257 267.357 185.84Z" fill="#EA642F"/>
<path d="M267.676 185.165L263.731 183.253L263.41 183.916L267.355 185.828L267.676 185.165Z" fill="#EA642F"/>
<path d="M267.683 185.172C267.391 185.754 266.279 185.788 265.183 185.172C264.087 184.555 263.471 183.75 263.727 183.167C263.984 182.585 265.114 182.551 266.21 183.167C267.306 183.784 267.956 184.589 267.683 185.172Z" fill="#FF7D43"/>
<path d="M265.251 183.133C265.251 183.133 265.251 183.441 265.063 183.527C264.775 183.587 264.478 183.587 264.19 183.527C264.506 183.716 264.804 183.934 265.08 184.178C265.212 184.457 265.288 184.76 265.303 185.069C265.303 185.069 265.508 184.418 265.868 184.589C266.225 184.811 266.557 185.069 266.861 185.36C266.861 185.36 266.33 184.486 266.672 184.435C266.841 184.403 267.008 184.357 267.169 184.298L266.09 183.972C265.662 183.784 265.251 183.133 265.251 183.133Z" fill="#FFB3A9"/>
<path d="M270.525 184.641C270.354 185.274 269.275 185.531 268.111 185.223C266.946 184.915 266.107 184.144 266.279 183.51C266.45 182.876 267.529 182.636 268.693 182.945C269.857 183.253 270.765 184.024 270.525 184.641Z" fill="#AFAF00"/>
<path d="M266.526 182.802L266.339 183.514L270.578 184.629L270.765 183.917L266.526 182.802Z" fill="#AFAF00"/>
<path d="M270.781 183.938C270.61 184.555 269.532 184.812 268.367 184.503C267.203 184.195 266.364 183.441 266.535 182.79C266.706 182.139 267.785 181.917 268.949 182.225C270.114 182.533 270.936 183.304 270.781 183.938Z" fill="#CEC919"/>
<path d="M268.693 183.15C268.693 183.15 267.956 182.362 268.59 182.328C269.223 182.294 268.693 183.15 268.693 183.15Z" fill="#EDE43E"/>
<path d="M268.196 183.304C268.054 183.261 267.904 183.252 267.758 183.279C267.612 183.306 267.474 183.367 267.357 183.458C267.1 183.715 268.11 184.127 268.196 183.304Z" fill="#EDE43E"/>
<path d="M269.446 183.578C269.686 183.578 270.045 183.835 270.097 184.127C270.148 184.418 269.138 184.315 269.446 183.578Z" fill="#EDE43E"/>
<path d="M268.659 183.304C268.529 183.489 268.468 183.713 268.487 183.938C268.487 184.229 268.95 184.212 269.001 183.938C269.052 183.664 268.659 183.304 268.659 183.304Z" fill="#EDE43E"/>
<path d="M268.059 182.979C268.059 182.979 266.724 182.979 267.203 182.551C267.682 182.122 268.059 182.979 268.059 182.979Z" fill="#EDE43E"/>
<path d="M269.155 183.15C269.155 183.15 269.6 182.653 269.908 182.91C270.217 183.167 269.926 183.304 269.155 183.15Z" fill="#EDE43E"/>
<path d="M287.903 183.304C287.903 183.955 286.91 184.486 285.695 184.486C284.479 184.486 283.503 183.955 283.503 183.304C283.503 182.653 284.496 182.139 285.695 182.139C286.893 182.139 287.903 182.653 287.903 183.304Z" fill="#EA642F"/>
<path d="M287.886 182.551H283.503V183.287H287.886V182.551Z" fill="#EA642F"/>
<path d="M285.695 183.715C286.905 183.715 287.886 183.194 287.886 182.551C287.886 181.907 286.905 181.386 285.695 181.386C284.484 181.386 283.503 181.907 283.503 182.551C283.503 183.194 284.484 183.715 285.695 183.715Z" fill="#FF7D43"/>
<path d="M284.821 181.78C284.821 181.78 284.993 182.037 284.821 182.225C284.575 182.381 284.302 182.491 284.017 182.551C284.387 182.592 284.753 182.66 285.113 182.756C285.352 182.859 285.695 183.458 285.695 183.458C285.695 183.458 285.592 182.773 286.003 182.773C286.416 182.814 286.824 182.901 287.218 183.03C287.218 183.03 286.362 182.482 286.653 182.294C286.788 182.19 286.914 182.075 287.03 181.951C287.03 181.951 286.26 182.088 285.917 182.122C285.528 182.108 285.149 181.99 284.821 181.78Z" fill="#FFB3A9"/>
<path d="M289.205 181.334C290.415 181.334 291.396 180.813 291.396 180.169C291.396 179.526 290.415 179.004 289.205 179.004C287.994 179.004 287.013 179.526 287.013 180.169C287.013 180.813 287.994 181.334 289.205 181.334Z" fill="#EA642F"/>
<path d="M291.396 179.433H287.013V180.169H291.396V179.433Z" fill="#EA642F"/>
<path d="M291.396 179.433C291.396 180.067 290.42 180.598 289.205 180.598C287.989 180.598 287.013 180.067 287.013 179.433C287.013 178.799 287.989 178.251 289.205 178.251C290.42 178.251 291.396 178.782 291.396 179.433Z" fill="#FF7D43"/>
<path d="M288.332 178.645C288.332 178.645 288.486 178.919 288.332 179.09C288.083 179.254 287.803 179.365 287.51 179.416C287.88 179.455 288.246 179.524 288.606 179.621C288.862 179.724 289.205 180.324 289.205 180.324C289.205 180.324 289.085 179.655 289.496 179.655C289.91 179.694 290.317 179.781 290.712 179.912C290.712 179.912 289.855 179.364 290.147 179.159C290.289 179.057 290.421 178.943 290.54 178.816L289.427 178.987C289.037 178.977 288.658 178.858 288.332 178.645Z" fill="#FFB3A9"/>
<path d="M290.883 201.104C290.883 202.183 289.17 203.057 287.219 203.057C285.267 203.057 283.554 202.183 283.554 201.104C283.554 200.024 285.267 199.168 287.219 199.168C289.17 199.168 290.883 200.042 290.883 201.104Z" fill="#FFC249"/>
<path d="M290.865 188.821H283.554V201.104H290.865V188.821Z" fill="#FFC249"/>
<path d="M290.883 188.821C290.883 189.9 289.17 190.774 287.219 190.774C285.267 190.774 283.554 189.9 283.554 188.821C283.554 187.741 285.267 186.885 287.219 186.885C289.17 186.885 290.883 187.758 290.883 188.821Z" fill="#FFD892"/>
<path d="M289.359 188.632C289.359 189.249 288.434 189.729 287.287 189.729C286.14 189.729 285.215 189.249 285.215 188.632C285.215 188.015 286.14 187.536 287.287 187.536C288.434 187.536 289.359 188.033 289.359 188.632Z" fill="#FFC249"/>
<path d="M289.273 187.639H285.147V188.632H289.273V187.639Z" fill="#FFC249"/>
<path d="M289.359 187.639C289.359 188.255 288.434 188.735 287.287 188.735C286.14 188.735 285.215 188.255 285.215 187.639C285.215 187.022 286.14 186.542 287.287 186.542C288.434 186.542 289.359 187.039 289.359 187.639Z" fill="#FFE5C5"/>
<path d="M288.246 187.639C288.246 187.947 287.784 188.187 287.218 188.187C286.653 188.187 286.191 187.947 286.191 187.639C286.191 187.33 286.653 187.09 287.218 187.09C287.784 187.09 288.246 187.33 288.246 187.639Z" fill="#FFC249"/>
<path d="M286.191 187.639L286.705 186.011H287.732L288.246 187.639H286.191Z" fill="#FFC249"/>
<path d="M287.732 186.011C287.732 186.165 287.51 186.285 287.218 186.285C286.927 186.285 286.705 186.165 286.705 186.011C286.705 185.857 286.927 185.737 287.218 185.737C287.51 185.737 287.732 185.857 287.732 186.011Z" fill="#FFE5C5"/>
</svg>
