<svg width="595" height="440" viewBox="0 0 595 440" fill="none" xmlns="http://www.w3.org/2000/svg">
<g clip-path="url(#clip0)">
<path d="M297.481 96.1622L0 268.062L297.481 440L595 268.139L297.481 96.1622Z" fill="#9C8BAF"/>
<g opacity="0.5">
<path opacity="0.5" d="M291.673 350.877C363.878 350.877 422.412 322.513 422.412 287.525C422.412 252.537 363.878 224.174 291.673 224.174C219.467 224.174 160.933 252.537 160.933 287.525C160.933 322.513 219.467 350.877 291.673 350.877Z" fill="#564866"/>
</g>
<path d="M181.896 138.05C183.281 127.28 184.474 117.972 198.513 126.049L205.359 129.896L216.014 136.012L222.899 139.858C236.9 147.936 238.092 158.629 239.516 171.015C240.785 182.246 243.67 214.826 243.708 215.172L240.862 213.403C240.862 213.095 238.015 181.169 236.746 170.015C235.246 156.667 234.015 149.974 222.899 143.551L216.014 139.704L205.359 133.55L198.513 129.703C187.358 123.28 186.127 128.549 184.627 140.166C183.358 149.859 180.55 178.631 180.512 178.631L177.704 177.131C177.704 176.938 180.781 147.82 181.896 138.05Z" fill="white"/>
<path d="M180.512 178.862L176.319 181.323C176.319 181.323 176.935 161.322 177.704 153.859C178.473 146.397 181.935 129.55 181.935 129.55L183.627 130.857L180.512 178.862Z" fill="white"/>
<path d="M239.477 217.942L243.708 215.48C243.708 215.48 238.823 178.477 237.977 172.823C237.131 167.168 234.13 153.86 234.13 153.86L229.476 155.014C231.313 159.59 232.604 164.367 233.323 169.246C234.015 174.977 239.477 217.942 239.477 217.942Z" fill="white"/>
<path d="M177.665 140.512C179.05 129.742 180.281 120.434 194.282 128.511L201.167 132.358L211.783 138.474L218.668 142.32C232.669 150.398 234.053 161.091 235.284 173.477C236.554 184.709 239.438 217.288 239.477 217.634L236.669 215.865C236.669 215.557 233.784 183.632 232.515 172.477C231.015 159.129 229.822 152.436 218.668 146.013L211.783 142.166L201.167 136.012L194.282 132.165C183.166 125.742 181.935 131.012 180.435 142.628C179.165 152.321 176.357 181.093 176.319 181.093L173.473 179.593C173.511 179.516 176.396 150.282 177.665 140.512Z" fill="#9C8BAF"/>
<path d="M140.086 161.976C141.471 151.244 142.701 141.936 156.702 150.013L163.587 153.86L174.203 160.014L181.089 163.861C195.089 171.938 196.474 182.631 197.705 195.017C198.974 206.287 201.859 238.867 201.898 239.175L199.051 237.444C199.051 237.098 196.205 205.21 194.936 194.017C193.435 180.708 192.205 174.015 181.089 167.592L174.203 163.745L163.587 157.706L156.702 153.86C145.548 147.436 144.317 152.706 142.817 164.284C141.548 174.015 138.74 202.749 138.74 202.749L135.893 201.287C135.932 201.018 138.817 171.784 140.086 161.976Z" fill="white"/>
<path d="M138.74 202.787L134.509 205.248C134.509 205.248 135.124 185.285 135.893 177.785C136.663 170.284 140.125 153.513 140.125 153.513L141.817 154.821L138.74 202.787Z" fill="white"/>
<path d="M197.667 241.867L201.898 239.405C201.898 239.405 197.013 202.402 196.167 196.748C195.32 191.094 192.32 177.785 192.32 177.785L187.666 178.939C189.503 183.515 190.794 188.292 191.512 193.171C192.32 198.902 197.667 241.867 197.667 241.867Z" fill="white"/>
<path d="M135.855 164.438C137.278 153.667 138.47 144.397 152.471 152.475L159.356 156.321L169.973 162.476L176.858 166.322C190.858 174.4 192.243 185.093 193.474 197.479C194.743 208.749 197.628 241.329 197.667 241.637L194.859 239.906C194.859 239.56 191.974 207.672 190.743 196.479C189.205 183.17 188.012 176.477 176.858 170.053L169.973 166.207L159.356 160.091L152.471 156.245C141.355 149.782 140.124 155.091 138.624 166.669C137.355 176.4 134.547 205.133 134.509 205.133L131.662 203.864C131.701 203.479 134.624 174.208 135.855 164.438Z" fill="#9C8BAF"/>
<path d="M195.59 180.785L248.708 150.359C248.708 150.359 207.706 131.204 197.667 123.088C187.627 114.972 179.281 96.9316 177.704 60.2361C177.396 53.6971 178.127 43.6578 176.319 41.3114C172.473 39.042 122.7 70.6601 122.7 70.6601C122.7 70.6601 126.123 115.818 129.662 129.627C133.201 143.436 143.586 153.706 160.78 163.168C177.973 172.631 195.59 180.785 195.59 180.785Z" fill="#FFC249"/>
<path d="M125.162 70.4673C125.162 70.4673 128.008 105.547 129.701 119.356C130.094 126.914 132.423 134.245 136.464 140.644C140.505 147.042 146.123 152.295 152.779 155.898C168.626 165.399 189.435 177.207 195.59 180.785V186.939C191.743 184.785 182.781 179.708 172.511 173.899C165.857 170.053 158.78 165.937 152.471 162.091C131.547 149.32 126.931 132.511 125.047 117.779C123.162 103.047 120.431 67.7748 120.431 67.7748L125.162 70.4673Z" fill="#E2A730"/>
<path d="M178.281 40.042C178.281 40.042 181.127 75.122 182.819 88.9309C183.209 96.4899 185.536 103.822 189.578 110.221C193.619 116.621 199.24 121.873 205.898 125.472L248.708 150.205V156.514C244.862 154.36 235.9 149.282 225.822 143.474C219.168 139.628 212.091 135.512 205.782 131.665C184.666 118.895 179.973 102.086 178.165 87.3538C176.434 73.2372 173.55 37.5417 173.55 37.5417L178.281 40.042Z" fill="#FFC249"/>
<path d="M173.588 37.1953L178.396 40.0417L125.2 70.5829L120.431 67.7365L173.588 37.1953Z" fill="#FFD892"/>
<path d="M248.708 156.514L195.59 186.901V180.631L248.708 150.206V156.514Z" fill="#FFD892"/>
<path d="M352.215 142.704C350.83 131.934 349.599 122.626 335.599 130.703L328.713 134.55L318.097 140.704L311.212 144.551C297.211 152.628 295.827 163.321 294.596 175.707C293.327 186.977 290.442 219.557 290.403 219.865L293.211 218.134C293.211 217.788 296.096 185.9 297.365 174.707C298.865 161.398 300.096 154.705 311.212 148.282L318.097 144.435L328.713 138.473L335.599 134.627C346.753 128.203 347.946 133.473 349.446 145.051C350.715 154.782 353.523 183.516 353.561 183.516L356.408 182.054C356.369 181.708 353.484 152.474 352.215 142.704Z" fill="#F4C6DC"/>
<path d="M353.561 183.477L357.792 185.939C357.792 185.939 357.177 165.976 356.408 158.475C355.638 150.974 352.138 134.204 352.138 134.204L350.484 135.512L353.561 183.477Z" fill="white"/>
<path d="M294.634 222.558L290.403 220.096C290.403 220.096 295.288 183.093 296.173 177.438C297.058 171.784 300.019 158.475 300.019 158.475L304.673 159.629C302.843 164.208 301.552 168.984 300.827 173.861C300.019 179.592 294.634 222.558 294.634 222.558Z" fill="#F4C6DC"/>
<path d="M356.446 145.128C355.023 134.396 353.831 125.088 339.83 133.165L332.945 137.012L322.29 143.166L315.444 147.013C301.404 155.09 300.058 165.783 298.827 178.169C297.558 189.439 294.635 222.019 294.635 222.327L297.442 220.596C297.442 220.25 300.289 188.362 301.558 177.169C303.058 163.86 304.289 157.167 315.444 150.744L322.29 146.897L332.945 140.743L339.83 136.896C350.946 130.473 352.177 135.742 353.677 147.32C354.946 157.052 357.754 185.785 357.792 185.785L360.639 184.324C360.6 184.17 357.716 154.936 356.446 145.128Z" fill="#9C8BAF"/>
<path d="M394.026 166.63C392.602 155.86 391.41 146.551 377.409 154.667L370.524 158.514L359.908 164.63L353.023 168.476C339.022 176.554 337.637 187.247 336.406 199.633C335.137 210.865 332.252 243.444 332.214 243.79L335.022 242.329C335.022 242.021 337.907 210.134 339.137 198.94C340.676 185.632 341.868 178.939 353.023 172.477L359.908 168.63L370.524 162.514L377.409 158.668C388.525 152.244 389.756 157.552 391.256 169.13C392.525 178.823 395.333 207.595 395.372 207.595L398.218 206.095C398.18 205.672 395.295 176.4 394.026 166.63Z" fill="white"/>
<path d="M395.372 207.441L399.603 209.903C399.603 209.903 398.987 189.901 398.218 182.439C397.449 174.976 393.949 158.129 393.949 158.129L392.295 159.475L395.372 207.441Z" fill="white"/>
<path d="M336.445 246.521L332.214 244.06C332.214 244.06 337.06 207.056 337.907 201.402C338.753 195.748 341.753 182.439 341.753 182.439L346.446 183.593C344.609 188.169 343.317 192.946 342.599 197.825C341.907 203.556 336.445 246.521 336.445 246.521Z" fill="white"/>
<path d="M398.218 169.245C396.833 158.475 395.641 149.167 381.602 157.283L374.755 161.129L364.1 167.245L357.215 171.092C343.214 179.169 341.83 189.863 340.599 202.248C339.33 213.48 336.445 246.06 336.445 246.406L339.253 244.637C339.253 244.329 342.099 212.403 343.368 201.248C344.868 187.901 346.099 181.208 357.215 174.784L364.1 170.938L374.755 164.822L381.602 160.975C392.756 154.552 393.987 159.821 395.487 171.438C396.756 181.131 399.564 209.903 399.603 209.903L402.411 208.403C402.411 208.133 399.526 178.862 398.218 169.245Z" fill="#9C8BAF"/>
<path d="M338.484 185.285L285.365 154.859C285.365 154.859 326.252 135.858 336.445 127.665C346.638 119.472 354.831 101.509 356.408 64.8131C356.677 58.2741 355.946 48.2347 357.792 45.8499C361.639 43.619 411.411 75.2371 411.411 75.2371C411.411 75.2371 407.95 120.395 404.449 134.204C400.949 148.013 390.525 158.283 373.332 167.745C356.139 177.208 338.484 185.285 338.484 185.285Z" fill="#FFC249"/>
<path d="M408.95 75.1222C408.95 75.1222 406.103 110.202 404.411 124.011C404.011 131.563 401.679 138.885 397.638 145.277C393.597 151.668 387.983 156.915 381.332 160.514C365.408 170.131 344.638 181.862 338.483 185.286V191.555C342.33 189.44 351.292 184.363 361.369 178.554C368.024 174.708 375.101 170.554 381.409 166.746C402.488 153.937 407.18 137.166 408.988 122.434C410.796 107.702 413.642 72.4297 413.642 72.4297L408.95 75.1222Z" fill="#E2A730"/>
<path d="M355.831 44.6578C355.831 44.6578 352.984 79.7762 351.292 93.5851C350.893 101.137 348.561 108.459 344.52 114.851C340.479 121.242 334.864 126.489 328.214 130.088L285.365 154.86V161.129C289.211 159.014 298.212 153.937 308.443 148.128C315.059 144.282 322.175 140.128 328.444 136.32C349.561 123.511 354.254 106.74 356.062 92.0081C357.869 77.276 360.523 42.3114 360.523 42.3114L355.831 44.6578Z" fill="#FFC249"/>
<path d="M360.485 41.811L355.715 44.6574L408.911 75.237L413.681 72.3906L360.485 41.811Z" fill="#FFD892"/>
<path d="M285.365 161.13L338.484 191.555V185.285L285.365 154.86V161.13Z" fill="#FFD892"/>
<path d="M203.859 49.5425C203.859 49.5425 212.129 50.0425 220.13 65.8516C224.476 74.3908 232.554 93.5079 233.9 97.0466L244.593 125.703L226.822 132.396C226.822 132.396 219.63 114.279 218.36 108.702C217.091 103.124 213.514 93.3155 213.514 93.3155C213.514 93.3155 213.129 59.3895 203.859 49.5425Z" fill="#C94A3D"/>
<path d="M249.016 234.097C249.016 234.097 252.285 237.636 256.709 241.79C261.132 245.944 262.017 246.867 265.748 250.522C267.94 252.637 266.133 254.599 261.901 254.368C256.247 253.795 250.674 252.595 245.285 250.791C240.984 248.969 236.842 246.795 232.9 244.29C231.059 243.301 229.678 241.63 229.053 239.636V233.097L249.016 234.097Z" fill="#AFAF00"/>
<path d="M248.67 160.629C252.516 186.862 250.747 232.443 250.747 232.443C250.747 232.443 250.247 238.098 240.554 238.059C235.456 237.643 230.652 235.499 226.938 231.982L226.168 177.631L223.091 161.553C231.515 161.014 240.092 160.706 248.67 160.629Z" fill="#352C4F"/>
<path d="M229.707 243.983C229.707 243.983 232.977 247.522 237.4 251.676C241.823 255.83 242.708 256.753 246.439 260.407C248.632 262.523 246.824 264.485 242.593 264.254C236.95 263.684 231.39 262.485 226.015 260.677C221.698 258.863 217.542 256.688 213.591 254.176C211.763 253.171 210.387 251.506 209.744 249.522V242.983L229.707 243.983Z" fill="#AFAF00"/>
<path d="M229.361 170.515C233.207 196.748 231.438 242.329 231.438 242.329C231.438 242.329 230.938 247.983 221.245 247.945C216.174 247.512 211.4 245.369 207.706 241.867L206.937 187.517L203.706 171.515C212.206 170.9 220.784 170.592 229.361 170.515Z" fill="#564866"/>
<path d="M225.822 143.474C212.86 154.129 202.744 157.898 185.704 156.552C176.671 156.049 168.017 152.756 160.934 147.128C164.049 131.165 165.088 119.28 166.319 113.202C168.857 100.586 158.087 86.2768 159.126 71.5447C162.972 59.0436 178.358 47.4657 178.358 47.4657L198.205 47.1195C200.109 47.3152 201.955 47.8848 203.639 48.7957C205.322 49.7066 206.808 50.9409 208.014 52.4277C219.13 67.0443 215.937 100.97 217.591 114.548C221.102 123.955 223.854 133.628 225.822 143.474Z" fill="#F77F7C"/>
<path d="M195.474 48.2351C199.786 54.6792 203.045 61.7685 205.129 69.2369C207.206 79.084 206.629 113.549 206.629 113.549C206.629 113.549 196.551 78.5455 191.974 70.8909C188.869 65.7991 185.505 60.8691 181.896 56.1204L195.474 48.2351Z" fill="#F77F7C"/>
<path d="M196.166 44.2729L198.397 57.274C198.397 57.274 191.782 64.6978 185.32 59.1588C178.858 53.6199 177.896 51.0427 177.896 51.0427L181.089 33.3489L196.166 44.2729Z" fill="#DB947B"/>
<path d="M179.242 13.8472C180.768 11.9583 182.729 10.4678 184.957 9.50375C187.185 8.53972 189.614 8.13094 192.035 8.31252C194.456 8.49411 196.797 9.26063 198.857 10.5463C200.916 11.8319 202.633 13.5982 203.859 15.6935C212.322 28.1562 204.321 48.5425 196.974 47.3501C189.95 45.9777 183.693 42.0259 179.435 36.2722C177.452 32.875 176.391 29.0186 176.358 25.0853C176.324 21.1519 177.318 17.278 179.242 13.8472Z" fill="#FFC0A4"/>
<path d="M207.706 19.886C206.292 21.9366 204.402 23.6134 202.198 24.7725C199.994 25.9316 197.541 26.5382 195.051 26.5404C191.608 26.8606 188.135 26.5212 184.82 25.5403L186.704 38.8876C186.704 38.8876 184.781 38.8876 183.589 31.1947C182.742 28.3483 180.165 28.6175 179.358 30.233C178.833 32.264 178.833 34.3949 179.358 36.4259C177.25 35.0752 175.504 33.2305 174.27 31.0521C173.037 28.8736 172.354 26.4271 172.28 23.9248C172.28 18.5013 176.357 6.6156 186.243 5.00007C190.089 4.17992 194.095 4.55882 197.719 6.08569C201.344 7.61256 204.413 10.214 206.513 13.5393C207.16 14.4475 207.602 15.4856 207.808 16.5815C208.014 17.6773 207.979 18.8049 207.706 19.886Z" fill="#352C4F"/>
<path d="M358.946 14.8859C358.946 14.8859 354.792 -0.461626 372.255 -4.72534e-05C389.717 0.461532 390.602 20.0017 386.102 33.349C377.294 59.6205 392.333 53.8508 392.333 53.8508C392.333 53.8508 389.217 66.3904 378.409 62.2362C367.601 58.082 355.984 17.7323 358.946 14.8859Z" fill="#352C4F"/>
<path d="M360.639 11.8083C360.639 11.8083 365.985 4.88466 370.793 8.2311C375.601 11.5776 373.101 18.5397 373.101 18.5397L360.639 11.8083Z" fill="#AFAF00"/>
<path d="M312.982 144.166C312.982 144.166 301.25 153.86 302.096 164.36C302.558 170.015 301.866 172.553 302.789 179.746C303.712 186.939 304.097 212.826 303.712 221.558C302.815 228.745 299.954 235.547 295.442 241.213C293.288 244.252 299.289 249.483 304.404 245.06C306.84 242.46 309.654 240.243 312.751 238.482C315.559 237.175 317.867 231.059 316.059 224.058C314.251 217.057 316.059 203.556 318.79 191.786C320.158 184.446 320.649 176.97 320.252 169.515C320.252 165.168 336.214 151.282 336.791 149.898C338.483 146.359 312.982 144.166 312.982 144.166Z" fill="#FFC0A4"/>
<path d="M307.712 239.79C301.212 243.252 298.558 243.637 295.327 241.059C292.441 243.193 289.692 245.505 287.096 247.983C284.98 250.291 290.942 254.138 296.865 252.407C302.789 250.676 307.828 245.406 312.636 241.483C317.444 237.559 318.674 236.29 318.674 231.636C318.431 229.902 317.697 228.274 316.559 226.943C315.384 232.209 312.212 236.814 307.712 239.79Z" fill="#352C4F"/>
<path d="M339.676 139.012C337.214 140.089 332.445 150.244 323.29 159.437C321.474 161.328 320.122 163.616 319.341 166.119C318.56 168.622 318.371 171.273 318.79 173.861C320.006 179.008 320.677 184.268 320.79 189.555C320.79 196.248 322.098 223.827 321.713 232.559C320.825 239.737 317.962 246.528 313.443 252.176C311.289 255.253 317.29 260.484 322.406 256.022C324.861 253.461 327.688 251.282 330.791 249.56C333.599 248.252 335.906 242.137 334.099 235.174C332.291 228.212 334.099 214.673 336.83 202.864C339.56 191.055 336.022 175.246 338.445 172.323C343.368 166.438 353.831 161.322 353.831 155.321C354.408 147.898 347.023 135.666 339.676 139.012Z" fill="#FFC0A4"/>
<path d="M325.829 250.906C319.328 254.368 316.674 254.752 313.443 252.175C310.553 254.333 307.792 256.657 305.174 259.138C303.096 261.445 309.02 265.253 314.982 263.523C320.944 261.792 325.944 256.522 330.752 252.598C335.56 248.675 336.791 247.406 336.791 242.751C336.569 240.97 335.818 239.295 334.637 237.943C333.514 243.252 330.351 247.907 325.829 250.906Z" fill="#352C4F"/>
<path d="M338.483 110.779L309.405 147.821C314.611 149.008 319.748 150.485 324.79 152.244C328.666 153.748 332.174 156.063 335.08 159.036C337.986 162.008 340.222 165.568 341.637 169.477C341.637 169.477 369.793 155.129 375.178 145.397C381.717 133.589 376.332 116.28 376.332 116.28C370.412 120.054 363.333 121.575 356.385 120.566C349.437 119.556 343.084 116.083 338.483 110.779Z" fill="#352C4F"/>
<path d="M346.445 42.3113C340.319 48.0124 334.636 54.1718 329.444 60.7359C329.652 62.8235 330.675 64.7449 332.291 66.0826C333.454 67.2266 334.744 68.2333 336.137 69.0828L358.754 46.0039C358.754 46.0039 351.215 38.9648 346.445 42.3113Z" fill="#999500"/>
<path d="M373.37 52.4273C373.37 52.4273 365.447 58.1586 362.639 60.1203C359.891 62.3423 357.32 64.7728 354.946 67.3902C355.596 62.3108 356.888 57.3346 358.792 52.5812C359.29 49.6016 359.29 46.56 358.792 43.5804C358.792 43.5804 357.754 43.2727 356.215 42.9265C353.754 45.3883 348.869 51.9658 346.253 54.6968C343.638 57.4278 334.022 65.39 336.214 74.3139C336.954 77.1366 337.866 79.9112 338.945 82.6223C340 87.357 340.196 92.2428 339.522 97.0466C338.28 102.309 336.595 107.456 334.483 112.433C334.483 112.433 343.868 124.434 354.523 124.472C362.485 124.232 370.131 121.303 376.217 116.164C375.199 107.317 374.775 98.4113 374.947 89.5075C374.947 89.5075 390.333 81.8145 387.333 66.8517C386.602 62.4667 373.37 52.4273 373.37 52.4273Z" fill="#AFAF00"/>
<path d="M347.561 62.8897C349.523 64.7745 354.061 68.4671 354.061 68.4671L359.331 51.1195L354.715 50.4656C354.715 50.4656 346.945 59.351 347.561 62.8897Z" fill="#999500"/>
<path d="M291.673 305.373C313.744 305.373 331.637 296.142 331.637 284.755C331.637 273.369 313.744 264.138 291.673 264.138C269.601 264.138 251.708 273.369 251.708 284.755C251.708 296.142 269.601 305.373 291.673 305.373Z" fill="#564866"/>
<path d="M331.637 279.909H251.67V285.833H331.637V279.909Z" fill="#564866"/>
<path d="M291.673 301.142C313.744 301.142 331.637 291.911 331.637 280.525C331.637 269.138 313.744 259.907 291.673 259.907C269.601 259.907 251.708 269.138 251.708 280.525C251.708 291.911 269.601 301.142 291.673 301.142Z" fill="white"/>
<path d="M291.673 274.909C290.438 274.909 289.255 274.419 288.382 273.546C287.509 272.673 287.019 271.489 287.019 270.255V148.244C287.029 147.016 287.524 145.842 288.395 144.978C289.267 144.113 290.445 143.628 291.673 143.628C292.279 143.628 292.879 143.748 293.439 143.98C293.999 144.211 294.508 144.551 294.936 144.98C295.365 145.409 295.705 145.918 295.937 146.478C296.169 147.038 296.288 147.638 296.288 148.244V270.255C296.288 271.482 295.803 272.66 294.939 273.532C294.074 274.404 292.9 274.899 291.673 274.909Z" fill="#564866"/>
<path d="M291.673 227.405L173.665 158.976V165.668L291.673 234.136V227.405Z" fill="#FFC249"/>
<path d="M291.634 227.405L409.642 158.976V165.668L291.634 234.136V227.405Z" fill="#E2A730"/>
<path d="M173.665 158.975L291.134 90.9692L409.642 158.975L291.634 227.404L173.665 158.975Z" fill="#FFD892"/>
<path d="M321.405 72.6603C318.32 76.4625 315.48 80.4582 312.905 84.6229C310.097 88.9388 307.653 93.4805 305.597 98.201C304.52 101.624 302.173 108.086 303.673 110.933C305.174 113.779 311.635 117.549 313.982 110.933C315.174 107.625 314.251 100.547 314.751 99.3934C318.114 94.385 321.788 89.5931 325.752 85.046L336.214 73.3142C336.445 71.8359 336.445 70.3306 336.214 68.8523C333.804 67.0702 331.655 64.9598 329.829 62.5825C329.829 62.5825 324.136 69.6601 321.405 72.6603Z" fill="#FFC0A4"/>
<path d="M367.524 96.739C365.844 100.751 362.882 104.092 359.1 106.24C353.978 108.588 348.679 110.53 343.253 112.048C339.326 113.047 335.302 113.615 331.252 113.741C328.676 112.795 325.925 112.419 323.189 112.638C320.454 112.857 317.798 113.666 315.405 115.01C311.828 117.087 311.559 120.626 320.713 121.164C329.867 121.703 336.676 122.049 342.022 121.857C349.375 121.55 356.674 120.454 363.793 118.587C366.945 117.855 369.889 116.415 372.401 114.375C374.914 112.336 376.929 109.751 378.294 106.817C380.832 102.663 386.294 89.9692 386.294 89.9692L372.216 85.2765C372.216 85.2765 369.255 92.0463 367.524 96.739Z" fill="#FFC0A4"/>
<path d="M358.1 44.5807C357.982 48.5535 357.361 52.4953 356.254 56.3125C354.432 60.0897 353.674 64.2918 354.061 68.4674C357.421 66.1832 360.575 63.6091 363.485 60.7744C366.485 58.1588 374.332 53.0814 374.332 53.0814L371.601 32.4642L358.1 44.5807Z" fill="#DB947B"/>
<path d="M367.255 17.5398C365.477 16.2153 363.404 15.3434 361.214 14.9993C359.025 14.6553 356.784 14.8495 354.686 15.5652C352.589 16.281 350.696 17.4966 349.174 19.1073C347.651 20.7179 346.543 22.675 345.946 24.8097C341.407 37.7339 353.1 53.8507 359.331 51.1197C365.185 48.2672 369.775 43.348 372.216 37.3108C373.193 33.8694 373.249 30.2318 372.378 26.7621C371.507 23.2923 369.741 20.1122 367.255 17.5398Z" fill="#FFC0A4"/>
<path d="M365.062 56.0046C358.369 62.9667 354.061 68.4672 354.061 68.4672C357.222 69.9208 360.66 70.669 364.139 70.6597C370.601 64.4668 376.14 60.6588 378.371 56.5046C377.359 53.6791 375.975 51.0013 374.255 48.5424C370.922 50.6791 367.838 53.1821 365.062 56.0046Z" fill="#999500"/>
<path d="M376.101 20.6942C374.018 16.5505 370.507 13.2993 366.216 11.5395C358.985 8.53926 354.907 9.96246 348.099 16.2322C345.99 18.1661 344.355 20.5602 343.321 23.2286C342.287 25.897 341.882 28.7679 342.137 31.6182C347.367 35.2175 353.01 38.1748 358.946 40.4267C363.1 41.5422 369.832 39.0035 372.409 39.0035C374.586 36.5494 376.074 33.5625 376.723 30.3466C377.372 27.1307 377.157 23.8003 376.101 20.6942Z" fill="#352C4F"/>
<path d="M371.178 77.2372C369.639 82.5838 368.216 87.0073 367.332 90.0076C367.87 97.8929 380.371 97.9698 385.217 95.9696C386.779 92.8935 388.141 89.7199 389.294 86.4688C390.987 80.8914 392.218 71.0828 386.333 64.5823C380.448 58.0817 372.563 72.3522 371.178 77.2372Z" fill="#999500"/>
<path d="M163.241 63.2743C168.549 57.7354 173.434 77.0063 175.165 89.8536C176.55 100.124 179.896 114.24 182.858 116.779C185.82 119.318 214.168 134.627 214.168 134.627C212.087 137.024 210.577 139.861 209.751 142.926C208.925 145.991 208.804 149.203 209.398 152.321C198.782 146.166 172.742 137.127 165.395 129.896C158.049 122.664 146.163 81.1221 163.241 63.2743Z" fill="#C94A3D"/>
<path d="M388.794 260.523C390.179 249.752 391.41 240.444 405.411 248.522L412.296 252.368L423.104 258.638L429.989 262.484C443.99 270.562 445.375 281.255 446.606 293.641C447.875 304.873 450.76 337.452 450.798 337.799L447.952 336.029C447.952 335.722 445.106 303.796 443.836 292.641C442.336 279.293 441.105 272.601 429.989 266.177L423.104 262.33L412.488 256.176L405.603 252.33C394.448 245.906 393.256 251.176 391.718 262.792C390.487 272.485 387.679 301.257 387.64 301.257L384.64 300.026C384.64 299.526 387.525 270.293 388.794 260.523Z" fill="white"/>
<path d="M387.448 301.334L383.217 303.796C383.217 303.796 383.832 283.794 384.602 276.332C385.371 268.87 388.871 252.022 388.871 252.022L390.525 253.33L387.448 301.334Z" fill="white"/>
<path d="M446.375 340.414L450.606 337.952C450.606 337.952 445.721 300.949 444.913 295.294C444.106 289.64 441.067 276.331 441.067 276.331L436.413 277.485C438.25 282.062 439.541 286.839 440.259 291.717C440.913 297.449 446.375 340.414 446.375 340.414Z" fill="white"/>
<path d="M384.64 262.984C386.063 252.214 387.256 242.905 401.257 250.983L408.142 254.829L418.796 260.945L425.643 264.792C439.644 272.87 441.028 283.563 442.259 295.948C443.529 307.18 446.452 339.76 446.452 340.106L443.644 338.337C443.644 338.029 440.798 306.103 439.528 294.948C438.028 281.601 436.797 274.908 425.643 268.485L418.796 264.638L408.142 258.484L401.257 254.637C390.141 248.214 388.91 253.483 387.41 265.1C386.14 274.793 383.332 303.564 383.294 303.564L380.448 302.064C380.409 301.987 383.294 272.754 384.64 262.984Z" fill="#9C8BAF"/>
<path d="M389.525 244.791L430.797 268.524C445.644 277.101 451.029 276.217 455.76 264.677C460.184 254.022 473.3 219.519 475.415 213.788L470.261 210.826C470.261 211.172 455.953 249.291 451.568 259.754C447.721 269.447 443.875 269.87 430.797 262.331L389.525 238.483V244.791Z" fill="#FFC249"/>
<path d="M356.677 289.333C360.523 290.641 362.6 291.526 362.6 291.526C362.457 280.726 361.751 269.941 360.485 259.215C359.946 256.1 374.832 255.984 374.832 255.984C375.639 266.996 375.639 278.052 374.832 289.064C374.49 291.836 374.49 294.639 374.832 297.411L370.139 299.488C368.506 300.019 366.777 300.191 365.071 299.992C363.364 299.792 361.721 299.227 360.254 298.334C355.985 296.18 351.946 293.564 353.254 291.141C353.648 290.598 354.161 290.152 354.755 289.839C355.348 289.525 356.006 289.352 356.677 289.333Z" fill="#FFC0A4"/>
<path d="M354.715 288.717L356.677 289.333C356.039 289.38 355.419 289.567 354.861 289.879C354.303 290.191 353.82 290.622 353.446 291.14C352.138 293.564 356.177 296.179 360.446 298.333C361.914 299.226 363.557 299.792 365.263 299.991C366.969 300.19 368.698 300.018 370.332 299.487L375.024 297.41C375.447 300.257 376.024 301.603 375.024 303.642C373.601 307.026 370.332 306.719 363.485 304.334C358.15 302.51 353.11 299.919 348.522 296.641C344.33 293.525 344.291 293.102 343.753 291.025C343.291 288.14 347.599 286.486 354.715 288.717Z" fill="#352C4F"/>
<path d="M329.367 304.603C333.214 305.911 335.252 306.796 335.252 306.796C335.252 306.796 333.137 269.87 331.406 260.407C330.829 257.292 346.792 263.061 346.792 263.061C347.842 276.781 348.047 290.551 347.407 304.296C347.07 307.081 347.07 309.896 347.407 312.681C346.407 313.143 344.291 314.027 342.753 314.758C341.118 315.291 339.386 315.461 337.678 315.255C335.971 315.049 334.329 314.472 332.868 313.566C328.598 311.45 324.559 308.835 325.829 306.411C326.232 305.85 326.764 305.394 327.379 305.079C327.995 304.765 328.676 304.602 329.367 304.603Z" fill="#FFC0A4"/>
<path d="M327.406 303.872L329.367 304.488C328.722 304.527 328.094 304.71 327.529 305.023C326.963 305.335 326.474 305.77 326.098 306.296C324.829 308.719 328.867 311.335 333.137 313.45C334.598 314.357 336.24 314.933 337.948 315.139C339.655 315.345 341.387 315.176 343.022 314.643C344.561 313.912 346.676 313.027 347.676 312.565C348.138 315.412 348.715 316.758 347.676 318.797C346.253 322.182 342.945 321.874 336.137 319.451C330.792 317.651 325.748 315.058 321.175 311.758C316.982 308.681 316.944 308.257 316.367 306.142C315.982 303.411 320.29 301.757 327.406 303.872Z" fill="#352C4F"/>
<path d="M346.984 284.64C348.369 273.908 349.6 264.6 363.601 272.678L370.486 276.524L381.102 282.678L387.987 286.525C401.988 294.603 403.372 305.296 404.603 317.681C405.872 328.952 408.757 361.531 408.796 361.839L405.988 360.108C405.988 359.762 403.103 327.875 401.834 316.681C400.334 303.373 399.141 296.68 387.987 290.256L381.102 286.41L370.486 280.294L363.601 276.447C352.446 270.023 351.254 275.293 349.753 286.871C348.484 296.603 345.676 325.336 345.638 325.336L342.792 323.874C342.83 323.49 345.715 294.256 346.984 284.64Z" fill="white"/>
<path d="M345.638 325.259L341.407 327.721C341.407 327.721 342.022 307.758 342.791 300.257C343.561 292.756 347.061 275.986 347.061 275.986L348.715 277.293L345.638 325.259Z" fill="white"/>
<path d="M404.565 364.34L408.796 361.878C408.796 361.878 403.872 324.875 403.103 319.259C402.334 313.643 399.257 300.296 399.257 300.296L394.603 301.45C396.44 306.026 397.731 310.803 398.449 315.682C399.103 321.374 404.565 364.34 404.565 364.34Z" fill="white"/>
<path d="M342.753 286.909C344.176 276.139 345.368 266.869 359.369 274.947L366.254 278.793L376.947 285.063L383.833 288.909C397.833 296.987 399.218 307.68 400.41 320.066C401.718 331.336 404.603 363.916 404.603 364.224L401.795 362.493C401.795 362.147 398.949 330.259 397.68 319.066C396.179 305.757 394.949 299.064 383.833 292.641L376.947 288.794L366.293 282.678L359.408 278.832C348.292 272.37 347.061 277.678 345.561 289.256C344.291 298.987 341.484 327.72 341.445 327.72L338.483 326.259C338.483 325.951 341.484 296.679 342.753 286.909Z" fill="#9C8BAF"/>
<path d="M336.329 269.254L389.525 238.482L416.45 253.868C416.45 253.868 401.872 297.488 396.026 299.026C380.409 303.45 336.329 269.254 336.329 269.254Z" fill="#FFD892"/>
<path d="M390.679 130.396C392.104 129.577 393.687 129.071 395.323 128.914C396.959 128.756 398.609 128.949 400.164 129.481C401.719 130.013 403.143 130.87 404.339 131.997C405.536 133.123 406.478 134.492 407.103 136.012C409.142 140.281 406.296 151.744 405.834 159.783C405.493 163.307 406.118 166.857 407.642 170.053L402.064 172.361C398.335 173.703 394.255 173.703 390.525 172.361L390.718 162.437C388.928 162.43 387.16 162.05 385.525 161.322C383.025 158.975 380.063 155.013 381.217 146.128C383.14 132.896 389.064 131.511 390.679 130.396Z" fill="#FFC0A4"/>
<path d="M348.292 234.943C358.523 232.212 384.332 224.712 384.332 224.712C384.332 224.712 415.104 233.251 418.181 242.29C423.681 258.753 415.95 265.754 407.834 270.254C403.538 273.196 398.656 275.173 393.524 276.049C388.391 276.926 383.13 276.681 378.101 275.332C364.372 272.141 350.399 270.108 336.329 269.254V275.37C328.329 272.177 328.06 255.022 328.06 255.022C328.06 255.022 329.867 239.828 348.292 234.943Z" fill="#352C4F"/>
<path d="M375.64 201.479C372.37 194.478 379.832 181.746 381.909 177.13C383.997 173.829 387.063 171.26 390.679 169.784L407.642 170.053C411.086 176.242 413.514 182.943 414.835 189.901C416.252 198.09 416.343 206.454 415.104 214.672C414.681 217.942 413.527 225.596 418.95 239.674C419.3 240.677 419.57 241.706 419.758 242.752C416.95 250.445 404.372 253.445 397.333 253.329C387.717 253.329 376.717 248.175 373.447 239.021C374.486 235.174 375.563 231.789 376.909 228.327C378.67 224.031 379.469 219.401 379.249 214.762C379.03 210.124 377.798 205.59 375.64 201.479Z" fill="#FF7D43"/>
<path d="M390.795 166.976C394.297 168.18 398.101 168.18 401.603 166.976L407.296 164.937L409.219 168.784C409.219 168.784 408.334 171.553 402.68 173.361C400.013 174.279 397.187 174.64 394.375 174.421C391.563 174.203 388.826 173.41 386.333 172.092C386.294 168.591 390.795 166.976 390.795 166.976Z" fill="#E5802C"/>
<path d="M400.834 126.165C408.526 127.78 416.219 132.55 413.527 148.628C412.345 152.681 410.163 156.372 407.18 159.36C405.476 160.748 404.219 162.608 403.565 164.706C402.813 164.421 402.08 164.087 401.372 163.706C401.244 163.397 401.047 163.12 400.795 162.899C396.16 159.498 392.018 155.473 388.487 150.936C385.14 147.474 381.409 146.128 380.986 141.589C380.102 132.242 386.64 123.087 400.834 126.165Z" fill="#352C4F"/>
<path d="M335.753 201.018C339.214 203.249 338.33 206.018 341.099 206.441C349.094 207.658 357.007 209.367 364.793 211.557C364.793 211.557 377.178 177.669 383.486 176.939C386.756 176.631 390.141 182.593 389.833 190.017C389.371 199.556 369.216 221.904 369.216 221.904C362.523 225.751 342.714 213.596 337.868 213.019C332.584 211.944 327.808 209.143 324.29 205.056C321.867 202.287 331.137 198.094 335.753 201.018Z" fill="#FFC0A4"/>
<path d="M383.255 175.592C387.486 175.015 390.948 177.592 391.602 184.593C391.798 188.412 390.685 192.184 388.448 195.286C388.448 195.286 387.602 186.208 384.832 183.4C380.986 179.554 378.524 181.823 378.524 181.823C378.524 181.823 376.101 176.554 383.255 175.592Z" fill="#EA642F"/>
<path d="M389.833 148.09C390.286 149.526 390.186 151.079 389.553 152.446C388.919 153.812 387.798 154.892 386.41 155.475L384.871 148.09C384.871 148.09 388.487 142.32 389.833 148.09Z" fill="#FFC0A4"/>
<path d="M413.911 139.551C413.911 139.551 416.296 155.783 417.373 161.207C418.262 167.699 418.146 174.29 417.027 180.747C416.104 185.709 411.411 189.747 412.565 193.325C413.719 196.902 418.412 195.286 418.412 195.286C417.808 196.19 417.019 196.956 416.097 197.533C415.176 198.11 414.142 198.485 413.065 198.633C411.056 198.238 409.224 197.214 407.834 195.71C407.834 195.71 410.296 203.133 407.18 206.018C404.065 208.903 401.103 205.287 401.103 205.287C401.103 205.287 405.949 205.287 405.257 202.749C404.565 200.21 401.411 202.441 399.987 198.633C399.372 197.094 401.565 193.671 401.565 193.671C399.884 194.855 397.847 195.426 395.795 195.286C393.833 194.786 392.41 191.44 392.41 191.44C392.41 191.44 396.257 194.209 397.757 191.978C399.257 189.747 395.141 188.478 394.487 188.132C393.179 187.363 391.141 187.44 390.102 181.824C389.256 177.246 389.641 152.283 389.641 152.283L413.911 139.551Z" fill="#352C4F"/>
<path d="M449.721 273.101L395.872 304.142C395.872 304.142 407.411 274.293 411.257 264.908C415.104 255.522 420.45 241.406 420.45 241.406L472.3 213.596L449.721 273.101Z" fill="#FFC249"/>
<path d="M336.329 275.332L377.409 299.064C392.256 307.642 397.641 306.757 402.411 295.218C406.795 284.525 419.912 250.06 422.027 244.29L416.873 241.329C416.873 241.713 402.564 279.794 398.179 290.294C394.333 299.949 390.487 300.411 377.409 292.833L336.329 269.254V275.332Z" fill="#E2A730"/>
<path d="M470.069 210.865L475.223 213.827L422.027 244.368L416.873 241.406L470.069 210.865Z" fill="#FFD892"/>
<path d="M298.558 179.092C298.558 189.055 283.172 197.132 264.633 197.132C246.093 197.132 230.784 189.055 230.784 179.092C230.784 169.13 246.17 161.052 264.709 161.052C283.249 161.052 298.558 169.245 298.558 179.092Z" fill="#D6A3C0"/>
<path d="M264.479 195.209C247.17 195.209 233.13 188.016 233.13 179.131C233.13 170.245 247.17 163.091 264.479 163.091C281.787 163.091 295.865 170.284 295.865 179.131C295.865 187.978 281.787 195.209 264.479 195.209ZM264.479 163.822C247.593 163.822 233.707 170.707 233.707 179.208C233.707 187.708 247.439 194.594 264.479 194.594C281.518 194.594 295.25 187.747 295.25 179.208C295.25 170.669 281.364 163.822 264.479 163.822Z" fill="white"/>
<path d="M264.556 170.745C274.672 170.745 282.903 174.861 283.788 180.092C283.827 179.76 283.827 179.424 283.788 179.092C283.788 173.361 275.056 168.707 264.286 168.707C253.516 168.707 244.785 173.361 244.785 179.092C244.745 179.424 244.745 179.76 244.785 180.092C246.17 174.861 254.44 170.745 264.556 170.745Z" fill="#FFB3A9"/>
<path d="M264.556 189.439C275.22 189.439 283.865 185.255 283.865 180.092C283.865 174.93 275.22 170.745 264.556 170.745C253.892 170.745 245.247 174.93 245.247 180.092C245.247 185.255 253.892 189.439 264.556 189.439Z" fill="#FE9380"/>
<path d="M288.48 181.439C290.365 178.9 288.711 175.63 287.249 173.246C284.211 168.284 276.864 162.437 271.018 166.553C269.497 167.926 268.301 169.621 267.517 171.515C268.023 172.465 268.878 173.182 269.902 173.515C271.479 174.053 271.595 173.515 272.787 174.553C274.749 176.361 274.402 179.131 276.864 180.631C279.326 182.131 279.787 183.439 282.018 185.093C282.572 185.501 283.199 185.801 283.865 185.977L285.365 184.285C286.457 183.397 287.498 182.447 288.48 181.439Z" fill="#FFD892"/>
<path d="M276.672 180.785C274.21 179.285 274.556 176.515 272.594 174.707C271.402 173.553 271.287 174.207 269.71 173.669C268.686 173.336 267.831 172.619 267.325 171.668C266.571 172.921 266.083 174.315 265.891 175.764C265.699 177.214 265.807 178.687 266.209 180.092C266.134 180.395 266.134 180.712 266.209 181.015C266.369 181.489 266.653 181.91 267.032 182.235C267.411 182.56 267.871 182.777 268.363 182.862C268.147 184.029 268.364 185.236 268.973 186.255C269.582 187.274 270.541 188.037 271.671 188.401C274.947 189.51 278.523 189.332 281.672 187.901C282.46 187.449 283.152 186.848 283.711 186.131C283.045 185.955 282.418 185.655 281.864 185.247C279.595 183.439 279.018 182.092 276.672 180.785Z" fill="#FFC249"/>
<path d="M269.479 167.592C268.53 168.624 267.833 169.862 267.44 171.207C267.299 171.724 267.267 172.265 267.346 172.795C267.426 173.325 267.615 173.832 267.902 174.285C268.431 173.99 268.892 173.588 269.256 173.104C269.62 172.621 269.88 172.066 270.017 171.477C270.304 170.159 270.113 168.782 269.479 167.592Z" fill="#AFAF00"/>
<path d="M271.133 171.823C272.304 171.829 273.424 172.299 274.248 173.13C273.256 174.102 271.998 174.757 270.633 175.015C269.642 175.038 268.666 174.771 267.825 174.246C268.011 173.522 268.442 172.884 269.045 172.442C269.648 172 270.386 171.781 271.133 171.823Z" fill="#AFAF00"/>
<path d="M280.018 181.323C279.049 182.424 278.363 183.744 278.018 185.17C277.861 185.676 277.818 186.211 277.891 186.736C277.964 187.261 278.152 187.764 278.441 188.208C278.969 187.916 279.431 187.52 279.802 187.044C280.172 186.568 280.442 186.022 280.595 185.439C280.906 184.042 280.701 182.58 280.018 181.323Z" fill="#AFAF00"/>
<path d="M281.672 185.555C282.846 185.584 283.962 186.066 284.788 186.901C283.783 187.856 282.53 188.509 281.172 188.786C280.189 188.797 279.225 188.515 278.403 187.978C278.581 187.257 279.004 186.62 279.601 186.178C280.198 185.735 280.93 185.515 281.672 185.555Z" fill="#AFAF00"/>
<path d="M240.593 176.477C240.433 177.998 240.433 179.532 240.593 181.054C241.593 184.9 244.747 188.401 253.247 191.093C261.748 193.786 265.94 188.555 266.479 186.324C266.977 183.37 267.311 180.391 267.479 177.4L240.593 176.477Z" fill="#EA642F"/>
<path d="M263.248 164.207C256.17 162.784 249.093 168.053 243.516 172.4C237.938 176.746 240.669 181.054 249.593 186.44C258.517 191.825 266.94 188.555 267.402 179.054C267.94 167.515 268.902 165.399 263.248 164.207Z" fill="#FF7D43"/>
<path d="M264.056 168.592C264.056 169.746 262.286 170.707 260.209 170.707C258.132 170.707 256.363 169.746 256.363 168.592C256.363 167.438 258.132 166.515 260.209 166.515C262.286 166.515 264.056 167.438 264.056 168.592Z" fill="white"/>
<path d="M262.363 168.592C262.363 169.246 261.363 169.784 260.132 169.784C258.901 169.784 257.901 169.246 257.901 168.592C257.901 167.938 258.901 167.399 260.132 167.399C261.363 167.399 262.363 167.938 262.363 168.592Z" fill="#EA642F"/>
<path d="M253.055 169.246C254.944 170.808 256.706 172.519 258.324 174.361C260.237 176.914 261.984 179.586 263.555 182.362C263.555 182.362 259.709 178.516 257.17 174.669C254.632 170.823 253.055 169.246 253.055 169.246Z" fill="#EA642F"/>
<path d="M249.17 171.938C251.067 173.464 252.841 175.136 254.478 176.938C256.389 179.47 258.124 182.131 259.671 184.901C259.671 184.901 256.055 181.054 253.286 177.208C250.516 173.361 249.17 171.938 249.17 171.938Z" fill="#EA642F"/>
<path d="M244.862 174.208C246.594 175.633 248.214 177.189 249.709 178.862C251.431 181.2 253.011 183.641 254.44 186.17C252.573 184.27 250.814 182.266 249.17 180.17C246.17 176.516 244.862 174.208 244.862 174.208Z" fill="#EA642F"/>
<path d="M261.555 173.861C259.196 174.538 256.894 175.4 254.67 176.438C251.895 178.025 249.223 179.785 246.67 181.708C246.67 181.708 251.67 179.439 255.593 177.285C260.171 174.823 261.555 173.861 261.555 173.861Z" fill="#EA642F"/>
<path d="M264.709 177.669C262.547 178.28 260.437 179.064 258.401 180.016C255.882 181.397 253.453 182.938 251.132 184.631C253.601 183.634 256.015 182.504 258.363 181.246C262.44 179.169 264.709 177.669 264.709 177.669Z" fill="#EA642F"/>
<path d="M257.247 170.784C255.098 171.412 253.001 172.21 250.978 173.169C248.454 174.599 246.025 176.193 243.708 177.938C246.167 176.945 248.568 175.814 250.901 174.553C254.978 172.322 257.247 170.784 257.247 170.784Z" fill="#EA642F"/>
<path d="M291.134 181.9C289.557 183.824 285.365 183.016 281.749 180.093C278.133 177.169 276.441 173.284 277.903 171.361C279.364 169.438 283.634 170.207 287.249 173.13C290.865 176.054 292.673 179.939 291.134 181.9Z" fill="#FF0029"/>
<path d="M279.073 169.995L278.013 171.314L291.115 181.845L292.175 180.526L279.073 169.995Z" fill="#FF0029"/>
<path d="M292.327 180.554C290.788 182.477 286.595 181.67 282.98 178.785C279.364 175.9 277.672 171.938 279.133 170.015C280.595 168.092 284.903 168.899 288.519 171.784C292.134 174.669 293.75 178.631 292.327 180.554Z" fill="#FF4065"/>
<path d="M282.211 169.899C281.721 169.871 281.236 169.997 280.822 170.26C280.408 170.522 280.087 170.907 279.903 171.361C279.672 172.207 283.749 174.015 284.865 174.015C285.98 174.015 283.711 169.899 282.211 169.899Z" fill="#FF0029"/>
<path d="M284.941 174.438C283.489 173.989 281.994 173.692 280.48 173.553C279.826 173.553 280.864 175.515 282.172 176.784C283.48 178.054 285.518 179.861 285.711 178.284C285.903 176.707 286.403 174.861 284.941 174.438Z" fill="#FF0029"/>
<path d="M284.634 171.169C284.865 171.861 285.634 173.092 285.788 173.631C285.942 174.169 286.672 174.592 287.596 173.938C288.519 173.284 288.749 172.669 287.211 171.438C285.672 170.207 284.634 170.284 284.634 171.169Z" fill="#FF0029"/>
<path d="M286.865 174.631C287.519 174.631 288.903 174.131 289.365 174.131C289.789 174.249 290.179 174.468 290.501 174.769C290.822 175.071 291.066 175.445 291.211 175.862C291.673 176.977 291.711 177.823 290.25 177.054C288.788 176.285 287.865 175.823 287.326 175.477C286.788 175.131 286.172 174.746 286.865 174.631Z" fill="#FF0029"/>
<path d="M286.326 176.054C286.326 175.515 286.749 175.669 287.711 176.054C288.672 176.439 291.326 178.285 291.557 179.016C291.788 179.747 291.173 180.631 289.557 180.362C287.942 180.093 286.595 179.67 286.634 178.4C286.593 177.611 286.49 176.827 286.326 176.054Z" fill="#FF0029"/>
<path d="M283.826 172.707C283.826 172.707 283.057 171.592 282.595 171.746C282.134 171.9 282.403 172.746 283.826 172.707Z" fill="#FF4065"/>
<path d="M284.634 175.054C284.634 175.054 283.364 174.515 282.98 174.708C282.595 174.9 282.98 175.785 283.595 175.708C284.01 175.624 284.379 175.391 284.634 175.054Z" fill="#FF4065"/>
<path d="M284.941 175.438C284.403 175.861 284.172 176.977 284.941 176.861C285.711 176.746 284.941 175.438 284.941 175.438Z" fill="#FF4065"/>
<path d="M286.634 173.322C286.634 173.322 285.788 171.976 286.634 172.091C287.48 172.207 286.634 173.322 286.634 173.322Z" fill="#FF4065"/>
<path d="M287.788 175.092C287.981 174.981 288.2 174.922 288.423 174.922C288.645 174.922 288.864 174.981 289.057 175.092C289.673 175.4 288.826 175.939 287.788 175.092Z" fill="#FF4065"/>
<path d="M287.249 176.592C287.35 177.028 287.547 177.435 287.826 177.784C288.326 178.323 288.903 177.784 288.48 177.323C288.119 177.004 287.702 176.756 287.249 176.592Z" fill="#FF4065"/>
<path d="M279.672 189.671C279.672 191.248 277.056 192.363 274.056 192.171C271.056 191.978 268.71 190.478 268.825 188.901C268.941 187.324 271.479 186.17 274.479 186.401C277.48 186.632 279.787 188.093 279.672 189.671Z" fill="#AFAF00"/>
<path d="M269.005 187.123L268.874 188.926L279.731 189.718L279.862 187.915L269.005 187.123Z" fill="#AFAF00"/>
<path d="M279.826 187.862C279.826 189.439 277.172 190.555 274.172 190.324C271.171 190.093 268.864 188.67 268.979 187.055C269.094 185.439 271.595 184.362 274.595 184.554C277.595 184.747 279.941 186.247 279.826 187.862Z" fill="#CEC919"/>
<path d="M274.364 186.9C274.364 186.9 272.21 185.285 273.748 184.977C275.287 184.67 274.364 186.9 274.364 186.9Z" fill="#EDE43E"/>
<path d="M273.287 187.554C272.916 187.511 272.541 187.559 272.192 187.693C271.844 187.827 271.533 188.043 271.287 188.324C270.902 188.978 273.402 189.516 273.287 187.554Z" fill="#EDE43E"/>
<path d="M276.403 187.593C276.778 187.617 277.143 187.726 277.47 187.913C277.797 188.1 278.076 188.359 278.287 188.67C278.556 189.363 275.979 189.517 276.403 187.593Z" fill="#EDE43E"/>
<path d="M274.402 187.439C274.208 187.974 274.208 188.559 274.402 189.093C274.437 189.235 274.519 189.361 274.634 189.451C274.749 189.541 274.891 189.59 275.037 189.59C275.183 189.59 275.325 189.541 275.44 189.451C275.555 189.361 275.636 189.235 275.672 189.093C275.633 188.055 274.402 187.439 274.402 187.439Z" fill="#EDE43E"/>
<path d="M272.787 186.786C272.787 186.786 269.517 187.555 270.479 186.093C271.441 184.632 272.787 186.786 272.787 186.786Z" fill="#EDE43E"/>
<path d="M275.479 186.67C275.479 186.67 276.364 185.285 277.249 185.786C278.133 186.286 277.441 186.67 275.479 186.67Z" fill="#EDE43E"/>
<path d="M277.864 179.016C278.71 180.362 277.326 182.862 274.787 184.324C272.248 185.785 269.479 186.093 268.633 184.747C267.786 183.401 269.171 180.9 271.748 179.439C274.325 177.977 276.941 177.669 277.864 179.016Z" fill="#EA642F"/>
<path d="M276.904 177.469L267.651 183.203L268.604 184.74L277.856 179.005L276.904 177.469Z" fill="#EA642F"/>
<path d="M276.941 177.477C277.787 178.823 276.403 181.323 273.864 182.785C271.325 184.247 268.556 184.554 267.71 183.208C266.864 181.862 268.248 179.361 270.825 177.861C273.402 176.361 276.056 176.092 276.941 177.477Z" fill="#FF7D43"/>
<path d="M269.441 179.823C269.441 179.823 270.094 180.169 270.017 180.746C269.941 181.323 268.71 182.516 268.71 182.516C269.544 182.121 270.405 181.787 271.287 181.515C272.058 181.591 272.804 181.827 273.479 182.208C273.479 182.208 272.364 180.785 273.095 180.4C274.028 179.949 275.009 179.601 276.018 179.361C276.018 179.361 273.479 179.361 273.825 178.515C273.991 178.131 274.12 177.732 274.21 177.323L272.095 179.131C271.282 179.58 270.369 179.818 269.441 179.823Z" fill="#FFB3A9"/>
<path d="M250.247 130.204C240.323 140.743 247.131 152.821 265.632 157.129C284.134 161.437 306.866 156.36 316.79 145.82C326.713 135.281 319.867 123.203 301.404 118.895C282.941 114.587 260.171 119.626 250.247 130.204Z" fill="#D6A3C0"/>
<path d="M280.364 154.898C292.98 154.898 305.635 151.052 311.982 144.59C313.516 143.237 314.648 141.487 315.252 139.533C315.856 137.578 315.909 135.495 315.405 133.512C313.828 128.05 307.712 123.665 298.25 121.472C282.364 117.626 262.517 121.742 254.016 130.396C252.455 131.732 251.293 133.474 250.662 135.429C250.03 137.385 249.953 139.477 250.439 141.474C252.016 146.936 258.132 151.321 267.633 153.514C271.81 154.456 276.082 154.92 280.364 154.898ZM285.711 121.242C289.891 121.233 294.059 121.698 298.135 122.626C306.904 124.665 313.02 128.896 314.443 133.858C314.863 135.65 314.776 137.524 314.192 139.27C313.608 141.016 312.55 142.565 311.136 143.744C302.904 152.129 283.557 156.014 268.017 152.36C259.248 150.283 253.17 146.09 251.709 141.128C251.29 139.33 251.378 137.451 251.962 135.699C252.545 133.947 253.603 132.392 255.017 131.204C261.171 124.973 273.441 121.242 285.711 121.242Z" fill="white"/>
<path d="M271.556 128.704L257.709 116.126C257.709 116.126 254.747 115.895 254.401 118.087C258.23 122.37 262.328 126.404 266.671 130.165L271.556 128.704Z" fill="#FFC0B8"/>
<path d="M280.095 123.665L266.325 111.048C266.325 111.048 263.325 110.856 262.979 113.01C266.807 117.293 270.906 121.327 275.249 125.088L280.095 123.665Z" fill="#FFC0B8"/>
<path d="M289.326 120.51L275.518 107.932C275.518 107.932 272.556 107.701 272.21 109.894C276.088 114.182 280.238 118.216 284.634 121.972L289.326 120.51Z" fill="#FFC0B8"/>
<path d="M298.519 119.241L284.634 106.586C284.634 106.586 281.672 106.394 281.287 108.548C285.116 112.831 289.215 116.865 293.557 120.626L298.519 119.241Z" fill="#FFC0B8"/>
<path d="M272.325 150.013C272.325 150.013 285.788 150.629 292.096 144.397C298.404 138.166 302.058 135.089 305.828 131.742C309.597 128.396 310.52 123.242 305.828 117.241C301.135 111.241 297.75 113.779 297.75 113.779C294.7 115.024 291.488 115.827 288.211 116.164C281.004 116.88 273.92 118.522 267.133 121.049C252.478 130.204 256.094 139.166 258.324 142.359C259.921 144.617 262.012 146.48 264.439 147.807C266.865 149.133 269.563 149.888 272.325 150.013Z" fill="#EA5642"/>
<path d="M275.018 150.013C278.864 149.667 283.941 146.628 278.403 135.704C272.864 124.78 267.94 120.587 262.363 124.895C258.517 127.857 253.247 133.357 257.363 141.743C260.132 147.397 268.787 150.628 275.018 150.013Z" fill="#FF7F66"/>
<path d="M271.556 119.241C275.093 120.914 278.238 123.312 280.788 126.28C283.579 130.341 285.853 134.735 287.557 139.358C287.468 134.075 285.91 128.92 283.057 124.472C278.672 118.78 276.941 118.087 276.941 118.087L271.556 119.241Z" fill="#D64334"/>
<path d="M283.518 116.702C286.123 118.657 288.52 120.874 290.673 123.318C292.948 126.616 294.278 130.474 294.519 134.473C294.873 130.718 294.494 126.929 293.404 123.318C292.205 120.548 290.39 118.087 288.096 116.125L283.518 116.702Z" fill="#D64334"/>
<path d="M293.98 115.01C296.079 116.645 297.842 118.669 299.173 120.972C300.366 123.011 302.096 128.665 302.173 128.434C302.057 124.943 301.15 121.523 299.519 118.434C298.562 116.863 297.243 115.544 295.673 114.587L293.98 115.01Z" fill="#D64334"/>
<path d="M266.71 128.434C269.684 129.603 272.141 131.8 273.633 134.627C276.056 139.166 278.095 144.435 275.172 146.628C273.481 147.534 271.551 147.891 269.649 147.65C267.746 147.409 265.966 146.581 264.556 145.282C262.679 143.911 261.151 142.119 260.094 140.05C260.094 140.05 266.017 145.512 270.479 145.282C274.941 145.051 275.402 144.551 272.787 139.512C270.171 134.473 266.71 128.434 266.71 128.434Z" fill="#EA5642"/>
<path d="M268.364 135.358C268.364 135.358 266.556 130.78 263.555 130.165C260.555 129.55 259.709 134.358 260.094 136.627C260.678 138.349 261.786 139.845 263.261 140.906C264.737 141.968 266.507 142.543 268.325 142.551C271.056 142.32 270.518 139.358 270.518 139.358C270.518 139.358 269.479 142.551 265.017 139.358C261.171 136.627 261.44 134.55 262.517 133.435C264.286 131.588 268.364 135.358 268.364 135.358Z" fill="#EA5642"/>
<path d="M283.249 140.397C283.254 141.627 282.964 142.841 282.403 143.936C282.192 144.348 281.893 144.71 281.527 144.996C281.162 145.282 280.739 145.484 280.287 145.59C280.129 145.089 280.074 144.561 280.127 144.038C280.18 143.516 280.339 143.01 280.595 142.551C281.211 141.554 282.147 140.795 283.249 140.397Z" fill="#AFAF00"/>
<path d="M279.71 142.32C278.948 141.643 277.961 141.273 276.941 141.282C277.002 142.496 277.401 143.668 278.095 144.667C278.728 145.249 279.516 145.637 280.364 145.782C280.674 145.219 280.778 144.565 280.659 143.934C280.539 143.302 280.204 142.732 279.71 142.32Z" fill="#AFAF00"/>
<path d="M294.25 136.743C294.228 137.962 293.925 139.16 293.365 140.243C293.164 140.66 292.874 141.028 292.515 141.321C292.156 141.613 291.737 141.823 291.288 141.936C291.123 141.437 291.062 140.911 291.109 140.388C291.155 139.866 291.308 139.358 291.557 138.897C292.186 137.895 293.135 137.136 294.25 136.743Z" fill="#AFAF00"/>
<path d="M290.673 138.473C290.302 138.126 289.867 137.855 289.392 137.677C288.917 137.499 288.411 137.417 287.903 137.435C287.969 138.654 288.383 139.829 289.096 140.82C289.712 141.405 290.489 141.794 291.327 141.935C291.636 141.372 291.74 140.718 291.621 140.087C291.502 139.455 291.166 138.885 290.673 138.473Z" fill="#AFAF00"/>
<path d="M301.558 128.05C301.986 129.204 302.131 130.444 301.981 131.666C301.923 132.125 301.769 132.568 301.531 132.965C301.293 133.362 300.974 133.706 300.596 133.973C300.272 133.559 300.037 133.082 299.905 132.572C299.772 132.063 299.746 131.532 299.827 131.012C300.03 129.849 300.645 128.798 301.558 128.05Z" fill="#AFAF00"/>
<path d="M298.827 130.78C298.358 130.585 297.854 130.484 297.346 130.484C296.838 130.484 296.334 130.585 295.865 130.78C296.35 131.886 297.137 132.832 298.135 133.511C298.926 133.837 299.793 133.93 300.635 133.781C300.725 133.149 300.595 132.505 300.265 131.958C299.936 131.412 299.428 130.996 298.827 130.78Z" fill="#AFAF00"/>
<path d="M306.674 128.742C309.52 128.434 312.789 130.935 312.059 134.05C311.597 136.012 306.789 137.205 303.25 136.358C299.712 135.512 300.866 129.319 306.674 128.742Z" fill="#FFD892"/>
<path d="M305.597 133.743C307.866 135.089 309.943 138.474 309.02 140.705C308.305 141.426 307.454 141.998 306.517 142.389C305.579 142.779 304.574 142.98 303.558 142.98C302.543 142.98 301.537 142.779 300.6 142.389C299.662 141.998 298.811 141.426 298.096 140.705C295.519 136.974 298.558 129.665 305.597 133.743Z" fill="#FFC249"/>
<path d="M301.943 144.282C303.25 142.82 300.981 139.743 298.942 138.281C296.904 136.82 287.403 141.205 292.75 145.128C298.096 149.052 300.019 146.167 301.943 144.282Z" fill="#FFD892"/>
<path d="M292.327 141.089C294.596 142.397 296.673 145.82 295.75 148.051C295.034 148.778 294.181 149.355 293.24 149.749C292.299 150.143 291.289 150.346 290.269 150.346C289.249 150.346 288.239 150.143 287.298 149.749C286.357 149.355 285.503 148.778 284.788 148.051C282.249 144.32 285.326 137.012 292.327 141.089Z" fill="#FFC249"/>
<path d="M280.787 144.743C281.505 144.651 282.233 144.723 282.919 144.954C283.604 145.186 284.228 145.569 284.743 146.077C285.258 146.585 285.651 147.203 285.892 147.885C286.133 148.567 286.216 149.294 286.134 150.013C285.672 151.936 280.864 153.129 277.364 152.282C273.864 151.436 274.941 145.32 280.787 144.743Z" fill="#FFD892"/>
<path d="M342.791 183.824C360.147 183.824 374.216 176.333 374.216 167.092C374.216 157.851 360.147 150.36 342.791 150.36C325.436 150.36 311.366 157.851 311.366 167.092C311.366 176.333 325.436 183.824 342.791 183.824Z" fill="#D6A3C0"/>
<path d="M342.676 181.978C326.636 181.978 313.597 175.323 313.597 167.13C313.597 158.937 326.636 152.244 342.676 152.244C358.715 152.244 371.716 158.899 371.716 167.13C371.716 175.362 358.677 181.978 342.676 181.978ZM342.676 152.937C327.021 152.937 314.29 159.283 314.29 167.13C314.29 174.977 327.021 181.285 342.676 181.285C358.331 181.285 371.024 174.939 371.024 167.13C371.024 159.322 358.292 152.937 342.676 152.937Z" fill="white"/>
<path d="M342.715 159.321C352.1 159.321 359.716 163.168 360.6 168.014C360.637 167.708 360.637 167.398 360.6 167.091C360.6 161.783 352.523 157.475 342.522 157.475C332.522 157.475 324.483 161.783 324.483 167.091C324.464 167.399 324.464 167.707 324.483 168.014C325.752 163.168 333.368 159.321 342.715 159.321Z" fill="#CE8D1B"/>
<path d="M342.714 176.669C352.592 176.669 360.6 172.794 360.6 168.014C360.6 163.235 352.592 159.36 342.714 159.36C332.836 159.36 324.829 163.235 324.829 168.014C324.829 172.794 332.836 176.669 342.714 176.669Z" fill="#E2A730"/>
<path d="M346.868 161.553C346.868 161.553 344.407 158.822 337.906 159.976C333.495 160.723 329.445 162.883 326.367 166.13C326.011 169.108 326.561 172.124 327.944 174.785C329.483 176.631 335.945 176.669 335.945 176.669L346.868 161.553Z" fill="#CEC919"/>
<path d="M323.406 167.784C323.024 169.33 323.132 170.956 323.713 172.438C323.946 173.34 324.268 174.216 324.675 175.054C324.675 175.054 326.56 175.054 326.752 173.323L326.983 171.707C328.303 172.116 329.678 172.323 331.06 172.323C332.127 172.059 333.116 171.545 333.945 170.823L331.06 166.322L323.406 167.784Z" fill="#AFAF00"/>
<path d="M343.599 165.399C343.599 165.399 341.522 167.976 339.753 168.168C338.718 168.287 337.672 168.287 336.637 168.168C336.637 168.168 338.56 173.861 340.484 173.476C342.407 173.092 344.33 172.592 344.33 172.592C345.234 174.431 346.55 176.037 348.176 177.284C349.338 177.966 350.68 178.275 352.023 178.169C352.074 176.106 352.463 174.066 353.177 172.13C354.1 169.822 347.369 161.321 343.599 165.399Z" fill="#AFAF00"/>
<path d="M334.406 150.821C335.35 149.458 336.173 148.017 336.868 146.513C337.262 145.429 337.546 144.307 337.714 143.166C338.579 143.889 339.209 144.853 339.522 145.936C339.839 146.963 339.839 148.062 339.522 149.09C340.759 148.317 342.044 147.623 343.368 147.013C344.184 146.74 345.02 146.534 345.869 146.397C345.869 146.397 346.638 156.552 339.868 159.591C333.099 162.63 329.906 156.821 334.406 150.821Z" fill="#AFAF00"/>
<path d="M355.254 152.898C356.763 152.219 358.217 151.422 359.6 150.513C360.497 149.772 361.321 148.948 362.062 148.051C362.386 149.143 362.386 150.306 362.062 151.398C361.792 152.43 361.215 153.355 360.408 154.052C361.912 154.074 363.415 154.177 364.908 154.36C365.745 154.562 366.567 154.819 367.37 155.129C367.37 155.129 362.716 164.207 355.369 163.283C348.023 162.36 348.292 155.629 355.254 152.898Z" fill="#AFAF00"/>
<path d="M357.985 158.898C357.523 160.745 354.331 161.514 350.907 160.591C347.484 159.668 345.022 157.475 345.522 155.629C346.022 153.782 349.369 153.052 352.638 153.936C355.908 154.821 358.485 157.09 357.985 158.898Z" fill="#AFAF00"/>
<path d="M346.067 153.545L345.52 155.628L357.982 158.904L358.529 156.821L346.067 153.545Z" fill="#AFAF00"/>
<path d="M358.562 156.822C358.062 158.668 354.715 159.399 351.446 158.476C348.176 157.552 345.599 155.36 346.061 153.552C346.522 151.744 349.907 150.937 353.177 151.86C356.446 152.783 359.023 154.975 358.562 156.822Z" fill="#CEC919"/>
<path d="M352.407 154.514C352.407 154.514 350.215 152.206 352.1 152.129C353.984 152.052 352.407 154.514 352.407 154.514Z" fill="#EDE43E"/>
<path d="M350.984 155.052C350.56 154.936 350.114 154.917 349.681 154.997C349.249 155.077 348.839 155.253 348.484 155.513C347.907 156.206 350.715 157.36 350.984 155.052Z" fill="#EDE43E"/>
<path d="M354.638 155.783C355.331 156.014 356.369 156.552 356.562 157.398C356.754 158.245 353.869 157.937 354.638 155.783Z" fill="#EDE43E"/>
<path d="M352.33 155.168C351.938 155.713 351.76 156.384 351.83 157.052C351.869 157.222 351.964 157.374 352.101 157.483C352.237 157.592 352.406 157.651 352.58 157.651C352.755 157.651 352.924 157.592 353.06 157.483C353.197 157.374 353.292 157.222 353.331 157.052C353.6 156.129 352.33 155.168 352.33 155.168Z" fill="#EDE43E"/>
<path d="M350.561 154.052C350.561 154.052 346.715 154.052 348.022 152.744C349.33 151.436 350.561 154.052 350.561 154.052Z" fill="#EDE43E"/>
<path d="M353.869 154.514C353.869 154.514 355.177 153.052 356.1 153.821C357.023 154.591 356.023 154.937 353.869 154.514Z" fill="#EDE43E"/>
<path d="M350.6 166.63C350.6 168.514 347.715 170.053 344.138 170.053C340.561 170.053 337.676 168.514 337.676 166.63C337.676 164.745 340.561 163.168 344.138 163.168C347.715 163.168 350.6 164.706 350.6 166.63Z" fill="#EA642F"/>
<path d="M350.561 164.438H337.676V166.592H350.561V164.438Z" fill="#EA642F"/>
<path d="M350.6 164.437C350.6 166.36 347.715 167.899 344.138 167.899C340.561 167.899 337.676 166.36 337.676 164.437C337.676 162.514 340.561 161.014 344.138 161.014C347.715 161.014 350.6 162.552 350.6 164.437Z" fill="#FF7D43"/>
<path d="M341.561 162.129C341.561 162.129 342.022 162.937 341.561 163.476C340.837 163.95 340.026 164.277 339.176 164.437C340.267 164.54 341.347 164.733 342.407 165.014C343.138 165.322 344.138 167.091 344.138 167.091C344.138 167.091 343.791 165.091 345.022 165.091C346.24 165.212 347.44 165.47 348.599 165.86C348.599 165.86 346.099 164.245 346.907 163.668C347.321 163.37 347.707 163.035 348.061 162.668L344.792 163.168C343.641 163.118 342.525 162.759 341.561 162.129Z" fill="#FFB3A9"/>
<path d="M336.752 160.976C337.637 163.784 334.137 167.438 329.06 169.169C323.982 170.9 318.79 170.015 317.867 167.245C316.943 164.476 320.482 160.745 325.559 159.052C330.637 157.36 335.829 158.168 336.752 160.976Z" fill="#FF0029"/>
<path d="M336.097 159.071L317.053 165.31L317.688 167.247L336.732 161.008L336.097 159.071Z" fill="#FF0029"/>
<path d="M336.099 159.052C337.022 161.86 333.483 165.514 328.406 167.245C323.329 168.976 318.136 168.091 317.213 165.283C316.29 162.476 319.79 158.821 324.906 157.09C330.021 155.36 335.176 156.244 336.099 159.052Z" fill="#FF4065"/>
<path d="M318.982 162.091C318.638 162.56 318.453 163.126 318.453 163.707C318.453 164.288 318.638 164.854 318.982 165.322C319.713 166.13 324.059 163.399 324.867 162.091C325.675 160.783 319.982 160.591 318.982 162.091Z" fill="#FF0029"/>
<path d="M325.29 162.283C323.886 163.437 322.598 164.725 321.444 166.129C321.175 166.899 323.636 167.053 325.79 166.553C327.944 166.053 331.06 165.245 329.637 164.014C328.214 162.783 326.637 161.091 325.29 162.283Z" fill="#FF0029"/>
<path d="M321.905 160.36C322.752 160.59 324.482 160.629 325.098 160.821C325.713 161.014 326.636 160.552 326.598 159.244C326.56 157.936 326.059 157.244 323.829 157.975C321.598 158.706 320.79 160.129 321.905 160.36Z" fill="#FF0029"/>
<path d="M326.713 160.514C327.06 159.822 327.521 158.168 327.867 157.706C328.251 157.356 328.715 157.107 329.218 156.979C329.721 156.852 330.248 156.85 330.752 156.975C332.214 157.245 333.098 157.745 331.329 158.706C329.56 159.668 328.598 160.283 327.906 160.591C327.213 160.899 326.406 161.283 326.713 160.514Z" fill="#FF0029"/>
<path d="M327.79 161.975C327.213 161.706 327.79 161.321 328.791 160.667C329.791 160.014 333.406 158.475 334.137 158.898C334.868 159.321 335.56 160.321 334.137 161.783C332.714 163.245 331.521 164.283 330.291 163.437C329.513 162.86 328.675 162.37 327.79 161.975Z" fill="#FF0029"/>
<path d="M322.829 162.322C322.829 162.322 321.213 162.322 321.059 162.899C320.905 163.476 321.944 163.745 322.829 162.322Z" fill="#FF4065"/>
<path d="M325.56 163.168C325.56 163.168 324.213 164.091 324.175 164.63C324.136 165.168 325.252 165.322 325.56 164.63C325.752 164.161 325.752 163.636 325.56 163.168Z" fill="#FF4065"/>
<path d="M326.29 162.975C326.29 163.783 327.29 164.745 327.675 163.937C328.06 163.129 326.29 162.975 326.29 162.975Z" fill="#FF4065"/>
<path d="M325.252 159.899C325.252 159.899 323.367 159.899 323.944 159.206C324.521 158.514 325.252 159.899 325.252 159.899Z" fill="#FF4065"/>
<path d="M327.791 159.899C327.795 159.633 327.868 159.372 328.003 159.143C328.138 158.914 328.33 158.724 328.56 158.591C329.291 158.206 329.291 159.399 327.791 159.899Z" fill="#FF4065"/>
<path d="M328.944 161.553C329.452 161.656 329.975 161.656 330.483 161.553C331.329 161.553 331.175 160.476 330.483 160.629C329.915 160.834 329.392 161.147 328.944 161.553Z" fill="#FF4065"/>
<path d="M362.023 173.323C360.523 175.823 355.484 175.592 350.753 172.823C346.022 170.053 343.368 165.668 344.868 163.168C346.368 160.668 351.407 160.86 356.138 163.668C360.869 166.476 363.523 170.784 362.023 173.323Z" fill="#FF0029"/>
<path d="M345.874 161.401L344.836 163.156L362.015 173.324L363.053 171.57L345.874 161.401Z" fill="#FF0029"/>
<path d="M363.062 171.592C361.562 174.092 356.523 173.861 351.792 171.054C347.061 168.246 344.407 163.938 345.907 161.553C347.407 159.168 352.446 159.283 357.177 162.091C361.908 164.899 364.562 169.246 363.062 171.592Z" fill="#FF4065"/>
<path d="M349.561 160.745C348.978 160.787 348.425 161.016 347.982 161.397C347.539 161.778 347.229 162.291 347.099 162.86C347.099 163.899 351.869 165.36 353.369 165.13C354.869 164.899 351.33 160.514 349.561 160.745Z" fill="#FF0029"/>
<path d="M353.561 165.63C351.767 165.361 349.949 165.284 348.138 165.399C347.407 165.707 348.907 167.63 350.677 168.899C352.446 170.169 355.138 171.976 355.061 170.092C354.985 168.207 355.331 165.86 353.561 165.63Z" fill="#FF0029"/>
<path d="M352.754 161.822C353.138 162.591 354.254 163.899 354.523 164.476C354.792 165.053 355.715 165.476 356.677 164.476C357.639 163.476 357.831 162.745 355.831 161.552C353.831 160.36 352.215 160.822 352.754 161.822Z" fill="#FF0029"/>
<path d="M355.831 165.399C356.746 165.022 357.684 164.701 358.639 164.438C359.162 164.476 359.666 164.653 360.098 164.951C360.531 165.248 360.877 165.655 361.1 166.13C361.87 167.361 362.062 168.361 360.216 167.669C358.369 166.976 357.215 166.63 356.369 166.322C355.523 166.015 355.023 165.784 355.831 165.399Z" fill="#FF0029"/>
<path d="M355.446 167.284C355.446 166.668 355.869 166.784 357.1 167.284C358.331 167.784 361.716 169.284 361.908 170.13C362.1 170.976 361.908 172.13 359.792 172.092C357.677 172.053 356.177 171.745 355.946 170.284C355.864 169.271 355.697 168.268 355.446 167.284Z" fill="#FF0029"/>
<path d="M351.907 163.783C351.907 163.783 350.869 162.591 350.33 162.86C349.792 163.129 350.253 164.052 351.907 163.783Z" fill="#FF4065"/>
<path d="M353.061 166.399C353.061 166.399 351.484 165.976 351.061 166.399C350.638 166.822 351.061 167.669 351.984 167.476C352.471 167.273 352.858 166.886 353.061 166.399Z" fill="#FF4065"/>
<path d="M353.869 166.783C353.331 167.399 353.215 168.707 353.869 168.476C354.523 168.245 353.869 166.783 353.869 166.783Z" fill="#FF4065"/>
<path d="M355.292 164.014C355.292 164.014 354.1 162.591 354.946 162.591C355.792 162.591 355.292 164.014 355.292 164.014Z" fill="#FF4065"/>
<path d="M356.985 165.899C357.187 165.737 357.427 165.628 357.682 165.581C357.937 165.534 358.199 165.551 358.446 165.63C359.216 165.937 358.331 166.745 356.985 165.899Z" fill="#FF4065"/>
<path d="M356.638 167.783C356.821 168.265 357.111 168.699 357.485 169.053C358.139 169.591 358.754 168.86 358.139 168.399C357.685 168.094 357.175 167.885 356.638 167.783Z" fill="#FF4065"/>
<path d="M354.408 161.552C353.946 164.437 349.177 166.13 343.753 165.399C338.33 164.668 334.214 161.552 334.637 158.552C335.06 155.552 339.83 153.975 345.292 154.706C350.754 155.436 354.831 158.629 354.408 161.552Z" fill="#FF0029"/>
<path d="M334.916 156.518L334.61 158.534L354.346 161.533L354.652 159.517L334.916 156.518Z" fill="#FF0029"/>
<path d="M354.715 159.552C354.254 162.437 349.484 164.13 344.022 163.399C338.56 162.668 334.522 159.552 334.983 156.667C335.445 153.783 340.176 152.09 345.638 152.821C351.1 153.552 355.138 156.629 354.715 159.552Z" fill="#FF4065"/>
<path d="M338.099 154.552C337.576 154.81 337.15 155.23 336.887 155.751C336.623 156.271 336.536 156.863 336.637 157.437C336.906 158.437 341.984 157.976 343.291 157.168C344.599 156.36 339.676 153.86 338.099 154.552Z" fill="#FF0029"/>
<path d="M343.638 157.706C341.878 158.109 340.164 158.689 338.522 159.437C337.945 159.976 340.06 161.206 342.176 161.745C344.291 162.283 347.445 162.937 346.715 161.206C345.984 159.475 345.368 157.129 343.638 157.706Z" fill="#FF0029"/>
<path d="M341.484 154.359C342.137 154.898 343.676 155.706 344.138 156.167C344.599 156.629 345.599 156.629 346.176 155.436C346.753 154.244 346.599 153.436 344.291 153.09C341.984 152.744 340.637 153.629 341.484 154.359Z" fill="#FF0029"/>
<path d="M345.715 156.629C346.33 156.168 347.484 154.898 347.984 154.668C348.487 154.522 349.018 154.506 349.529 154.62C350.04 154.734 350.514 154.976 350.907 155.322C352.023 156.206 352.6 157.014 350.638 157.091H346.792C346.176 157.206 345.099 157.168 345.715 156.629Z" fill="#FF0029"/>
<path d="M346.176 158.398C345.753 157.898 346.368 157.783 347.638 157.706C348.907 157.629 352.715 157.706 353.177 158.552C353.638 159.398 353.792 160.437 351.984 161.129C350.176 161.821 348.484 162.168 347.792 160.86C347.317 159.999 346.777 159.176 346.176 158.398Z" fill="#FF0029"/>
<path d="M341.445 156.475C341.445 156.475 340.022 155.783 339.637 156.206C339.253 156.629 340.022 157.36 341.445 156.475Z" fill="#FF4065"/>
<path d="M343.484 158.514C343.484 158.514 341.868 158.514 341.599 159.129C341.33 159.745 342.253 160.245 342.83 159.783C343.194 159.453 343.426 159.002 343.484 158.514Z" fill="#FF4065"/>
<path d="M344.214 158.591C343.945 159.36 344.214 160.629 345.022 160.129C345.83 159.629 344.214 158.591 344.214 158.591Z" fill="#FF4065"/>
<path d="M344.676 155.436C344.676 155.436 343.022 154.552 343.83 154.244C344.638 153.936 344.676 155.436 344.676 155.436Z" fill="#FF4065"/>
<path d="M346.946 156.552C347.061 156.321 347.236 156.124 347.452 155.982C347.668 155.84 347.918 155.758 348.176 155.744C349.023 155.744 348.484 156.821 346.946 156.552Z" fill="#FF4065"/>
<path d="M347.292 158.437C347.665 158.805 348.11 159.093 348.599 159.283C349.369 159.552 349.676 158.629 348.946 158.437C348.4 158.329 347.838 158.329 347.292 158.437Z" fill="#FF4065"/>
<path d="M367.408 166.053C366.947 167.899 363.562 168.669 360.331 167.746C357.1 166.822 354.446 164.63 354.946 162.784C355.446 160.937 358.792 160.206 362.062 161.091C365.331 161.976 367.908 164.245 367.408 166.053Z" fill="#AFAF00"/>
<path d="M355.498 160.712L354.95 162.795L367.45 166.081L367.997 163.998L355.498 160.712Z" fill="#AFAF00"/>
<path d="M367.985 163.976C367.485 165.822 364.139 166.553 360.87 165.668C357.6 164.783 355.023 162.514 355.485 160.706C355.946 158.898 359.331 158.091 362.6 159.014C365.87 159.937 368.447 162.129 367.985 163.976Z" fill="#CEC919"/>
<path d="M361.831 161.552C361.831 161.552 359.639 159.244 361.523 159.167C363.408 159.09 361.831 161.552 361.831 161.552Z" fill="#EDE43E"/>
<path d="M360.408 162.207C359.983 162.09 359.538 162.071 359.105 162.151C358.672 162.231 358.263 162.408 357.908 162.668C357.331 163.361 360.139 164.553 360.408 162.207Z" fill="#EDE43E"/>
<path d="M364.062 162.937C364.754 163.206 365.793 163.706 365.985 164.591C366.177 165.476 363.139 165.091 364.062 162.937Z" fill="#EDE43E"/>
<path d="M361.754 162.322C361.361 162.867 361.183 163.538 361.254 164.207C361.293 164.377 361.388 164.528 361.524 164.637C361.661 164.746 361.83 164.805 362.004 164.805C362.178 164.805 362.348 164.746 362.484 164.637C362.62 164.528 362.715 164.377 362.754 164.207C363.023 163.322 361.754 162.322 361.754 162.322Z" fill="#EDE43E"/>
<path d="M359.985 161.206C359.985 161.206 356.138 161.399 357.446 159.899C358.754 158.398 359.985 161.206 359.985 161.206Z" fill="#EDE43E"/>
<path d="M363.177 161.552C363.177 161.552 364.485 160.091 365.408 160.86C366.331 161.629 365.408 162.091 363.177 161.552Z" fill="#EDE43E"/>
<path d="M342.33 165.399C343.138 167.092 341.176 169.707 337.945 171.246C334.714 172.784 331.444 172.592 330.637 170.861C329.829 169.13 331.791 166.553 335.022 165.014C338.253 163.476 341.407 163.745 342.33 165.399Z" fill="#AFAF00"/>
<path d="M341.251 163.517L329.594 169.007L330.511 170.956L342.168 165.465L341.251 163.517Z" fill="#AFAF00"/>
<path d="M341.291 163.514C342.099 165.206 340.137 167.822 336.906 169.361C333.675 170.899 330.406 170.707 329.598 169.014C328.79 167.322 330.752 164.668 333.983 163.129C337.214 161.591 340.483 161.783 341.291 163.514Z" fill="#CEC919"/>
<path d="M335.099 165.707C335.099 165.707 331.945 165.284 333.329 164.053C334.714 162.822 335.099 165.707 335.099 165.707Z" fill="#EDE43E"/>
<path d="M334.329 167.014C333.714 167.361 332.752 168.053 332.752 168.976C332.752 169.899 335.637 168.976 334.329 167.014Z" fill="#EDE43E"/>
<path d="M337.637 165.399C338.021 165.19 338.451 165.081 338.887 165.081C339.324 165.081 339.754 165.19 340.137 165.399C340.83 165.784 338.483 167.476 337.637 165.399Z" fill="#EDE43E"/>
<path d="M335.445 166.246C335.505 166.918 335.805 167.546 336.291 168.015C336.42 168.129 336.583 168.197 336.754 168.208C336.926 168.218 337.096 168.171 337.238 168.074C337.379 167.976 337.484 167.834 337.536 167.67C337.587 167.506 337.583 167.33 337.522 167.169C337.06 166.169 335.445 166.246 335.445 166.246Z" fill="#EDE43E"/>
<path d="M333.368 166.514C333.368 166.514 330.444 169.168 330.598 167.13C330.752 165.091 333.368 166.514 333.368 166.514Z" fill="#EDE43E"/>
<path d="M336.137 164.784C336.137 164.784 336.137 162.861 337.407 162.861C338.676 162.861 338.137 163.668 336.137 164.784Z" fill="#EDE43E"/>
<path d="M339.176 179.285C342.745 179.285 345.638 177.752 345.638 175.862C345.638 173.971 342.745 172.438 339.176 172.438C335.607 172.438 332.714 173.971 332.714 175.862C332.714 177.752 335.607 179.285 339.176 179.285Z" fill="#EA642F"/>
<path d="M345.638 173.707H332.714V175.861H345.638V173.707Z" fill="#EA642F"/>
<path d="M339.176 177.131C342.745 177.131 345.638 175.598 345.638 173.708C345.638 171.817 342.745 170.284 339.176 170.284C335.607 170.284 332.714 171.817 332.714 173.708C332.714 175.598 335.607 177.131 339.176 177.131Z" fill="#FF7D43"/>
<path d="M336.599 171.4C336.599 171.4 337.06 172.169 336.599 172.708C335.875 173.182 335.064 173.509 334.214 173.669C335.305 173.79 336.386 173.996 337.445 174.285C338.176 174.592 339.176 176.323 339.176 176.323C339.176 176.323 338.83 174.362 340.06 174.362C341.278 174.482 342.478 174.74 343.638 175.131C343.638 175.131 341.137 173.477 341.945 172.9C342.363 172.621 342.75 172.299 343.099 171.938L339.83 172.438C338.681 172.377 337.568 172.019 336.599 171.4Z" fill="#FFB3A9"/>
<path d="M335.56 151.436C336.83 152.859 335.56 155.936 332.983 158.283C330.406 160.629 327.137 161.398 325.867 159.975C324.598 158.552 325.867 155.475 328.444 153.128C331.022 150.782 334.329 150.013 335.56 151.436Z" fill="#EA642F"/>
<path d="M334.138 149.796L324.439 158.338L325.862 159.955L335.561 151.413L334.138 149.796Z" fill="#EA642F"/>
<path d="M334.137 150.013C335.406 151.436 334.137 154.475 331.56 156.86C328.983 159.245 325.713 159.976 324.444 158.552C323.175 157.129 324.444 154.052 327.021 151.706C329.598 149.359 332.868 148.398 334.137 150.013Z" fill="#FF7D43"/>
<path d="M325.829 154.052C325.829 154.052 326.714 154.321 326.714 155.052C326.477 155.875 326.085 156.645 325.56 157.322C326.458 156.709 327.396 156.157 328.367 155.668C329.269 155.604 330.175 155.735 331.021 156.052C331.021 156.052 329.483 154.783 330.406 153.975C331.383 153.262 332.442 152.668 333.56 152.206C333.56 152.206 330.637 152.629 330.868 151.629C330.919 151.143 330.919 150.653 330.868 150.167C330.868 150.167 329.406 151.975 328.752 152.706C327.902 153.386 326.898 153.848 325.829 154.052Z" fill="#FFB3A9"/>
<path d="M301.789 187.208H325.444L322.521 200.017C322.021 202.402 318.251 204.287 313.597 204.287C308.943 204.287 305.174 202.402 304.712 200.017L301.789 187.208Z" fill="white"/>
<path d="M301.712 186.554C301.712 190.055 307.02 192.901 313.597 192.901C320.175 192.901 325.483 190.055 325.483 186.554C325.483 183.054 320.175 180.246 313.597 180.246C307.02 180.246 301.712 183.054 301.712 186.554Z" fill="#D6A3C0"/>
<path d="M303.173 186.554C303.173 189.516 307.827 191.901 313.597 191.901C319.367 191.901 324.059 189.516 324.059 186.554C324.059 183.593 319.251 181.246 313.597 181.246C307.943 181.246 303.173 183.631 303.173 186.554Z" fill="#F4C6DC"/>
<path d="M313.597 203.402C317.676 203.402 320.982 201.714 320.982 199.633C320.982 197.551 317.676 195.863 313.597 195.863C309.519 195.863 306.212 197.551 306.212 199.633C306.212 201.714 309.519 203.402 313.597 203.402Z" fill="#F4C6DC"/>
<path d="M222.784 121.857H246.439L243.516 134.627C243.016 137.05 239.246 138.935 234.592 138.935C229.938 138.935 226.169 136.896 225.707 134.627L222.784 121.857Z" fill="white"/>
<path d="M222.707 121.203C222.707 124.703 228.015 127.511 234.592 127.511C241.17 127.511 246.478 124.703 246.478 121.203C246.478 117.702 241.17 114.856 234.631 114.856C228.092 114.856 222.707 117.702 222.707 121.203Z" fill="#D6A3C0"/>
<path d="M224.168 121.203C224.168 124.126 228.822 126.511 234.592 126.511C240.362 126.511 245.054 124.126 245.054 121.203C245.054 118.279 240.362 115.856 234.63 115.856C228.899 115.856 224.168 118.241 224.168 121.203Z" fill="#F4C6DC"/>
<path d="M234.592 138.05C238.671 138.05 241.977 136.363 241.977 134.281C241.977 132.199 238.671 130.511 234.592 130.511C230.513 130.511 227.207 132.199 227.207 134.281C227.207 136.363 230.513 138.05 234.592 138.05Z" fill="#F4C6DC"/>
<path d="M332.291 121.164H355.946L353.023 133.896C352.523 136.32 348.753 138.204 344.099 138.204C339.445 138.204 335.676 136.32 335.214 133.896L332.291 121.164Z" fill="white"/>
<path d="M344.099 126.819C350.663 126.819 355.985 123.994 355.985 120.51C355.985 117.026 350.663 114.202 344.099 114.202C337.535 114.202 332.214 117.026 332.214 120.51C332.214 123.994 337.535 126.819 344.099 126.819Z" fill="#D6A3C0"/>
<path d="M333.675 120.51C333.675 123.434 338.329 125.818 344.099 125.818C349.869 125.818 354.561 123.434 354.561 120.51C354.561 117.587 350.023 115.164 344.099 115.164C338.176 115.164 333.675 117.549 333.675 120.51Z" fill="#F4C6DC"/>
<path d="M336.752 133.55C336.752 135.627 340.06 137.396 344.138 137.396C348.215 137.396 351.523 135.704 351.523 133.55C351.523 131.396 348.215 129.703 344.138 129.703C340.06 129.703 336.752 131.473 336.752 133.55Z" fill="#F4C6DC"/>
<path d="M209.86 263.023C208.475 252.253 207.283 242.945 193.243 251.061L186.397 254.907L175.742 261.023L168.857 264.87C154.856 273.101 153.856 283.91 152.241 296.18C150.971 307.719 148.086 340.107 148.086 340.453L150.894 338.684C150.894 338.376 153.741 306.45 155.01 295.295C156.51 281.948 157.741 275.255 168.857 268.831L175.742 264.985L186.397 258.831L193.243 254.984C204.398 248.56 205.629 253.83 207.129 265.446C208.398 275.14 211.206 303.911 211.244 303.911L214.052 302.411C214.052 302.027 211.167 272.793 209.86 263.023Z" fill="white"/>
<path d="M211.244 303.873L215.437 306.334C215.437 306.334 214.822 286.333 214.052 278.87C213.283 271.408 209.821 254.561 209.821 254.561L208.129 255.907L211.244 303.873Z" fill="white"/>
<path d="M152.279 342.915L148.086 340.453C148.086 340.453 152.933 303.45 153.856 297.795C154.779 292.141 157.702 278.832 157.702 278.832L162.357 279.986C160.52 284.562 159.229 289.339 158.51 294.218C157.702 300.026 152.279 342.915 152.279 342.915Z" fill="white"/>
<path d="M214.091 265.408C212.706 254.638 211.475 245.329 197.474 253.407L190.589 257.253L179.973 263.369L173.088 267.216C159.087 275.293 157.702 285.987 156.472 298.372C155.202 309.604 152.318 342.184 152.279 342.53L155.087 340.761C155.087 340.453 157.972 308.527 159.241 297.372C160.741 284.025 161.934 277.332 173.088 270.908L179.973 267.062L190.589 260.907L197.474 257.061C208.629 250.637 209.821 255.907 211.321 267.523C212.591 277.217 215.399 305.988 215.437 305.988L218.283 304.488C218.245 304.488 215.399 275.255 214.091 265.408Z" fill="#9C8BAF"/>
<path d="M209.167 247.291L168.049 271.024C153.202 279.601 147.856 278.717 143.086 267.177C138.663 256.522 125.585 222.019 123.469 216.288L128.624 213.326C128.624 213.672 142.932 251.791 147.279 262.254C151.125 271.947 154.972 272.408 168.049 264.831L209.167 241.098V247.291Z" fill="#FFC249"/>
<path d="M224.784 280.794L217.552 284.948L210.667 288.794C196.667 296.872 195.282 307.565 194.051 319.951C192.782 331.221 189.897 363.801 189.858 364.109L192.705 362.378C192.705 362.032 195.551 330.144 196.82 318.951C198.32 305.642 199.551 298.949 210.667 292.526L217.552 288.679L226.015 283.794C225.591 282.948 225.168 281.948 224.784 280.794Z" fill="white"/>
<path d="M194.089 366.84L189.858 364.378C189.858 364.378 194.743 327.375 195.551 321.72C196.359 316.066 199.397 302.757 199.397 302.757L204.052 303.911C202.215 308.487 200.924 313.264 200.205 318.143C199.551 323.874 194.089 366.84 194.089 366.84Z" fill="white"/>
<path d="M225.053 285.679L221.783 287.564L214.898 291.41C200.897 299.488 199.513 310.181 198.282 322.567C197.013 333.837 194.128 366.417 194.089 366.724L196.897 364.993C196.897 364.647 199.782 332.76 201.013 321.566C202.551 308.258 203.744 301.565 214.898 295.141L221.783 291.295L226.014 288.871C225.64 287.824 225.319 286.758 225.053 285.679Z" fill="#9C8BAF"/>
<path d="M262.325 271.716L209.167 240.944L182.243 256.33C182.243 256.33 196.782 299.949 202.629 301.526C218.245 305.95 262.325 271.716 262.325 271.716Z" fill="#FFD892"/>
<path d="M282.21 291.14C279.864 289.679 268.056 296.564 268.056 296.564L251.708 302.026L252.978 314.335C254.802 316.117 257.211 317.177 259.757 317.318C262.303 317.459 264.814 316.673 266.825 315.104C271.594 311.873 280.018 306.834 282.71 301.372C285.403 295.91 284.634 292.602 282.21 291.14Z" fill="#352C4F"/>
<path d="M242.323 260.1C246.862 262.908 255.517 268.216 262.171 271.639C261.632 269.101 260.402 247.099 260.055 245.906C256.978 235.828 254.517 231.713 247.978 229.097C244.131 227.559 235.246 228.789 226.015 230.79C224.71 239.362 226.394 248.122 230.784 255.599L239.9 250.638C240.973 253.718 241.784 256.883 242.323 260.1Z" fill="#352C4F"/>
<path d="M265.402 272.6C259.055 276.447 252.555 280.293 245.978 283.909C246.01 284.16 246.074 284.406 246.17 284.64C246.478 291.179 247.093 300.872 247.093 300.872C249.246 302.54 251.789 303.631 254.481 304.042C257.174 304.452 259.926 304.169 262.479 303.218C264.72 302.538 266.625 301.043 267.821 299.029C269.017 297.015 269.416 294.626 268.941 292.333C268.941 292.333 267.402 282.986 265.402 272.6Z" fill="#352C4F"/>
<path d="M300.712 302.18C298.365 300.719 286.557 307.719 286.557 307.719L270.21 313.104L271.479 325.375C273.294 327.169 275.702 328.242 278.25 328.39C280.799 328.539 283.314 327.754 285.326 326.182C290.096 322.951 298.519 317.912 301.212 312.412C303.904 306.911 303.02 303.642 300.712 302.18Z" fill="#352C4F"/>
<path d="M191.666 165.629C186.204 170.322 175.934 195.132 174.127 198.517C172.319 201.902 167.434 209.056 174.396 214.98C180.127 219.827 187.127 209.018 189.358 205.171C192.32 200.286 200.013 185.285 200.013 185.285L204.436 163.783C202.319 163.021 200.048 162.791 197.821 163.113C195.594 163.435 193.481 164.299 191.666 165.629Z" fill="#C10025"/>
<path d="M219.245 126.934C217.735 126.07 216.058 125.538 214.327 125.374C212.595 125.209 210.848 125.416 209.203 125.98C207.557 126.545 206.051 127.453 204.785 128.646C203.519 129.838 202.521 131.287 201.859 132.896C199.705 137.435 202.744 149.59 203.205 158.129C203.556 161.852 202.892 165.601 201.282 168.976L207.206 171.399C211.094 172.817 215.357 172.817 219.245 171.399V160.898C221.813 160.603 224.325 159.942 226.707 158.937C229.361 156.475 230.784 149.167 229.553 139.704C227.707 125.857 221.13 128.242 219.245 126.934Z" fill="#FFC0A4"/>
<path d="M278.71 257.061C275.633 246.945 273.172 242.868 266.633 240.252C257.209 236.405 217.322 249.33 217.322 249.33L188.474 250.83C188.474 250.83 186.974 262.369 195.243 268.447C203.513 274.524 223.13 280.294 237.554 272.87C244.324 269.293 251.747 265.177 258.286 261.715C259.501 264.711 260.428 267.815 261.055 270.985C261.055 271.562 262.402 271.716 262.402 271.716C262.207 273.763 262.207 275.824 262.402 277.871C263.509 283.721 264.292 289.628 264.748 295.564C265.094 302.104 265.671 311.797 265.671 311.797C267.826 313.462 270.369 314.551 273.06 314.961C275.752 315.372 278.504 315.09 281.057 314.143C283.296 313.487 285.21 312.02 286.426 310.028C287.642 308.037 288.073 305.664 287.634 303.373C287.634 303.373 280.787 264.331 278.71 257.061Z" fill="#564866"/>
<path d="M235.361 202.441C238.823 194.979 230.938 181.478 228.707 176.631C226.471 173.169 223.22 170.482 219.399 168.938L197.859 165.745C197.859 165.745 188.474 182.132 187.204 191.902C186.568 204.189 186.568 216.502 187.204 228.789C187.474 240.329 180.627 247.791 185.627 252.945C193.32 260.638 210.475 266.139 220.245 263.562C226.015 261.985 229.976 255.869 233.861 251.291C237.746 246.714 240.323 233.482 234.861 228.213C234.246 228.213 228.245 217.635 235.361 202.441Z" fill="#FF0029"/>
<path d="M219.245 165.822C219.245 165.822 210.629 168.361 205.552 164.399C198.359 158.821 197.59 166.707 197.59 166.707C199.949 169.575 203.088 171.7 206.629 172.823C209.452 173.795 212.445 174.178 215.423 173.946C218.4 173.715 221.298 172.874 223.937 171.476C224.053 167.591 219.245 165.822 219.245 165.822Z" fill="white"/>
<path d="M277.633 201.941C273.787 204.287 274.941 207.249 271.979 207.672C263.5 208.995 255.111 210.845 246.862 213.211C246.862 213.211 233.746 177.285 226.938 176.631C223.476 176.323 219.86 182.631 220.207 190.517C220.784 200.633 242.323 224.327 242.323 224.327C249.401 228.52 270.402 215.519 275.518 214.903C281.117 213.748 286.184 210.789 289.942 206.48C292.327 203.249 282.518 198.825 277.633 201.941Z" fill="#FFC0A4"/>
<path d="M272.056 206.672C270.941 207.018 267.517 207.71 267.517 207.71L270.594 218.557C273.426 217.644 276.043 216.165 278.287 214.211C279.787 212.095 275.633 205.479 272.056 206.672Z" fill="white"/>
<path d="M268.21 207.018C263.171 206.095 250.478 210.864 250.478 210.864C250.478 210.864 238.939 179.323 225.592 174.861C221.938 173.63 217.899 182.554 219.091 191.709C220.053 199.402 227.284 210.941 231.515 217.596C233.977 221.442 239.631 229.981 247.901 227.904C258.825 225.173 267.517 224.596 272.979 219.788C276.556 216.711 277.787 208.749 268.21 207.018Z" fill="#C10025"/>
<path d="M221.322 144.705C221.553 145.32 225.168 144.32 225.168 143.589C225.899 141.243 227.476 135.896 227.899 133.55C228.307 131.781 228.256 129.937 227.751 128.194C227.246 126.45 226.304 124.865 225.014 123.587C221.514 119.741 209.398 118.779 205.013 121.318C200.628 123.857 191.32 128.472 194.551 143.589C197.205 155.782 199.744 157.167 203.436 160.014C206.129 161.736 209.182 162.816 212.36 163.168C214.487 161.442 215.865 158.962 216.206 156.244C216.206 154.782 216.206 150.359 216.206 150.359C216.206 150.359 212.975 143.974 215.475 141.704C217.976 139.435 220.706 143.128 221.322 144.705Z" fill="#352C4F"/>
<path d="M250.824 281.178L248.862 282.793C248.614 282.994 248.326 283.139 248.016 283.217C248.362 284.909 248.632 287.063 248.939 289.14C250.209 298.872 253.016 327.605 253.016 327.605L255.863 326.143C255.863 325.836 252.94 296.602 251.67 286.794C251.401 284.948 251.17 282.986 250.824 281.178Z" fill="white"/>
<path d="M251.978 280.216L250.093 281.793L253.016 327.759L257.247 330.221C257.247 330.221 256.632 310.257 255.863 302.757C255.247 296.756 252.901 284.64 251.978 280.216Z" fill="white"/>
<path d="M255.901 289.41C255.64 285.803 254.955 282.24 253.862 278.793L251.016 281.178C252.277 284.524 253.041 288.036 253.285 291.602C254.555 301.334 257.363 330.067 257.401 330.067L260.247 328.606C260.055 328.452 257.17 299.218 255.901 289.41Z" fill="#9C8BAF"/>
<path d="M148.933 275.601L202.782 306.642C202.782 306.642 191.243 276.793 187.397 267.408C183.55 258.022 178.204 243.906 178.204 243.906L126.239 216.096L148.933 275.601Z" fill="#FFC249"/>
<path d="M262.325 277.832L221.245 301.564C206.398 310.142 201.013 309.257 196.282 297.718C191.858 287.025 178.742 252.56 176.627 246.79L181.781 243.829C181.781 244.213 196.09 282.294 200.474 292.794C204.321 302.449 208.167 302.911 221.245 295.333L262.325 271.716V277.832Z" fill="#E2A730"/>
<path d="M128.624 213.365L123.469 216.327L176.627 246.868L181.781 243.906L128.624 213.365Z" fill="#FFD892"/>
</g>
<defs>
<clipPath id="clip0">
<rect width="595" height="440" fill="white"/>
</clipPath>
</defs>
</svg>
