<svg xmlns="http://www.w3.org/2000/svg" xmlns:xlink="http://www.w3.org/1999/xlink" width="595" height="440" fill="none" xmlns:v="https://vecta.io/nano"><style><![CDATA[.B{fill:#fff}.C{fill:#ffc249}.D{fill:#352c4f}.E{fill:#ffc0a4}.F{fill:#ffd892}.G{fill:#9c8baf}.H{fill:#afaf00}.I{fill:#ff0029}.J{fill:#ff4065}.K{fill:#ea642f}.L{fill:#e2a730}.M{fill:#ff7d43}.N{fill:#d6a3c0}.O{fill:#564866}.P{fill:#f4c6dc}.Q{fill:#ffb3a9}.R{fill:#cec919}.S{fill:#999500}.T{fill:#ede43e}]]></style><g clip-path="url(#A)"><path d="M297.481 96.162L0 268.062 297.481 440 595 268.139 297.481 96.162z" class="G"/><g opacity=".5" class="O"><path opacity=".5" d="M291.673 350.877c72.205 0 130.739-28.364 130.739-63.352s-58.534-63.351-130.739-63.351-130.74 28.363-130.74 63.351 58.534 63.352 130.74 63.352z"/></g><g class="B"><path d="M181.896 138.05c1.385-10.77 2.578-20.078 16.617-12.001l6.846 3.847 10.655 6.116 6.885 3.846c14.001 8.078 15.193 18.771 16.617 31.157 1.269 11.231 4.154 43.811 4.192 44.157l-2.846-1.769c0-.308-2.847-32.234-4.116-43.388-1.5-13.348-2.731-20.041-13.847-26.464l-6.885-3.847-10.655-6.154-6.846-3.847c-11.155-6.423-12.386-1.154-13.886 10.463-1.269 9.693-4.077 38.465-4.115 38.465l-2.808-1.5c0-.193 3.077-29.311 4.192-39.081z"/><path d="M180.512 178.862l-4.193 2.461s.616-20.001 1.385-27.464 4.231-24.309 4.231-24.309l1.692 1.307-3.115 48.005zm58.965 39.08l4.231-2.462-5.731-42.657c-.846-5.655-3.847-18.963-3.847-18.963l-4.654 1.154c1.837 4.576 3.128 9.353 3.847 14.232l6.154 48.696z"/></g><path d="M177.665 140.512c1.385-10.77 2.616-20.078 16.617-12.001l6.885 3.847 10.616 6.116 6.885 3.846c14.001 8.078 15.385 18.771 16.616 31.157 1.27 11.232 4.154 43.811 4.193 44.157l-2.808-1.769c0-.308-2.885-32.233-4.154-43.388-1.5-13.348-2.693-20.041-13.847-26.464l-6.885-3.847-10.616-6.154-6.885-3.847c-11.116-6.423-12.347-1.153-13.847 10.463-1.27 9.693-4.078 38.465-4.116 38.465l-2.846-1.5c.038-.077 2.923-29.311 4.192-39.081z" class="G"/><g class="B"><path d="M140.086 161.976c1.385-10.732 2.615-20.04 16.616-11.963l6.885 3.847 10.616 6.154 6.886 3.847c14 8.077 15.385 18.77 16.616 31.156 1.269 11.27 4.154 43.85 4.193 44.158l-2.847-1.731c0-.346-2.846-32.234-4.115-43.427-1.501-13.309-2.731-20.002-13.847-26.425l-6.886-3.847-10.616-6.039-6.885-3.846c-11.154-6.424-12.385-1.154-13.885 10.424-1.269 9.731-4.077 38.465-4.077 38.465l-2.847-1.462c.039-.269 2.924-29.503 4.193-39.311z"/><path d="M138.74 202.787l-4.231 2.461s.615-19.963 1.384-27.463 4.232-24.272 4.232-24.272l1.692 1.308-3.077 47.966zm58.927 39.08l4.231-2.462-5.731-42.657c-.847-5.654-3.847-18.963-3.847-18.963l-4.654 1.154a62.71 62.71 0 0 1 3.846 14.232l6.155 48.696z"/></g><path d="M135.855 164.438c1.423-10.771 2.615-20.041 16.616-11.963l6.885 3.846 10.617 6.155 6.885 3.846c14 8.078 15.385 18.771 16.616 31.157 1.269 11.27 4.154 43.85 4.193 44.158l-2.808-1.731c0-.346-2.885-32.234-4.116-43.427-1.538-13.309-2.731-20.002-13.885-26.426l-6.885-3.846-10.617-6.116-6.885-3.846c-11.116-6.463-12.347-1.154-13.847 10.424-1.269 9.731-4.077 38.464-4.115 38.464l-2.847-1.269 4.193-39.426z" class="G"/><path d="M195.59 180.785l53.118-30.426s-41.002-19.155-51.041-27.271-18.386-26.156-19.963-62.852c-.308-6.539.423-16.578-1.385-18.925C172.473 39.042 122.7 70.66 122.7 70.66s3.423 45.158 6.962 58.967 13.924 24.079 31.118 33.541 34.81 17.617 34.81 17.617z" class="C"/><path d="M125.162 70.467l4.539 48.889c.393 7.558 2.722 14.889 6.763 21.288s9.659 11.651 16.315 15.254l42.811 24.887v6.154l-23.079-13.04-20.04-11.808c-20.924-12.771-25.54-29.58-27.424-44.312s-4.616-50.004-4.616-50.004l4.731 2.692z" class="L"/><path d="M178.281 40.042l4.538 48.889c.39 7.559 2.717 14.891 6.759 21.29s9.662 11.652 16.32 15.251l42.81 24.733v6.309l-22.886-13.04-20.04-11.809c-21.116-12.77-25.809-29.579-27.617-44.311-1.731-14.117-4.615-49.812-4.615-49.812l4.731 2.5z" class="C"/><g class="F"><path d="M173.588 37.195l4.808 2.846L125.2 70.583l-4.769-2.846 53.157-30.541zm75.12 119.319l-53.118 30.387v-6.27l53.118-30.425v6.308z"/></g><path d="M352.215 142.704c-1.385-10.77-2.616-20.078-16.616-12.001l-6.886 3.847-10.616 6.154-6.885 3.847c-14.001 8.077-15.385 18.77-16.616 31.156-1.269 11.27-4.154 43.85-4.193 44.158l2.808-1.731c0-.346 2.885-32.234 4.154-43.427 1.5-13.309 2.731-20.002 13.847-26.425l6.885-3.847 10.616-5.962 6.886-3.846c11.154-6.424 12.347-1.154 13.847 10.424 1.269 9.731 4.077 38.465 4.115 38.465l2.847-1.462-4.193-39.35z" class="P"/><path d="M353.561 183.477l4.231 2.462s-.615-19.963-1.384-27.464-4.27-24.271-4.27-24.271l-1.654 1.308 3.077 47.965z" class="B"/><path d="M294.634 222.558l-4.231-2.462 5.77-42.658c.885-5.654 3.846-18.963 3.846-18.963l4.654 1.154c-1.83 4.579-3.121 9.355-3.846 14.232l-6.193 48.697z" class="P"/><path d="M356.446 145.128c-1.423-10.732-2.615-20.04-16.616-11.963l-6.885 3.847-10.655 6.154-6.846 3.847c-14.04 8.077-15.386 18.77-16.617 31.156-1.269 11.27-4.192 43.85-4.192 44.158l2.807-1.731c0-.346 2.847-32.234 4.116-43.427 1.5-13.309 2.731-20.002 13.886-26.425l6.846-3.847 10.655-6.154 6.885-3.847c11.116-6.423 12.347-1.154 13.847 10.424 1.269 9.732 4.077 38.465 4.115 38.465l2.847-1.461c-.039-.154-2.923-29.388-4.193-39.196z" class="G"/><g class="B"><path d="M394.026 166.63c-1.424-10.77-2.616-20.079-16.617-11.963l-6.885 3.847-10.616 6.116-6.885 3.846c-14.001 8.078-15.386 18.771-16.617 31.157-1.269 11.232-4.154 43.811-4.192 44.157l2.808-1.461c0-.308 2.885-32.195 4.115-43.389 1.539-13.308 2.731-20.001 13.886-26.463l6.885-3.847 10.616-6.116 6.885-3.846c11.116-6.424 12.347-1.116 13.847 10.462 1.269 9.693 4.077 38.465 4.116 38.465l2.846-1.5c-.038-.423-2.923-29.695-4.192-39.465z"/><path d="M395.372 207.441l4.231 2.462s-.616-20.002-1.385-27.464-4.269-24.31-4.269-24.31l-1.654 1.346 3.077 47.966zm-58.927 39.08l-4.231-2.461 5.693-42.658c.846-5.654 3.846-18.963 3.846-18.963l4.693 1.154a62.71 62.71 0 0 0-3.847 14.232l-6.154 48.696z"/></g><path d="M398.218 169.245c-1.385-10.77-2.577-20.078-16.616-11.962l-6.847 3.846-10.655 6.116-6.885 3.847c-14.001 8.077-15.385 18.771-16.616 31.156-1.269 11.232-4.154 43.812-4.154 44.158l2.808-1.769c0-.308 2.846-32.234 4.115-43.389 1.5-13.347 2.731-20.04 13.847-26.464l6.885-3.846 10.655-6.116 6.847-3.847c11.154-6.423 12.385-1.154 13.885 10.463 1.269 9.693 4.077 38.465 4.116 38.465l2.808-1.5c0-.27-2.885-29.541-4.193-39.158z" class="G"/><path d="M338.484 185.285l-53.119-30.426s40.887-19.001 51.08-27.194 18.386-26.156 19.963-62.852c.269-6.539-.462-16.578 1.384-18.963 3.847-2.231 53.619 29.387 53.619 29.387s-3.461 45.158-6.962 58.967-13.924 24.079-31.117 33.541-34.848 17.54-34.848 17.54z" class="C"/><path d="M408.95 75.122l-4.539 48.889c-.4 7.552-2.732 14.874-6.773 21.266s-9.655 11.638-16.306 15.237c-15.924 9.617-36.694 21.348-42.849 24.772v6.269l22.886-13.001 20.04-11.808c21.079-12.809 25.771-29.58 27.579-44.312s4.654-50.004 4.654-50.004l-4.692 2.693z" class="L"/><path d="M355.831 44.658l-4.539 48.927c-.399 7.552-2.731 14.874-6.772 21.266a44.16 44.16 0 0 1-16.306 15.237l-42.849 24.772v6.269l23.078-13.001 20.001-11.808c21.117-12.809 25.81-29.58 27.618-44.312s4.461-49.697 4.461-49.697l-4.692 2.346z" class="C"/><g class="F"><path d="M360.485 41.811l-4.77 2.846 53.196 30.58 4.77-2.846-53.196-30.58zm-75.12 119.319l53.119 30.425v-6.27l-53.119-30.425v6.27z"/></g><path d="M203.859 49.543s8.27.5 16.271 16.309c4.346 8.539 12.424 27.656 13.77 31.195l10.693 28.656-17.771 6.693s-7.192-18.117-8.462-23.694-4.846-15.386-4.846-15.386-.385-33.926-9.655-43.773z" fill="#c94a3d"/><path d="M249.016 234.097s3.269 3.539 7.693 7.693l9.039 8.732c2.192 2.115.385 4.077-3.847 3.846a76.71 76.71 0 0 1-16.616-3.577c-4.301-1.822-8.443-3.996-12.385-6.501a8 8 0 0 1-3.847-4.654v-6.539l19.963 1z" class="H"/><path d="M248.67 160.629c3.846 26.233 2.077 71.814 2.077 71.814s-.5 5.655-10.193 5.616a22.46 22.46 0 0 1-13.616-6.077l-.77-54.351-3.077-16.078c8.424-.539 17.001-.847 25.579-.924z" class="D"/><path d="M229.707 243.983s3.27 3.539 7.693 7.693l9.039 8.731c2.193 2.116.385 4.078-3.846 3.847a75.93 75.93 0 0 1-16.578-3.577c-4.317-1.814-8.473-3.989-12.424-6.501-1.828-1.005-3.204-2.67-3.847-4.654v-6.539l19.963 1z" class="H"/><path d="M229.361 170.515c3.846 26.233 2.077 71.814 2.077 71.814s-.5 5.654-10.193 5.616c-5.071-.433-9.845-2.576-13.539-6.078l-.769-54.35-3.231-16.002c8.5-.615 17.078-.923 25.655-1z" class="O"/><g fill="#f77f7c"><path d="M225.822 143.474c-12.962 10.655-23.078 14.424-40.118 13.078-9.033-.503-17.687-3.796-24.77-9.424 3.115-15.963 4.154-27.848 5.385-33.926 2.538-12.616-8.232-26.925-7.193-41.657 3.846-12.501 19.232-24.079 19.232-24.079l19.847-.346c1.904.196 3.75.765 5.434 1.676s3.169 2.145 4.375 3.632c11.116 14.617 7.923 48.542 9.577 62.12 3.511 9.407 6.263 19.08 8.231 28.926z"/><path d="M195.474 48.235a73.09 73.09 0 0 1 9.655 21.002c2.077 9.847 1.5 44.312 1.5 44.312s-10.078-35.003-14.655-42.658a174.92 174.92 0 0 0-10.078-14.771l13.578-7.885z"/></g><path d="M196.166 44.273l2.231 13.001s-6.615 7.424-13.077 1.885-7.424-8.116-7.424-8.116l3.193-17.694 15.077 10.924z" fill="#db947b"/><path d="M179.242 13.847a15.01 15.01 0 0 1 5.715-4.343 15 15 0 0 1 7.078-1.191c2.421.182 4.762.948 6.822 2.234a15 15 0 0 1 5.002 5.147c8.463 12.463.462 32.849-6.885 31.657-7.024-1.372-13.281-5.324-17.539-11.078-1.983-3.397-3.044-7.254-3.077-11.187s.96-7.807 2.884-11.238z" class="E"/><g class="D"><path d="M207.706 19.886a15.4 15.4 0 0 1-5.508 4.887 15.37 15.37 0 0 1-7.147 1.768 27.19 27.19 0 0 1-10.231-1l1.884 13.347s-1.923 0-3.115-7.693c-.847-2.846-3.424-2.577-4.231-.962a12.37 12.37 0 0 0 0 6.193 15.39 15.39 0 0 1-7.078-12.501c0-5.424 4.077-17.309 13.963-18.925a19.23 19.23 0 0 1 20.27 8.539 7.69 7.69 0 0 1 1.295 3.042c.206 1.096.171 2.223-.102 3.305zm151.24-5S354.792-.462 372.255 0s18.347 20.002 13.847 33.349c-8.808 26.272 6.231 20.502 6.231 20.502s-3.116 12.54-13.924 8.385-22.425-44.504-19.463-47.35z"/></g><path d="M360.639 11.808s5.346-6.924 10.154-3.577 2.308 10.309 2.308 10.309l-12.462-6.731z" class="H"/><path d="M312.982 144.166s-11.732 9.694-10.886 20.194c.462 5.655-.23 8.193.693 15.386s1.308 33.08.923 41.812a39.38 39.38 0 0 1-8.27 19.655c-2.154 3.039 3.847 8.27 8.962 3.847 2.436-2.6 5.25-4.817 8.347-6.578 2.808-1.307 5.116-7.423 3.308-14.424s0-20.502 2.731-32.272a94.21 94.21 0 0 0 1.462-22.271c0-4.347 15.962-18.233 16.539-19.617 1.692-3.539-23.809-5.732-23.809-5.732z" class="E"/><path d="M307.712 239.79c-6.5 3.462-9.154 3.847-12.385 1.269-2.886 2.134-5.635 4.446-8.231 6.924-2.116 2.308 3.846 6.155 9.769 4.424s10.963-7.001 15.771-10.924 6.038-5.193 6.038-9.847c-.243-1.734-.977-3.362-2.115-4.693-1.175 5.266-4.347 9.871-8.847 12.847z" class="D"/><path d="M339.676 139.012c-2.462 1.077-7.231 11.232-16.386 20.425-1.816 1.891-3.168 4.179-3.949 6.682a16.92 16.92 0 0 0-.551 7.742 75.25 75.25 0 0 1 2 15.694c0 6.693 1.308 34.272.923 43.004a39.08 39.08 0 0 1-8.27 19.617c-2.154 3.077 3.847 8.308 8.963 3.846 2.455-2.561 5.282-4.74 8.385-6.462 2.808-1.308 5.115-7.423 3.308-14.386s0-20.501 2.731-32.31-.808-27.618 1.615-30.541c4.923-5.885 15.386-11.001 15.386-17.002.577-7.423-6.808-19.655-14.155-16.309z" class="E"/><g class="D"><path d="M325.829 250.906c-6.501 3.462-9.155 3.846-12.386 1.269-2.89 2.158-5.651 4.482-8.269 6.963-2.078 2.307 3.846 6.115 9.808 4.385s10.962-7.001 15.77-10.925 6.039-5.192 6.039-9.847c-.222-1.781-.973-3.456-2.154-4.808-1.123 5.309-4.286 9.964-8.808 12.963zm12.654-140.127l-29.078 37.042c5.206 1.187 10.343 2.664 15.385 4.423 3.876 1.504 7.384 3.819 10.29 6.792a29.11 29.11 0 0 1 6.557 10.441s28.156-14.348 33.541-24.08c6.539-11.808 1.154-29.117 1.154-29.117a29.28 29.28 0 0 1-19.947 4.286 29.27 29.27 0 0 1-17.902-9.787z"/></g><path d="M346.445 42.311c-6.126 5.701-11.809 11.86-17.001 18.425.208 2.088 1.231 4.009 2.847 5.347 1.163 1.144 2.453 2.151 3.846 3l22.617-23.079s-7.539-7.039-12.309-3.693z" class="S"/><path d="M373.37 52.427l-10.731 7.693c-2.748 2.222-5.319 4.653-7.693 7.27a60.47 60.47 0 0 1 3.846-14.809 27.3 27.3 0 0 0 0-9.001s-1.038-.308-2.577-.654c-2.461 2.462-7.346 9.039-9.962 11.77s-12.231 10.693-10.039 19.617c.74 2.823 1.652 5.597 2.731 8.308a40.47 40.47 0 0 1 .577 14.424 95.6 95.6 0 0 1-5.039 15.386s9.385 12.001 20.04 12.039c7.962-.24 15.608-3.169 21.694-8.308-1.018-8.847-1.442-17.753-1.27-26.657 0 0 15.386-7.693 12.386-22.656-.731-4.385-13.963-14.424-13.963-14.424z" class="H"/><path d="M347.561 62.89c1.962 1.885 6.5 5.577 6.5 5.577l5.27-17.348-4.616-.654s-7.77 8.885-7.154 12.424z" class="S"/><g class="O"><path d="M291.673 305.373c22.071 0 39.964-9.231 39.964-20.618s-17.893-20.617-39.964-20.617-39.965 9.231-39.965 20.617 17.893 20.618 39.965 20.618z"/><path d="M331.637 279.909H251.67v5.924h79.967v-5.924z"/></g><path d="M291.673 301.142c22.071 0 39.964-9.231 39.964-20.617s-17.893-20.618-39.964-20.618-39.965 9.231-39.965 20.618 17.893 20.617 39.965 20.617z" class="B"/><path d="M291.673 274.909a4.65 4.65 0 0 1-3.291-1.363c-.873-.873-1.363-2.057-1.363-3.291V148.244c.01-1.228.505-2.402 1.376-3.266s2.05-1.35 3.278-1.35c.606 0 1.206.12 1.766.352s1.069.571 1.497 1a4.62 4.62 0 0 1 1.001 1.498c.232.56.351 1.16.351 1.766v122.011c0 1.227-.485 2.405-1.349 3.277s-2.039 1.367-3.266 1.377z" class="O"/><path d="M291.673 227.405l-118.008-68.429v6.692l118.008 68.468v-6.731z" class="C"/><path d="M291.634 227.405l118.008-68.429v6.692l-118.008 68.468v-6.731z" class="L"/><path d="M173.665 158.975l117.469-68.006 118.508 68.006-118.008 68.429-117.969-68.429z" class="F"/><g class="E"><path d="M321.405 72.66c-3.085 3.802-5.925 7.798-8.5 11.963-2.808 4.316-5.252 8.858-7.308 13.578-1.077 3.423-3.424 9.885-1.924 12.732s7.962 6.616 10.309 0c1.192-3.308.269-10.386.769-11.54 3.363-5.008 7.037-9.8 11.001-14.347l10.462-11.732a14.45 14.45 0 0 0 0-4.462 32.17 32.17 0 0 1-6.385-6.27s-5.693 7.078-8.424 10.078zm46.119 24.079c-1.68 4.012-4.642 7.353-8.424 9.501a107.59 107.59 0 0 1-15.847 5.808c-3.927.999-7.951 1.567-12.001 1.693-2.576-.946-5.327-1.322-8.063-1.103a18.99 18.99 0 0 0-7.784 2.372c-3.577 2.077-3.846 5.616 5.308 6.154s15.963.885 21.309.693a102.71 102.71 0 0 0 21.771-3.27c3.152-.732 6.096-2.172 8.608-4.212s4.528-4.624 5.893-7.558c2.538-4.154 8-16.848 8-16.848l-14.078-4.693s-2.961 6.77-4.692 11.463z"/></g><path d="M358.1 44.581c-.118 3.973-.739 7.915-1.846 11.732-1.822 3.777-2.58 7.979-2.193 12.155 3.36-2.284 6.514-4.858 9.424-7.693 3-2.616 10.847-7.693 10.847-7.693l-2.731-20.617L358.1 44.581z" fill="#db947b"/><path d="M367.255 17.54a13.66 13.66 0 0 0-6.041-2.54c-2.189-.344-4.43-.15-6.528.566a13.65 13.65 0 0 0-8.74 9.244c-4.539 12.924 7.154 29.041 13.385 26.31 5.854-2.852 10.444-7.772 12.885-13.809a20.42 20.42 0 0 0 .162-10.549c-.871-3.47-2.637-6.65-5.123-9.222z" class="E"/><path d="M365.062 56.005c-6.693 6.962-11.001 12.463-11.001 12.463 3.161 1.454 6.599 2.202 10.078 2.192 6.462-6.193 12.001-10.001 14.232-14.155a33.74 33.74 0 0 0-4.116-7.962 53.06 53.06 0 0 0-9.193 7.462z" class="S"/><path d="M376.101 20.694a19.23 19.23 0 0 0-9.885-9.155c-7.231-3-11.309-1.577-18.117 4.693a18.62 18.62 0 0 0-4.778 6.996c-1.034 2.668-1.439 5.539-1.184 8.39a79.2 79.2 0 0 0 16.809 8.808c4.154 1.116 10.886-1.423 13.463-1.423 2.177-2.454 3.665-5.441 4.314-8.657s.434-6.546-.622-9.652z" class="D"/><path d="M371.178 77.237l-3.846 12.77c.538 7.885 13.039 7.962 17.885 5.962 1.562-3.076 2.924-6.25 4.077-9.501 1.693-5.577 2.924-15.386-2.961-21.886s-13.77 7.77-15.155 12.655z" class="S"/><path d="M163.241 63.274c5.308-5.539 10.193 13.732 11.924 26.579 1.385 10.27 4.731 24.386 7.693 26.925s31.31 17.848 31.31 17.848a20.99 20.99 0 0 0-4.417 8.299 21 21 0 0 0-.353 9.395c-10.616-6.155-36.656-15.194-44.003-22.425s-19.232-48.774-2.154-66.622z" fill="#c94a3d"/><g class="B"><path d="M388.794 260.523c1.385-10.771 2.616-20.079 16.617-12.001l6.885 3.846 10.808 6.27 6.885 3.846c14.001 8.078 15.386 18.771 16.617 31.157 1.269 11.232 4.154 43.811 4.192 44.158l-2.846-1.77c0-.307-2.846-32.233-4.116-43.388-1.5-13.348-2.731-20.04-13.847-26.464l-6.885-3.847-10.616-6.154-6.885-3.846c-11.155-6.424-12.347-1.154-13.885 10.462-1.231 9.693-4.039 38.465-4.078 38.465l-3-1.231c0-.5 2.885-29.733 4.154-39.503z"/><path d="M387.448 301.334l-4.231 2.462s.615-20.002 1.385-27.464 4.269-24.31 4.269-24.31l1.654 1.308-3.077 48.004zm58.927 39.08l4.231-2.462-5.693-42.658c-.807-5.654-3.846-18.963-3.846-18.963l-4.654 1.154a62.74 62.74 0 0 1 3.846 14.232l6.116 48.697z"/></g><path d="M384.64 262.984c1.423-10.77 2.616-20.079 16.617-12.001l6.885 3.846 10.654 6.116 6.847 3.847c14.001 8.078 15.385 18.771 16.616 31.156 1.27 11.232 4.193 43.812 4.193 44.158l-2.808-1.769c0-.308-2.846-32.234-4.116-43.389-1.5-13.347-2.731-20.04-13.885-26.463l-6.847-3.847-10.654-6.154-6.885-3.847c-11.116-6.423-12.347-1.154-13.847 10.463-1.27 9.693-4.078 38.464-4.116 38.464l-2.846-1.5c-.039-.077 2.846-29.31 4.192-39.08z" class="G"/><path d="M389.525 244.791l41.272 23.733c14.847 8.577 20.232 7.693 24.963-3.847 4.424-10.655 17.54-45.158 19.655-50.889l-5.154-2.962c0 .346-14.308 38.465-18.693 48.928-3.847 9.693-7.693 10.116-20.771 2.577l-41.272-23.848v6.308z" class="C"/><path d="M356.677 289.333l5.923 2.193a310.75 310.75 0 0 0-2.115-32.311c-.539-3.115 14.347-3.231 14.347-3.231a226.3 226.3 0 0 1 0 33.08 34.08 34.08 0 0 0 0 8.347l-4.693 2.077c-1.633.531-3.362.703-5.068.504s-3.35-.765-4.817-1.658c-4.269-2.154-8.308-4.77-7-7.193.394-.543.907-.989 1.501-1.302a4.37 4.37 0 0 1 1.922-.506z" class="E"/><path d="M354.715 288.717l1.962.616a4.38 4.38 0 0 0-1.816.546c-.558.312-1.041.743-1.415 1.261-1.308 2.424 2.731 5.039 7 7.193a11.93 11.93 0 0 0 9.886 1.154l4.692-2.077c.423 2.847 1 4.193 0 6.232-1.423 3.384-4.692 3.077-11.539.692a58.03 58.03 0 0 1-14.963-7.693c-4.192-3.116-4.231-3.539-4.769-5.616-.462-2.885 3.846-4.539 10.962-2.308z" class="D"/><path d="M329.367 304.603l5.885 2.193s-2.115-36.926-3.846-46.389c-.577-3.115 15.386 2.654 15.386 2.654 1.05 13.72 1.255 27.49.615 41.235a34.9 34.9 0 0 0 0 8.385l-4.654 2.077a11.81 11.81 0 0 1-5.075.497c-1.707-.206-3.349-.783-4.81-1.689-4.27-2.116-8.309-4.731-7.039-7.155a4.35 4.35 0 0 1 1.55-1.332 4.36 4.36 0 0 1 1.988-.476z" class="E"/><path d="M327.406 303.872l1.961.616c-.645.039-1.273.222-1.838.535s-1.055.747-1.431 1.273c-1.269 2.423 2.769 5.039 7.039 7.154a11.8 11.8 0 0 0 4.811 1.689 11.81 11.81 0 0 0 5.074-.496c1.539-.731 3.654-1.616 4.654-2.078.462 2.847 1.039 4.193 0 6.232-1.423 3.385-4.731 3.077-11.539.654-5.345-1.8-10.389-4.393-14.962-7.693-4.193-3.077-4.231-3.501-4.808-5.616-.385-2.731 3.923-4.385 11.039-2.27z" class="D"/><g class="B"><path d="M346.984 284.64c1.385-10.732 2.616-20.04 16.617-11.962l6.885 3.846 10.616 6.154 6.885 3.847c14.001 8.078 15.385 18.771 16.616 31.156 1.269 11.271 4.154 43.85 4.193 44.158l-2.808-1.731c0-.346-2.885-32.233-4.154-43.427-1.5-13.308-2.693-20.001-13.847-26.425l-6.885-3.846-10.616-6.116-6.885-3.847c-11.155-6.424-12.347-1.154-13.848 10.424-1.269 9.732-4.077 38.465-4.115 38.465l-2.846-1.462 4.192-39.234z"/><path d="M345.638 325.259l-4.231 2.462s.615-19.963 1.384-27.464 4.27-24.271 4.27-24.271l1.654 1.307-3.077 47.966zm58.927 39.081l4.231-2.462-5.693-42.619c-.769-5.616-3.846-18.963-3.846-18.963l-4.654 1.154a62.71 62.71 0 0 1 3.846 14.232l6.116 48.658z"/></g><path d="M342.753 286.909c1.423-10.77 2.615-20.04 16.616-11.962l6.885 3.846 10.693 6.27 6.886 3.846c14 8.078 15.385 18.771 16.577 31.157 1.308 11.27 4.193 43.85 4.193 44.158l-2.808-1.731c0-.346-2.846-32.234-4.115-43.427-1.501-13.309-2.731-20.002-13.847-26.425l-6.886-3.847-10.654-6.116-6.885-3.846c-11.116-6.462-12.347-1.154-13.847 10.424-1.27 9.731-4.077 38.464-4.116 38.464l-2.962-1.461c0-.308 3.001-29.58 4.27-39.35z" class="G"/><path d="M336.329 269.254l53.196-30.772 26.925 15.386s-14.578 43.62-20.424 45.158c-15.617 4.424-59.697-29.772-59.697-29.772z" class="F"/><path d="M390.679 130.396a11.53 11.53 0 0 1 9.485-.915 11.53 11.53 0 0 1 4.175 2.516c1.197 1.126 2.139 2.495 2.764 4.015 2.039 4.269-.807 15.732-1.269 23.771-.341 3.524.284 7.074 1.808 10.27l-5.578 2.308a17.04 17.04 0 0 1-11.539 0l.193-9.924a12.89 12.89 0 0 1-5.193-1.115c-2.5-2.347-5.462-6.309-4.308-15.194 1.923-13.232 7.847-14.617 9.462-15.732z" class="E"/><path d="M348.292 234.943c10.231-2.731 36.04-10.231 36.04-10.231s30.772 8.539 33.849 17.578c5.5 16.463-2.231 23.464-10.347 27.964-4.296 2.942-9.178 4.919-14.31 5.795s-10.394.632-15.423-.717a251.93 251.93 0 0 0-41.772-6.078v6.116c-8-3.193-8.269-20.348-8.269-20.348s1.807-15.194 20.232-20.079z" class="D"/><path d="M375.64 201.479c-3.27-7.001 4.192-19.733 6.269-24.349 2.088-3.301 5.154-5.87 8.77-7.346l16.963.269c3.444 6.189 5.872 12.89 7.193 19.848a77.51 77.51 0 0 1 .269 24.771c-.423 3.27-1.577 10.924 3.846 25.002a20.17 20.17 0 0 1 .808 3.078c-2.808 7.693-15.386 10.693-22.425 10.577-9.616 0-20.616-5.154-23.886-14.308 1.039-3.847 2.116-7.232 3.462-10.694 1.761-4.296 2.56-8.926 2.34-13.565s-1.451-9.172-3.609-13.283z" class="M"/><path d="M390.795 166.976a16.62 16.62 0 0 0 10.808 0l5.693-2.039 1.923 3.847s-.885 2.769-6.539 4.577a20.6 20.6 0 0 1-8.305 1.06c-2.812-.218-5.549-1.011-8.042-2.329-.039-3.501 4.462-5.116 4.462-5.116z" fill="#e5802c"/><path d="M400.834 126.165c7.692 1.615 15.385 6.385 12.693 22.463a25.16 25.16 0 0 1-6.347 10.732 11.19 11.19 0 0 0-3.615 5.346c-.752-.285-1.485-.619-2.193-1-.128-.309-.325-.586-.577-.807a62.29 62.29 0 0 1-12.308-11.963c-3.347-3.462-7.078-4.808-7.501-9.347-.884-9.347 5.654-18.502 19.848-15.424z" class="D"/><path d="M335.753 201.018c3.461 2.231 2.577 5 5.346 5.423a196.99 196.99 0 0 1 23.694 5.116s12.385-33.888 18.693-34.618c3.27-.308 6.655 5.654 6.347 13.078-.462 9.539-20.617 31.887-20.617 31.887-6.693 3.847-26.502-8.308-31.348-8.885a24.31 24.31 0 0 1-13.578-7.963c-2.423-2.769 6.847-6.962 11.463-4.038z" class="E"/><path d="M383.255 175.592c4.231-.577 7.693 2 8.347 9.001a16.81 16.81 0 0 1-3.154 10.693s-.846-9.078-3.616-11.886c-3.846-3.846-6.308-1.577-6.308-1.577s-2.423-5.269 4.731-6.231z" class="K"/><path d="M389.833 148.09a6.04 6.04 0 0 1-.28 4.356c-.634 1.366-1.755 2.446-3.143 3.029l-1.539-7.385s3.616-5.77 4.962 0z" class="E"/><path d="M413.911 139.551l3.462 21.656a63.77 63.77 0 0 1-.346 19.54c-.923 4.962-5.616 9-4.462 12.578s5.847 1.961 5.847 1.961a7.69 7.69 0 0 1-2.315 2.247 7.68 7.68 0 0 1-3.032 1.1 9.66 9.66 0 0 1-5.231-2.923s2.462 7.423-.654 10.308-6.077-.731-6.077-.731 4.846 0 4.154-2.538-3.846-.308-5.27-4.116c-.615-1.539 1.578-4.962 1.578-4.962a8.96 8.96 0 0 1-5.77 1.615c-1.962-.5-3.385-3.846-3.385-3.846s3.847 2.769 5.347.538-2.616-3.5-3.27-3.846c-1.308-.769-3.346-.692-4.385-6.308-.846-4.578-.461-29.541-.461-29.541l24.27-12.732z" class="D"/><path d="M449.721 273.101l-53.849 31.041 15.385-39.234c3.847-9.386 9.193-23.502 9.193-23.502l51.85-27.81-22.579 59.505z" class="C"/><path d="M336.329 275.332l41.08 23.732c14.847 8.578 20.232 7.693 25.002-3.846 4.384-10.693 17.501-45.158 19.616-50.928l-5.154-2.961c0 .384-14.309 38.465-18.694 48.965-3.846 9.655-7.692 10.117-20.77 2.539l-41.08-23.579v6.078z" class="L"/><path d="M470.069 210.865l5.154 2.962-53.196 30.541-5.154-2.962 53.196-30.541z" class="F"/><path d="M298.558 179.092c0 9.963-15.386 18.04-33.925 18.04s-33.849-8.077-33.849-18.04 15.386-18.04 33.925-18.04 33.849 8.193 33.849 18.04z" class="N"/><path d="M264.479 195.209c-17.309 0-31.349-7.193-31.349-16.078s14.04-16.04 31.349-16.04 31.386 7.193 31.386 16.04-14.078 16.078-31.386 16.078zm0-31.387c-16.886 0-30.772 6.885-30.772 15.386s13.732 15.386 30.772 15.386 30.771-6.847 30.771-15.386-13.886-15.386-30.771-15.386z" class="B"/><path d="M264.556 170.745c10.116 0 18.347 4.116 19.232 9.347a4.29 4.29 0 0 0 0-1c0-5.731-8.732-10.385-19.502-10.385s-19.501 4.654-19.501 10.385a4.18 4.18 0 0 0 0 1c1.385-5.231 9.655-9.347 19.771-9.347z" class="Q"/><path d="M264.556 189.439c10.664 0 19.309-4.184 19.309-9.347s-8.645-9.347-19.309-9.347-19.309 4.185-19.309 9.347 8.645 9.347 19.309 9.347z" fill="#fe9380"/><path d="M288.48 181.439c1.885-2.539.231-5.809-1.231-8.193-3.038-4.962-10.385-10.809-16.231-6.693a13.79 13.79 0 0 0-3.501 4.962 4.16 4.16 0 0 0 2.385 2c1.577.538 1.693 0 2.885 1.038 1.962 1.808 1.615 4.578 4.077 6.078s2.923 2.808 5.154 4.462c.554.408 1.181.708 1.847.884l1.5-1.692c1.092-.888 2.133-1.838 3.115-2.846z" class="F"/><path d="M276.672 180.785c-2.462-1.5-2.116-4.27-4.078-6.078-1.192-1.154-1.307-.5-2.884-1.038a4.16 4.16 0 0 1-2.385-2.001 10.66 10.66 0 0 0-1.434 4.096 10.65 10.65 0 0 0 .318 4.328 1.92 1.92 0 0 0 0 .923c.16.474.444.895.823 1.22a2.77 2.77 0 0 0 1.331.627c-.216 1.167.001 2.374.61 3.393a4.89 4.89 0 0 0 2.698 2.146 13.62 13.62 0 0 0 10.001-.5c.788-.452 1.48-1.053 2.039-1.77-.666-.176-1.293-.476-1.847-.884-2.269-1.808-2.846-3.155-5.192-4.462z" class="C"/><g class="H"><path d="M269.479 167.592a9.12 9.12 0 0 0-2.039 3.615 3.87 3.87 0 0 0-.094 1.588 3.86 3.86 0 0 0 .556 1.49c.529-.295.99-.697 1.354-1.181a4.34 4.34 0 0 0 .761-1.627 5.69 5.69 0 0 0-.538-3.885z"/><path d="M271.133 171.823a4.42 4.42 0 0 1 3.115 1.307 7.03 7.03 0 0 1-3.615 1.885 5.08 5.08 0 0 1-2.808-.769c.186-.724.617-1.362 1.22-1.804s1.341-.661 2.088-.619zm8.885 9.5a9.04 9.04 0 0 0-2 3.847 3.61 3.61 0 0 0 .423 3.038c.528-.292.99-.688 1.361-1.164a4.46 4.46 0 0 0 .793-1.605c.311-1.397.106-2.859-.577-4.116z"/><path d="M281.672 185.555a4.54 4.54 0 0 1 3.116 1.346c-1.005.955-2.258 1.608-3.616 1.885-.983.011-1.947-.271-2.769-.808a3.19 3.19 0 0 1 1.198-1.8c.597-.443 1.329-.663 2.071-.623z"/></g><path d="M240.593 176.477a21.88 21.88 0 0 0 0 4.577c1 3.846 4.154 7.347 12.654 10.039s12.693-2.538 13.232-4.769c.498-2.954.832-5.933 1-8.924l-26.886-.923z" class="K"/><path d="M263.248 164.207c-7.078-1.423-14.155 3.846-19.732 8.193s-2.847 8.654 6.077 14.04 17.347 2.115 17.809-7.386c.538-11.539 1.5-13.655-4.154-14.847z" class="M"/><path d="M264.056 168.592c0 1.154-1.77 2.115-3.847 2.115s-3.846-.961-3.846-2.115 1.769-2.077 3.846-2.077 3.847.923 3.847 2.077z" class="B"/><g class="K"><path d="M262.363 168.592c0 .654-1 1.192-2.231 1.192s-2.231-.538-2.231-1.192 1-1.193 2.231-1.193 2.231.539 2.231 1.193zm-9.308.654c1.889 1.562 3.651 3.273 5.269 5.115a74.68 74.68 0 0 1 5.231 8.001s-3.846-3.846-6.385-7.693-4.115-5.423-4.115-5.423zm-3.885 2.692c1.897 1.526 3.671 3.198 5.308 5a69.35 69.35 0 0 1 5.193 7.963s-3.616-3.847-6.385-7.693l-4.116-5.27zm-4.308 2.27a43.94 43.94 0 0 1 4.847 4.654c1.722 2.338 3.302 4.779 4.731 7.308-1.867-1.9-3.626-3.904-5.27-6-3-3.654-4.308-5.962-4.308-5.962z"/><path d="M261.555 173.861c-2.359.677-4.661 1.539-6.885 2.577-2.775 1.587-5.447 3.347-8 5.27l8.923-4.423 5.962-3.424zm3.154 3.808c-2.162.611-4.272 1.395-6.308 2.347-2.519 1.381-4.948 2.922-7.269 4.615 2.469-.997 4.883-2.127 7.231-3.385l6.346-3.577zm-7.462-6.885a42.41 42.41 0 0 0-6.269 2.385c-2.524 1.43-4.953 3.024-7.27 4.769a71.19 71.19 0 0 0 7.193-3.385l6.346-3.769z"/></g><g class="I"><path d="M291.134 181.9c-1.577 1.924-5.769 1.116-9.385-1.807s-5.308-6.809-3.846-8.732 5.731-1.154 9.346 1.769 5.424 6.809 3.885 8.77z"/><path d="M279.073 169.995l-1.06 1.319 13.102 10.531 1.06-1.319-13.102-10.531z"/></g><path d="M292.327 180.554c-1.539 1.923-5.732 1.116-9.347-1.769s-5.308-6.847-3.847-8.77 5.77-1.116 9.386 1.769 5.231 6.847 3.808 8.77z" class="J"/><g class="I"><path d="M282.211 169.899a2.34 2.34 0 0 0-1.389.361c-.414.262-.735.647-.919 1.101-.231.846 3.846 2.654 4.962 2.654s-1.154-4.116-2.654-4.116zm2.73 4.539a21.87 21.87 0 0 0-4.461-.885c-.654 0 .384 1.962 1.692 3.231s3.346 3.077 3.539 1.5.692-3.423-.77-3.846zm-.307-3.269c.231.692 1 1.923 1.154 2.462s.884.961 1.808.307 1.153-1.269-.385-2.5-2.577-1.154-2.577-.269zm2.231 3.462c.654 0 2.038-.5 2.5-.5a2.74 2.74 0 0 1 1.136.638c.321.302.565.676.71 1.093.462 1.115.5 1.961-.961 1.192l-2.924-1.577c-.538-.346-1.154-.731-.461-.846zm-.539 1.423c0-.539.423-.385 1.385 0s3.615 2.231 3.846 2.962-.384 1.615-2 1.346-2.962-.692-2.923-1.962a15.07 15.07 0 0 0-.308-2.346z"/></g><g class="J"><path d="M283.826 172.707s-.769-1.115-1.231-.961-.192 1 1.231.961zm.808 2.347s-1.27-.539-1.654-.346 0 1.077.615 1c.415-.084.784-.317 1.039-.654zm.307.384c-.538.423-.769 1.539 0 1.423s0-1.423 0-1.423zm1.693-2.116s-.846-1.346 0-1.231 0 1.231 0 1.231zm1.154 1.77c.193-.111.412-.17.635-.17a1.27 1.27 0 0 1 .634.17c.616.308-.231.847-1.269 0zm-.539 1.5a2.99 2.99 0 0 0 .577 1.192c.5.539 1.077 0 .654-.461-.361-.319-.778-.567-1.231-.731z"/></g><g class="H"><path d="M279.672 189.671c0 1.577-2.616 2.692-5.616 2.5s-5.346-1.693-5.231-3.27 2.654-2.731 5.654-2.5 5.308 1.692 5.193 3.27z"/><path d="M269.005 187.123l-.131 1.803 10.857.792.131-1.803-10.857-.792z"/></g><path d="M279.826 187.862c0 1.577-2.654 2.693-5.654 2.462s-5.308-1.654-5.193-3.269 2.616-2.693 5.616-2.501 5.346 1.693 5.231 3.308z" class="R"/><g class="T"><path d="M274.364 186.9s-2.154-1.615-.616-1.923.616 1.923.616 1.923zm-1.077.654a2.31 2.31 0 0 0-1.095.139 2.3 2.3 0 0 0-.905.631c-.385.654 2.115 1.192 2-.77zm3.116.039c.375.024.74.133 1.067.32s.606.446.817.757c.269.693-2.308.847-1.884-1.077zm-2.001-.154c-.194.535-.194 1.12 0 1.654.035.142.117.268.232.358s.257.139.403.139.288-.049.403-.139a.66.66 0 0 0 .232-.358c-.039-1.038-1.27-1.654-1.27-1.654zm-1.615-.653s-3.27.769-2.308-.693 2.308.693 2.308.693zm2.692-.116s.885-1.385 1.77-.884.192.884-1.77.884z"/></g><g class="K"><path d="M277.864 179.016c.846 1.346-.538 3.846-3.077 5.308s-5.308 1.769-6.154.423.538-3.847 3.115-5.308 5.193-1.77 6.116-.423z"/><path d="M276.904 177.469l-9.253 5.734.953 1.537 9.252-5.735-.952-1.536z"/></g><path d="M276.941 177.477c.846 1.346-.538 3.846-3.077 5.308s-5.308 1.769-6.154.423.538-3.847 3.115-5.347 5.231-1.769 6.116-.384z" class="M"/><path d="M269.441 179.823s.653.346.576.923-1.307 1.77-1.307 1.77a19.32 19.32 0 0 1 2.577-1.001 5.57 5.57 0 0 1 2.192.693s-1.115-1.423-.384-1.808c.933-.451 1.914-.799 2.923-1.039 0 0-2.539 0-2.193-.846a6.55 6.55 0 0 0 .385-1.192l-2.115 1.808c-.813.449-1.726.687-2.654.692z" class="Q"/><path d="M250.247 130.204c-9.924 10.539-3.116 22.617 15.385 26.925s41.234-.769 51.158-11.309 3.077-22.617-15.386-26.925-41.233.731-51.157 11.309z" class="N"/><path d="M280.364 154.898c12.616 0 25.271-3.846 31.618-10.308 1.534-1.353 2.666-3.103 3.27-5.057a11.12 11.12 0 0 0 .153-6.021c-1.577-5.462-7.693-9.847-17.155-12.04-15.886-3.846-35.733.27-44.234 8.924-1.561 1.336-2.723 3.078-3.354 5.033a11.11 11.11 0 0 0-.223 6.045c1.577 5.462 7.693 9.847 17.194 12.04 4.177.942 8.449 1.406 12.731 1.384zm5.347-33.656a55.43 55.43 0 0 1 12.424 1.384c8.769 2.039 14.885 6.27 16.308 11.232.42 1.792.333 3.666-.251 5.412s-1.642 3.295-3.056 4.474c-8.232 8.385-27.579 12.27-43.119 8.616-8.769-2.077-14.847-6.27-16.308-11.232-.419-1.798-.331-3.677.253-5.429a9.99 9.99 0 0 1 3.055-4.495c6.154-6.231 18.424-9.962 30.694-9.962z" class="B"/><g fill="#ffc0b8"><path d="M271.556 128.704l-13.847-12.578s-2.962-.231-3.308 1.961c3.829 4.283 7.927 8.317 12.27 12.078l4.885-1.461zm8.539-5.039l-13.77-12.617s-3-.192-3.346 1.962c3.828 4.283 7.927 8.317 12.27 12.078l4.846-1.423zm9.231-3.155l-13.808-12.578s-2.962-.231-3.308 1.962a134.92 134.92 0 0 0 12.424 12.078l4.692-1.462zm9.193-1.269l-13.885-12.655s-2.962-.192-3.347 1.962c3.829 4.283 7.928 8.317 12.27 12.078l4.962-1.385z"/></g><path d="M272.325 150.013s13.463.616 19.771-5.616 9.962-9.308 13.732-12.655 4.692-8.5 0-14.501-8.078-3.462-8.078-3.462a34.61 34.61 0 0 1-9.539 2.385 84.29 84.29 0 0 0-21.078 4.885c-14.655 9.155-11.039 18.117-8.809 21.31a18.16 18.16 0 0 0 6.115 5.448c2.426 1.326 5.124 2.081 7.886 2.206z" fill="#ea5642"/><path d="M275.018 150.013c3.846-.346 8.923-3.385 3.385-14.309s-10.463-15.117-16.04-10.809c-3.846 2.962-9.116 8.462-5 16.848 2.769 5.654 11.424 8.885 17.655 8.27z" fill="#ff7f66"/><g fill="#d64334"><path d="M271.556 119.241c3.537 1.673 6.682 4.071 9.232 7.039a59.3 59.3 0 0 1 6.769 13.078 28.46 28.46 0 0 0-4.5-14.886c-4.385-5.692-6.116-6.385-6.116-6.385l-5.385 1.154zm11.962-2.539a47.66 47.66 0 0 1 7.155 6.616c2.275 3.298 3.605 7.156 3.846 11.155a29.14 29.14 0 0 0-1.115-11.155 19.83 19.83 0 0 0-5.308-7.193l-4.578.577zm10.462-1.692c2.099 1.635 3.862 3.659 5.193 5.962 1.193 2.039 2.923 7.693 3 7.462a23.06 23.06 0 0 0-2.654-10 11.53 11.53 0 0 0-3.846-3.847l-1.693.423z"/></g><g fill="#ea5642"><path d="M266.71 128.434a13.35 13.35 0 0 1 6.923 6.193c2.423 4.539 4.462 9.808 1.539 12.001-1.691.906-3.621 1.263-5.523 1.022a9.23 9.23 0 0 1-5.093-2.368 14.84 14.84 0 0 1-4.462-5.232s5.923 5.462 10.385 5.232 4.923-.731 2.308-5.77-6.077-11.078-6.077-11.078zm1.654 6.924s-1.808-4.578-4.809-5.193-3.846 4.193-3.461 6.462c.584 1.722 1.692 3.218 3.167 4.279a8.74 8.74 0 0 0 5.064 1.645c2.731-.231 2.193-3.193 2.193-3.193s-1.039 3.193-5.501 0c-3.846-2.731-3.577-4.808-2.5-5.923 1.769-1.847 5.847 1.923 5.847 1.923z"/></g><g class="H"><path d="M283.249 140.397c.005 1.23-.285 2.444-.846 3.539-.211.412-.51.774-.876 1.06a3.19 3.19 0 0 1-1.24.594c-.158-.501-.213-1.029-.16-1.552a3.85 3.85 0 0 1 .468-1.487c.616-.997 1.552-1.756 2.654-2.154z"/><path d="M279.71 142.32c-.762-.677-1.749-1.047-2.769-1.038.061 1.214.46 2.386 1.154 3.385.633.582 1.421.97 2.269 1.115a2.77 2.77 0 0 0 .295-1.848c-.12-.632-.455-1.202-.949-1.614zm14.54-5.577c-.022 1.219-.325 2.417-.885 3.5-.201.417-.491.785-.85 1.078a3.17 3.17 0 0 1-1.227.615c-.165-.499-.226-1.025-.179-1.548a3.85 3.85 0 0 1 .448-1.491c.629-1.002 1.578-1.761 2.693-2.154z"/><path d="M290.673 138.473a3.86 3.86 0 0 0-1.281-.796c-.475-.178-.981-.26-1.489-.242a6.39 6.39 0 0 0 1.193 3.385 4.27 4.27 0 0 0 2.231 1.115c.309-.563.413-1.217.294-1.848s-.455-1.202-.948-1.614zm10.885-10.423a7.7 7.7 0 0 1 .423 3.616c-.058.459-.212.902-.45 1.299s-.557.741-.935 1.008a3.83 3.83 0 0 1-.691-1.401c-.133-.509-.159-1.04-.078-1.56.203-1.163.818-2.214 1.731-2.962z"/><path d="M298.827 130.78a3.86 3.86 0 0 0-2.962 0c.485 1.106 1.272 2.052 2.27 2.731a4.5 4.5 0 0 0 2.5.27 2.77 2.77 0 0 0-.37-1.823c-.329-.546-.837-.962-1.438-1.178z"/></g><path d="M306.674 128.742c2.846-.308 6.115 2.193 5.385 5.308-.462 1.962-5.27 3.155-8.809 2.308s-2.384-7.039 3.424-7.616z" class="F"/><path d="M305.597 133.743c2.269 1.346 4.346 4.731 3.423 6.962a7.7 7.7 0 0 1-2.503 1.684c-.938.39-1.943.591-2.959.591a7.7 7.7 0 0 1-2.958-.591c-.938-.391-1.789-.963-2.504-1.684-2.577-3.731.462-11.04 7.501-6.962z" class="C"/><path d="M301.943 144.282c1.307-1.462-.962-4.539-3.001-6.001s-11.539 2.924-6.192 6.847 7.269 1.039 9.193-.846z" class="F"/><path d="M292.327 141.089c2.269 1.308 4.346 4.731 3.423 6.962a7.69 7.69 0 0 1-2.51 1.698c-.941.394-1.951.597-2.971.597s-2.03-.203-2.971-.597a7.68 7.68 0 0 1-2.51-1.698c-2.539-3.731.538-11.039 7.539-6.962z" class="C"/><path d="M280.787 144.743c.718-.092 1.446-.02 2.132.211a4.78 4.78 0 0 1 1.824 1.123c.515.508.908 1.126 1.149 1.808s.324 1.409.242 2.128c-.462 1.923-5.27 3.116-8.77 2.269s-2.423-6.962 3.423-7.539z" class="F"/><path d="M342.791 183.824c17.356 0 31.425-7.491 31.425-16.732s-14.069-16.732-31.425-16.732-31.425 7.491-31.425 16.732 14.07 16.732 31.425 16.732z" class="N"/><path d="M342.676 181.978c-16.04 0-29.079-6.655-29.079-14.848s13.039-14.886 29.079-14.886 29.04 6.655 29.04 14.886-13.039 14.848-29.04 14.848zm0-29.041c-15.655 0-28.386 6.346-28.386 14.193s12.731 14.155 28.386 14.155 28.348-6.346 28.348-14.155-12.732-14.193-28.348-14.193z" class="B"/><path d="M342.715 159.321c9.385 0 17.001 3.847 17.885 8.693a3.85 3.85 0 0 0 0-.923c0-5.308-8.077-9.616-18.078-9.616s-18.039 4.308-18.039 9.616a7.48 7.48 0 0 0 0 .923c1.269-4.846 8.885-8.693 18.232-8.693z" fill="#ce8d1b"/><path d="M342.714 176.669c9.878 0 17.886-3.875 17.886-8.655s-8.008-8.654-17.886-8.654-17.885 3.875-17.885 8.654 8.007 8.655 17.885 8.655z" class="L"/><path d="M346.868 161.553s-2.461-2.731-8.962-1.577a20.65 20.65 0 0 0-11.539 6.154c-.356 2.978.194 5.994 1.577 8.655 1.539 1.846 8.001 1.884 8.001 1.884l10.923-15.116z" class="R"/><g class="H"><path d="M323.406 167.784c-.382 1.546-.274 3.172.307 4.654.233.902.555 1.778.962 2.616 0 0 1.885 0 2.077-1.731l.231-1.616c1.32.409 2.695.616 4.077.616 1.067-.264 2.056-.778 2.885-1.5l-2.885-4.501-7.654 1.462zm20.193-2.385s-2.077 2.577-3.846 2.769c-1.035.119-2.081.119-3.116 0 0 0 1.923 5.693 3.847 5.308l3.846-.884c.904 1.839 2.22 3.445 3.846 4.692 1.162.682 2.504.991 3.847.885a18.79 18.79 0 0 1 1.154-6.039c.923-2.308-5.808-10.809-9.578-6.731zm-9.193-14.578c.944-1.363 1.767-2.804 2.462-4.308a17.09 17.09 0 0 0 .846-3.347 5.66 5.66 0 0 1 1.808 2.77 5.35 5.35 0 0 1 0 3.154c1.237-.773 2.522-1.467 3.846-2.077a15.83 15.83 0 0 1 2.501-.616s.769 10.155-6.001 13.194-9.962-2.77-5.462-8.77zm20.848 2.077c1.509-.679 2.963-1.476 4.346-2.385a18.36 18.36 0 0 0 2.462-2.462c.324 1.092.324 2.255 0 3.347a5.27 5.27 0 0 1-1.654 2.654c1.504.022 3.007.125 4.5.308.837.202 1.659.459 2.462.769 0 0-4.654 9.078-12.001 8.154s-7.077-7.654-.115-10.385z"/><path d="M357.985 158.898c-.462 1.847-3.654 2.616-7.078 1.693s-5.885-3.116-5.385-4.962 3.847-2.577 7.116-1.693 5.847 3.154 5.347 4.962z"/><path d="M346.067 153.545l-.547 2.083 12.462 3.276.547-2.083-12.462-3.276z"/></g><path d="M358.562 156.822c-.5 1.846-3.847 2.577-7.116 1.654s-5.847-3.116-5.385-4.924 3.846-2.615 7.116-1.692 5.846 3.115 5.385 4.962z" class="R"/><g class="T"><path d="M352.407 154.514s-2.192-2.308-.307-2.385.307 2.385.307 2.385zm-1.423.538c-.424-.116-.87-.135-1.303-.055a2.93 2.93 0 0 0-1.197.516c-.577.693 2.231 1.847 2.5-.461zm3.654.731c.693.231 1.731.769 1.924 1.615s-2.693.539-1.924-1.615zm-2.308-.615a2.74 2.74 0 0 0-.5 1.884.77.77 0 0 0 .271.431c.136.109.305.168.479.168a.77.77 0 0 0 .751-.599c.269-.923-1.001-1.884-1.001-1.884zm-1.769-1.116s-3.846 0-2.539-1.308 2.539 1.308 2.539 1.308zm3.308.462s1.308-1.462 2.231-.693-.077 1.116-2.231.693z"/></g><g class="K"><path d="M350.6 166.63c0 1.884-2.885 3.423-6.462 3.423s-6.462-1.539-6.462-3.423 2.885-3.462 6.462-3.462 6.462 1.538 6.462 3.462z"/><path d="M350.561 164.438h-12.885v2.154h12.885v-2.154z"/></g><path d="M350.6 164.437c0 1.923-2.885 3.462-6.462 3.462s-6.462-1.539-6.462-3.462 2.885-3.423 6.462-3.423 6.462 1.538 6.462 3.423z" class="M"/><path d="M341.561 162.129s.461.808 0 1.347c-.724.474-1.535.801-2.385.961a19.91 19.91 0 0 1 3.231.577c.731.308 1.731 2.077 1.731 2.077s-.347-2 .884-2c1.218.121 2.418.379 3.577.769 0 0-2.5-1.615-1.692-2.192.414-.298.8-.633 1.154-1l-3.269.5c-1.151-.05-2.267-.409-3.231-1.039z" class="Q"/><g class="I"><path d="M336.752 160.976c.885 2.808-2.615 6.462-7.692 8.193s-10.27.846-11.193-1.924 2.615-6.5 7.692-8.193 10.27-.884 11.193 1.924z"/><path d="M336.097 159.071l-19.044 6.239.635 1.937 19.044-6.239-.635-1.937z"/></g><path d="M336.099 159.052c.923 2.808-2.616 6.462-7.693 8.193s-10.27.846-11.193-1.962 2.577-6.462 7.693-8.193 10.27-.846 11.193 1.962z" class="J"/><g class="I"><path d="M318.982 162.091a2.73 2.73 0 0 0-.529 1.616c0 .581.185 1.147.529 1.615.731.808 5.077-1.923 5.885-3.231s-4.885-1.5-5.885 0zm6.308.192a27.96 27.96 0 0 0-3.846 3.846c-.269.77 2.192.924 4.346.424s5.27-1.308 3.847-2.539-3-2.923-4.347-1.731zm-3.385-1.923c.847.23 2.577.269 3.193.461s1.538-.269 1.5-1.577-.539-2-2.769-1.269-3.039 2.154-1.924 2.385zm4.808.154c.347-.692.808-2.346 1.154-2.808a3.16 3.16 0 0 1 2.885-.731c1.462.27 2.346.77.577 1.731l-3.423 1.885c-.693.308-1.5.692-1.193-.077zm1.077 1.461c-.577-.269 0-.654 1.001-1.308s4.615-2.192 5.346-1.769 1.423 1.423 0 2.885-2.616 2.5-3.846 1.654a13.29 13.29 0 0 0-2.501-1.462z"/></g><g class="J"><path d="M322.829 162.322s-1.616 0-1.77.577.885.846 1.77-.577zm2.731.846s-1.347.923-1.385 1.462 1.077.692 1.385 0c.192-.469.192-.994 0-1.462zm.73-.193c0 .808 1 1.77 1.385.962s-1.385-.962-1.385-.962zm-1.038-3.076s-1.885 0-1.308-.693 1.308.693 1.308.693zm2.539 0c.004-.266.077-.527.212-.756s.327-.419.557-.552c.731-.385.731.808-.769 1.308zm1.153 1.654a3.87 3.87 0 0 0 1.539 0c.846 0 .692-1.077 0-.924a4.63 4.63 0 0 0-1.539.924z"/></g><g class="I"><path d="M362.023 173.323c-1.5 2.5-6.539 2.269-11.27-.5s-7.385-7.155-5.885-9.655 6.539-2.308 11.27.5 7.385 7.116 5.885 9.655z"/><path d="M345.874 161.401l-1.038 1.755 17.179 10.168 1.038-1.754-17.179-10.169z"/></g><path d="M363.062 171.592c-1.5 2.5-6.539 2.269-11.27-.538s-7.385-7.116-5.885-9.501 6.539-2.27 11.27.538 7.385 7.155 5.885 9.501z" class="J"/><g class="I"><path d="M349.561 160.745a2.72 2.72 0 0 0-1.579.652c-.443.381-.753.894-.883 1.463 0 1.039 4.77 2.5 6.27 2.27s-2.039-4.616-3.808-4.385zm4 4.885a25.62 25.62 0 0 0-5.423-.231c-.731.308.769 2.231 2.539 3.5s4.461 3.077 4.384 1.193.27-4.232-1.5-4.462zm-.807-3.808c.384.769 1.5 2.077 1.769 2.654s1.192 1 2.154 0 1.154-1.731-.846-2.924-3.616-.73-3.077.27zm3.077 3.577c.915-.377 1.853-.698 2.808-.961.523.038 1.027.215 1.459.513a2.95 2.95 0 0 1 1.002 1.179c.77 1.231.962 2.231-.884 1.539l-3.847-1.347c-.846-.307-1.346-.538-.538-.923zm-.385 1.885c0-.616.423-.5 1.654 0s4.616 2 4.808 2.846 0 2-2.116 1.962-3.615-.347-3.846-1.808c-.082-1.013-.249-2.016-.5-3z"/></g><g class="J"><path d="M351.907 163.783s-1.038-1.192-1.577-.923-.077 1.192 1.577.923zm1.154 2.616s-1.577-.423-2 0 0 1.27.923 1.077a2 2 0 0 0 1.077-1.077zm.808.384c-.538.616-.654 1.924 0 1.693s0-1.693 0-1.693zm1.423-2.769s-1.192-1.423-.346-1.423.346 1.423.346 1.423zm1.693 1.885a1.57 1.57 0 0 1 1.461-.269c.77.307-.115 1.115-1.461.269zm-.347 1.884a3.42 3.42 0 0 0 .847 1.27c.654.538 1.269-.193.654-.654a4.04 4.04 0 0 0-1.501-.616z"/></g><g class="I"><path d="M354.408 161.552c-.462 2.885-5.231 4.578-10.655 3.847s-9.539-3.847-9.116-6.847 5.193-4.577 10.655-3.846 9.539 3.923 9.116 6.846z"/><path d="M334.916 156.518l-.306 2.016 19.736 2.999.306-2.016-19.736-2.999z"/></g><path d="M354.715 159.552c-.461 2.885-5.231 4.578-10.693 3.847s-9.5-3.847-9.039-6.732 5.193-4.577 10.655-3.846 9.5 3.808 9.077 6.731z" class="J"/><g class="I"><path d="M338.099 154.552a2.69 2.69 0 0 0-1.212 1.199c-.264.52-.351 1.112-.25 1.686.269 1 5.347.539 6.654-.269s-3.615-3.308-5.192-2.616zm5.539 3.154c-1.76.403-3.474.983-5.116 1.731-.577.539 1.538 1.769 3.654 2.308s5.269 1.192 4.539-.539-1.347-4.077-3.077-3.5zm-2.154-3.347c.653.539 2.192 1.347 2.654 1.808s1.461.462 2.038-.731.423-2-1.885-2.346-3.654.539-2.807 1.269zm4.231 2.27c.615-.461 1.769-1.731 2.269-1.961a3.11 3.11 0 0 1 2.923.654c1.116.884 1.693 1.692-.269 1.769h-3.846c-.616.115-1.693.077-1.077-.462zm.461 1.769c-.423-.5.192-.615 1.462-.692s5.077 0 5.539.846.615 1.885-1.193 2.577-3.5 1.039-4.192-.269a19.19 19.19 0 0 0-1.616-2.462z"/></g><g class="J"><path d="M341.445 156.475s-1.423-.692-1.808-.269.385 1.154 1.808.269zm2.039 2.039s-1.616 0-1.885.615.654 1.116 1.231.654c.364-.33.596-.781.654-1.269zm.73.077c-.269.769 0 2.038.808 1.538s-.808-1.538-.808-1.538zm.462-3.155s-1.654-.884-.846-1.192.846 1.192.846 1.192zm2.27 1.116c.115-.231.29-.428.506-.57a1.46 1.46 0 0 1 .724-.238c.847 0 .308 1.077-1.23.808zm.346 1.885c.373.368.818.656 1.307.846.77.269 1.077-.654.347-.846a4.26 4.26 0 0 0-1.654 0z"/></g><g class="H"><path d="M367.408 166.053c-.461 1.846-3.846 2.616-7.077 1.693s-5.885-3.116-5.385-4.962 3.846-2.578 7.116-1.693 5.846 3.154 5.346 4.962z"/><path d="M355.498 160.712l-.548 2.083 12.5 3.286.547-2.083-12.499-3.286z"/></g><path d="M367.985 163.976c-.5 1.846-3.846 2.577-7.115 1.692s-5.847-3.154-5.385-4.962 3.846-2.615 7.115-1.692 5.847 3.115 5.385 4.962z" class="R"/><g class="T"><path d="M361.831 161.552s-2.192-2.308-.308-2.385.308 2.385.308 2.385zm-1.423.655c-.425-.117-.87-.136-1.303-.056s-.842.257-1.197.517c-.577.693 2.231 1.885 2.5-.461zm3.654.73c.692.269 1.731.769 1.923 1.654s-2.846.5-1.923-1.654zm-2.308-.615a2.73 2.73 0 0 0-.5 1.885.77.77 0 0 0 1.5 0c.269-.885-1-1.885-1-1.885zm-1.769-1.116s-3.847.193-2.539-1.307 2.539 1.307 2.539 1.307zm3.192.346s1.308-1.461 2.231-.692 0 1.231-2.231.692z"/></g><g class="H"><path d="M342.33 165.399c.808 1.693-1.154 4.308-4.385 5.847s-6.501 1.346-7.308-.385 1.154-4.308 4.385-5.847 6.385-1.269 7.308.385z"/><path d="M341.251 163.517l-11.657 5.49.917 1.949 11.657-5.491-.917-1.948z"/></g><path d="M341.291 163.514c.808 1.692-1.154 4.308-4.385 5.847s-6.5 1.346-7.308-.347 1.154-4.346 4.385-5.885 6.5-1.346 7.308.385z" class="R"/><g class="T"><path d="M335.099 165.707s-3.154-.423-1.77-1.654 1.77 1.654 1.77 1.654zm-.77 1.307c-.615.347-1.577 1.039-1.577 1.962s2.885 0 1.577-1.962zm3.308-1.615c.384-.209.814-.318 1.25-.318a2.61 2.61 0 0 1 1.25.318c.693.385-1.654 2.077-2.5 0zm-2.192.847c.06.672.36 1.3.846 1.769.129.114.292.182.463.193s.342-.037.484-.134a.78.78 0 0 0 .298-.404.77.77 0 0 0-.014-.501c-.462-1-2.077-.923-2.077-.923zm-2.077.268s-2.924 2.654-2.77.616 2.77-.616 2.77-.616zm2.769-1.73s0-1.923 1.27-1.923.73.807-1.27 1.923z"/></g><g class="K"><use xlink:href="#B"/><path d="M345.638 173.707h-12.924v2.154h12.924v-2.154z"/></g><path d="M339.176 177.131c3.569 0 6.462-1.533 6.462-3.423s-2.893-3.424-6.462-3.424-6.462 1.533-6.462 3.424 2.893 3.423 6.462 3.423z" class="M"/><path d="M336.599 171.4s.461.769 0 1.308c-.724.474-1.535.801-2.385.961a21.12 21.12 0 0 1 3.231.616c.731.307 1.731 2.038 1.731 2.038s-.346-1.961.884-1.961a16.16 16.16 0 0 1 3.578.769s-2.501-1.654-1.693-2.231a7.04 7.04 0 0 0 1.154-.962l-3.269.5c-1.149-.061-2.262-.419-3.231-1.038z" class="Q"/><g class="K"><path d="M335.56 151.436c1.27 1.423 0 4.5-2.577 6.847s-5.846 3.115-7.116 1.692 0-4.5 2.577-6.847 5.885-3.115 7.116-1.692z"/><path d="M334.138 149.796l-9.699 8.542 1.423 1.617 9.699-8.542-1.423-1.617z"/></g><path d="M334.137 150.013c1.269 1.423 0 4.462-2.577 6.847s-5.847 3.116-7.116 1.692 0-4.5 2.577-6.846 5.847-3.308 7.116-1.693z" class="M"/><path d="M325.829 154.052s.885.269.885 1c-.237.823-.629 1.593-1.154 2.27.898-.613 1.836-1.165 2.807-1.654.902-.064 1.808.067 2.654.384 0 0-1.538-1.269-.615-2.077.977-.713 2.036-1.307 3.154-1.769 0 0-2.923.423-2.692-.577.051-.486.051-.976 0-1.462l-2.116 2.539c-.85.68-1.854 1.142-2.923 1.346z" class="Q"/><path d="M301.789 187.208h23.655l-2.923 12.809c-.5 2.385-4.27 4.27-8.924 4.27s-8.423-1.885-8.885-4.27l-2.923-12.809z" class="B"/><path d="M301.712 186.554c0 3.501 5.308 6.347 11.885 6.347s11.886-2.846 11.886-6.347-5.308-6.308-11.886-6.308-11.885 2.808-11.885 6.308z" class="N"/><g class="P"><path d="M303.173 186.554c0 2.962 4.654 5.347 10.424 5.347s10.462-2.385 10.462-5.347-4.808-5.308-10.462-5.308-10.424 2.385-10.424 5.308zm10.424 16.848c4.079 0 7.385-1.688 7.385-3.769s-3.306-3.77-7.385-3.77-7.385 1.688-7.385 3.77 3.307 3.769 7.385 3.769z"/></g><path d="M222.784 121.857h23.655l-2.923 12.77c-.5 2.423-4.27 4.308-8.924 4.308s-8.423-2.039-8.885-4.308l-2.923-12.77z" class="B"/><path d="M222.707 121.203c0 3.5 5.308 6.308 11.885 6.308s11.886-2.808 11.886-6.308-5.308-6.347-11.847-6.347-11.924 2.846-11.924 6.347z" class="N"/><g class="P"><path d="M224.168 121.203c0 2.923 4.654 5.308 10.424 5.308s10.462-2.385 10.462-5.308-4.692-5.347-10.424-5.347-10.462 2.385-10.462 5.347zm10.424 16.847c4.079 0 7.385-1.687 7.385-3.769s-3.306-3.77-7.385-3.77-7.385 1.688-7.385 3.77 3.306 3.769 7.385 3.769z"/></g><path d="M332.291 121.164h23.655l-2.923 12.732c-.5 2.424-4.27 4.308-8.924 4.308s-8.423-1.884-8.885-4.308l-2.923-12.732z" class="B"/><path d="M344.099 126.819c6.564 0 11.886-2.825 11.886-6.309s-5.322-6.308-11.886-6.308-11.885 2.824-11.885 6.308 5.321 6.309 11.885 6.309z" class="N"/><g class="P"><path d="M333.675 120.51c0 2.924 4.654 5.308 10.424 5.308s10.462-2.384 10.462-5.308-4.538-5.346-10.462-5.346-10.424 2.385-10.424 5.346zm3.077 13.04c0 2.077 3.308 3.846 7.386 3.846s7.385-1.692 7.385-3.846-3.308-3.847-7.385-3.847-7.386 1.77-7.386 3.847z"/></g><g class="B"><path d="M209.86 263.023c-1.385-10.77-2.577-20.078-16.617-11.962l-6.846 3.846-10.655 6.116-6.885 3.847c-14.001 8.231-15.001 19.04-16.616 31.31-1.27 11.539-4.155 43.927-4.155 44.273l2.808-1.769c0-.308 2.847-32.234 4.116-43.389 1.5-13.347 2.731-20.04 13.847-26.464l6.885-3.846 10.655-6.154 6.846-3.847c11.155-6.424 12.386-1.154 13.886 10.462 1.269 9.694 4.077 38.465 4.115 38.465l2.808-1.5c0-.384-2.885-29.618-4.192-39.388z"/><path d="M211.244 303.873l4.193 2.461s-.615-20.001-1.385-27.464-4.231-24.309-4.231-24.309l-1.692 1.346 3.115 47.966zm-58.965 39.042l-4.193-2.462 5.77-42.658c.923-5.654 3.846-18.963 3.846-18.963l4.655 1.154c-1.837 4.576-3.128 9.353-3.847 14.232l-6.231 48.697z"/></g><path d="M214.091 265.408c-1.385-10.77-2.616-20.079-16.617-12.001l-6.885 3.846-10.616 6.116-6.885 3.847c-14.001 8.077-15.386 18.771-16.616 31.156-1.27 11.232-4.154 43.812-4.193 44.158l2.808-1.769c0-.308 2.885-32.234 4.154-43.389 1.5-13.347 2.693-20.04 13.847-26.464l6.885-3.846 10.616-6.155 6.885-3.846c11.155-6.424 12.347-1.154 13.847 10.462 1.27 9.694 4.078 38.465 4.116 38.465l2.846-1.5c-.038 0-2.884-29.233-4.192-39.08z" class="G"/><path d="M209.167 247.291l-41.118 23.733c-14.847 8.577-20.193 7.693-24.963-3.847-4.423-10.655-17.501-45.158-19.617-50.889l5.155-2.962c0 .346 14.308 38.465 18.655 48.928 3.846 9.693 7.693 10.154 20.77 2.577l41.118-23.733v6.193z" class="C"/><g class="B"><path d="M224.784 280.794l-7.232 4.154-6.885 3.846c-14 8.078-15.385 18.771-16.616 31.157-1.269 11.27-4.154 43.85-4.193 44.158l2.847-1.731c0-.346 2.846-32.234 4.115-43.427 1.5-13.309 2.731-20.002 13.847-26.425l6.885-3.847 8.463-4.885c-.424-.846-.847-1.846-1.231-3z"/><path d="M194.089 366.84l-4.231-2.462 5.693-42.658c.808-5.654 3.846-18.963 3.846-18.963l4.655 1.154c-1.837 4.576-3.128 9.353-3.847 14.232l-6.116 48.697z"/></g><path d="M225.053 285.679l-3.27 1.885-6.885 3.846c-14.001 8.078-15.385 18.771-16.616 31.157-1.269 11.27-4.154 43.85-4.193 44.157l2.808-1.731c0-.346 2.885-32.233 4.116-43.427 1.538-13.308 2.731-20.001 13.885-26.425l6.885-3.846 4.231-2.424c-.374-1.047-.695-2.113-.961-3.192z" class="G"/><path d="M262.325 271.716l-53.158-30.772-26.924 15.386s14.539 43.619 20.386 45.196c15.616 4.424 59.696-29.81 59.696-29.81z" class="F"/><g class="D"><path d="M282.21 291.14c-2.346-1.461-14.154 5.424-14.154 5.424l-16.348 5.462 1.27 12.309c1.824 1.782 4.233 2.842 6.779 2.983a10.54 10.54 0 0 0 7.068-2.214c4.769-3.231 13.193-8.27 15.885-13.732s1.924-8.77-.5-10.232zm-39.887-31.04c4.539 2.808 13.194 8.116 19.848 11.539-.539-2.538-1.769-24.54-2.116-25.733-3.077-10.078-5.538-14.193-12.077-16.809-3.847-1.538-12.732-.308-21.963 1.693a37.77 37.77 0 0 0 4.769 24.809l9.116-4.961c1.073 3.08 1.884 6.245 2.423 9.462z"/><path d="M265.402 272.6c-6.347 3.847-12.847 7.693-19.424 11.309a2.89 2.89 0 0 0 .192.731l.923 16.232a16.01 16.01 0 0 0 7.388 3.17c2.693.41 5.445.127 7.998-.824 2.241-.68 4.146-2.175 5.342-4.189s1.595-4.403 1.12-6.696l-3.539-19.733zm35.31 29.58c-2.347-1.461-14.155 5.539-14.155 5.539l-16.347 5.385 1.269 12.271a10.5 10.5 0 0 0 6.771 3.015c2.549.149 5.064-.636 7.076-2.208 4.77-3.231 13.193-8.27 15.886-13.77s1.808-8.77-.5-10.232z"/></g><path d="M191.666 165.629c-5.462 4.693-15.732 29.503-17.539 32.888s-6.693 10.539.269 16.463c5.731 4.847 12.731-5.962 14.962-9.809 2.962-4.885 10.655-19.886 10.655-19.886l4.423-21.502a13.73 13.73 0 0 0-6.615-.67 13.74 13.74 0 0 0-6.155 2.516z" fill="#c10025"/><path d="M219.245 126.934c-1.51-.864-3.187-1.396-4.918-1.56s-3.479.042-5.124.606a12.23 12.23 0 0 0-7.344 6.916c-2.154 4.539.885 16.694 1.346 25.233.351 3.723-.313 7.472-1.923 10.847l5.924 2.423c3.888 1.418 8.151 1.418 12.039 0v-10.501a27.17 27.17 0 0 0 7.462-1.961c2.654-2.462 4.077-9.77 2.846-19.233-1.846-13.847-8.423-11.462-10.308-12.77z" class="E"/><path d="M278.71 257.061c-3.077-10.116-5.538-14.193-12.077-16.809-9.424-3.847-49.311 9.078-49.311 9.078l-28.848 1.5s-1.5 11.539 6.769 17.617 27.887 11.847 42.311 4.423l20.732-11.155c1.215 2.996 2.142 6.1 2.769 9.27 0 .577 1.347.731 1.347.731-.195 2.047-.195 4.108 0 6.155 1.107 5.85 1.89 11.757 2.346 17.693l.923 16.233c2.155 1.665 4.698 2.754 7.389 3.164s5.444.129 7.997-.818a9.38 9.38 0 0 0 6.577-10.77s-6.847-39.042-8.924-46.312z" class="O"/><path d="M235.361 202.441c3.462-7.462-4.423-20.963-6.654-25.81a20 20 0 0 0-9.308-7.693l-21.54-3.193s-9.385 16.387-10.655 26.157c-.636 12.287-.636 24.6 0 36.887.27 11.54-6.577 19.002-1.577 24.156 7.693 7.693 24.848 13.194 34.618 10.617 5.77-1.577 9.731-7.693 13.616-12.271s6.462-17.809 1-23.078c-.615 0-6.616-10.578.5-25.772z" class="I"/><path d="M219.245 165.822s-8.616 2.539-13.693-1.423c-7.193-5.578-7.962 2.308-7.962 2.308 2.359 2.868 5.498 4.993 9.039 6.116a21.81 21.81 0 0 0 8.794 1.123 21.79 21.79 0 0 0 8.514-2.47c.116-3.885-4.692-5.654-4.692-5.654z" class="B"/><path d="M277.633 201.941c-3.846 2.346-2.692 5.308-5.654 5.731-8.479 1.323-16.868 3.173-25.117 5.539 0 0-13.116-35.926-19.924-36.58-3.462-.308-7.078 6-6.731 13.886.577 10.116 22.116 33.81 22.116 33.81 7.078 4.193 28.079-8.808 33.195-9.424a26.15 26.15 0 0 0 14.424-8.423c2.385-3.231-7.424-7.655-12.309-4.539z" class="E"/><path d="M272.056 206.672c-1.115.346-4.539 1.038-4.539 1.038l3.077 10.847a21.99 21.99 0 0 0 7.693-4.346c1.5-2.116-2.654-8.732-6.231-7.539z" class="B"/><path d="M268.21 207.018c-5.039-.923-17.732 3.846-17.732 3.846s-11.539-31.541-24.886-36.003c-3.654-1.231-7.693 7.693-6.501 16.848.962 7.693 8.193 19.232 12.424 25.887 2.462 3.846 8.116 12.385 16.386 10.308 10.924-2.731 19.616-3.308 25.078-8.116 3.577-3.077 4.808-11.039-4.769-12.77z" fill="#c10025"/><path d="M221.322 144.705c.231.615 3.846-.385 3.846-1.116.731-2.346 2.308-7.693 2.731-10.039a10.65 10.65 0 0 0-.148-5.356c-.505-1.744-1.447-3.329-2.737-4.607-3.5-3.846-15.616-4.808-20.001-2.269s-13.693 7.154-10.462 22.271c2.654 12.193 5.193 13.578 8.885 16.425a20.82 20.82 0 0 0 8.924 3.154 10.62 10.62 0 0 0 3.846-6.924v-5.885s-3.231-6.385-.731-8.655 5.231 1.424 5.847 3.001z" class="D"/><g class="B"><path d="M250.824 281.178l-1.962 1.615c-.248.201-.536.346-.846.424l.923 5.923c1.27 9.732 4.077 38.465 4.077 38.465l2.847-1.462c0-.307-2.923-29.541-4.193-39.349-.269-1.846-.5-3.808-.846-5.616z"/><path d="M251.978 280.216l-1.885 1.577 2.923 45.966 4.231 2.462s-.615-19.964-1.384-27.464c-.616-6.001-2.962-18.117-3.885-22.541z"/></g><path d="M255.901 289.41c-.261-3.607-.946-7.17-2.039-10.617l-2.846 2.385c1.261 3.346 2.025 6.858 2.269 10.424 1.27 9.732 4.078 38.465 4.116 38.465l2.846-1.461c-.192-.154-3.077-29.388-4.346-39.196z" class="G"/><path d="M148.933 275.601l53.849 31.041-15.385-39.234c-3.847-9.386-9.193-23.502-9.193-23.502l-51.965-27.81 22.694 59.505z" class="C"/><path d="M262.325 277.832l-41.08 23.732c-14.847 8.578-20.232 7.693-24.963-3.846-4.424-10.693-17.54-45.158-19.655-50.928l5.154-2.961c0 .384 14.309 38.465 18.693 48.965 3.847 9.655 7.693 10.117 20.771 2.539l41.08-23.617v6.116z" class="L"/><path d="M128.624 213.365l-5.155 2.962 53.158 30.541 5.154-2.962-53.157-30.541z" class="F"/></g><defs><clipPath id="A"><path d="M0 0h595v440H0z" class="B"/></clipPath><path id="B" d="M339.176 179.285c3.569 0 6.462-1.533 6.462-3.423s-2.893-3.424-6.462-3.424-6.462 1.533-6.462 3.424 2.893 3.423 6.462 3.423z"/></defs></svg>