<svg xmlns="http://www.w3.org/2000/svg" width="30" height="29" fill="none"  xmlns:v="https://vecta.io/nano"><path d="M29.405 6.508L23.492.595c-.821-.821-2.165-.79-2.945.081l-5.618 6.271a2.03 2.03 0 0 0 .077 2.788l5.26 5.26a2.03 2.03 0 0 0 2.788.076l6.272-5.618a2.03 2.03 0 0 0 .081-2.945zm-.779 2.167l-6.271 5.618c-.389.348-.982.332-1.351-.037l-5.26-5.26c-.369-.369-.385-.962-.037-1.351l5.618-6.271c.381-.425 1.033-.433 1.427-.039l5.913 5.913a.98.98 0 0 1-.039 1.427zm-3.953-2.609l-4.348 4.348c-.204.204-.535.204-.739 0s-.204-.535 0-.739l4.348-4.348c.204-.204.535-.204.739 0s.204.535 0 .739zM22.456 4.38L18.64 8.195c-.204.204-.535.204-.739 0s-.204-.535 0-.739l3.815-3.815c.204-.204.535-.204.739 0s.204.535 0 .739zm3.904 3.165c.204.204.204.535 0 .739l-3.815 3.815a.52.52 0 0 1-.37.153c-.462 0-.7-.562-.37-.893l3.815-3.815c.204-.204.535-.204.739 0zm-10.329 5.685l-3.794 3.794c-.878-.878-2.07-.77-2.775-.064l-6.901 6.901a1.92 1.92 0 0 0 0 2.711l.868.868c.749.749 1.962.749 2.711 0l6.901-6.901c.685-.685.832-1.879-.064-2.775l3.794-3.794c.204-.204.204-.535 0-.739s-.535-.204-.739 0zm-3.73 6.57L5.4 26.7a.87.87 0 0 1-1.232 0l-.868-.867c-.34-.34-.34-.893 0-1.232l6.901-6.901a.87.87 0 0 1 1.232 0l.867.867c.34.34.34.893 0 1.232z" fill="#000" fill-opacity=".2"/><path d="M27.405 6.508L21.492.595c-.821-.821-2.165-.79-2.945.081l-5.618 6.271a2.03 2.03 0 0 0 .077 2.788l5.26 5.26a2.03 2.03 0 0 0 2.788.076l6.272-5.618a2.03 2.03 0 0 0 .081-2.945zm-.779 2.167l-6.271 5.618c-.389.348-.982.332-1.351-.037l-5.26-5.26c-.369-.369-.385-.962-.037-1.351l5.618-6.271c.381-.425 1.033-.433 1.427-.039l5.913 5.913a.98.98 0 0 1-.039 1.427zm-3.953-2.609l-4.348 4.348c-.204.204-.535.204-.739 0s-.204-.535 0-.739l4.348-4.348c.204-.204.535-.204.739 0s.204.535 0 .739zM20.456 4.38L16.64 8.195c-.204.204-.535.204-.739 0s-.204-.535 0-.739l3.815-3.815c.204-.204.535-.204.739 0s.204.535 0 .739zm3.904 3.165c.204.204.204.535 0 .739l-3.815 3.815a.52.52 0 0 1-.37.153c-.462 0-.7-.562-.37-.893l3.815-3.815c.204-.204.535-.204.739 0zm-10.329 5.685l-3.794 3.794c-.878-.878-2.07-.77-2.775-.064L.561 23.861a1.92 1.92 0 0 0 0 2.711l.868.868c.749.749 1.962.749 2.711 0l6.901-6.901c.685-.685.832-1.879-.064-2.775l3.794-3.794c.204-.204.204-.535 0-.739s-.535-.204-.739 0zm-3.73 6.57L3.4 26.7a.87.87 0 0 1-1.232 0l-.868-.867c-.34-.34-.34-.893 0-1.232l6.901-6.901a.87.87 0 0 1 1.232 0l.867.867c.34.34.34.893 0 1.232z" fill="#fff"/></svg>