<svg width="30" height="29" viewBox="0 0 30 29" fill="none" xmlns="http://www.w3.org/2000/svg">
<path d="M29.4052 6.50826L23.4918 0.594873C22.6708 -0.226111 21.3269 -0.195612 20.5464 0.675798L14.9281 6.94727C14.2096 7.74932 14.2433 8.97394 15.0047 9.73532L20.2648 14.9954C21.0262 15.7568 22.251 15.7903 23.0528 15.0719L29.3244 9.45368C30.1889 8.67917 30.2323 7.33546 29.4052 6.50826ZM28.6266 8.67487L22.3551 14.2931C21.9665 14.6411 21.373 14.6249 21.0041 14.256L15.7441 8.99584C15.3751 8.62695 15.3589 8.03357 15.707 7.64492L21.3252 1.37345C21.7063 0.948142 22.3581 0.939951 22.7524 1.33429L28.6657 7.24768C29.0644 7.64626 29.0479 8.29738 28.6266 8.67487ZM24.6739 6.06558L20.3261 10.4133C20.1219 10.6175 19.7909 10.6175 19.5867 10.4133C19.3825 10.2091 19.3825 9.87806 19.5867 9.67386L23.9345 5.3261C24.1387 5.12196 24.4697 5.12196 24.6739 5.3261C24.8781 5.5303 24.8781 5.86138 24.6739 6.06558ZM22.4557 4.3797L18.6403 8.19507C18.436 8.39927 18.1051 8.39922 17.9009 8.19507C17.6967 7.99087 17.6967 7.6598 17.9009 7.4556L21.7163 3.64022C21.9205 3.43607 22.2515 3.43607 22.4557 3.64022C22.6599 3.84442 22.6599 4.17555 22.4557 4.3797ZM26.3598 7.54436C26.564 7.74856 26.564 8.07964 26.3598 8.28384L22.5444 12.0992C22.4423 12.2013 22.3085 12.2524 22.1747 12.2524C21.7131 12.2524 21.4746 11.6901 21.805 11.3598L25.6203 7.54442C25.8245 7.34022 26.1556 7.34022 26.3598 7.54436ZM16.0312 13.2294L12.237 17.0236C11.3594 16.146 10.1673 16.2539 9.46174 16.9595L2.56058 23.8607C1.81314 24.6082 1.81314 25.8244 2.56058 26.5719L3.4281 27.4395C4.17751 28.1889 5.39004 28.1888 6.13928 27.4395L13.0404 20.5384C13.7256 19.8531 13.8726 18.6593 12.9764 17.7631L16.7706 13.9689C16.9748 13.7647 16.9748 13.4336 16.7706 13.2294C16.5665 13.0252 16.2354 13.0252 16.0312 13.2294ZM12.3011 19.7989L5.39992 26.7C5.05937 27.0407 4.50818 27.0408 4.16757 26.7L3.3 25.8325C2.96021 25.4927 2.96021 24.9399 3.3 24.6001L10.2012 17.699C10.5416 17.3584 11.0929 17.3582 11.4335 17.699L12.301 18.5665C12.6409 18.9063 12.6409 19.4591 12.3011 19.7989Z" fill="black" fill-opacity="0.2"/>
<path d="M27.4052 6.50826L21.4918 0.594873C20.6708 -0.226111 19.3269 -0.195612 18.5464 0.675798L12.9281 6.94727C12.2096 7.74932 12.2433 8.97394 13.0047 9.73532L18.2648 14.9954C19.0262 15.7568 20.251 15.7903 21.0528 15.0719L27.3244 9.45368C28.1889 8.67917 28.2323 7.33546 27.4052 6.50826ZM26.6266 8.67487L20.3551 14.2931C19.9665 14.6411 19.373 14.6249 19.0041 14.256L13.7441 8.99584C13.3751 8.62695 13.3589 8.03357 13.707 7.64492L19.3252 1.37345C19.7063 0.948142 20.3581 0.939951 20.7524 1.33429L26.6657 7.24768C27.0644 7.64626 27.0479 8.29738 26.6266 8.67487ZM22.6739 6.06558L18.3261 10.4133C18.1219 10.6175 17.7909 10.6175 17.5867 10.4133C17.3825 10.2091 17.3825 9.87806 17.5867 9.67386L21.9345 5.3261C22.1387 5.12196 22.4697 5.12196 22.6739 5.3261C22.8781 5.5303 22.8781 5.86138 22.6739 6.06558ZM20.4557 4.3797L16.6403 8.19507C16.436 8.39927 16.1051 8.39922 15.9009 8.19507C15.6967 7.99087 15.6967 7.6598 15.9009 7.4556L19.7163 3.64022C19.9205 3.43607 20.2515 3.43607 20.4557 3.64022C20.6599 3.84442 20.6599 4.17555 20.4557 4.3797ZM24.3598 7.54436C24.564 7.74856 24.564 8.07964 24.3598 8.28384L20.5444 12.0992C20.4423 12.2013 20.3085 12.2524 20.1747 12.2524C19.7131 12.2524 19.4746 11.6901 19.805 11.3598L23.6203 7.54442C23.8245 7.34022 24.1556 7.34022 24.3598 7.54436ZM14.0312 13.2294L10.237 17.0236C9.35943 16.146 8.16735 16.2539 7.46174 16.9595L0.560578 23.8607C-0.186859 24.6082 -0.186859 25.8244 0.560578 26.5719L1.4281 27.4395C2.17751 28.1889 3.39004 28.1888 4.13928 27.4395L11.0404 20.5384C11.7256 19.8531 11.8726 18.6593 10.9764 17.7631L14.7706 13.9689C14.9748 13.7647 14.9748 13.4336 14.7706 13.2294C14.5665 13.0252 14.2354 13.0252 14.0312 13.2294ZM10.3011 19.7989L3.39992 26.7C3.05937 27.0407 2.50818 27.0408 2.16757 26.7L1.3 25.8325C0.960206 25.4927 0.960206 24.9399 1.3 24.6001L8.20116 17.699C8.54164 17.3584 9.0929 17.3582 9.4335 17.699L10.301 18.5665C10.6409 18.9063 10.6409 19.4591 10.3011 19.7989Z" fill="white"/>
</svg>
