<svg width="104" height="140" viewBox="0 0 104 140" fill="none" xmlns="http://www.w3.org/2000/svg">
<path d="M50.492 99.5618C50.492 96.2018 50.876 92.9138 51.644 89.6978C52.46 86.4338 53.588 83.3618 55.028 80.4818C56.468 77.5538 58.172 74.8898 60.14 72.4898C62.156 70.0418 64.34 67.9298 66.692 66.1538C69.092 64.3778 71.636 63.0098 74.324 62.0498C77.012 61.0418 79.772 60.5378 82.604 60.5378C85.916 60.5378 88.484 61.2338 90.308 62.6258C92.18 64.0178 93.116 65.9618 93.116 68.4578C93.116 69.4178 92.972 70.4018 92.684 71.4098C92.444 72.4178 92.06 73.4258 91.532 74.4338C91.052 75.3938 90.476 76.3298 89.804 77.2418C89.132 78.1538 88.388 78.9458 87.572 79.6178C86.324 79.4258 85.244 78.8738 84.332 77.9618C83.42 77.0018 82.844 75.8978 82.604 74.6498C84.284 73.2578 85.604 71.8178 86.564 70.3298C87.572 68.7938 88.076 67.4018 88.076 66.1538C88.076 64.0418 86.756 62.9858 84.116 62.9858C83.012 62.9858 81.86 63.2258 80.66 63.7058C79.508 64.1378 78.332 64.7618 77.132 65.5778C75.932 66.3938 74.756 67.3778 73.604 68.5298C72.5 69.6818 71.468 70.9538 70.508 72.3458C63.836 81.9458 60.5 91.7618 60.5 101.794C60.5 105.346 61.052 108.202 62.156 110.362C63.26 112.522 64.724 113.794 66.548 114.178C68.612 113.698 71.228 112.378 74.396 110.218C77.564 108.058 81.02 105.25 84.764 101.794C85.244 102.274 85.532 102.778 85.628 103.306C84.236 105.13 82.796 106.882 81.308 108.562C79.82 110.242 78.332 111.778 76.844 113.17C75.404 114.562 73.964 115.786 72.524 116.842C71.132 117.898 69.836 118.714 68.636 119.29C62.684 119.194 58.172 117.49 55.1 114.178C52.028 110.866 50.492 105.994 50.492 99.5618Z" fill="black"/>
<path d="M79.541 43.0741C78.7679 44.5187 77.7268 45.8029 76.4734 46.8582L76.3722 46.9339L86.3442 60.2776L86.2582 60.3419C84.0453 59.7286 82.4336 59.7218 81.266 60.3419C69.768 63.1738 71.9848 66.0383 67.0453 69.7286C63.3203 72.5084 61.0453 74.7286 56.4528 81.0141C54.357 82.9513 52.3064 85.0442 50.3543 87.1738L40.4163 73.8757C40.4163 73.8757 40.3822 73.8302 40.338 73.8238C39.8897 73.4879 38.7163 73.5125 38.7163 73.5125L37.5981 74.5296C30.1337 80.108 19.3325 77.6517 15.268 69.2771C13.5041 65.639 13.3693 61.6357 15.5487 58.9336C23.0332 49.6861 29.3727 42.3914 32.5375 32.0314C35.3096 22.8567 45.257 9.97703 66.2006 10.5439C83.7039 11.038 85.4218 32.6416 79.541 43.0741Z" fill="white"/>
<path d="M79.7642 43.5181C78.9248 45.0992 77.7593 46.4841 76.3447 47.581C77.4265 45.6282 81.0937 39.4782 77.178 30.574C77.178 30.574 74.6014 40.739 71.0191 42.3981C71.0191 42.3981 71.8762 37.3142 67.6315 26.3434C67.6674 26.8139 68.9945 41.8433 61.3436 48.5555C61.3436 48.5555 65.0229 36.7929 53.5501 27.0805C53.5501 27.0805 59.5873 56.0161 50.8601 51.0865C44.4369 47.4657 44.0042 47.6154 43.9789 47.6343C43.9536 47.6533 52.5895 57.1181 47.549 56.8047C44.1672 56.5824 40.8021 56.1531 37.4728 55.5193C37.4728 55.5193 39.3037 59.8807 45.4543 61.014C45.4543 61.014 33.2901 71.7936 23.4336 66.2716C23.4336 66.2716 29.2284 75.0816 39.7877 68.8713C39.7877 68.8713 36.2822 73.6852 32.9661 73.4721C32.9661 73.4721 34.6474 75.1516 38.9585 73.9502L37.8403 74.9674C35.1875 76.9623 31.9454 78.0161 28.6266 77.9621C25.886 77.9522 23.2029 77.175 20.8814 75.7185C18.5598 74.262 16.6925 72.1844 15.4912 69.7211C13.7273 66.083 13.5925 62.0797 15.7719 59.3777C23.2564 50.1301 29.5959 42.8354 32.7607 32.4754C34.2843 27.619 37.04 23.2401 40.7595 19.7656C46.2671 14.6315 54.5682 10.6693 66.3732 10.9942C83.9271 11.482 85.645 33.0856 79.7642 43.5181Z" fill="white"/>
<path d="M40.7585 19.7663C40.8361 22.4786 41.0893 26.6932 34.5366 40.3664C27.6756 54.6725 7.88809 62.7281 28.6106 77.9426C25.8747 77.9317 23.1963 77.1562 20.8778 75.7036C18.5594 74.2509 16.6933 72.179 15.4902 69.7218C13.7263 66.0837 13.5916 62.0804 15.7709 59.3784C23.2555 50.1309 29.595 42.8361 32.7598 32.4761C34.2833 27.6197 37.0391 23.2408 40.7585 19.7663Z" fill="#E2E3E5"/>
<path d="M71.0194 42.3899C71.0194 42.3899 71.8765 37.3061 67.6318 26.3353C67.6677 26.8057 68.9948 41.8352 61.3439 48.5474C61.3439 48.5474 65.0232 36.7848 53.5504 27.0724C53.5504 27.0724 59.5876 56.008 50.8604 51.0784C44.4372 47.4576 44.0045 47.6073 43.9792 47.6262C43.9539 47.6451 52.5898 57.1099 47.5493 56.7966C44.1672 56.5772 40.8018 56.1509 37.4718 55.52C37.4718 55.52 39.3028 59.8815 45.4533 61.0148C45.4533 61.0148 33.2892 71.7943 23.4326 66.2723C23.4326 66.2723 29.2274 75.0823 39.7868 68.8721C39.7868 68.8721 36.2813 73.6859 32.9651 73.4728C32.9651 73.4728 34.6464 75.1523 38.9575 73.9509C38.9575 73.9509 40.1309 73.9264 40.5792 74.2622C40.5792 74.2622 40.617 74.3128 40.6575 74.3142L50.5917 87.6072C52.5438 85.4776 54.5665 83.4213 56.6739 81.4361C54.3853 77.7718 52.4418 73.4076 52.8132 69.9337C53.5716 62.6585 63.0882 53.2892 71.465 51.6776C72.5038 51.4688 73.5805 51.5583 74.5706 51.9356C75.5607 52.313 76.4237 52.9629 77.0601 53.8101C79.1716 56.612 79.9994 57.6437 81.768 60.6738C82.939 60.0512 83.768 59.6738 86.4349 60.7575L86.521 60.6932L76.583 47.395L76.7096 47.3004C77.86 45.2174 80.9843 39.2916 77.177 30.5747C77.1631 30.5772 74.5865 40.7422 71.0194 42.3899Z" fill="#E2E3E5"/>
<path d="M85.382 59.1373L87.268 61.1738C84.268 60.6738 83.268 60.6738 82.268 60.6738C77.6582 60.6738 75.3941 61.5477 66.768 70.1738C61.768 75.1738 60.1765 77.1738 56.6751 81.4588C54.9819 83.531 54.268 84.6738 51.768 89.1738L49.3617 85.993C55.2806 79.1704 72.268 53.6738 85.382 59.1373Z" fill="#E2E3E5"/>
</svg>
