<svg width="391" height="141" viewBox="0 0 391 141" fill="none" xmlns="http://www.w3.org/2000/svg">
<path d="M50.492 99.5618C50.492 96.2018 50.876 92.9138 51.644 89.6978C52.46 86.4338 53.588 83.3618 55.028 80.4818C56.468 77.5538 58.172 74.8898 60.14 72.4898C62.156 70.0418 64.34 67.9298 66.692 66.1538C69.092 64.3778 71.636 63.0098 74.324 62.0498C77.012 61.0418 79.772 60.5378 82.604 60.5378C85.916 60.5378 88.484 61.2338 90.308 62.6258C92.18 64.0178 93.116 65.9618 93.116 68.4578C93.116 69.4178 92.972 70.4018 92.684 71.4098C92.444 72.4178 92.06 73.4258 91.532 74.4338C91.052 75.3938 90.476 76.3298 89.804 77.2418C89.132 78.1538 88.388 78.9458 87.572 79.6178C86.324 79.4258 85.244 78.8738 84.332 77.9618C83.42 77.0018 82.844 75.8978 82.604 74.6498C84.284 73.2578 85.604 71.8178 86.564 70.3298C87.572 68.7938 88.076 67.4018 88.076 66.1538C88.076 64.0418 86.756 62.9858 84.116 62.9858C83.012 62.9858 81.86 63.2258 80.66 63.7058C79.508 64.1378 78.332 64.7618 77.132 65.5778C75.932 66.3938 74.756 67.3778 73.604 68.5298C72.5 69.6818 71.468 70.9538 70.508 72.3458C63.836 81.9458 60.5 91.7618 60.5 101.794C60.5 105.346 61.052 108.202 62.156 110.362C63.26 112.522 64.724 113.794 66.548 114.178C68.612 113.698 71.228 112.378 74.396 110.218C77.564 108.058 81.02 105.25 84.764 101.794C85.244 102.274 85.532 102.778 85.628 103.306C84.236 105.13 82.796 106.882 81.308 108.562C79.82 110.242 78.332 111.778 76.844 113.17C75.404 114.562 73.964 115.786 72.524 116.842C71.132 117.898 69.836 118.714 68.636 119.29C62.684 119.194 58.172 117.49 55.1 114.178C52.028 110.866 50.492 105.994 50.492 99.5618ZM98.8495 116.194C96.1135 115.906 93.9295 114.706 92.2975 112.594C90.6655 110.482 89.8495 107.794 89.8495 104.53C89.8495 102.61 90.1375 100.618 90.7135 98.5538C91.2895 96.4898 92.1055 94.4978 93.1615 92.5778C94.2175 90.6098 95.4655 88.7618 96.9055 87.0338C98.3455 85.3058 99.9055 83.8178 101.586 82.5698C104.226 80.6018 106.698 79.6178 109.002 79.6178C110.538 80.4338 112.05 82.1378 113.538 84.7298C113.778 84.7298 113.994 84.7298 114.186 84.7298C114.378 84.6818 114.594 84.6578 114.834 84.6578C117.378 84.6578 118.65 86.9138 118.65 91.4258C118.65 94.4498 118.146 97.3298 117.138 100.066C116.178 102.754 114.81 105.202 113.034 107.41C111.306 109.618 109.218 111.49 106.77 113.026C104.37 114.514 101.73 115.57 98.8495 116.194ZM102.522 93.5138C101.706 94.6178 100.938 95.8178 100.218 97.1138C99.4975 98.4098 98.8735 99.7298 98.3455 101.074C97.8175 102.37 97.4095 103.642 97.1215 104.89C96.8335 106.09 96.6895 107.17 96.6895 108.13C96.6895 109.282 96.8815 110.386 97.2655 111.442C97.6495 112.498 98.0815 113.098 98.5615 113.242C100.722 112.762 102.69 111.874 104.466 110.578C106.29 109.234 107.85 107.578 109.146 105.61C110.49 103.642 111.522 101.41 112.242 98.9138C113.01 96.4178 113.394 93.7538 113.394 90.9218C113.394 89.6738 113.322 88.6898 113.178 87.9698C113.034 87.2498 112.794 86.6258 112.458 86.0978C110.346 86.7218 108.45 87.7298 106.77 89.1218C105.138 90.5138 103.722 91.9778 102.522 93.5138ZM130.631 116.194C127.895 115.906 125.711 114.706 124.079 112.594C122.447 110.482 121.631 107.794 121.631 104.53C121.631 102.61 121.919 100.618 122.495 98.5538C123.071 96.4898 123.887 94.4978 124.943 92.5778C125.999 90.6098 127.247 88.7618 128.687 87.0338C130.127 85.3058 131.687 83.8178 133.367 82.5698C136.007 80.6018 138.479 79.6178 140.783 79.6178C142.319 80.4338 143.831 82.1378 145.319 84.7298C145.559 84.7298 145.775 84.7298 145.967 84.7298C146.159 84.6818 146.375 84.6578 146.615 84.6578C149.159 84.6578 150.431 86.9138 150.431 91.4258C150.431 94.4498 149.927 97.3298 148.919 100.066C147.959 102.754 146.591 105.202 144.815 107.41C143.087 109.618 140.999 111.49 138.551 113.026C136.151 114.514 133.511 115.57 130.631 116.194ZM134.303 93.5138C133.487 94.6178 132.719 95.8178 131.999 97.1138C131.279 98.4098 130.655 99.7298 130.127 101.074C129.599 102.37 129.191 103.642 128.903 104.89C128.615 106.09 128.471 107.17 128.471 108.13C128.471 109.282 128.663 110.386 129.047 111.442C129.431 112.498 129.863 113.098 130.343 113.242C132.503 112.762 134.471 111.874 136.247 110.578C138.071 109.234 139.631 107.578 140.927 105.61C142.271 103.642 143.303 101.41 144.023 98.9138C144.791 96.4178 145.175 93.7538 145.175 90.9218C145.175 89.6738 145.103 88.6898 144.959 87.9698C144.815 87.2498 144.575 86.6258 144.239 86.0978C142.127 86.7218 140.231 87.7298 138.551 89.1218C136.919 90.5138 135.503 91.9778 134.303 93.5138ZM154.06 106.906C154.06 105.178 154.492 102.778 155.356 99.7058C156.268 96.6338 157.444 93.2738 158.884 89.6258C160.324 85.9778 161.956 82.2098 163.78 78.3218C165.604 74.4338 167.428 70.8098 169.252 67.4498C171.124 64.0898 172.9 61.1858 174.58 58.7378C176.308 56.2898 177.772 54.6338 178.972 53.7698C179.644 53.8178 180.364 54.1058 181.132 54.6338C181.948 55.1618 182.692 55.8098 183.364 56.5778C184.036 57.2978 184.588 58.0658 185.02 58.8818C185.5 59.6978 185.74 60.4418 185.74 61.1138C183.58 62.8418 181.372 65.0738 179.116 67.8098C176.908 70.4978 174.796 73.4738 172.78 76.7378C170.764 79.9538 168.892 83.3858 167.164 87.0338C165.484 90.6338 164.068 94.1858 162.916 97.6898C164.452 95.0498 166.06 92.6498 167.74 90.4898C169.42 88.3298 171.1 86.4818 172.78 84.9458C174.46 83.4098 176.092 82.2338 177.676 81.4178C179.308 80.5538 180.844 80.0978 182.284 80.0498C184.396 81.5858 185.452 83.6258 185.452 86.1698C185.452 87.7058 185.14 89.2658 184.516 90.8498C183.892 92.3858 183.052 93.8258 181.996 95.1698C180.988 96.4658 179.812 97.5938 178.468 98.5538C177.172 99.4658 175.804 100.066 174.364 100.354C174.844 102.034 175.444 103.738 176.164 105.466C176.932 107.194 177.82 108.874 178.828 110.506C179.884 112.138 181.06 113.65 182.356 115.042C183.7 116.434 185.212 117.61 186.892 118.57C186.652 119.05 186.292 119.53 185.812 120.01C185.332 120.49 184.756 120.898 184.084 121.234C183.412 121.618 182.668 121.906 181.852 122.098C181.084 122.338 180.316 122.458 179.548 122.458C178.252 122.458 177.028 121.81 175.876 120.514C174.772 119.218 173.764 117.346 172.852 114.898C172.132 112.93 171.436 110.578 170.764 107.842C170.092 105.106 169.492 102.25 168.964 99.2738C169.636 98.8418 170.476 98.2178 171.484 97.4018C172.492 96.5378 173.548 95.5538 174.652 94.4498C178.876 90.3698 180.988 86.8418 180.988 83.8658C180.988 83.4818 180.724 83.2898 180.196 83.2898C179.236 83.3378 178.108 83.7938 176.812 84.6578C175.516 85.5218 174.124 86.7218 172.636 88.2578C171.196 89.7938 169.708 91.5938 168.172 93.6578C166.684 95.7218 165.244 97.9538 163.852 100.354C163.276 101.314 162.748 102.418 162.268 103.666C161.788 104.914 161.356 106.21 160.972 107.554C160.636 108.85 160.372 110.146 160.18 111.442C159.988 112.738 159.892 113.938 159.892 115.042C159.892 115.714 159.964 116.266 160.108 116.698C158.62 116.554 157.708 116.17 157.372 115.546C156.988 114.97 156.652 114.49 156.364 114.106C156.124 113.77 155.86 113.482 155.572 113.242C155.14 112.906 154.78 112.186 154.492 111.082C154.204 109.978 154.06 108.586 154.06 106.906ZM189.777 108.85C189.777 108.418 189.801 107.89 189.849 107.266C189.945 106.594 190.089 105.73 190.281 104.674C190.473 103.57 190.713 102.25 191.001 100.714C191.337 99.1778 191.745 97.3298 192.225 95.1698C192.321 94.6898 192.537 93.9218 192.873 92.8658C193.209 91.8098 193.641 90.7058 194.169 89.5538C194.745 88.3538 195.417 87.2018 196.185 86.0978C197.001 84.9938 197.961 84.1778 199.065 83.6498C199.881 83.8418 200.961 84.3458 202.305 85.1618C203.649 85.9298 204.801 87.0098 205.761 88.4018C204.657 89.6498 203.721 90.8978 202.953 92.1458C202.233 93.3938 201.561 94.6898 200.937 96.0338C200.361 97.3778 199.809 98.7698 199.281 100.21C198.801 101.65 198.249 103.162 197.625 104.746C197.097 106.09 196.617 107.482 196.185 108.922C195.753 110.314 195.513 111.538 195.465 112.594C195.465 113.458 195.441 114.058 195.393 114.394C195.393 114.778 195.273 114.97 195.033 114.97C194.841 114.97 194.457 114.85 193.881 114.61C193.305 114.37 192.705 114.01 192.081 113.53C191.505 113.002 190.977 112.354 190.497 111.586C190.017 110.818 189.777 109.906 189.777 108.85ZM203.529 77.6018C203.529 77.3138 203.601 76.8818 203.745 76.3058C203.505 76.0658 203.289 75.7058 203.097 75.2258C202.953 74.7458 202.881 74.3138 202.881 73.9298C202.881 73.4978 202.929 72.9218 203.025 72.2018C203.169 71.4338 203.337 70.6178 203.529 69.7538C203.721 68.8898 203.961 68.0018 204.249 67.0898C204.537 66.1298 204.825 65.2658 205.113 64.4978C205.689 64.4978 206.385 64.6658 207.201 65.0018C208.065 65.2898 208.929 65.6978 209.793 66.2258C210.657 66.7058 211.449 67.2578 212.169 67.8818C212.889 68.4578 213.441 69.0098 213.825 69.5378C213.297 70.0658 212.601 70.8098 211.737 71.7698C210.873 72.6818 210.033 73.6658 209.217 74.7218C208.401 75.7298 207.657 76.6898 206.985 77.6018C206.313 78.5138 205.881 79.1618 205.689 79.5458C205.113 79.4498 204.609 79.2098 204.177 78.8258C203.745 78.3938 203.529 77.9858 203.529 77.6018ZM218.385 78.7538C219.633 79.1378 220.809 80.0018 221.913 81.3458C223.017 82.6418 223.833 84.0818 224.361 85.6658C223.833 86.9618 223.017 88.5218 221.913 90.3458C220.809 92.1698 219.705 94.0418 218.601 95.9618C217.497 97.8338 216.489 99.6338 215.577 101.362C214.713 103.042 214.209 104.434 214.065 105.538C214.833 104.722 215.673 103.786 216.585 102.73C217.545 101.626 218.457 100.546 219.321 99.4898C220.233 98.3858 221.073 97.4018 221.841 96.5378C222.609 95.6258 223.209 94.9538 223.641 94.5218C224.553 93.5618 225.633 92.4578 226.881 91.2098C228.129 89.9138 229.425 88.7138 230.769 87.6098C232.161 86.4578 233.553 85.4978 234.945 84.7298C236.337 83.9138 237.609 83.5058 238.761 83.5058C240.009 83.5058 241.041 83.9378 241.857 84.8018C242.721 85.6178 243.393 86.4818 243.873 87.3938C243.873 87.4898 243.681 87.6338 243.297 87.8258C242.961 87.9698 242.457 88.4258 241.785 89.1938C241.113 90.0578 240.345 91.2578 239.481 92.7938C238.665 94.2818 237.849 95.9138 237.033 97.6898C236.265 99.4178 235.617 101.194 235.089 103.018C234.561 104.842 234.297 106.498 234.297 107.986C234.297 109.186 234.441 109.954 234.729 110.29C235.065 110.626 235.521 110.794 236.097 110.794C236.625 110.794 237.177 110.674 237.753 110.434C238.329 110.194 238.785 110.074 239.121 110.074C239.313 110.17 239.457 110.386 239.553 110.722C239.697 111.01 239.769 111.274 239.769 111.514C239.385 111.85 238.929 112.186 238.401 112.522C237.873 112.858 237.321 113.17 236.745 113.458C236.169 113.746 235.593 113.986 235.017 114.178C234.489 114.37 234.009 114.466 233.577 114.466C232.185 114.466 231.033 114.25 230.121 113.818C229.257 113.434 228.561 112.906 228.033 112.234C227.553 111.562 227.217 110.77 227.025 109.858C226.833 108.898 226.737 107.89 226.737 106.834C226.737 106.258 226.785 105.61 226.881 104.89C226.977 104.17 227.169 103.33 227.457 102.37C227.745 101.362 228.153 100.186 228.681 98.8418C229.209 97.4498 229.881 95.7938 230.697 93.8738C230.601 93.8738 229.953 94.2098 228.753 94.8818C227.553 95.5538 226.257 96.5858 224.865 97.9778C222.609 100.138 220.569 102.274 218.745 104.386C216.969 106.498 215.145 108.85 213.273 111.442C212.217 112.93 211.281 114.178 210.465 115.186C209.697 116.242 209.025 116.938 208.449 117.274C207.441 116.698 206.697 115.882 206.217 114.826C205.737 113.818 205.377 112.762 205.137 111.658C205.137 110.746 205.257 109.594 205.497 108.202C205.785 106.81 206.145 105.274 206.577 103.594C207.057 101.866 207.633 100.066 208.305 98.1938C208.977 96.3218 209.721 94.4498 210.537 92.5778C212.361 88.3538 214.017 85.0418 215.505 82.6418C217.041 80.2418 218.001 78.9458 218.385 78.7538ZM231.06 135.13C231.06 134.842 231.156 134.578 231.348 134.338C231.54 134.098 231.756 133.858 231.996 133.618C232.572 134.146 233.076 134.554 233.508 134.842C233.892 135.13 234.276 135.37 234.66 135.562C234.996 135.754 235.356 135.874 235.74 135.922C236.124 135.97 236.58 135.994 237.108 135.994C239.604 135.994 241.98 135.322 244.236 133.978C246.492 132.682 248.604 130.786 250.572 128.29C252.588 125.794 254.412 122.746 256.044 119.146C257.676 115.546 259.116 111.466 260.364 106.906C259.788 107.482 259.068 108.13 258.204 108.85C257.388 109.522 256.524 110.17 255.612 110.794C254.7 111.418 253.788 111.994 252.876 112.522C252.012 113.05 251.268 113.434 250.644 113.674C249.828 113.53 249.06 113.194 248.34 112.666C247.668 112.09 247.068 111.394 246.54 110.578C246.012 109.762 245.604 108.85 245.316 107.842C245.028 106.786 244.884 105.682 244.884 104.53C244.884 102.658 245.22 100.738 245.892 98.7698C246.612 96.8018 247.548 94.8818 248.7 93.0098C249.852 91.0898 251.196 89.2898 252.732 87.6098C254.316 85.9298 255.972 84.4658 257.7 83.2178C259.476 81.9698 261.252 80.9858 263.028 80.2658C264.852 79.4978 266.628 79.1138 268.356 79.1138C270.036 79.1138 271.284 79.4738 272.1 80.1938C272.964 80.8658 273.588 82.0418 273.972 83.7218C273.444 83.4338 272.772 83.2898 271.956 83.2898C270.804 83.2898 269.46 83.7458 267.924 84.6578C266.436 85.5698 264.9 86.7698 263.316 88.2578C261.78 89.6978 260.244 91.3778 258.708 93.2978C257.172 95.1698 255.804 97.0898 254.604 99.0578C253.452 101.026 252.492 102.946 251.724 104.818C251.004 106.69 250.644 108.37 250.644 109.858C250.644 110.194 250.668 110.41 250.716 110.506C250.764 110.554 250.836 110.578 250.932 110.578C251.364 110.578 251.94 110.338 252.66 109.858C253.428 109.378 254.268 108.778 255.18 108.058C256.14 107.29 257.124 106.426 258.132 105.466C259.14 104.458 260.1 103.45 261.012 102.442C263.076 100.138 264.948 97.5698 266.628 94.7378C268.356 91.8578 269.724 89.0738 270.732 86.3858C272.028 86.4818 273.18 86.6978 274.188 87.0338C275.196 87.3698 275.892 87.7298 276.276 88.1138C274.644 91.8578 273.324 95.0018 272.316 97.5458C271.356 100.09 270.516 102.346 269.796 104.314C268.5 107.77 267.276 110.914 266.124 113.746C265.02 116.626 263.868 119.266 262.668 121.666C261.516 124.114 260.244 126.37 258.852 128.434C257.508 130.546 255.972 132.562 254.244 134.482C253.428 135.394 252.492 136.186 251.436 136.858C250.428 137.578 249.372 138.178 248.268 138.658C247.212 139.138 246.156 139.498 245.1 139.738C244.092 139.978 243.156 140.098 242.292 140.098C241.14 140.098 239.964 139.954 238.764 139.666C237.564 139.426 236.46 139.066 235.452 138.586C234.396 138.154 233.484 137.626 232.716 137.002C231.948 136.426 231.396 135.802 231.06 135.13ZM327.914 74.0018C327.914 76.9778 327.098 79.6418 325.466 81.9938C323.834 84.2978 321.602 86.2178 318.77 87.7538C320.594 89.0018 322.034 90.5378 323.09 92.3618C324.194 94.1378 324.746 96.1058 324.746 98.2658C324.746 100.858 323.954 103.426 322.37 105.97C320.834 108.466 318.77 110.698 316.178 112.666C313.586 114.586 310.634 116.146 307.322 117.346C304.01 118.546 300.626 119.146 297.17 119.146C293.426 119.146 290.138 118.426 287.306 116.986C284.522 115.594 282.338 113.602 280.754 111.01C281.234 109.57 281.858 107.794 282.626 105.682C283.442 103.522 284.33 101.266 285.29 98.9138C286.25 96.5138 287.21 94.1378 288.17 91.7858C289.178 89.4338 290.114 87.3218 290.978 85.4498C292.802 81.3698 294.434 77.9858 295.874 75.2978C297.314 72.6098 298.634 70.4738 299.834 68.8898C297.194 69.7058 294.794 70.6418 292.634 71.6978C290.474 72.7058 288.89 73.6898 287.882 74.6498C287.45 74.3618 286.994 73.9298 286.514 73.3538C286.082 72.7778 285.65 72.1538 285.218 71.4818C284.834 70.7618 284.498 70.0418 284.21 69.3218C283.97 68.6018 283.826 67.9538 283.778 67.3778C285.026 66.5138 286.634 65.6978 288.602 64.9298C290.618 64.1138 292.802 63.4178 295.154 62.8418C297.506 62.2658 299.906 61.8098 302.354 61.4738C304.85 61.1378 307.226 60.9698 309.482 60.9698C315.242 60.9698 319.754 62.1218 323.018 64.4258C326.282 66.7298 327.914 69.9218 327.914 74.0018ZM300.482 91.2098C299.57 90.7778 298.73 90.1298 297.962 89.2658C296.858 91.7138 295.802 94.1138 294.794 96.4658C293.834 98.8178 292.97 101.002 292.202 103.018C291.434 105.034 290.81 106.786 290.33 108.274C289.85 109.762 289.586 110.842 289.538 111.514C290.21 111.898 291.002 112.186 291.914 112.378C292.874 112.57 294.05 112.666 295.442 112.666C298.706 112.666 301.826 112.21 304.802 111.298C307.778 110.386 310.394 109.162 312.65 107.626C314.906 106.042 316.706 104.242 318.05 102.226C319.394 100.21 320.066 98.0978 320.066 95.8898C320.066 92.7218 318.698 90.4418 315.962 89.0498C312.218 90.5858 307.994 91.3538 303.29 91.3538C302.618 91.3538 302.09 91.3538 301.706 91.3538C301.37 91.3538 300.962 91.3058 300.482 91.2098ZM314.45 66.2258C313.442 66.2258 312.362 66.2978 311.21 66.4418C310.106 66.5378 308.93 66.7058 307.682 66.9458C307.874 67.1378 308.018 67.3538 308.114 67.5938C308.258 67.7858 308.378 68.0018 308.474 68.2418C308.042 68.8178 307.514 69.6578 306.89 70.7618C306.266 71.8658 305.57 73.1618 304.802 74.6498C304.034 76.0898 303.218 77.6978 302.354 79.4738C301.538 81.2498 300.698 83.0738 299.834 84.9458C300.65 84.7538 301.634 84.6098 302.786 84.5138C303.986 84.3698 305.162 84.2978 306.314 84.2978C306.938 84.2978 307.538 84.3218 308.114 84.3698C308.738 84.4178 309.338 84.4898 309.914 84.5858C312.218 84.2018 314.282 83.6498 316.106 82.9298C317.978 82.1618 319.586 81.2978 320.93 80.3378C322.274 79.3298 323.306 78.2258 324.026 77.0258C324.746 75.8258 325.106 74.5538 325.106 73.2098C325.106 70.9058 324.194 69.1778 322.37 68.0258C320.546 66.8258 317.906 66.2258 314.45 66.2258ZM337.912 116.194C335.176 115.906 332.992 114.706 331.36 112.594C329.728 110.482 328.912 107.794 328.912 104.53C328.912 102.61 329.2 100.618 329.776 98.5538C330.352 96.4898 331.168 94.4978 332.224 92.5778C333.28 90.6098 334.528 88.7618 335.968 87.0338C337.408 85.3058 338.968 83.8178 340.648 82.5698C343.288 80.6018 345.76 79.6178 348.064 79.6178C349.6 80.4338 351.112 82.1378 352.6 84.7298C352.84 84.7298 353.056 84.7298 353.248 84.7298C353.44 84.6818 353.656 84.6578 353.896 84.6578C356.44 84.6578 357.712 86.9138 357.712 91.4258C357.712 94.4498 357.208 97.3298 356.2 100.066C355.24 102.754 353.872 105.202 352.096 107.41C350.368 109.618 348.28 111.49 345.832 113.026C343.432 114.514 340.792 115.57 337.912 116.194ZM341.584 93.5138C340.768 94.6178 340 95.8178 339.28 97.1138C338.56 98.4098 337.936 99.7298 337.408 101.074C336.88 102.37 336.472 103.642 336.184 104.89C335.896 106.09 335.752 107.17 335.752 108.13C335.752 109.282 335.944 110.386 336.328 111.442C336.712 112.498 337.144 113.098 337.624 113.242C339.784 112.762 341.752 111.874 343.528 110.578C345.352 109.234 346.912 107.578 348.208 105.61C349.552 103.642 350.584 101.41 351.304 98.9138C352.072 96.4178 352.456 93.7538 352.456 90.9218C352.456 89.6738 352.384 88.6898 352.24 87.9698C352.096 87.2498 351.856 86.6258 351.52 86.0978C349.408 86.7218 347.512 87.7298 345.832 89.1218C344.2 90.5138 342.784 91.9778 341.584 93.5138ZM382.535 113.242C382.007 114.058 381.167 114.706 380.015 115.186C378.911 115.714 377.855 116.026 376.847 116.122C376.031 115.162 375.119 113.866 374.111 112.234C373.103 110.554 372.143 108.61 371.231 106.402C368.783 108.61 366.335 110.626 363.887 112.45C361.439 114.226 359.159 115.738 357.047 116.986C356.519 116.89 356.087 116.602 355.751 116.122C355.415 115.642 355.223 115.018 355.175 114.25C356.135 113.722 357.263 113.026 358.559 112.162C359.903 111.298 361.247 110.362 362.591 109.354C363.983 108.298 365.303 107.218 366.551 106.114C367.847 104.962 368.951 103.858 369.863 102.802C369.047 100.882 368.279 98.9138 367.559 96.8978C366.887 94.8338 366.287 92.8658 365.759 90.9938C365.279 89.0738 364.895 87.3458 364.607 85.8098C364.319 84.2258 364.175 82.9538 364.175 81.9938C364.175 81.3218 364.247 80.8898 364.391 80.6978C364.583 80.4578 364.991 80.3378 365.615 80.3378C366.095 80.3378 366.671 80.3858 367.343 80.4818C368.063 80.5778 368.783 80.6978 369.503 80.8418C370.223 80.9858 370.943 81.1538 371.663 81.3458C372.383 81.4898 373.007 81.6578 373.535 81.8498C373.439 82.3778 373.391 82.8338 373.391 83.2178C373.391 83.6018 373.391 84.1538 373.391 84.8738C373.391 86.7458 373.535 88.6658 373.823 90.6338C374.159 92.5538 374.687 94.6418 375.407 96.8978C377.375 94.6418 379.199 92.1458 380.879 89.4098C382.559 86.6258 384.263 83.3138 385.991 79.4738C387.191 79.7138 388.223 80.0738 389.087 80.5538C389.951 80.9858 390.503 81.4658 390.743 81.9938C390.215 84.2018 388.727 86.9858 386.279 90.3458C383.831 93.7058 380.711 97.2818 376.919 101.074C377.591 102.898 378.407 104.842 379.367 106.906C380.327 108.922 381.383 111.034 382.535 113.242Z" fill="black"/>
<path d="M79.541 43.0741C78.7679 44.5187 77.7268 45.8029 76.4735 46.8582L76.3722 46.9339L86.3443 60.2776L86.2582 60.3419C84.0453 59.7286 82.4337 59.7218 81.266 60.3419C69.768 63.1738 71.9848 66.0383 67.0453 69.7286C63.3203 72.5084 61.0453 74.7286 56.4529 81.0141C54.357 82.9513 52.3064 85.0442 50.3543 87.1738L40.4163 73.8757C40.4163 73.8757 40.3822 73.8302 40.338 73.8238C39.8897 73.4879 38.7163 73.5125 38.7163 73.5125L37.5981 74.5296C30.1337 80.108 19.3325 77.6517 15.268 69.2771C13.5041 65.639 13.3693 61.6357 15.5487 58.9336C23.0332 49.6861 29.3727 42.3914 32.5375 32.0314C35.3096 22.8567 45.2571 9.97703 66.2006 10.5439C83.7039 11.038 85.4218 32.6416 79.541 43.0741Z" fill="white"/>
<path d="M79.7642 43.5181C78.9248 45.0992 77.7593 46.4841 76.3447 47.581C77.4265 45.6282 81.0937 39.4782 77.178 30.574C77.178 30.574 74.6014 40.739 71.0191 42.3981C71.0191 42.3981 71.8762 37.3142 67.6315 26.3434C67.6674 26.8139 68.9945 41.8433 61.3436 48.5555C61.3436 48.5555 65.0229 36.7929 53.5501 27.0805C53.5501 27.0805 59.5873 56.0161 50.8601 51.0865C44.4369 47.4657 44.0042 47.6154 43.9789 47.6343C43.9536 47.6533 52.5895 57.1181 47.549 56.8047C44.1672 56.5824 40.8021 56.1531 37.4728 55.5193C37.4728 55.5193 39.3037 59.8807 45.4543 61.014C45.4543 61.014 33.2901 71.7936 23.4336 66.2716C23.4336 66.2716 29.2284 75.0816 39.7877 68.8713C39.7877 68.8713 36.2822 73.6851 32.9661 73.4721C32.9661 73.4721 34.6474 75.1516 38.9585 73.9502L37.8403 74.9674C35.1875 76.9623 31.9454 78.0161 28.6266 77.9621C25.886 77.9522 23.2029 77.175 20.8814 75.7185C18.5598 74.262 16.6925 72.1844 15.4912 69.7211C13.7273 66.083 13.5925 62.0797 15.7719 59.3777C23.2564 50.1301 29.5959 42.8354 32.7607 32.4754C34.2843 27.619 37.04 23.2401 40.7595 19.7656C46.2671 14.6315 54.5682 10.6693 66.3732 10.9942C83.9271 11.482 85.645 33.0856 79.7642 43.5181Z" fill="white"/>
<path d="M40.7585 19.7663C40.8361 22.4786 41.0893 26.6932 34.5366 40.3664C27.6756 54.6725 7.88809 62.7281 28.6106 77.9425C25.8747 77.9317 23.1963 77.1562 20.8778 75.7036C18.5594 74.2509 16.6933 72.179 15.4902 69.7218C13.7263 66.0837 13.5916 62.0804 15.7709 59.3784C23.2555 50.1308 29.595 42.8361 32.7598 32.4761C34.2833 27.6197 37.0391 23.2408 40.7585 19.7663Z" fill="#E2E3E5"/>
<path d="M71.0194 42.3899C71.0194 42.3899 71.8766 37.3061 67.6318 26.3353C67.6677 26.8057 68.9948 41.8352 61.3439 48.5473C61.3439 48.5473 65.0232 36.7848 53.5504 27.0724C53.5504 27.0724 59.5876 56.008 50.8604 51.0784C44.4372 47.4576 44.0045 47.6073 43.9792 47.6262C43.9539 47.6451 52.5899 57.1099 47.5493 56.7966C44.1672 56.5772 40.8018 56.1509 37.4718 55.52C37.4718 55.52 39.3028 59.8815 45.4533 61.0148C45.4533 61.0148 33.2892 71.7943 23.4327 66.2723C23.4327 66.2723 29.2274 75.0823 39.7868 68.872C39.7868 68.872 36.2813 73.6859 32.9652 73.4728C32.9652 73.4728 34.6464 75.1523 38.9575 73.9509C38.9575 73.9509 40.1309 73.9264 40.5792 74.2622C40.5792 74.2622 40.617 74.3128 40.6575 74.3142L50.5917 87.6072C52.5438 85.4776 54.5665 83.4213 56.6739 81.4361C54.3853 77.7718 52.4418 73.4076 52.8132 69.9337C53.5716 62.6585 63.0883 53.2892 71.465 51.6776C72.5038 51.4688 73.5805 51.5583 74.5706 51.9356C75.5607 52.313 76.4238 52.9628 77.0601 53.8101C79.1716 56.612 79.9994 57.6437 81.768 60.6738C82.939 60.0512 83.768 59.6738 86.435 60.7575L86.521 60.6932L76.583 47.395L76.7096 47.3004C77.86 45.2174 80.9843 39.2916 77.177 30.5747C77.1631 30.5772 74.5866 40.7422 71.0194 42.3899Z" fill="#E2E3E5"/>
<path d="M85.382 59.1373L87.268 61.1738C84.268 60.6738 83.268 60.6738 82.268 60.6738C77.6582 60.6738 75.3941 61.5477 66.768 70.1738C61.768 75.1738 60.1765 77.1738 56.6751 81.4588C54.9819 83.531 54.268 84.6738 51.768 89.1738L49.3617 85.993C55.2806 79.1704 72.268 53.6738 85.382 59.1373Z" fill="#E2E3E5"/>
</svg>
